<svg xmlns="http://www.w3.org/2000/svg" xmlns:xlink="http://www.w3.org/1999/xlink" viewBox="0 0 1281 800"><style>.st0{fill:#e7e8ec}.st1{fill:#75aeb9}.st2{fill:#b9cdeb}.st3{fill:#c9dcf8}.st5{fill:#afc3e3}.st6{fill:#d4e3f9}.st7{opacity:.34;fill:#232121}.st8{fill:#bee696}.st9{fill:#f1db7d}.st10{fill:#96cd7c}.st13{opacity:.32;fill:#232121}.st14{fill:#5e8e44}.st15{fill:#8ebd5c}.st16{fill:#a66c78}.st17{fill:#864a54}.st21{fill:#a16b77}.st22{fill:#6c8a56}.st26{clip-path:url(#SVGID_2_);fill:#69552e}.st30{fill:#3b2722}.st32{fill:#f15128}.st33{fill:#eff0f0}.st38{fill:#a4a5a8}.st41{clip-path:url(#SVGID_4_);fill:#69552e}.st43{fill:#4a7337}.st45{fill:#69552e}.st47{fill:#59714b}.st48{fill:#5e4a31}.st49{fill:#304a23}.st50{fill:#875d46}.st51{fill:#66a32e}.st52{fill:#4d7a23}.st53{fill:#654635}.st54{fill:#6b2379}.st55{opacity:.48;fill:#3c3939}.st56{fill:#302f30}.st62{fill:#f7ba99}.st63{fill:#595959}.st64{fill:#fff}.st66{fill:#bfbfbf}.st68{fill:#ff882a}.st70{fill:#313547}.st72{fill:#cf9c80}.st74{fill:#b08b5f}.st79{fill:#7b5059}.st80{fill:#2c481f}.st82{fill:#232121}.st84{opacity:.32;fill:#3c3939}.st92{fill:#6b6c6f}.st96{fill:#57585a}.st98{fill:#909093}.st99{fill:#a7a6f6}.st100{fill:#9190db}.st101{fill:#cacafa}.st102{opacity:.52;fill:#fff}.st104{fill:#ffdf57}.st105{fill:#ebcb44}.st106{fill:#ffec9a}.st107{fill:#639fab}.st108{fill:#acced5}.st109{fill:#83bf66}</style><path id="BG" d="M1 1h1280v800H1z" class="st0"/><g id="Sky"><path d="M164 601c-42-1-42-10-81-25S9 530 5 491c-5-52 43-95 87-128l214-163c22-17 45-34 71-44 27-10 58-13 83 0 39 19 55 67 95 84 34 14 75 0 103-22S813 63 865 41c57-25 123 6 137 64 12 53 40 103 80 142 51 50 120 83 159 142 44 65 40 153 1 221a352 352 0 01-187 145c-77 28-161 36-244 38-178 4-357-23-525-79-29-10-58-20-82-39-23-18-41-45-40-74z" class="st1"/><path d="M582 188S664 74 762 41s-47 86-74 103c-26 17-115 86-106 44zM36 292s7-73 91-123 115 3 58 49S51 324 36 292M221 41c-2 9-9 17-15 23-21 22-43 44-65 60a88 88 0 01-47 20c-9 0-6-18 4-29h1c6-8 13-12 20-17l81-58c7-5 13-9 18-7 2 1 4 4 3 8z" class="st1"/></g><path id="Buildings_1" d="M578 203h51v165h-51z" class="st2"/><path id="Buildings_2" d="M734 266h87v141h-87z" class="st2"/><path id="Buildings_3" d="M598 259h51v131h-51z" class="st3"/><g id="Buildings_4"><path fill="#dde9fa" d="M584 280h46v76h-46z" transform="rotate(-180 607 318)"/><path d="M580 280h54v9h-54z" class="st5" transform="rotate(-180 607 285)"/><path d="M580 327h54v9h-54z" class="st5" transform="rotate(-180 607 332)"/><path d="M586 338h8v11h-8zM598 338h8v11h-8zM610 338h8v11h-8zM622 338h8v11h-8zM586 291h8v11h-8zM598 291h8v11h-8zM610 291h8v11h-8zM622 291h8v11h-8zM586 303h8v11h-8zM598 303h8v11h-8zM610 303h8v11h-8zM622 303h8v11h-8zM586 315h8v11h-8zM598 315h8v11h-8zM610 315h8v11h-8zM622 315h8v11h-8z" class="st2"/></g><path id="Buildings_5" d="M543 261h32v107h-32z" class="st3"/><path id="Buildings_6" d="M338 407h-71V252l71 31z" class="st2"/><path id="Buildings_7" d="M311 307h71v100h-71z" class="st3"/><path id="Buildings_8" d="M363 237h45v170h-45z" class="st2"/><path id="Buildings_9" d="M391 295h61v111h-61z" class="st2"/><path id="Buildings_10" d="M517 407h-61V256l61 22z" class="st2"/><path id="Buildings_11" d="M431 307h102v61H431z" class="st3"/><g id="Buildings_12"><path d="M357 321h79v41h-79z" class="st6" transform="rotate(-180 396 342)"/><path d="M395 338h42v8h-42z" class="st2" transform="rotate(90 416 342)"/><path d="M400 342h39v2h-39z" class="st7" transform="rotate(90 419 343)"/><path d="M357 338h42v8h-42z" class="st2" transform="rotate(90 378 342)"/><path d="M361 342h39v2h-39z" class="st7" transform="rotate(90 380 343)"/><path d="M354 316h87v8h-87z" class="st2" transform="rotate(-180 397 320)"/><path d="M438 316l-42-26-39 26z" class="st6"/></g><path id="Buildings_13" d="M219 307h71v100h-71z" class="st3"/><path id="Buildings_14" d="M703 385h-51V252l51-54z" class="st2"/><path id="Buildings_15" d="M714 279h32v107h-32z" class="st3"/><path id="Buildings_16" d="M865 290h124v113H865z" class="st2"/><path id="Buildings_17" d="M787 207h66v232h-66z" class="st3"/><g id="Landscape_6"><path d="M247 375s198-79 536-4 497 0 497 0l1 430H1L0 548l247-173" class="st8"/><path d="M403 342h9s-20 14 34 24l53 5c36 3 76-20 89-29l10 1c-29 22-83 30-83 37-1 10 95 77 161 84a1232 1232 0 00-11 0c-53-6-139-58-165-81-5-6-31-10-49-12-25-1-67-17-48-29z" class="st9"/></g><path id="Landscape_6_Tree" d="M489 404l-8 40c4 3 15 3 19 0l-11-40z" class="st10"/><path id="Landscape_6_Tree_1_" d="M460 373l-14 68c8 6 25 4 33 0l-19-68z" class="st10"/><path id="Landscape_6_Tree_2_" d="M507 389l-10 51c6 3 18 3 25-1l-15-50z" class="st10"/><g id="Landscape_back"><path d="M308 387l145 29c52 12 107 7 157-13l128-45c3-2 7-3 11-3l227-42 305-33-1 239-744 147c-10 2-21 1-30-3L180 523a51 51 0 016-95l122-41z" class="st10"/><path d="M482 475s418-52 371-93-115-24-115-24 79-16 128 17c49 32-84 69-354 112l-30-12z" class="st9"/><path fill="#232121" d="M311 387c5 3 474 97 474 97l-445-63-29-34z" opacity=".2"/><path fill="none" d="M4 3l1277-2v800H1z"/><path d="M1281 303v-24l-299 33-233 42s336-51 532-51z" class="st13"/></g><path id="Landscape_back_Tree_1" d="M1157 402l-13 64c8 4 24 3 31-1l-18-63z" class="st14"/><path id="Landscape_back_Tree_2" d="M1134 412l-10 51c6 3 18 3 24-1l-14-50z" class="st14"/><path id="Landscape_back_Tree_3" d="M1256 234l-13 64c8 5 24 4 32 0l-19-64z" class="st15"/><path id="Landscape_back_Tree_4" d="M1229 207l-18 85c11 7 32 5 42 0l-24-85z" class="st15"/><path id="Landscape_back_Tree_5" d="M1133 252l-10 50c6 3 18 3 24-1l-14-49z" class="st15"/><path id="Landscape_back_Tree_6" d="M1110 253l-11 50c6 4 19 3 25 0l-14-50z" class="st15"/><g id="Sign"><path d="M499 365l-2-2v-51l2-2 2 2v51l-2 2z" class="st16"/><path d="M499 310h-1l2 2v52l-2 1h1l2-1v-52l-2-2z" class="st17"/></g><g id="Sign_2"><path d="M516 333h-36l-1-1-5-4v-2l5-6h38l5 5v2l-5 5-1 1z" class="st16"/><path d="M512 323v6l4-3zM486 329v-6l-5 3z" class="st17"/><path d="M485 325h27v2h-27z" class="st17"/></g><path id="Mist_back_2" fill="#fff" d="M1281 352l-35-6c-51-7-138-15-130 19 12 47-41 54-84 41s-73-7-179 10a832 832 0 01-221 20s187 32 645 32l4-116z" opacity=".2"/><g id="Landscape_5"><path fill="#709a5b" d="M46 226c21 0 39 11 48 29l18 37c6 13 18 23 33 28l104 30 12 5 154 91c40 23 85 33 131 28l59-6c5-1 11 0 16 1l411 79 244 48 4 204H1L0 230s19-4 46-4z"/><path fill="#f1d970" d="M256 353s-44 4-71 46c-36 57 142 60 219 78l15 4c16 5 38 15 75 24 26 6 66 11 99 15s88 13 132 17l35-10c-24-1-73-7-116-11-31-4-69-5-113-14-35-6-65-19-75-22-32-8-71-16-114-23-53-9-155-23-148-50 9-33 65-53 70-50l-8-4z"/><path d="M93 254c11 22 22 48 33 56 0 0-116 15-65 26 45 9 158 13 188 15 4 0 8 2 11 4l36 20s31 19-52 0c-91-21-140 7-87 20 52 13 153-1 122 21h-1c-26 11-81 18-42 28a1094 1094 0 00252 36l119-12s111 30 62 45-282 4-235 30c46 25 367 16 367 16L289 679 0 635V229c33-4 48-3 48-3 19 0 37 11 45 28z" class="st7"/><path d="M180 291l6-1-5 1zM160 288l1 6 2 2z" class="st21"/></g><g id="Landscape_5_Tree_1"><path d="M177 311c0 3 1 7 3 10 3 2 6 4 10 3 3 0 6-3 8-5l2-10-1-9-8-5-5 2c-5 3-8 8-9 14z" class="st22"/><path d="M186 340h2v-20s7 1 6-9c0 0-1 9-6 8l2-16-1 6s-2-1-1-7c0 0-2 6 1 8 0 0-2 9-3 30z" class="st21"/></g><g id="Landscape_5_Tree_2"><path d="M177 319l10-5c5-4 8-11 9-17a26 26 0 00-17-26c-7-3-16-1-21 4-6 5-9 12-10 19 0 7 3 14 9 19 5 5 13 7 20 6z" class="st8"/><path d="M171 341h2s2-53 0-62c0 0 0 50-2 62zM174 296l12-12-12 14z" class="st21"/><path d="M174 305l-18-15 17 17z" class="st21"/></g><g id="Lanscape_4"><defs><path id="SVGID_1_" d="M4 3l1277-2v800H1"/></defs><clipPath id="SVGID_2_"><use overflow="visible" xlink:href="#SVGID_1_"/></clipPath><path fill="#5e8e44" d="M321 630l270-72 101-9c9-1 17-3 25-6l230-91c15-6 31-9 48-9h139c23 0 45-12 58-31l90-132-1 521H1l320-171z" clip-path="url(#SVGID_2_)"/><path fill="#232121" d="M362 619l923-20-782-18z" clip-path="url(#SVGID_2_)" opacity=".1"/><path fill="#f1d970" d="M1014 443c68 6 85 110 85 110l29-19s-57-95-99-91h-15z" clip-path="url(#SVGID_2_)"/><path d="M1123 526c-54-86-89-83-89-83s31-3 88 83h1z" class="st26"/><path d="M1014 443s59-3 85 110l3-3c0 1-26-105-88-107z" class="st26"/><path fill="#3c3939" d="M1003 443c-21 0-41 4-61 11l-173 69c34-7 70-12 108-14 38-3 117-51 196-47 80 3 147 54 151 8s75-163 75-163l-18-27-86 127c-15 23-32 36-64 36h-128z" clip-path="url(#SVGID_2_)" opacity=".3"/></g><g id="Target"><path fill="#232121" d="M167 393c-8 1-20-7-19-12 0-4 13-4 24-2 12 1 39 8-5 14z" opacity=".4"/><path d="M190 385l-21-23 2-1 21 23-2 1z" class="st30"/><path d="M164 393l9-31-1-1-11 32h3zM148 382l24-26-1-1-24 25 1 2z" class="st30"/><path fill="#792914" d="M190 353c-2-13-11-23-22-25h-5c-12 2-20 15-18 31 1 15 13 26 25 25l5-1c10-4 16-16 15-30z"/><ellipse cx="171.5" cy="355.6" class="st32" rx="22.7" ry="27.9" transform="rotate(-7 172 356)"/><ellipse cx="171.5" cy="355.6" class="st33" rx="18" ry="22.1" transform="rotate(-7 172 356)"/><ellipse cx="171.5" cy="355.6" class="st32" rx="12.4" ry="15.3" transform="rotate(-7 172 356)"/><ellipse cx="171.5" cy="355.6" class="st33" rx="7.6" ry="9.3" transform="rotate(-7 172 356)"/><path fill="#232121" d="M183 332l-22 48c4 2 9 4 14 3 12-1 21-15 19-30-1-9-5-16-11-21z" opacity=".1"/><ellipse cx="171.5" cy="355.6" class="st32" rx="3.1" ry="3.8" transform="rotate(-7 172 356)"/><path fill="#232121" d="M172 356l15 21v-1l-15-21z" opacity=".3"/></g><g id="Arrow"><path fill="#cfcfd0" d="M192 347l1-6 7-2v5l3 3-7 3z"/><path fill="#554835" d="M172 356v-1l30-13v1z"/><path d="M193 341v4l1-4zM195 340v3l1-3zM196 340l1 4v-4zM198 339v3l2-3zM196 350l-1-3 1 2v-1l1 2zM198 349l-2-3 3 3-1-1 1 1zM201 348l-2-3 3 3z" class="st38"/></g><g id="Lanscape_3"><defs><path id="SVGID_3_" d="M4 3l1277-2v800H1"/></defs><clipPath id="SVGID_4_"><use overflow="visible" xlink:href="#SVGID_3_"/></clipPath><path fill="#487435" d="M1280 688c-42-13-86-25-164-30-144-9-221-42-251-58 134 60 207-57 299-122 0 0 3 0 10-5 6-4 4-4 4-4 11-6 27-16 40-20l62-15v254z" clip-path="url(#SVGID_4_)"/><path fill="#f1d970" d="M1164 478s42-10 58 36c37 107-155 139-155 139l139 14s49-25 63-65c21-61-15-143-91-133 0 0-1 3-14 9z" clip-path="url(#SVGID_4_)"/><path d="M1178 469c77-8 105 76 86 133-13 36-56 60-63 64l5 1s49-25 63-65c21-59-13-143-91-133z" class="st41"/><path d="M1226 516c-21-51-61-38-62-38 0 0 42-10 58 36 37 107-155 139-155 139l28 3c56-16 163-58 131-140z" class="st41"/><path fill="#4b5d3f" d="M1074 553l-4-6c1 1 2 4 7 3 4-1-2-11-2-11s5 7 8 6-2-5-2-5 4 4 5 3 3-5 0-7c-3-1 4 0 4 5l-16 12z" clip-path="url(#SVGID_4_)"/><path d="M759 462l-19 94h44z" class="st43"/></g><g id="Landscape_2"><path d="M1280 687l1 114H1L0 413c25 24 57 40 92 46l39 6 39 50 33 27 65 17 27 9 21 27 7 4c8 4 16 7 25 7h7l28 6 15 11a49 49 0 0054 0l4-3c7-5 16-8 26-8a90 90 0 0146 13l11 6 34 19 14 7c7 4 15 5 23 5a59 59 0 0048-25l34-51 3-5c116-98 274 68 418 77 79 5 125 15 167 29z" class="st43"/><path fill="#e8ce5a" d="M516 717c34-3 123-25 131-45 11-29 46-28 67-40s11-43 20-63c8-16 49-18 50-18l28 2c-11 0-36 3-42 12-8 12 9 63-10 78-19 16-32 22-36 35-6 16-47 37-47 37l-161 2z"/><path d="M667 709s46-14 52-31c4-13 19-20 39-36 21-16 4-66 12-79 6-8 30-10 42-9-11-1-34 2-39 11-8 12 8 63-11 78-19 16-33 22-37 35-6 17-49 30-49 30l-9 1z" class="st45"/><path d="M518 724c34-4 123-26 131-48 10-29 45-28 66-40 21-13 12-46 21-66 8-17 48-19 48-19-8-1-42 2-50 18-9 20 1 51-20 63s-56 11-67 40c-8 21-96 42-131 46l2 6z" class="st45"/><path fill="#22302e" d="M840 561s6 0 7-6c0 1-2 7 1 7 0 0 2-1 1-4 0 0 2 2 1 5l4-1s-1 1 3 3c0 0 4-3 2-10 0 0 4 4 0 11 0 0 1-3 4-3 0 0-3 2 1 4l-3 2-18-5-3-3z"/><path d="M479 614c5-6 3-13 3-13 0 8-8 13-8 13-3-14 7-26 7-26-12 7-12 27-12 27s-3-5 0-16c0 0-4 4-3 16l4 4 9-5z" class="st47"/><path d="M423 642c21 0 22-14 33-22l-4 3a49 49 0 01-54 0l-15-10s30 29 40 29z" class="st13"/><path d="M476 612c0-5 3-8 3-8-2 4 0 9 0 9 6-7 6-17 6-17 3 8-4 19-4 19s3-2 6-8c0 0 0 3-5 9l-3 1-3-5zM216 601c6-6 7-15 5-23" class="st47"/></g><g id="Landscape_2_Tree"><path d="M617 666c-3 1-8 2-13 0v-7h13v7z" class="st48"/><path d="M619 605h-9l8-5-8-33-6 26 6 5-8 1-6 27 9-3-10 10-6 24c10 10 36 6 42-1l-12-51z" class="st43"/><path d="M631 656l-12-51h-4l8 56c4-1 6-3 8-5zM618 600l-8-33 5 35z" class="st49"/></g><g id="Parents_Hand"><path d="M738 468c0 5-8 16-15 22l-5 2-1 1h2c2 0 0 1-1 2-1 2-2 3 0 4 1 1 6-3 8-7 0 0 13-10 15-17 1-7-3-7-3-7z" class="st50"/><path d="M736 483l-4-3c0-5 6-17 11-19v10c1 8-7 12-7 12z" class="st51"/><path d="M737 483v-1c-2 0-4-2-5-3h-1v1l-1 1v1l4 3h1l1-1 1-1z" class="st52"/></g><g id="Parents_Head_Man"><path d="M745 458l1 2 3 3c1 0 3-1 3-3a34 34 0 012-6v-1-1-1l1-6c-1-6-13-6-14-1 0 0-2 14 4 14z" class="st50"/><path d="M756 451c-1 1-2 2-3 1v-3l3-1v3z" class="st50"/><path d="M755 452l1-1-1-2v3zM749 457c2 0-2 1-3 3l-1-2 4-1z" class="st53"/><path d="M754 453l-1 4-1-1 1-2 1-1zM755 448s2-6 1-7-12-9-16-4c-2 3 2 5 2 5h4c4 0 6 0 5 1s2 2 2 2v4l2-1z" class="st54"/></g><g id="Parents"><ellipse cx="752.7" cy="568.4" class="st55" rx="37.7" ry="3"/><path d="M745 566l-13 1c-2-3 5-5 8-5v-3h5v7zM759 566l-13 2c-1-3 6-5 9-5l-1-3h5v6z" class="st50"/><path d="M754 563c0 2 4 1 5 1l1 1v2c-1 1-13 2-14 1-1-3 6-5 8-5zM740 562c-1 2 3 2 5 2v2l-14 1c-1-3 6-5 9-5z" class="st56"/><path d="M758 462s6 4 11 10l10 2c0 1 0 3-2 4l-12-1-9-6 2-9z" class="st52"/><path fill="#0577ae" d="M741 501l-1 60v1h5v-1l7-66-11 6z"/><path fill="#079fe8" d="M745 494l9 68 1 1 4-1v-68h-14z"/><path d="M746 460c-5 1-9 6-9 14a110 110 0 004 27c1 1 8 4 18 0l1-1c0-19 3-34 0-37-3-2-5-3-8-3 0 1-1 2-3 2-3 0-3-2-3-2z" class="st51"/><path d="M741 501l-1-1c-2-6-3-15-3-21 1 3 6 25 23 21l-1 1c-10 4-17 1-18 0z" class="st52"/><path d="M781 479c-1 2-4 2-5 1s0-2 1-4l-1-2c2-1 6 2 5 5z" class="st50"/><path fill="#3a5c1a" d="M759 499s-9 4-18 1c0 0 8 2 18-1z"/><path fill="#9937a4" d="M759 503l2 57h4l5-57h-11z"/><path d="M755 568l10-1v-7h-4v3l-1 1c-5 1-7 3-5 4z" class="st62"/><path d="M768 509l2 1-5 49 3-50z" class="st54"/><path d="M759 565c3 1 6 0 6-1v3c0 1-10 2-12 1-1-1 2-3 6-3z" class="st63"/><path d="M758 565s2 0 1 1l-3-1h2z" class="st62"/><path d="M773 561h5v-58l-11 1c0 12 6 45 6 57z" class="st54"/><path d="M766 570l11-1v-8h-4v4l-1 1c-5 1-8 2-6 4z" class="st62"/><path d="M775 508l2 53 1-54z" class="st54"/><path d="M772 566h6v3c-1 0-10 2-12 1-2-2 1-3 6-4z" class="st63"/><path d="M771 566l1 1h-3l2-1z" class="st62"/><path d="M780 511s-2-33-4-37l-3-2c-4-1-9 0-12 2l-2 2-1 35s5 5 22 0z" class="st64"/><path fill="#6e6e6e" d="M762 508h3l-3 1v-1z"/><path d="M780 511l-1-3c-22 5-20-18-20-18l-1 3v18s5 5 22 0z" class="st66"/><path fill="#919191" d="M766 508h-3l3 1v-1z"/><path d="M760 475l-1 16 3 16 2 1c3 0 5 2 1 3l-2-1c-2 0-3-1-4-3l-4-17c0-3 3-13 5-15z" class="st62"/><path d="M763 508l2-1 11-15-1-12v-5h1l4 18c0 3-13 16-13 16s-2 2-5 2c-4 0-1-3 1-3z" class="st62"/><path d="M774 485v-1c0-7 0-9 2-11 0 0 3 3 4 8 0 0 0 2-6 4zM760 485v-11s-2 2-4 9l4 2z" class="st64"/><path d="M776 474s-3 1-2 10c0 0 0-8 2-10zM760 484s-1-7 2-11c0 0-2 4-2 11z" class="st66"/><g id="Logo"><circle cx="747" cy="479.6" r="7.8" class="st68"/><path d="M741 477v-1h2v1h-2zm1 0v-1h-1v1h1zM745 476v1-1h-1v1h-1v-2l1 1v-1l1 1zM748 477h-2 2l-1 1h-1v-1-1h2v1zm-2-1h1-1zM742 481h-1v-2h-1 1v-1 1h1-1v1h1v1zM745 479v2h-1v-2l-1 2-1-2h1v1l1-1 1 1v-1zM746 481v-1-1h1v1c1 0 1 0 0 0v1h-1zm1-1v-1h-1v1h1c1 0 0 0 0 0zM741 484v-1-1h0v1c0 1 0 0 0 0h1l-1 1zM745 482v2h-1v-1 1h-1v-1l1-1h-1l1-1 1 1zm-1 1zM747 482h-1v1-1h1zM749 483h-1 1l-1 1-1-1v-1h2v1zm-1-1h0zM752 483h-2 2l-1 1-1-1v-1h2v1zm-1-1h-1 1zM657 544l1 1h-1l-1 1v2h-1v-4h1v1l1-1z" class="st64"/></g></g><g id="Parents_Head_Woman"><path fill="#501a5b" d="M765 449s-8 0-6 7 10 2 10 1l-4-8z"/><path d="M765 455s1 7-6 13c0 0 4 2 10 2 7 0 4-15 4-15h-8z" class="st70"/><path d="M759 462c0 5 2 5 3 6 3 0 3 1 3 5 0 0 3 2 6 0l1-7v-2-1l1-1v-7c0-4-3-6-6-6-5 0-6 3-7 7l-1 6z" class="st62"/><path d="M774 462l-3 1v-3l2-1c1 0 2 2 1 3z" class="st62"/><ellipse cx="771.8" cy="462.4" fill="#fbf7ea" rx=".6" ry=".5" transform="rotate(-1 772 462) scale(.99997)"/><path d="M765 471c0-2-1-3-3-3h4l-1 3zM773 462l1-1-1-2v3z" class="st72"/><path d="M772 463c-1 2-4 5-9 5 4 3 11 2 11 2 4-13 0-18 0-18-7-6-15-2-15 1 0 0 1 4 11 7 0 0 1-2 3-1 2 0 2 3-1 4z" class="st70"/></g><g id="Stage"><path fill="#eaba7e" d="M928 341h-29l-1-9h-26l-1 13h-29l-3 13c22-2 58-5 93 4l-4-21z"/><path d="M883 352v-11h-2v-5h8v16h-6zM919 354h-10l5-6 1-1-1-1h-1v1h-4v-1l1-2 1-1h5l2 1 1 2-1 2v1l-1 1-1 1h2v3zM857 351h-1v-1h1l1-1h-1v-1l-1 1h-2l1-2 2-1 2 1h1v2l-1 1v1h1v3l-1 1h-2l-3-1-1-2h3v1h1l1-1-1-1z" class="st74"/></g><g id="Lamdscape_front"><path fill="#43692e" d="M657 699l624-62v164H1v-37l529-53s74 12 127-12z"/><path fill="#e0c757" d="M282 799s56-23 132-28c53-4 154-19 115-60 0 0 71 12 127-12 0 0 41 42 0 100H282z"/><path d="M542 713l-14-2c39 41-61 56-114 60-76 5-133 27-133 27h8c20-7 67-21 126-25 53-4 164-18 127-60zM656 699h-1s46 58-21 102l23-1c41-59-1-101-1-101z" class="st45"/></g><g id="Trees_front_1"><path fill="#3c3939" d="M932 757c17-3 9-7 8-9-6-10-169-17-234 1-6 20 219 9 226 8z" opacity=".3"/><path d="M1281 732l-12-3v-15h12v18z" class="st79"/><path d="M1281 388l8 8-12 7-12 52 30 5-34 13-13 56 41 9-47 18-32 137 16 8c16 7 35 12 55 14" class="st80"/></g><g id="Trees_front_2"><path d="M1158 716c-5 3-17 5-27 0v-16h27v16z" class="st48"/><path d="M1165 639l20 3-7-31-17-5 15-2-11-53-13-1 11-6-22-98-15 75 11 4-13 7-8 40 21 7-24 7-7 37 22 8-26 11-11 54c24 21 88 15 106 0l-10-46-22-11z" class="st80"/></g><g id="Trees_front_3"><path d="M989 702c-5 4-17 6-27 0v-15h27v15z" class="st79"/><path d="M993 569h-19l17-9-17-73-13 57 13 10-16 3-14 59 20-6-23 21-12 52c21 22 80 14 91-1l-27-113z" class="st80"/><g opacity=".3"><path d="M1020 682l-27-113h-7l17 123c8-3 14-6 17-10zM991 560l-17-72 11 75z" class="st82"/></g></g><g id="Trees_front_4"><path d="M952 508c12 32 15 68 3 100s-39 58-72 65-71-9-86-40c-8-16-9-36-3-53 5-15 15-28 18-43 5-27-15-55-4-81 9-21 36-30 59-26 40 7 70 41 85 78z" class="st10"/><path fill="#7d5c3e" d="M852 720s-6-62 10-105c15-42 14-101 14-101s6 40-4 89c-2 12-18 50-10 117h-10z"/><path d="M852 720s-6-62 10-105c15-42 14-101 14-101s6 40-4 89c-2 12-18 50-10 117h-10z" class="st21"/><path d="M867 430l-16-1s83 25 83 131c0 88-40 109-54 113h3c33-7 60-34 72-65 12-32 9-68-3-100-15-37-45-71-85-78z" class="st84"/></g><g id="Trees_front_5"><path d="M995 602c-2-12-2-25 1-37 3-13 10-25 16-36l19-35c1-4 4-7 7-8 4-1 7 2 10 4 24 20 40 49 44 81 2 18 0 38-10 53-10 16-30 26-48 23-10-2-19-8-26-17s-11-18-13-28z" class="st10"/><path d="M1072 616c-17 34-64 15-64 15 7 8 16 14 26 16 18 3 38-7 48-23 10-15 12-35 10-53-4-31-20-61-44-81 0 0 52 69 24 126z" class="st84"/><path d="M1052 709V529l-4 73c0 1-12 4-12-39 0 0-6 41 11 43l-4 103h9z" class="st21"/></g><g id="Trees_front_6"><path fill="#a6cb7e" d="M127 578c-8-13-23-22-24-37 0-12 11-23 9-35-2-13-18-20-21-33-3-12 6-23 9-35 2-13-3-27-14-35-11-7-26-8-37-1s-17 21-15 34c1 12 10 24 5 35-2 7-8 11-14 16-5 4-11 10-10 18 0 7 7 13 9 20 2 6 0 13-4 18L9 559l-4 7s-11 23 0 47l3 6 3 4c14 19 37 29 60 29 19 0 38-7 50-21 13-15 16-37 6-53z"/><path d="M55 721h7s13-248 0-275c0 0 4 43 0 134-3 92-7 141-7 141z" class="st21"/><path d="M66 597l25-31-25 21zM63 550s-8-26-25-45c0 0 14 13 25 34v11z" class="st21"/></g><g id="Trees_front_Bush_1"><path d="M729 752s0-31-27-46c0 0 33 1 52 28l-25 18z" class="st22"/><path fill="#7b945f" d="M731 738s1-28 20-39c0 0-6 14 0 35l-20 4z"/></g><path id="Trees_front_Bush_2" fill="#536745" d="M409 734s-6-37-28-46c0 0 20-1 31 25 0 0-6-22 2-34 0 0-3 29 12 40 0 0 6-13 4-23 0 0 2 23 11 27 0 0 12-11 7-32 0 0 9 13 5 29 0 0 19 4 20-8 0 0 3 15 0 22h-64z"/><path id="Trees_front_Bush_3" fill="#617c50" d="M60 747c-6 0-11-3-14-9l-3-9-1-5 3-4c2 0 4 0 4 2v-9c1-2 3-5 6-6 2-1 6 0 7 2l1 5-2 6 3-4 4-4c1-1 3-2 5-1v8l2-1h3l1 4-5 5c2-1 4-2 5-1l1 3-1 4-5 7c-3 4-8 7-13 7h-1z"/><g id="Trees_front_Stone"><path fill="#c7c7c7" d="M707 747l9-15c1-2 3-2 4-2l30-7 5-2 22-20c5-7 13-11 21-11h40l4 2 8 14c0 2 1 2 3 3l22 5 2 1 42 31c3 2 1 8-3 8H710c-2 0-4-2-4-5l1-2z"/><path fill="#adadad" d="M919 746l-42-31-2-1-23-5-2-2-8-14c-1-2-2-3-4-3h-25l11 32-24 12-39 20h155c4 0 6-6 3-8z"/><path fill="#8f8e8e" d="M870 754h69c3 0 5-4 3-6l-14-18-3-1h-36l-3 1-19 17c-2 3-1 7 3 7z"/></g><g id="Pump_Dynamic"><path d="M1049 378h3v38h-3z" class="st92"/><path fill="#414042" d="M1063 380h-25l-2-2c0-2 1-3 2-3h25c1 0 2 1 2 3l-2 2z"/><path fill="#676668" d="M1064 375h-9c1 0 2 1 2 3s-1 2-2 2h9l1-2-1-3z"/><path fill="#89898c" d="M1051 380h1v29h-1z"/></g><g id="Pump"><ellipse cx="1050.3" cy="450.8" class="st55" rx="14.9" ry="1.9"/><path d="M1044 410h12v42h-12z" class="st68"/><path d="M1043 447h16v4h-16zM1043 409h16v6h-16z" class="st96"/><path d="M1054 409h5v6h-5zM1053 447h5v4h-5z" class="st92"/><path fill="#ffa55e" d="M1055 416h2v31h-2z"/></g><g id="Balloons_R_1"><path d="M1211 472c-2-19 0-61 0-61s-2 42 1 61h-1z" class="st98"/><path d="M1223 395c0 8-6 20-13 20s-14-12-14-20 6-13 14-13 13 6 13 13z" class="st99"/><path d="M1221 397c0 4-1 9-4 14 4-4 6-11 6-16 0-7-5-13-12-13 6 2 10 8 10 15z" class="st100"/><path d="M1202 392c-2 4-1 7-3 7s-2-4-1-7 4-7 6-6l-2 6z" class="st101"/><path d="M1206 417l1-3v3l-2 3 1-3z" class="st102"/><path fill="#4c568e" d="M1220 428l-2 2 3 1z"/><ellipse cx="1211.7" cy="479.2" class="st55" rx="19.2" ry="1.9"/></g><g id="Balloons_R_2"><path d="M1212 476c-2-29-9-50-9-50h1s6 21 8 50z" class="st98"/><path d="M1206 408c3 7 1 20-6 23-7 2-17-8-19-15s1-14 8-17 15 2 17 9z" class="st104"/><path d="M1205 410c2 4 2 9 1 15 2-6 2-13 1-17-3-7-10-11-17-9 7 0 13 4 15 11z" class="st105"/><path d="M1186 411v7c-2 0-4-2-4-6s2-7 4-7v6z" class="st106"/></g><g id="Balloons_R_3"><path d="M1211 466c0-24 8-36 9-36 0 1-9 12-9 36z" class="st98"/><path d="M1239 416c-3 7-12 17-19 15s-9-16-7-23 10-11 17-8c7 2 11 9 9 16z" class="st1"/><path d="M1236 417c-1 4-4 9-8 13 5-3 9-9 11-14 2-6-2-14-9-16 6 4 8 11 6 17z" class="st107"/><path d="M1219 408c-2 3-3 7-4 6s-1-4 1-7 6-5 7-4-1 2-4 5z" class="st108"/></g><g id="Balloons_R_4"><path d="M1222 429c0 8-6 20-13 20s-13-12-13-20a13 13 0 0126 0z" class="st10"/><path d="M1221 431c0 4-2 10-5 14 4-4 7-11 7-16 0-7-6-13-13-13 6 2 11 8 11 15z" class="st109"/><path d="M1202 427c-2 4-1 8-3 7s-2-4-1-7 4-6 6-6l-2 6z" class="st102"/></g><g id="Balloons_L_1"><path d="M527 464c-3-15-1-48-1-49 0 1-2 34 1 49z" class="st98"/><path d="M536 403c0 6-5 16-11 16s-11-10-11-16 5-11 11-11 11 5 11 11z" class="st99"/><path d="M535 404l-4 12c3-4 5-9 5-13 0-6-4-11-10-11 5 2 9 6 9 12z" class="st100"/><path d="M519 400l-2 6c-1-1-2-3-1-6s3-5 4-5c1 1 0 2-1 5z" class="st101"/><path fill="#855749" d="M520 426l-1 2 2-1z"/><ellipse cx="526.7" cy="470.3" class="st55" rx="15.5" ry="1.5"/></g><g id="Balloons_L_2"><path d="M527 468c-2-24-7-40-7-40s5 16 7 39v1z" class="st98"/><path d="M522 413c2 6 1 17-5 18-6 2-13-6-15-11s1-12 7-14 12 1 13 7z" class="st104"/><path d="M521 415c1 3 2 7 1 12 1-5 2-10 0-14-1-6-7-9-13-7 6 0 11 3 12 9z" class="st105"/><path d="M506 416v6c-1 0-3-3-3-6s2-6 3-6v6z" class="st106"/></g><g id="Balloons_L_2_1_"><path d="M526 460c0-19 7-29 7-29s-6 10-7 29z" class="st98"/><path d="M548 420c-2 6-9 14-15 12s-7-13-5-19 8-8 13-7c6 2 9 8 7 14z" class="st1"/><path d="M546 421c-1 3-3 7-6 10 4-3 7-7 8-11 2-6-1-12-6-14 4 4 6 9 4 15z" class="st107"/><path d="M533 413c-2 3-3 6-4 5s-1-3 1-6c2-2 5-4 6-3s-1 2-3 4z" class="st108"/></g><g id="Balloons_L_3"><path d="M535 430c0 6-5 16-11 16s-10-10-10-16 5-11 11-11 10 5 10 11z" class="st10"/><path d="M534 431c0 4-1 8-4 12 4-4 6-9 6-13 0-6-5-10-11-11 5 2 9 7 9 12z" class="st109"/><path d="M519 429l-2 5c-1 0-2-3-1-6s3-5 4-5c1 1 0 3-1 6z" class="st102"/></g></svg>