<svg xmlns="http://www.w3.org/2000/svg" xmlns:xlink="http://www.w3.org/1999/xlink" viewBox="0 0 1280.6 800"><defs><path id="BG" d="M.6.7h1280v800H.6z" class="st0"/><path id="SVGID_1_" d="M4.4 2.8L1280.6.7v800H.6"/></defs><style>.st0{fill:#e7e8ec}.st1{fill:#75aeb9}.st2{fill:#b9cdeb}.st3{fill:#c9dcf8}.st5{fill:#afc3e3}.st6{fill:#d4e3f9}.st7{opacity:.34;fill:#232121}.st8{opacity:.37;fill:#fff}.st9{fill:#bee696}.st10{fill:#f1db7d}.st11{fill:#96cd7c}.st14{opacity:.32;fill:#232121}.st15{fill:#5e8e44}.st16{fill:#8ebd5c}.st17{fill:#a66c78}.st18{fill:#864a54}.st22{fill:#a16b77}.st23{fill:#6c8a56}.st27{clip-path:url(#SVGID_2_);fill:#69552e}.st31{fill:#3b2722}.st33{fill:#f15128}.st34{fill:#eff0f0}.st39{fill:#a4a5a8}.st42{clip-path:url(#SVGID_4_);fill:#69552e}.st44{fill:#4a7337}.st46{fill:#69552e}.st48{fill:#59714b}.st49{fill:#5e4a31}.st50{fill:#304a23}.st51{fill:#875d46}.st52{fill:#66a32e}.st53{fill:#4d7a23}.st54{fill:#654635}.st55{fill:#6b2379}.st56{opacity:.48;fill:#3c3939}.st57{fill:#302f30}.st63{fill:#f7ba99}.st64{fill:#595959}.st65{fill:#fff}.st67{fill:#bfbfbf}.st69{fill:#ff882a}.st71{fill:#313547}.st73{fill:#cf9c80}.st76{fill:#b08b5f}.st81{fill:#7b5059}.st82{fill:#2c481f}.st84{fill:#232121}.st86{opacity:.32;fill:#3c3939}.st94{fill:#3b767a}.st100{fill:#b6a352}.st101{fill:#4e9da3}.st103{fill:#dbbc32}.st105{fill:#a48d26}.st106{fill:#ffdf57}.st107{fill:#ffe579}.st108{fill:#ca716a}.st109{fill:#b9bbbd}.st110{fill:#414042}.st115{fill:#6b6c6f}.st118{fill:#57585a}.st120{fill:#909093}.st121{fill:#a7a6f6}.st122{fill:#9190db}.st123{fill:#cacafa}.st124{opacity:.52;fill:#fff}.st126{fill:#ebcb44}.st127{fill:#ffec9a}.st128{fill:#639fab}.st129{fill:#acced5}.st130{fill:#83bf66}</style><use class="st0" xlink:href="#BG"/><g id="Sky"><path d="M164.1 600.8c-42-.3-41.9-10.2-81-24.6s-73.9-46-77.9-85.1C-.2 438.6 47.9 396.3 91.7 363l214.2-162.8c22.2-16.9 44.9-34 71.3-44.2 26.5-10.2 57.8-12.8 83.2-.4 39.1 19 54.9 67.3 95.1 84.1 33.8 14.1 74.4.6 102.6-21.9S812.5 62.9 864.8 40.5c56.9-24.4 123.2 6.9 136.8 64a295 295 0 0080.6 142.3c50.8 49.7 120.2 83.3 159.3 141.7 43.8 65.5 39.6 153.3.1 221.2-39.5 67.9-110 116.9-187 144.8-77 28-160.6 36.6-243.2 38.4-178.2 3.9-357-23-524.9-78.8-29-9.7-58.3-20.5-82.1-38.8-23.8-18.3-41.5-45.7-40.3-74.5z" class="st1"/><path d="M581.6 187.7s82.6-113.8 180-146.4-47.1 85.7-73.5 102.9c-26.3 17.2-114.9 86-106.5 43.5zM36.4 292.1s7-73.2 90.9-122.8 115 2.9 57.8 48.5S51.4 323.9 36.4 292.1M220.8 41.3c-1.5 8.8-8.5 16.5-14.4 22.5-21.8 22.2-43.8 44.6-65.7 60.5-16.7 12-33.4 20-47 19.9-8.3-.1-5.5-17.9 4.5-28.8l.6-.7c6.7-7.2 13.7-12.1 20.5-17L200 40c6.5-4.6 13.3-9.4 18-7.4 2.4 1 3.6 4.1 2.8 8.7z" class="st1"/></g><path id="Buildings_1" d="M578.1 203.3h51.1v164.5h-51.1z" class="st2"/><path id="Buildings_2" d="M734.4 265.7h86.9v140.8h-86.9z" class="st2"/><path id="Buildings_3" d="M597.9 258.8H649v131h-51.1z" class="st3"/><g id="Buildings_4"><path fill="#dde9fa" d="M583.9 280h46.4v75.9h-46.4z" transform="rotate(-180 607 318)"/><path d="M580.1 280H634v9.1h-53.9z" class="st5" transform="rotate(-180 607 284.5)"/><path d="M580.1 327.3H634v9.1h-53.9z" class="st5" transform="rotate(-180 607 331.8)"/><path d="M586.4 338h7.7v11h-7.7zM598.1 338h7.7v11h-7.7zM609.8 338h7.7v11h-7.7zM621.5 338h7.7v11h-7.7zM586.4 290.9h7.7v11h-7.7zM598.1 290.9h7.7v11h-7.7zM609.8 290.9h7.7v11h-7.7zM621.5 290.9h7.7v11h-7.7zM586.4 303.2h7.7v11h-7.7zM598.1 303.2h7.7v11h-7.7zM609.8 303.2h7.7v11h-7.7zM621.5 303.2h7.7v11h-7.7zM586.4 315.4h7.7v11h-7.7zM598.1 315.4h7.7v11h-7.7zM609.8 315.4h7.7v11h-7.7zM621.5 315.4h7.7v11h-7.7z" class="st2"/></g><path id="Buildings_5" d="M543.2 260.5h31.6v107.3h-31.6z" class="st3"/><path id="Buildings_6" d="M337.7 406.5H267V251.9l70.7 30.7z" class="st2"/><path id="Buildings_7" d="M310.5 306.6h70.7v99.9h-70.7z" class="st3"/><path id="Buildings_8" d="M363 236.8h44.9v169.7H363z" class="st2"/><path id="Buildings_9" d="M390.8 295.1H452v111.4h-61.2z" class="st2"/><path id="Buildings_10" d="M517.1 406.5h-61.2v-151l61.2 22.2z" class="st2"/><path id="Buildings_11" d="M431.3 307.2h101.5v60.6H431.3z" class="st3"/><g id="Buildings_12"><path d="M356.8 321.2h78.8v41.4h-78.8z" class="st6" transform="rotate(-180 396.2 341.9)"/><path d="M395.2 337.5h42.1v8.1h-42.1z" class="st2" transform="rotate(90 416.3 341.5)"/><path d="M399.8 342h38.8v2.3h-38.8z" class="st7" transform="rotate(90 419.2 343.2)"/><path d="M356.5 337.5h42.1v8.1h-42.1z" class="st2" transform="rotate(90 377.6 341.5)"/><path d="M361.1 342h38.8v2.3h-38.8z" class="st7" transform="rotate(90 380.5 343.2)"/><path d="M353.6 315.7h86.5v8.1h-86.5z" class="st2" transform="rotate(-180 396.8 319.7)"/><path d="M437.7 315.7l-41.5-25.5-39 25.5z" class="st6"/></g><path id="Buildings_13" d="M218.6 306.6h70.7v99.9h-70.7z" class="st3"/><path id="Buildings_14" d="M702.6 385h-51V251.6l51-53.9z" class="st2"/><path id="Buildings_15" d="M713.6 279.4h31.6v107.3h-31.6z" class="st3"/><path id="Buildings_16" d="M865.4 290.2h123.7v113.3H865.4z" class="st2"/><path id="Buildings_17" d="M787.3 206.5h66v231.7h-66z" class="st3"/><path id="Clouds_1" d="M1078.5 56.2l-413 31.9 581.8 7.3z" class="st8"/><g id="Landscape_6"><path d="M247 374.6s198.2-78.3 535.7-3.9 497.5 0 497.5 0l.5 430H.6L0 548.2l247-173.6" class="st9"/><path d="M403 342.2l8.7.2s-19.5 14 34.5 23.2c11.9 2 32.9 3.2 53 5.3 35.5 3.6 75.6-20.1 89.3-28.7l9.3.4c-28.8 22-82.4 30-83.1 37.3-1 9.9 95.4 77 161 83.8 42.3 4.4 84.9 5.6 127.5 5.6-46.1.1-92.1-.9-137.9-5.6-52.9-5.5-139.2-57.9-165.2-80.4-5.3-5.9-31-10.6-48.9-11.9-25.7-1.7-67-17.5-48.2-29.2z" class="st10"/></g><path id="Landscape_6_Tree" d="M488.9 403.7l-8.3 40.6c4.9 3.1 15 2.4 19.9-.2l-11.6-40.4z" class="st11"/><path id="Landscape_6_Tree_1_" d="M459.7 372.5l-14 68.8c8.2 5.3 25.4 4 33.7-.3l-19.7-68.5z" class="st11"/><path id="Landscape_6_Tree_2_" d="M507.1 389.1l-10.3 50.4c6 3.9 18.6 3 24.7-.2l-14.4-50.2z" class="st11"/><g id="Landscape_back"><path d="M308.3 387.1L453.1 416c52.3 11.6 106.9 7 156.6-13.1L738 357.8c3.4-1.4 6.9-2.4 10.5-3L976.2 313c8.4-1.4 304.4-33.2 304.4-33.2l-.5 239.3-744.5 146.7a50 50 0 01-29.8-3.2L180.4 522.8a50.7 50.7 0 015.6-95.2l122.3-40.5z" class="st11"/><path d="M482.4 475S900 423 853 382.3s-114.9-24.5-114.9-24.5 78.9-15.6 128 16.8c48.7 32.1-83.9 69.5-354.5 112.8L482.4 475z" class="st10"/><path fill="#232121" d="M310.5 387.1c5.3 3.1 474.2 97.3 474.2 97.3L339.8 421l-29.3-33.9z" opacity=".2"/><path fill="none" d="M4.4 2.8L1280.6.7v800H.6z"/><path d="M1280.7 303.1v-23.7l-299.1 32.9-233 42.1s336.3-51.3 532.1-51.3z" class="st14"/></g><path id="Landscape_back_Tree_1" d="M1157 401.6l-13 63.9c7.7 4.9 23.6 3.7 31.3-.2l-18.3-63.7z" class="st15"/><path id="Landscape_back_Tree_2" d="M1134.1 412.2l-10.3 50.4c6 3.9 18.6 3 24.7-.2l-14.4-50.2z" class="st15"/><path id="Landscape_back_Tree_3" d="M1256.3 233.9l-13 63.9c7.7 4.9 23.6 3.7 31.3-.2l-18.3-63.7z" class="st16"/><path id="Landscape_back_Tree_4" d="M1228.8 207.2l-17.4 85.1c10.2 6.6 31.5 5 41.7-.3l-24.3-84.8z" class="st16"/><path id="Landscape_back_Tree_5" d="M1133.3 251.9l-10.2 49.7c6 3.8 18.4 2.9 24.4-.2l-14.2-49.5z" class="st16"/><path id="Landscape_back_Tree_6" d="M1109.6 253.3l-10.2 49.7c6 3.8 18.4 2.9 24.4-.2l-14.2-49.5z" class="st16"/><g id="Sign"><path d="M499.2 365c-1 .2-1.9-.6-1.9-1.6v-51.8c0-.8.6-1.5 1.4-1.6 1-.2 1.9.6 1.9 1.6v51.8c-.1.8-.7 1.5-1.4 1.6z" class="st17"/><path d="M498.6 310l-.2.1c.6.2 1.1.8 1.1 1.6v51.8c0 .7-.5 1.3-1.2 1.6l.8.1c.8-.1 1.4-.8 1.4-1.6v-51.8c0-1.2-.9-2-1.9-1.8z" class="st18"/></g><g id="Sign_2"><path d="M516 332.8h-35.7c-.4 0-.7-.1-1-.4l-5.4-4.7c-.6-.6-.7-1.6-.1-2.2l5.4-5.4c.3-.3.7-.4 1-.4H516c.4 0 .8.2 1 .4l5 5.1c.6.6.6 1.5 0 2.1l-5 5.1c-.2.3-.6.4-1 .4z" class="st17"/><path d="M511.5 323.3v6l4.8-3zM485.6 329.3v-6l-4.8 3z" class="st18"/><path d="M484.7 325.1H512v2.2h-27.3z" class="st18"/></g><path id="Mist_back_1" d="M1030.6 241.3l-441.2 55.4 665.7-32.5z" class="st8"/><path id="Mist_back_2" fill="#fff" d="M1281.2 351.6s-14.5-2.8-35-5.7c-50.8-7.1-138.2-14.8-130.1 19 11.4 47.3-41.1 54-83.9 40.8-42.8-13.2-73.4-7.2-179.2 10.1-105.9 17.3-181.8 28.4-221.4 20.6 0 0 187.6 32 645.3 32l4.3-116.8z" opacity=".2"/><g id="Landscape_5"><path fill="#709a5b" d="M46.1 225.5h.3A52.8 52.8 0 0193.8 255l18 36.9a53 53 0 0033 27.7l103.9 30.1a52 52 0 0112.1 5.2l154.6 90.7c39.3 23.1 85 33 130.3 28.4l59.5-6c5.2-.5 10.4-.3 15.5.7l410.9 79.4 244.9 47.8 3.9 204.6H.6l-.5-571s18.9-4 46-4z"/><path fill="#f1d970" d="M256.1 352.6s-43.8 3.9-71.2 46.5c-36.4 56.7 142.4 60.2 219.5 77.7 3.7.8 8.5 2.2 14.7 4 16.1 4.7 37.9 15.4 74.6 23.8 25.9 6 65.9 11.2 99.2 15.3 33.4 4.2 88.4 13.1 132.3 17.3l34.3-10.2c-23.5-1.4-72.7-6.5-115.1-11.3-31.8-3.6-69.3-5.1-112.9-13.2-35.1-6.5-66-19.4-75.6-22-32.2-8.8-71-16.4-114.1-23.6-52.7-8.9-155-23-147.6-50.3 8.9-32.8 64.5-52.5 69.4-50l-7.5-4z"/><path d="M93.3 254.4c11.1 21.3 21.4 48 33 55.6 0 0-116.4 15.1-65.7 25.6 45.1 9.4 158.7 13 187.9 15.3 4.1.3 8 1.6 11.6 3.6l35.4 20.8s31.9 18.7-52-.7c-90.3-20.9-139.6 7.4-86.8 20.6 52.5 13.1 153.5-1.1 122.3 20.7l-1 .5c-25.8 10.3-80.9 17.3-41.9 28 35.7 9.8 140.8 34.7 224.5 36.7 9.2.2 18.4-.2 27.5-1.1l119-12s110.7 29.8 62 44.7c-48.7 14.9-282.3 4.2-235.6 29.9 46.7 25.6 367.7 16 367.7 16L289.4 679.1-.2 634.9l.3-406.4c32.5-3.5 47.9-3 47.9-3a51.5 51.5 0 0145.3 28.9z" class="st7"/><path d="M179.8 291.3l5.9-1.7-5.2.9zM160.3 288.1l1.1 6 1.7 1.4z" class="st22"/></g><g id="Landscape_5_Tree_1"><path d="M177.4 311c-.2 3.4.8 6.9 3 9.5 2.2 2.6 5.7 4.1 9.1 3.7 3.4-.4 6.4-2.7 8.2-5.6 1.8-2.9 2.5-6.4 2.6-9.8.1-3-.3-6-1.7-8.6a8.7 8.7 0 00-7.1-4.7c-2 0-3.9.7-5.5 1.8a17.9 17.9 0 00-8.6 13.7z" class="st23"/><path d="M186.3 339.6h1.3s.1-13.5.8-19.3c0 0 6.4.7 6-9.3 0 0-1.3 9.2-6 7.8l2-16.1-1.4 6s-1.7-.2-1.5-6.9c0 0-1.2 6.4 1.3 7.8.1.1-1.8 9.6-2.5 30z" class="st22"/></g><g id="Landscape_5_Tree_2"><path d="M176.6 318.6c3.6-.7 7.1-2.2 10-4.5a24.4 24.4 0 009.2-17.5 26.3 26.3 0 00-16.6-26 23.2 23.2 0 00-21.6 4.5 25 25 0 00-1.1 37.8 25 25 0 0020.1 5.7z" class="st9"/><path d="M170.7 340.9h2.3s1.9-53.2 0-62.1c0 0-.4 49.8-2.3 62.1z" class="st22"/><path d="M173.8 295.5l11.9-11.1-11.9 13.9zM173.8 304.7l-17.6-15.1 16.3 17z" class="st22"/></g><g id="Lanscape_4"><defs><use xlink:href="#SVGID_1_"/></defs><clipPath id="SVGID_2_"><use overflow="visible" xlink:href="#SVGID_1_"/></clipPath><path fill="#5e8e44" d="M321.1 629.9L591.3 558l100.7-9a93 93 0 0025-5.9l229.8-91c15.4-6.1 31.7-9.2 48.2-9.2h139a70.2 70.2 0 0058.1-30.8l89.5-132.2-1 520.9H.6l320.5-170.9z" clip-path="url(#SVGID_2_)"/><path fill="#232121" d="M362.2 618.9l922.3-20L503 581.4z" clip-path="url(#SVGID_2_)" opacity=".1"/><path fill="#f1d970" d="M1014.2 442.8c67.9 6.1 84.3 110 84.3 110l29.8-19.2s-57-94.4-99.6-90.7h-14.5z" clip-path="url(#SVGID_2_)"/><path d="M1123.2 525.6c-54.7-85.4-89.6-82.8-89.6-82.8s31.8-2.6 88.6 82.8h1z" class="st27"/><path d="M1014.2 442.8s59.2-2.6 85.2 110l2.8-2.4c0 .1-25.8-105-88-107.6z" class="st27"/><path fill="#3c3939" d="M1003.2 442.8c-20.9 0-41.5 3.9-60.9 11.6l-172.9 68.5c33.7-7 69.4-11.9 107.7-14.2 38.3-2.3 116.4-50.8 196.3-47.2 79.9 3.6 146.3 54.7 150.3 8.7 4.1-46 75.5-162.9 75.5-162.9l-18.1-26.9-86.4 127c-14.9 22.1-31.4 35.4-63.5 35.3h-128z" clip-path="url(#SVGID_2_)" opacity=".3"/></g><g id="Target"><path fill="#232121" d="M167.3 392.9c-8.3 1.1-20.4-6.7-19.8-11.4.7-4.7 13-4.4 24.5-2.8 11.6 1.7 39.2 8.3-4.7 14.2z" opacity=".4"/><path d="M190.1 384.6l-20.7-22.7 1.6-1.3 21.1 23.7s-.4.9-2 .3z" class="st31"/><path d="M163.5 392.7l9.8-30.9-1.4-1.2-10.7 31.9c0 .1.9 1.3 2.3.2zM148.4 381.5l23.2-25.2-.4-1.8-24.4 25.9c0-.1.1 1.5 1.6 1.1z" class="st31"/><path fill="#792914" d="M189.7 353.4c-1.6-13.5-10.7-23.7-21.3-25l-.1-.5-4.3.5h-.1-.4c-12.2 1.7-20.6 15.1-18.9 30.3 1.8 15.1 13.1 26.2 25.3 25.1l4.9-.6-.1-.5c10.1-3.7 16.6-15.8 15-29.3z"/><ellipse cx="171.5" cy="355.6" class="st33" rx="22.7" ry="27.9" transform="rotate(-6.7 171.5 355.6)"/><ellipse cx="171.5" cy="355.6" class="st34" rx="18" ry="22.1" transform="rotate(-6.7 171.5 355.6)"/><ellipse cx="171.5" cy="355.6" class="st33" rx="12.4" ry="15.3" transform="rotate(-6.7 171.5 355.6)"/><ellipse cx="171.5" cy="355.6" class="st34" rx="7.6" ry="9.3" transform="rotate(-6.7 171.5 355.6)"/><path fill="#232121" d="M183.1 332.3L161 379.6c4.1 2.8 8.9 4.3 13.8 3.7 12.5-1.5 21.1-15 19.3-30.3-1-8.8-5.2-16.2-11-20.7z" opacity=".1"/><ellipse cx="171.5" cy="355.6" class="st33" rx="3.1" ry="3.8" transform="rotate(-6.7 171.5 355.6)"/><path fill="#232121" d="M171.6 355.6l15.3 21.4.5-.6-15.9-21.2z" opacity=".3"/></g><g id="Arrow"><path fill="#cfcfd0" d="M192.4 346.6l.7-5.7 7.3-2.3-.6 4.9 3.6 3.5-7.6 3.3z"/><path fill="#554835" d="M171.6 355.6l-.1-.4 30.3-13.1.3.9z"/><path d="M193.3 340.8l.1 3.8.8-4.1zM194.9 340.3l.3 2.9.4-3.1zM196.4 339.8l.1 3.7.6-3.9zM198.3 339.2l-.1 3.2 1.8-3.7zM196.2 350.1l-1.7-3.3 1.8 2.5-.3-1.5 1.2 1.8zM198.2 349.2l-2.1-3.1 3.3 2.6-.5.2-1.1-1 .7 1.2zM201.2 347.9l-2.3-2.5 2.7 2.3z" class="st39"/></g><g id="Lanscape_3"><defs><use id="SVGID_3_" xlink:href="#SVGID_1_"/></defs><clipPath id="SVGID_4_"><use overflow="visible" xlink:href="#SVGID_3_"/></clipPath><path fill="#487435" d="M1280 688.4c-41.7-13.7-85.9-25.5-164.5-30.5-143.6-9.1-220.3-41.4-250.9-58 133.9 60 207.6-57.3 299.5-122 0 0 2.9 0 9.6-4.4 6.5-4.2 4-4.6 4-4.6 11.6-6.3 27.1-15.6 39.9-19.6l62.6-14.9-.2 254z" clip-path="url(#SVGID_4_)"/><path fill="#f1d970" d="M1164 477.9s42.1-10.2 58 36.3c36.5 106.4-154.9 139.1-154.9 139.1l139.3 13.5s48.9-24.6 62.9-65.1c21-60.6-15.7-142.2-91.6-132.7 0-.1-1.2 3.3-13.7 8.9z" clip-path="url(#SVGID_4_)"/><path d="M1177.7 468.9c77.2-7.5 105.7 76.3 86.2 132.7-12.8 36.9-56.1 60.6-63.4 64.5l5.9.6s48.9-24.6 62.9-65.1c20.2-58.3-13.5-142.4-91.6-132.7z" class="st42"/><path d="M1225.5 516.2c-20.2-50.9-61-38.5-61.4-38.3 0 0 42.1-10.2 58 36.3 36.5 106.4-154.9 139.1-154.9 139.1l27.8 2.7c56.1-15.7 163-58 130.5-139.8z" class="st42"/><path fill="#4b5d3f" d="M1073.6 552.9s-1.6-3.9-3.1-5.4c0 0 1.8 3.4 6 2.5 4.3-.9-1.8-11.3-1.8-11.3s5.7 6.9 8.7 6.3c3-.6-2.7-4.6-2.7-4.6s3.8 3.5 5.6 2.7 2.8-4.9-.2-6.7c-3-1.7 4.2-.1 3.6 4.2l-16.1 12.3z" clip-path="url(#SVGID_4_)"/><path d="M759.3 462.3l-19.5 93.5h44.3z" class="st44"/></g><g id="Landscape_2"><path d="M1279.5 687.1l1.1 113.6H.6L.1 412.8a173.4 173.4 0 0091.8 46.1l38.9 6.5 38.9 49.2 33.5 27.1 65 17.4 27 8.4 21.1 27.3 6.8 4.1a49 49 0 0025 6.9h7.1l27.5 6.7 15.2 10.2a48.7 48.7 0 0054.4 0l3.3-2.3c7.7-5.2 16.8-8 26.1-8a93.9 93.9 0 0146.1 12.1l11.5 6.5 33.8 18.9 14.1 7.1c7 3.6 14.8 5.4 22.7 5.3a58.9 58.9 0 0047.6-25l34-51.2c1-1.5 1.9-3.2 3.5-4.6 115.8-98.2 274.1 67.4 418.1 76.6 79 5 124.6 15.3 166.4 29z" class="st44"/><path fill="#e8ce5a" d="M515.6 717.4c34.8-3.4 123.8-25 131.5-45.8 10.4-28.2 45.5-27.2 66.5-39.2 21-11.9 11.5-43.7 20.6-63.1 7.7-16.3 48.8-18.7 50.1-18.7 11.9 0 27.9 2.9 27.9 2.9-11.2-.9-36.7 2.7-42.2 11.3-7.7 11.9 9.1 62.8-9.9 78.4-19 15.6-31.8 22-36.2 34.8-5.6 16.5-46.9 36.7-46.9 36.7l-161.4 2.7z"/><path d="M667.4 708.9s45.2-13.9 51.2-30.9c4.7-13.2 18.9-19.7 39.4-35.8 20.6-16.1 3.6-66.6 12-78.8 6-8.9 30.1-10.7 42.2-9.8-11.2-.9-34 2.7-39.5 11.3-7.7 11.9 7.9 62.8-11.1 78.4-19 15.6-32.6 22-37 34.8-5.6 16.5-48.2 30-48.2 30l-9 .8z" class="st46"/><path d="M517.5 723.9c34.8-3.6 123.4-26 131.2-47.6 10.4-29.3 45.5-28.3 66.5-40.7 21-12.4 11.5-45.4 20.6-65.6 7.7-17 47.9-19.3 47.9-19.3-7.6-.2-41.8 2.3-49.5 18.7-9.1 19.4.4 51.1-20.6 63.1-21 11.9-56.1 10.9-66.5 39.2-7.7 20.8-96.4 42.4-131.2 45.8l1.6 6.4z" class="st46"/><path fill="#22302e" d="M840.3 560.9s5.7.2 6.3-5.4c0 0-1.3 6 1.4 6.6 0 0 1.8-.9 1.5-4a7 7 0 00.4 5.2s4.3 0 4.4-1.5c0 0-1 1.5 2.4 3.2 0 0 4.3-3 2.8-9.6 0 0 3.2 3.4 0 10.3 0 0 .9-2.9 3.6-2.5 0 0-2.7 1.5.6 3.6l-2.9 2.6-18.2-5.4-2.3-3.1z"/><path d="M478.9 613.7c5.1-5.5 2.8-12.4 2.8-12.4.1 8.1-7.6 12.4-7.6 12.4-3.1-13.9 7.2-25.8 7.2-25.8-12.4 7.2-12.3 26.8-12.3 26.8s-3.1-4.9 0-15.4c0 0-4.3 3.2-2.7 15.4l3.3 4 9.3-5z" class="st48"/><path d="M423 642.3c21 0 22.1-14.7 32.6-21.8l-3.3 2.3a48.6 48.6 0 01-54.4 0l-15.2-10.2c0-.1 30.6 29.7 40.3 29.7z" class="st14"/><path d="M476.4 611.5a9.7 9.7 0 013.1-7.8c-3 4.5-.7 9.3-.7 9.3 6.5-6.8 5.8-16.7 5.8-16.7 3.4 7.9-3.7 18.9-3.7 18.9s3.3-1.8 5.6-8.6c0 0 .9 3.1-4.3 9.5l-3.1 1.2-2.7-5.8zM216.4 600.8c5.3-6.1 7-15.1 4.4-22.7" class="st48"/></g><g id="Landscape_2_Tree"><path d="M616.6 665.5a12.4 12.4 0 01-12.3 0v-7h12.3v7z" class="st49"/><path d="M618.5 604.7l-8.8-.2 7.8-4.1-7.8-33.1-6.1 25.9 6.1 4.4-7.4 1.5L596 626l9.1-2.6-10.6 9.2-5.6 24c9.8 10.2 36.6 6.4 41.7-.3l-12.1-51.6z" class="st44"/><path d="M630.6 656.2l-12.1-51.5-3.5-.1 7.9 56c3.6-1.1 6.4-2.6 7.7-4.4zM617.5 600.4l-7.7-33.1 4.8 34.6z" class="st50"/></g><g id="Parents_Hand"><path d="M738.1 467.6c-.2 4.9-8.1 15.9-15.5 22 0 0-3.5 2.2-4.8 2.4-.6.1-1.2.5-1 .9.2.5 1 .8 2.1.4 1.8-.6.5 1.1-.8 2.2-1.4 1.1-1.7 2.9-.4 3.7 1.3.8 6.4-2.7 8-7.2 0 0 13.6-9.5 14.9-16.9 1.3-7.5-2.5-7.5-2.5-7.5z" class="st51"/><path d="M736.1 482.8c-4-1.7-4.2-3.2-4.2-3.2.6-4.6 6.3-16.4 11.1-18.4 0 0-.6 4.9-.2 9.7.7 7.6-6.7 11.9-6.7 11.9z" class="st52"/><path d="M736.7 482.9c.1-.2 0-.5-.2-.5-2-.6-3.6-2.2-4.4-3.1-.3-.4-.9-.3-1.1.1l-.3.6-.8 1c-.3.2-.4.6-.2.9.5.8 1.7 2.1 4.2 3.2.2.1.4 0 .6-.1.3-.3.8-.8 1.1-.9.6-.3.9-.8 1.1-1.2z" class="st53"/></g><g id="Parents_Head_Man"><path d="M745.1 457.7c.8 0 .9 1.2 1 2.5a2.9 2.9 0 002.5 2.5h.1c1.6.2 3-.9 3.2-2.4a34.3 34.3 0 011.7-6.7l.3-.8.2-.5.1-1c.2-1.7.5-5.1.3-6.4-1-6-12.1-6.1-13.3-.8-.1.1-2.7 13.7 3.9 13.6z" class="st51"/><path d="M756 451.2c-.7 1.1-2 1.6-2.9 1.1-.9-.5-1-1.8-.3-2.9.7-1.1 2-1.6 2.9-1.1.9.6 1 1.8.3 2.9z" class="st51"/><path d="M754.7 451.6s.5-.2.9-1.1c.5-1.3-.5-1.8-.5-1.8s1.1 1.2-.4 2.9zM749.2 457.4c1.5 0-1.9.4-3 3.1-.1-2.1-.5-2.8-1-2.8l4-.3z" class="st54"/><path d="M754.2 452.5s-.4 4-1.4 4.1c-.4 0-.6-.3-.7-.7-.1-.5.1-1 .4-1.5l1.3-1.9h.4zM755.2 448.1s1.7-5.9.6-7.1-11.9-9.2-15.5-4.4c-2.7 3.5 1.4 5.7 1.4 5.7s1 .8 4.6.1c3.6-.6 5.2-.6 5.1.7s1.7 1.5 1.7 1.5l-.1 4.4s.8-1.1 2.2-.9z" class="st55"/></g><g id="Parents"><ellipse cx="752.7" cy="568.4" class="st56" rx="37.7" ry="3"/><path d="M744.8 565.7l-13.2.8c-1.4-2.8 5.9-4.2 8.5-4.3l.1-3.3h4.8s-.5 1.6-.4 3.2l.2 3.6zM759.1 566.4l-12.8 1.2c-1.4-2.8 5.7-4.3 8.3-4.4l-.2-3.3 4.4-.3.2 3.2.1 3.6z" class="st51"/><path d="M754.2 563.1c-.2 1.7 3.8 1.3 5 1.2.2 0 .3.1.4.3l.3 2.2c-.8.7-13.2 1.7-13.9 1.2-1.5-3 5.6-4.7 8.2-4.9zM739.6 562.2c-.2 1.6 3.8 1.4 5 1.3.2 0 .3.1.4.3l.2 2c-.8.6-13.2 1.2-14 .8-1.4-2.8 5.7-4.2 8.4-4.4z" class="st57"/><path d="M758.4 461.9s6 3.7 10.3 9.8c0 0 5.5.1 9.9 2.8 0 0 .6 2.2-1.5 3.7 0 0-8.3-.1-12.4-1l-8.8-6.6 2.5-8.7z" class="st53"/><path fill="#0577ae" d="M740.7 500.7l-1.2 60.3c0 .3.2.5.4.6.7.2 2.4.4 4.8-.1.2 0 .4-.3.4-.5l6.7-65.8-11.1 5.5z"/><path fill="#079fe8" d="M744.8 494.4l9.5 67.8c0 .3.2.5.5.6 2 .6 3.5.1 4.2-.3.2-.1.4-.4.4-.6l-.5-67.5h-14.1z"/><path d="M746.1 460.2c-5.4 1-9.1 6.3-9 14 .1 6.5.7 17.8 3.1 26 .1.3.2.5.5.6 1.4.9 8 3.9 18.4 0 .4-.2.7-.6.7-1.1-.1-18.4 2.8-33.8-.1-36.8-2.5-2.3-4.6-2.6-7.8-3 0 .7-.7 2-2.8 2.1-3.1 0-3-1.8-3-1.8z" class="st52"/><path d="M740.6 500.9l-.5-.6a91 91 0 01-2.9-21.2c.5 3.3 5.5 25.2 22.5 21.2-.1.3-.3.5-.6.6-10.5 3.9-17 .9-18.5 0z" class="st53"/><path d="M780.7 478.5c-.9 2.9-3.9 2.7-4.8 1.6-1.1-1.3-.2-2.6 1.4-4.2 0 0-1.4-1.8-.9-2.1 1.5-.9 5.1 2.1 4.3 4.7z" class="st51"/><path fill="#3a5c1a" d="M758.7 499.4s-8.6 4-17.8.2c0 0 7.7 2.7 17.8-.2z"/><path fill="#9937a4" d="M758.8 502.7l1.9 57.3 4.6.2c1.2-12.8 3.8-40.2 4.9-57.3l-11.4-.2z"/><path d="M754.6 568.2l10-1.1.7-7-4.6-.2.1 3.1c0 .7-.5 1.2-1.2 1.3-4.7.6-6.2 2.5-5 3.9z" class="st63"/><path d="M767.6 509.3l2.1.7c-1.2 16.2-3.2 37.4-4.3 48.9l2.2-49.6z" class="st55"/><path d="M759 564.5c2.9 1 5.7.3 5.9-.4.1-.2.5.1.5.3 0 1.4-.3 2.8-.3 2.8-.6.8-9.7 1.9-12.1 1.2-1.3-1.7 1.7-3.5 6-3.9z" class="st64"/><path d="M758 564.6s2 .6.9 1.1c-1.1.5-2.9-.6-2.9-.6l2-.5z" class="st63"/><path d="M773.2 561.3l4.3-.1c.4-14.4 1.1-45.8.9-58.6l-11.1 1.1c-.6 12.1 5.2 45.3 5.9 57.6z" class="st55"/><path d="M765.5 569.8l11.7-1.2.2-7.5-4.3.1v3.4c-.1.7-.6 1.2-1.3 1.3-4.7.6-7.5 2.3-6.3 3.9z" class="st63"/><path d="M775 507.9l1.9 53.3h.5l1-54.1z" class="st55"/><path d="M771.9 566c2.7.8 4.6.4 5.4.1.2-.1.5.1.5.3l-.1 2.2c-.6.8-9.7 1.9-12.1 1.2-1.3-1.6 1.5-3.3 6.3-3.8z" class="st64"/><path d="M770.6 566.1s2 .6.9 1.1c-1.1.5-2.9-.6-2.9-.6s.3-.2 2-.5z" class="st63"/><path d="M779.5 511s-1.3-33.2-3.2-37.3c-.2-.5-1.5-1-3-1.4-4.2-1.1-8.8-.6-12.4 1.6-.9.6-1.6 1.1-1.7 1.6-.3 4.3-1.5 35.3-1.5 35.3s5.7 5.3 21.8.2z" class="st65"/><path fill="#6e6e6e" d="M762.4 507.7s2.9.3 2.9.7c0 .4-2.9.5-2.9.5v-1.2z"/><path d="M779.5 511l-.1-2.7c-22.2 4.4-20-18.2-20-18.2l-1 3-.7 17.7s5.7 5.3 21.8.2z" class="st67"/><path fill="#919191" d="M765.7 507.9s-2.9 0-3 .4c0 .4 3 .9 3 .9v-1.3z"/><path d="M759.7 474.8l-.3 15.7 2.5 16.6s.2 1.1 2 .9c2.6-.3 5.1 2.3 1.1 2.7-.7.1-1.5 0-2.1-.2-1.9-.5-3.4-2-3.9-3.9-1.1-4.6-3.7-15-3.7-16.3a47.3 47.3 0 014.4-15.5z" class="st63"/><path d="M763.2 508.2c1 0 1.9-.9 1.9-.9s10.5-14.4 10.5-15.4c0-.8-.4-9-1-12.4a4 4 0 01.4-2.4l.3-1.8c.1-.6 1-.7 1.2-.1a69 69 0 013.5 17.9c-.5 3.1-12.7 16.2-12.7 16.2s-2.1 2-5.1 1.7c-4.1-.4-1.6-2.9 1-2.8z" class="st63"/><path d="M773.9 485.1l-.3-1.6c-.1-6.5.8-8.7 2.5-10.2 0 0 2.4 2.7 4 7.7.1 0 .1 2.2-6.2 4.1zM759.9 484.6l.4-10.4s-2.6 1.4-4.4 8.3c0 .1.9 1.8 4 2.1z" class="st65"/><path d="M776 473.5s-2.9 1.6-2.3 10.3c0 0-.1-7.4 2.3-10.3zM759.7 483.8s-.9-7.2 1.9-10.4c0 0-2 3.2-1.9 10.4z" class="st67"/><g id="Logo"><circle cx="747" cy="479.6" r="7.8" class="st69"/><path d="M741.1 477.4l-.4-.3-.1-.5.1-.5.4-.4.5-.1.5.1.4.3.1.5-.1.5-.4.4-.5.1-.5-.1zm.9-.5l.1-.4-.1-.4-.3-.1-.4.1-.1.4.1.4.4.1.3-.1zM744.9 475.7l.2.6v1.1h-.6v-1l-.1-.3-.3-.1-.3.1-.1.4v.9h-.6v-1.9h.5v.2l.3-.2.4-.1.6.3zM747.5 476.7h-1.4l.2.3.4.1h.3l.2-.1.3.3c-.2.2-.4.3-.8.3l-.6-.1-.4-.3-.1-.5.1-.5.4-.4.5-.1.5.1.4.3.1.5c-.1-.1-.1 0-.1.1zm-1.3-.7l-.2.3h.9l-.2-.3-.3-.1-.2.1zM742 480.5l-.2.1h-.3a.8.8 0 01-.5-.2.8.8 0 01-.2-.5v-.8h-.3v-.4h.3v-.5h.6v.5h.5v.4h-.5v.8l.1.2.2.1.2-.1.1.4zM745.4 478.7l-.7 1.9h-.5l-.4-1.2-.4 1.2h-.5l-.7-1.9h.5l.5 1.3.5-1.3h.5l.5 1.3.5-1.3h.2zM746 480.5l-.4-.3-.1-.5.1-.5.4-.4.5-.1.5.1.4.3.1.5-.1.5-.4.4-.5.1c-.1.1-.3 0-.5-.1zm.9-.4l.1-.4-.1-.4-.3-.1-.4.1-.1.4.1.4.4.1.3-.1zM741.1 483.5l-.4-.3-.1-.5.1-.5.4-.4.5-.1.5.1c.2.1.3.2.3.4l-.4.2c-.1-.2-.2-.3-.4-.3l-.4.1-.1.4.1.4.4.1c.2 0 .3-.1.4-.3l.4.2-.3.4-.5.1h-.5zM744.6 481.8c.2.1.2.4.2.6v1.1h-.5v-.2c-.1.2-.3.3-.6.3l-.4-.1a.2.2 0 01-.2-.2l-.1-.3.2-.4.6-.2h.4l-.1-.3-.3-.1h-.3l-.3.1-.2-.4.4-.2.4-.1.8.4zm-.5 1.4l.2-.2v-.2h-.4c-.2 0-.3.1-.3.2l.1.2.2.1.2-.1zM746.5 481.7l.4-.1v.5h-.1l-.4.1-.1.4v.9h-.6v-1.9h.5v.3c.1-.1.1-.2.3-.2zM749.3 482.8h-1.4l.2.3.4.1h.3l.2-.1.3.3c-.2.2-.4.3-.8.3l-.6-.1-.4-.3-.1-.5.1-.5.4-.4.5-.1.5.1.4.3.1.5c-.1-.1-.1 0-.1.1zm-1.3-.7l-.2.3h.9l-.2-.3-.3-.1-.2.1zM751.9 482.8h-1.4l.2.3.4.1h.3l.2-.1.3.3c-.2.2-.4.3-.8.3l-.6-.1-.4-.3-.1-.5.1-.5.4-.4.5-.1.5.1.4.3.1.5c-.1-.1-.1 0-.1.1zm-1.3-.7l-.2.3h.9l-.2-.3-.3-.1-.2.1zM656.8 544.4l.7-.1v.9h-.2l-.7.2c-.2.2-.2.4-.2.7v1.7h-1v-3.5h1v.5l.4-.4z" class="st65"/></g></g><g id="Parents_Head_Woman"><path fill="#501a5b" d="M765.3 449.3s-8.1-.2-6.2 6.9 10.3 1.4 10.3.8c0-.6-4.1-7.7-4.1-7.7z"/><path d="M764.8 454.6s1 7.4-6 13.6c0 0 4.5 2.2 10.7 1.8 6.2-.4 3.2-14.8 3.1-14.9l-7.8-.5z" class="st71"/><path d="M758.6 462c0 5 2.6 5.4 3.2 5.6 2.7.7 3.1 1.3 3.2 5.1 0 0 2.7 2.5 5.5-.1 0 0 0-3.2 1-6.9l.4-1.4.3-.8.2-.5.1-1c.1-1.7.8-5.8.7-7.1a6.4 6.4 0 00-6.5-5.6c-5.1.1-5.8 2.3-7.1 6.2-.1-.1-1 3.3-1 6.5z" class="st63"/><path d="M773.9 461.9c-.7 1.1-2 1.6-2.9 1.2-.9-.5-1.1-1.8-.4-2.9s1.9-1.7 2.8-1.2c.8.4 1.1 1.7.5 2.9z" class="st63"/><ellipse cx="771.8" cy="462.4" fill="#fbf7ea" rx=".6" ry=".5" transform="rotate(-.7 771.8 462.3) scale(.99997)"/><path d="M765 471.2c-.2-2.5-.8-3-3.1-3.6 1.9.4 2.8.4 3.9.4.9 0-.5 2.7-.8 3.2zM772.6 462.4s.6-.2.9-1.2c.5-1.4-.6-2-.6-2s1.3 1.4-.3 3.2z" class="st73"/><path d="M771.7 463.2c-1 1.9-4.2 5-8.4 5.1 3.5 2.7 10.3 1.9 10.3 1.9 4.5-13.6.3-18 .3-18-6.7-6.6-14.6-1.9-14.6.7 0 0 .4 3.9 10.4 7.3.6.2 1.5-1.8 3.2-1.4 1.6.4 1.8 3.6-1.2 4.4z" class="st71"/></g><path id="Mist_2" fill="#fff" d="M.4 768.4s350-179.2 404.6-129.1c94.4 86.6 262.2 41.6 286 33.7 150.6-49.8 346.9 57.8 579.8 57.8L.8 799.2l-.4-30.8z" opacity=".2"/><g id="Stage"><path fill="#eaba7e" d="M927.8 340.6H899l-.9-8.6h-25.8l-1.3 12.9h-29.3l-2.4 13.2c21.8-1.8 57.6-5 92.4 3.5l-3.9-21z"/><path d="M883.2 351.8v-11.3h-2.3v-4.3h7.7v15.6h-5.4zM918.5 354.1h-9.7l5.6-6.3c.3-.3.4-.7.4-1a1 1 0 00-.3-.7c-.2-.2-.4-.3-.8-.3s-.7.1-.9.4a3 3 0 00-.2.8h-3.5l.2-1.3c.1-.5.3-.9.6-1.4.3-.5.8-.9 1.4-1.2a6.7 6.7 0 015.1 0c.7.3 1.2.8 1.6 1.3s.5 1.2.5 1.9l-.2 1.3c-.1.4-.3.8-.6 1.1a7 7 0 01-.8 1c-.3.3-.7.8-1.3 1.2h2.8v3.2zM856.7 351.2h-.4v-1.6h.4c.5 0 .8-.2.8-.6l-.2-.4-.4-.1c-.3 0-.4.1-.5.2l-.1.4h-2.5c.1-.7.4-1.3.8-1.9.5-.6 1.3-.8 2.4-.8.6 0 1.1.1 1.6.3.5.2.9.4 1.1.8.3.3.4.7.4 1.2l-.2.8-.5.6-.7.3c.2.1.5.1.7.3l.6.6c.2.3.3.6.3 1.1l-.3 1.2a2 2 0 01-1.1.9c-.5.2-1.2.4-2.1.4-1.2 0-2-.3-2.5-.9-.5-.6-.7-1.3-.8-2h2.6l.2.6c.1.2.3.3.7.3.5 0 .7-.2.7-.7-.1-.8-.4-1-1-1z" class="st76"/></g><g id="Lamdscape_front"><path fill="#43692e" d="M657.2 698.6l623.4-61.3v163.3H.6v-37l529.8-52.5c0 .1 73.7 12.3 126.8-12.5z"/><path fill="#e0c757" d="M282.2 799.2s55.7-22.9 132.1-28.5c52.8-3.9 153.5-18.5 115.1-59.4 0 0 71 11.7 126.8-12.5 0 0 41 41.7 0 100.5h-374z"/><path d="M542 712.7l-13.6-1.5c38.5 40.9-61.3 55.5-114.1 59.4a528.4 528.4 0 00-132.9 27l8.1.1A536.5 536.5 0 01415 772.6c53.1-4.1 164-17.5 127-59.9zM656.2 698.7l-1.6.7s46.2 57.1-20.9 101.8l23.4-1c41.1-58.8-.9-101.5-.9-101.5z" class="st46"/></g><g id="Trees_front_1"><path fill="#3c3939" d="M931.6 756.8c17.4-2.8 9.7-6.6 8.5-8.7-5.8-9.9-169.2-17.3-234.2 1.4-6.1 19.2 219.1 8.3 225.7 7.3z" opacity=".3"/><path d="M1280.5 732c-4-.6-8-1.4-11.8-2.6v-15.3h11.8V732z" class="st81"/><path d="M1280.7 388.4l7.8 7.6-11.2 7-12 51.5 29.5 5.5-33.8 12.7-13.1 56.2 40.6 9.3-46.8 17.4-32.1 137.2c5 3.3 10.4 6 16.1 8.3a209.8 209.8 0 0055.3 14.3" class="st82"/></g><g id="Trees_front_2"><path d="M1158 715.5a27.2 27.2 0 01-26.8 0v-15.3h26.8v15.3z" class="st49"/><path d="M1164.5 639.2s11.6 1.4 20.4 2.7l-6.9-31c-7.8-2-16.8-4.4-16.8-5.3 0-1 9-1.6 15.2-1.9l-11.7-52.3-13.2-1.1 11.5-6.4-21.9-98.1-14.9 74.7 11.3 4.6-13.6 6.7-8 39.9 21.5 7.4-24.4 7.2-7.3 36.7 22.8 7.5-26.5 11-11 54.8c24.4 20.5 88 14.2 106 0l-10.4-46.5-22.1-10.6z" class="st82"/></g><g id="Trees_front_3"><path d="M989.2 702.3a27.2 27.2 0 01-26.8 0V687h26.8v15.3z" class="st81"/><path d="M993.3 569.4l-19.2-.4 17-9.1-17-72.4-13.2 56.7c6.9 4.9 13.2 9.7 13.2 9.7l-16.2 3.2-13.7 58.8c8.8-2.3 19.8-5.6 19.8-5.6l-23.2 20.2-12.2 52.4c21.4 22.3 80 13.9 91.3-.8l-26.6-112.7z" class="st82"/><g opacity=".3"><path d="M1019.8 682l-26.4-112.6-7.7-.2 17.3 122.5a36.1 36.1 0 0016.8-9.7zM991.1 559.9l-17-72.4 10.7 75.8z" class="st84"/></g></g><g id="Trees_front_4"><path d="M951.8 508.4c12.1 31.6 14.8 67.5 3.1 99.3s-38.9 58.4-72.1 65.2c-33.1 6.8-70.8-9-85.7-39.4a70.5 70.5 0 01-3.1-53.9c5.2-14.5 15.2-27.3 17.9-42.5 4.8-26.9-14.5-55.6-4.1-80.9 8.8-21.5 36-29.9 58.9-26.2 40 6.5 70.7 40.7 85.1 78.4z" class="st11"/><path fill="#7d5c3e" d="M851.9 719.9s-5.5-62 10-104.6c15.6-42.6 14.3-100.9 14.3-100.9s5.6 40.1-4 88.2c-2.4 12.1-18.5 50.8-10.3 117.2h-10z"/><path d="M851.9 719.9s-5.5-62 10-104.6c15.6-42.6 14.3-100.9 14.3-100.9s5.6 40.1-4 88.2c-2.4 12.1-18.5 50.8-10.3 117.2h-10z" class="st22"/><path d="M866.8 430a69.3 69.3 0 00-15.8-.7s82.9 24.5 82.9 130.5c0 88.4-40.1 109-53.4 113.5l2.3-.4c33.1-6.8 60.4-33.4 72.1-65.2 11.7-31.7 8.9-67.7-3.1-99.3-14.4-37.7-45.1-71.9-85-78.4z" class="st86"/></g><g id="Trees_front_5"><path d="M995.3 602.1a85 85 0 01.9-36.9 165 165 0 0115.9-36.6l18.6-34.9c1.8-3.3 3.9-6.9 7.6-7.7 3.6-.8 7 1.6 9.9 3.9 24.2 20 40.3 49.4 44 80.6a81.3 81.3 0 01-10.3 53.9c-10.2 15.6-29.5 26.1-47.8 22.4-10.2-2-19.4-8.2-26-16.4s-10.8-18-12.8-28.3z" class="st11"/><path d="M1071.9 615.7c-16.5 33.8-63.9 14.8-63.9 14.8a46.3 46.3 0 0026 16.4c18.3 3.6 37.6-6.8 47.8-22.4a80.7 80.7 0 0010.3-53.9 125 125 0 00-44-80.6c0-.1 51.4 69.1 23.8 125.7z" class="st86"/><path d="M1051.5 708.9V529.3l-3.1 73.2s-12.5 3.6-12.5-39.4c0 0-5.7 40.5 11.4 43.1l-4.1 102.8h8.3z" class="st22"/></g><g id="Trees_front_6"><path fill="#a6cb7e" d="M126.8 577.5c-7.8-12.6-23.2-21.9-23.4-36.7-.2-12 10.2-22.6 8.5-34.5-2-13.3-18.1-20.6-21.1-33.7-2.7-11.8 6.2-22.9 8.7-34.8a34.4 34.4 0 00-13.6-34.4 34.4 34.4 0 00-37-1 34.5 34.5 0 00-15.4 33.7c1.9 12 10.1 23.9 5.8 35.3-2.5 6.6-8.8 11-14.2 15.5-5.5 4.6-10.8 10.6-10.3 17.7.5 7.6 7.5 13.2 9.4 20.6 1.6 6.2-.7 12.9-4.2 18.3-3.4 5.4-8 10.1-11.5 15.5a45 45 0 00-4 7.5s-10.7 22.5.4 47c1.6 3.5 2.7 5 3.4 5.1A73.7 73.7 0 0070.5 652c19 .1 38.6-7 50.8-21.4 12.2-14.7 15.6-37 5.5-53.1z"/><path d="M55.1 721.4h6.4s13.3-248.2 0-275.3c0 0 4.1 42.5.7 134.3-3.4 91.8-7.1 141-7.1 141z" class="st22"/><path d="M66.4 597.4l24.8-31.9-24.8 21.8zM63.1 550.1s-8.5-26-25-45.6c0 0 14.2 13.2 25.2 34.5l-.2 11.1z" class="st22"/></g><g id="Trees_front_Bush_1"><path d="M729.3 751.8s-.2-30.9-27.2-46c0 0 32.9.9 52.4 27.8l-25.2 18.2z" class="st23"/><path fill="#7b945f" d="M731.4 737.9s.6-28 19.7-39.3c0 0-6.6 14.7 0 35l-19.7 4.3z"/></g><path id="Trees_front_Bush_2" fill="#536745" d="M408.5 733.7s-6-36.5-27.8-46c0 0 20.4-.8 31.7 25.3 0 0-6-22.1 1.8-33.9 0 0-3.2 28.4 11.4 39.5 0 0 6.7-12.6 4.4-22.9 0 0 1.6 22.9 11 27.6 0 0 12-11.8 7.2-32.4 0 0 8.4 13.4 4.5 29.2 0 0 19.4 3.9 20-7.9 0 0 3.3 15 0 21.3l-64.2.2z"/><path id="Trees_front_Bush_3" fill="#617c50" d="M60.2 746.9c-5.9 0-11.2-3.3-13.9-8.5-1.5-3-2.7-6.1-3.5-9.3a12 12 0 01-.5-5c.3-1.7 1.2-3.3 2.8-3.9 1.6-.6 3.7.1 4.2 1.7-.5-2.8-.7-5.9 0-8.6a9.6 9.6 0 015.2-6.4c2.6-1.1 6-.4 7.6 2 1.1 1.6 1.2 3.6.8 5.4s-1.2 3.6-2.1 5.2c1.4-1.1 2.2-2.3 3.3-3.8 1.1-1.5 2.2-3 3.6-4a5.7 5.7 0 015.2-1c.8 2.6.7 5.5-.3 8a8 8 0 012.6-.9c1-.2 2 0 2.8.6 1 1 1 2.7.5 4-.8 2-2.5 3.6-4.6 4.3 1.6-.9 3.7-1.9 5.2-.8 1 .7 1.3 2.2 1.1 3.4s-1 2.3-1.7 3.4l-5 7.3a15.6 15.6 0 01-13 6.8l-.3.1z"/><g id="Trees_front_Stone"><path fill="#c7c7c7" d="M706.6 747l9.7-15.2a4.5 4.5 0 013.8-2.1l30-6.4c2 0 3.9-1 5-2.7l21.7-19.1a25.9 25.9 0 0121.5-11.5h40c1.7 0 3.2.9 4 2.4l7.3 14.1c.6 1.2 1.7 2 3 2.3l22.8 5.2c.6.1 1.2.4 1.7.8l41.5 31c3.5 2.6 1.6 8.1-2.7 8.1H710.4c-2.5 0-4.5-2-4.5-4.5v-.1c0-.8.2-1.6.7-2.3z"/><path fill="#adadad" d="M918.5 745.9l-41.5-31c-.5-.4-1.1-.6-1.7-.8l-22.8-5.2a4.4 4.4 0 01-3-2.3l-7.3-14.1a4.5 4.5 0 00-4-2.4H813l11.3 32-24.2 12-39 20h154.7c4.4-.1 6.2-5.7 2.7-8.2z"/><path fill="#8f8e8e" d="M870 754h68.8a4 4 0 003.1-6.3L928.1 730a4 4 0 00-3.1-1.5h-36.2a4 4 0 00-2.7 1.1l-18.8 17.7a3.9 3.9 0 002.7 6.7z"/></g><g id="Character"><defs><use id="SVGID_5_" xlink:href="#BG"/></defs><clipPath id="SVGID_6_"><use overflow="visible" xlink:href="#SVGID_5_"/></clipPath><path d="M426 670.8s27.1-30.3-52-119l-22.3 42.1 74.3 76.9z" class="st94"/><path d="M370.1 1121.1l14.3 80.9 22.6 2.3-10.7-86.4zM234.3 1173.7l2 72.6 20-.8 4.3-72.9z" class="st51"/><path fill="#9f7d6b" d="M257.7 1222.3l-4.7 3.5-.4 17.8 3.9-.7z"/><path fill="#1a1d22" d="M212.8 747.6l11.4 229.6 6.9 249.4 31.6-1.2 27.5-239.9-.1-225.9z"/><path fill="#24262f" d="M264.3 1225.4l27.5-239.9-4.2-188.9-12.5-4.5 8.5 192.7-24.5 240.8z"/><path fill="#2d2f3c" d="M350.7 758.1l56.3 412.5-29.6 6.4L254 763.7z"/><path fill="#373b4c" d="M351.2 771.1c-5.6-6-6.9 4-6.9 4l-10.6 9.9 69.6 385.6h3.8l-55.9-399.5z"/><path d="M231.2 516.2s-17.2 8-44.3 76.7c-7.5 19-12.4 37.6-12.4 51.3 0 21.4 55.7 101.5 47.3 61.6s9.4-189.6 9.4-189.6z" class="st94"/><path d="M362.3 532.1s-11.8-29-35.9-19.5c-24.1 9.6 13.6 35.6 35.9 19.5z" class="st51"/><path d="M221.4 774.9s82.4 24.9 129.8-3.8c37.7-22.9-129.8-9.5-129.8-9.5v13.3z" class="st14"/><path d="M364.9 641s19.9 10.2 19.2-13.2c-.5-17.2-16.9-60.1-34.3-97.9a7.4 7.4 0 00-11.8-2.3l-9.8 9.3L364.9 641z" class="st100"/><path d="M263.3 481.5c3.4 5.7 1.5 19.2-.5 27.6a47.6 47.6 0 0036.3.4 73.5 73.5 0 01-1.7-19.3c25.4-.7 38.4 2.4 37.7-19.7a300 300 0 00-2.5-31.3c-1.3-9.8-2.7-22.9-7.5-31.7-7.8-14.3-35.2-14.6-47.9-9.1a47.5 47.5 0 00-27.2 36.3c-2.3 15.7 3.5 30.8 13.3 46.8z" class="st51"/><path d="M281.8 452.9s-7.5-2.7-7-11.7c.6-10.2 8.4-9.5 8.4-9.5s-7-.2-7.5 9.6a12.4 12.4 0 006.1 11.6z" class="st54"/><path d="M357.6 766.5v10s-88.7 50.9-145.6 29.2l-2.2-13 147.8-26.2z" class="st94"/><path d="M332.5 484.2c-9.2 8.7-38.1.1-38.1.1l2.4 6c10.5 1 31.4 1.5 35.7-6.1z" class="st54"/><path d="M340.5 544.8a61.4 61.4 0 00-41-36.3c-33.6 8.9-37.1-2.6-38.5-2.1l-22 6.3c-8.4 2.4-14 9.2-18.7 16.6-24.9 39.4-24.3 212.1-20.9 247.1 1.1 11.7 8.1 22.8 18.6 24.9 56.4 11.5 141.2-31.2 141.6-37.2 2.4-36.9 9.4-151.9-19.1-219.3z" class="st101"/><path fill="#2c595c" d="M345.9 773.8l-.6 9.1 12.3-6.4v-10l-11.1 7.3"/><path d="M359.6 764.1c1.9-28.9 6.6-105.9-5.2-170.3l-20.8-15.4s16.8 114.2 12.2 195.3c8.5-4.5 13.7-8.1 13.8-9.6zM254.9 556.3s33.4 10.7 54.6 69c16.5 45.3 31.3 103.1 26.9 117.4-8.3 27-107 36.8-125.5 24.1-9.4-6.5-27-126.4-8.3-178.1 18.2-49.7 52.3-32.4 52.3-32.4z" class="st94"/><path d="M329.3 741.2s28.3-30.1 34-65.5a29 29 0 00-.1-9.3l-2.3-13.9c-2.1 14.6-4.3 40-42.7 70.8-.8.7 11.1 17.9 11.1 17.9z" class="st103"/><path d="M299.5 557c.5-.3 2.8-24.9 28.7-33.1 0 0-29.6-.4-32.9 27.1l4.2 6z" class="st100"/><path d="M225 560.1s-18.1-16.8 11.6-20.1 9.9 21.8 9.9 21.8 11.7-22.8-11.1-17.9c-22.9 4.8-10.4 16.2-10.4 16.2z" class="st94"/><path d="M225 560.1s-18.9-20.7 10.9-24 9.9 21.8 9.9 21.8 11.7-22.8-11.1-17.9-9.7 20.1-9.7 20.1z" class="st103"/><path d="M243 767.8s5.7 16.8 5.3 21.1-13.7 14.2-23.5 11.7-13-38.5-13-38.5l31.2 5.7z" class="st101"/><path fill="#836b0b" d="M243 790.5s3.5-1.1-19-49.3l-8.3.5 6.3 51.2s8.9 1.5 9.6 1.4c.9-.1 11.4-3.8 11.4-3.8z"/><path d="M197.5 748.9s6.4 24.4 16.2 44a13.7 13.7 0 0017.8 6.5c4.1-1.8 8.4-4.6 11.5-8.9 0 0-10.7-.8-25.5-47.5l-20 5.9z" class="st103"/><path d="M207 585.6s-14.7-3.3-3.6-15.4 10.6-13.3 18.5-9.6l-14.9 25z" class="st105"/><path d="M191.7 750c-32.7-182.5 36-200.5 47-198.1 14.4-1.9 65.2 25.5 95 181.9a16 16 0 01-8.9 17.5c-11 5.2-31 12.7-64 18.7-58.1 10.7-67.4-10.3-69.1-20z" class="st106"/><path d="M198.3 625s28.9.1 59.6-10.5c0 0 6 12.6 6.2 19.3 0 0-48.5 15.8-62.6 8.5l-3.2-17.3z" class="st107"/><path d="M426.6 654.5c-14.3-39.2-43.9-89.5-53.7-110.4a42.5 42.5 0 00-27.1-22.9 584.3 584.3 0 00-40.4-10.2c-15.8-2.9 17 55.6 17 55.6a974.5 974.5 0 0044.7 86.1c9.3 15.6 34.7 47.8 48.4 42.8 8.5-3.2 18.9-19.7 11.1-41z" class="st101"/><path d="M200.9 699.9s54.6-18.6 81.6-11.4c0 0 3.1 32.3 12.2 48.7 0 0-24.3 16.4-51.7 17.9-27.4 1.5-32.9-5.2-32.9-5.2s-11.4-22.3-9.2-50z" class="st107"/><path d="M293.3 601.9s-3.9-64.6 47.2-82.1l-31.4 5.9-31.2 52.8 15.4 23.4z" class="st94"/><path d="M285.8 607.5l-11.2-22.8s-4.4-47.5 36.2-71.8c0 0 14.9-3.3 29.8 6.9-.1-.1-46.2-.1-54.8 87.7zM201.6 686.9c1.1-.9 35.8 4.6 76.2-10.7 0 0 6.3-.6 8.9 13.6 0 0-43.3 19.5-91 11.3.1 0-1.7-8.1 5.9-14.2z" class="st103"/><path d="M361 652.5s-1.4 35.7-31.5 61v3.3s32.4-25.6 31.5-64.3zM363.7 674.5s-5.3 30.8-33.3 61.5l3.6-.3c0 .1 26.7-33.4 29.7-61.2z" class="st105"/><path d="M212.4 748.9s-10.3-10.3-11.8-39c0 0-2.7 22.1 8.3 42.9 0 0 41 19.2 85.7-15.6.1 0-51.2 27.5-82.2 11.7zM198.1 623.9s-1.8 15.6 3.7 20.5c0 0 22.2 4.2 62.5-8.8 0 0 .7-11.7-6.5-21 0 0 3.9 15.5 1.8 17.7 0 0-28.2 12.6-56.2 9 .1 0-3.9-4.9-5.3-17.4z" class="st103"/><path d="M295.7 762.1c9.1-3 24.1-8.3 29.1-10.7a16.2 16.2 0 008.9-17.5c-29.8-156.4-80.6-183.8-95-181.9-6.1-1.3-29.7 3.6-44.1 38.8 0 0 8.5-18.7 29.2-22.5 28-5.1 42.7 16.8 57.6 55.5a795.4 795.4 0 0132.3 111c2.4 15-10 24.7-18 27.3z" class="st103"/><path d="M415.4 695.4c7.6-2.8 17.6-16.8 13.2-34.2.1 1.4-3.9 27.5-27.2 22.9-17.9-3.5-54.6-68.9-63.1-84.2 8.4 16.5 18.8 36 28.7 52.7 9.3 15.7 34.8 47.9 48.4 42.8zM335.2 595.4s-21.9-76 12.7-73.5c0-.1-28.1-4.3-12.7 73.5zM258.4 509.5s4.9 11.4 40.9 2.8c0 0-36 12-40.9-2.8z" class="st94"/><path d="M236.6 1242.5c6.3 3.7 17.3 3.1 20.8-2.4l39.7 10.4a8.7 8.7 0 014.3 7.5v.1c.1 4.8-3.3 8.9-7.7 9.1l-64 3.3 4.3-27c.3-1 1.6-1.6 2.6-1z" class="st108"/><path d="M230.5 1266.2l69.2-2.2-.9 3-68.9 3.6z" class="st109"/><path d="M283.7 1247c-.1.7-.4 1.5-.7 2.3-.2.4 0 .9.4 1.1l.3.1c.3 0 .6-.2.7-.4.4-.9.7-1.7.8-2.6l-1.5-.5zM277.4 1245.4c0 1.1-.2 2.5-.9 4-.2.4 0 .9.4 1.1l.3.1c.3 0 .6-.2.7-.4.7-1.5 1-3 1.1-4.2l-1.6-.6zM269.9 1249.6c-.2.4 0 .9.4 1.1l.3.1c.3 0 .6-.2.8-.5 1.1-2.4 1.2-4.7 1.1-6.2l-1.7-.4c.1 1.2.2 3.5-.9 5.9z" class="st110"/><path fill="#41465f" d="M261.7 484.3c-2.9-9.2-14.7-36.2-21.2-58.9a32.3 32.3 0 0115.1-36.9c23.5-13.4 53.7-30.4 69.6-27.6 23.7 4.2 14.6 35.9-4.2 50.2-13.8 10.5-21.7 1.3-25.7 8.9-2.9 5.5 9.1 7.4 4 15.3-5.6 8.6-6-7.4-15.6-7.4-9.5 0-15 15-7.9 23 4.3 4.9 7.2 7.6 11.7 12.1a9.3 9.3 0 01.5 12.6 35.7 35.7 0 01-21.9 11.3c-1.9.4-3.8-.7-4.4-2.6z"/><path fill="#676b7f" d="M325.3 360.9c-4.4-.8-9.9 0-16.1 1.7.1 0 39.7-3.6 15.9 44.9h.1c15.9-15.4 22-42.7.1-46.6z"/><path d="M276.2 577.8l-1.8-2.1s0-41.8 36.3-62.9l2.7-.5s-35.5 22-37.2 65.5zM287.4 594.4s7.4-69.2 53.1-74.7c0 0-3.6-2.3-4.7-2.8 0 0-41.4 7.1-50 75.4l1.6 2.1zM229.2 773s7.7 16 13.9 17.5l-1.2 1.5s-9.3-4-14.4-19.1l1.7.1zM212.5 790.4c-3.6-6.9-9.6-24-9.6-24l2.2 1.2c.1.1 9.6 31.8 19.6 32.8 0 0-4.5 0-7.9-3.6-3.5-3.5-4.3-6.4-4.3-6.4z" class="st105"/><path d="M257.4 1240.1c-3.5 5.5-14.5 6.1-20.8 2.4-1-.6-2.3 0-2.5 1.2 0 0 2.8 4.2 13.4 4.2 10.6 0 12.6-7.1 12.6-7.1l-2.7-.7z" class="st39"/><path d="M383.8 1196.2c7.9 2.2 19.7-1.5 21.9-8.2h46.1a10 10 0 016.9 6.7v.1c1.5 5-1 10.2-5.7 11.6l-68.5 21-3.1-29.3c-.1-1.3 1.1-2.2 2.4-1.9z" class="st108"/><path d="M384 1222.6l74.4-21.2-.2 3.3-73.7 22.7z" class="st109"/><path d="M436.2 1188c.1.8 0 1.7-.2 2.6-.1.5.2.9.7 1h.4c.3-.1.6-.3.6-.7.2-1 .2-2 .2-2.9h-1.7zM428.8 1188c.3 1.2.5 2.7.1 4.4-.1.5.2.9.7 1h.4c.3-.1.6-.3.6-.7.4-1.8.2-3.4-.1-4.7h-1.7zM421.9 1194.5c-.1.5.3.9.8 1h.4c.3-.1.6-.4.7-.7.5-2.8-.1-5.2-.6-6.8h-2c.5 1.3 1.2 3.7.7 6.5z" class="st110"/><path d="M405.7 1188c-2.2 6.7-14 10.4-21.9 8.2-1.3-.3-2.5.6-2.4 1.9 0 0 4.2 3.6 15.7.8 11.5-2.9 11.7-10.9 11.7-10.9h-3.1z" class="st39"/><g><circle cx="232.8" cy="664.4" r="13" class="st69"/><path d="M222.6 662.3l-.7-.5-.4-.8c-.1-.3 0-.6.1-.9l.5-.7c.2-.2.5-.3.9-.4.3-.1.6 0 .9.1a1.8 1.8 0 011.1 1.3c.1.3 0 .6-.1.9l-.5.7-.8.4-1-.1zm1.3-1c.1-.2.2-.4.1-.7 0-.3-.2-.5-.3-.6-.2-.1-.4-.2-.6-.1-.2 0-.4.1-.5.3-.1.2-.2.4-.1.7 0 .3.2.5.3.6.2.1.4.2.6.1.2 0 .4-.1.5-.3zM228.3 658.6c.3.2.5.5.5 1l.3 1.8-.9.1-.3-1.6c0-.2-.1-.4-.3-.5l-.5-.1c-.2 0-.4.1-.5.3l-.1.7.3 1.5-.9.1-.5-3.1.9-.1.1.4.4-.4.6-.2c.3-.1.6-.1.9.1zM232.9 659.4l-2.4.4.4.4.6.1.4-.1.3-.3.6.4c-.2.4-.6.6-1.2.7-.4.1-.7 0-1-.1-.3-.1-.5-.2-.7-.5l-.4-.8c-.1-.3 0-.6.1-.9l.5-.7c.2-.2.5-.3.8-.3.3-.1.6 0 .9.1.3.1.5.2.7.5l.4.8v.3zm-2.2-.6l-.2.5 1.5-.3-.3-.4-.5-.1c-.3.1-.4.1-.5.3zM224.9 667.3l-.3.2-.4.1c-.4.1-.7 0-.9-.1-.2-.2-.4-.4-.4-.8l-.2-1.3-.5.1-.1-.7.5-.1-.1-.8.9-.1.1.8.8-.1.1.7-.8.1.2 1.3.2.3.3.1.3-.2.3.5zM230 663.4l-.6 3.3-.9.1-1-1.8-.4 2.1-.9.1-1.6-2.9.9-.1 1.1 2 .4-2.2.8-.1 1.1 2 .4-2.2.7-.3zM231.5 666.2l-.7-.5-.4-.8c-.1-.3 0-.6.1-.9l.5-.7c.2-.2.5-.3.9-.4.3-.1.6 0 .9.1a1.8 1.8 0 011.1 1.3c.1.3 0 .6-.1.9l-.5.7-.8.4-1-.1zm1.4-1c.1-.2.2-.4.1-.7 0-.3-.2-.5-.3-.6-.2-.1-.4-.2-.6-.1-.2 0-.4.1-.5.3-.1.2-.2.4-.1.7 0 .3.2.5.3.6.2.1.4.2.6.1.2 0 .3-.1.5-.3zM224.2 672.3l-.7-.5-.4-.8c-.1-.3 0-.6.1-.9l.5-.7c.2-.2.5-.3.9-.4.3-.1.6 0 .9.1.3.1.5.3.6.5l-.6.5c-.2-.3-.5-.4-.8-.3-.2 0-.4.1-.5.3-.1.2-.2.4-.1.7 0 .3.2.5.3.6.2.1.4.2.6.1.3-.1.5-.2.6-.5l.8.3-.4.7-.8.4-1-.1zM229.5 668.7c.3.2.5.5.6 1l.3 1.8-.8.1-.1-.4c-.1.3-.4.5-.9.6h-.6l-.5-.3a.8.8 0 01-.2-.5c0-.3 0-.5.2-.7.2-.2.5-.3 1-.4l.7-.1c0-.2-.1-.3-.3-.4l-.6-.1-.5.2-.4.3-.4-.6.6-.4.7-.2c.5-.1.9-.1 1.2.1zm-.4 2.3l.2-.4-.1-.3-.6.1c-.4.1-.5.2-.5.5l.2.3c.1.1.2.1.4 0l.4-.2zM232.5 668l.6-.2.1.8h-.2c-.3 0-.5.1-.6.3-.1.2-.2.4-.1.7l.2 1.5-.9.1-.5-3.1.9-.1.1.4.4-.4zM237.5 668.9l-2.4.4.4.4.6.1.4-.1.3-.3.6.4c-.2.4-.6.6-1.2.7-.4.1-.7 0-1-.1-.3-.1-.5-.2-.7-.5l-.4-.8c-.1-.3 0-.6.1-.9l.5-.7c.2-.2.5-.3.8-.3.3-.1.6 0 .9.1.3.1.5.2.7.5l.4.8v.3zm-2.3-.6l-.2.5 1.5-.3-.3-.4-.5-.1-.5.3zM241.7 668.2l-2.4.4.4.4.6.1.4-.1.3-.3.6.4c-.2.4-.6.6-1.2.7-.4.1-.7 0-1-.1-.3-.1-.5-.2-.7-.5l-.4-.8c-.1-.3 0-.6.1-.9l.5-.7c.2-.2.5-.3.8-.3.3-.1.6 0 .9.1.3.1.5.2.7.5l.4.8v.3zm-2.3-.6l-.2.5 1.5-.3-.3-.4-.5-.1-.5.3zM243.9 666.1l.6-.2.1.8h-.2c-.3 0-.5.1-.6.3-.1.2-.2.4-.1.7l.2 1.5-.9.1-.5-3.1.9-.1.1.4.4-.4z" class="st65"/></g></g><g id="Pump_Dynamic"><path d="M1048.7 377.6h3.4v38.2h-3.4z" class="st115"/><path d="M1062.6 380h-24.5a2.4 2.4 0 01-2.4-2.4c0-1.3 1.1-2.4 2.4-2.4h24.5c1.3 0 2.4 1.1 2.4 2.4 0 1.4-1.1 2.4-2.4 2.4z" class="st110"/><path fill="#676668" d="M1063.7 375.3h-8.8c1 0 1.7 1.1 1.7 2.4s-.8 2.4-1.7 2.4h8.8c1 0 1.7-1.1 1.7-2.4s-.8-2.4-1.7-2.4z"/><path fill="#89898c" d="M1051 380h1v29.4h-1z"/></g><g id="Pump"><ellipse cx="1050.3" cy="450.8" class="st56" rx="14.9" ry="1.9"/><path d="M1044.3 409.6h12.1v41.7h-12.1z" class="st69"/><path d="M1042.5 447h15.6v4.4h-15.6zM1042.5 409.4h15.6v6.4h-15.6z" class="st118"/><path d="M1053.5 409.4h4.7v6.4h-4.7zM1053.1 447h5v4.4h-5z" class="st115"/><path fill="#ffa55e" d="M1054.8 415.8h1.6v31.1h-1.6z"/></g><g id="Balloons_R_1"><path d="M1211.4 471.9c-2.9-19.3-.8-60.7-.7-61.1h.3c0 .4-2.2 41.8.7 61l-.3.1z" class="st120"/><path d="M1223.2 395.1c0 7.4-6 19.9-13.4 19.9s-13.4-12.5-13.4-19.9a13.4 13.4 0 0126.8 0z" class="st121"/><path d="M1221.4 396.7c0 4.2-1.6 9.7-4.2 14.3a27.4 27.4 0 006.2-15.9c0-7.2-5.7-13.1-12.8-13.4 6.2 2.1 10.8 8 10.8 15z" class="st122"/><path d="M1201.6 392.1c-1.2 3.7-1 7.2-2.3 6.8s-2.4-3.7-1.2-7.4 4.3-6.3 5.5-5.9c1.3.5-.8 2.9-2 6.5z" class="st123"/><path d="M1206 417c.5-1.7.3-3.3.9-3.1.6.2.6 1.5.2 3.2s-1.3 3.1-1.9 2.9.3-1.3.8-3z" class="st124"/><path fill="#4c568e" d="M1220 428.3l-1.6 1.8 2.7.4z"/><ellipse cx="1211.7" cy="479.2" class="st56" rx="19.2" ry="1.9"/></g><g id="Balloons_R_2"><path d="M1211.7 475.8a232.2 232.2 0 00-8.5-49.7l.3-.1c.1.2 6.6 21 8.5 49.7l-.3.1z" class="st120"/><path d="M1206.4 407.7c2.3 7 .6 20.8-6.5 23.1-7 2.3-16.7-7.6-19-14.7a13.4 13.4 0 1125.5-8.4z" class="st106"/><path d="M1205.2 409.7a32 32 0 01.5 14.9 27 27 0 00.9-17 13.5 13.5 0 00-16.3-8.7c6.5 0 12.7 4.2 14.9 10.8z" class="st126"/><path d="M1185.7 411.3c0 3.8 1.3 7.1 0 7.1s-3.5-2.8-3.5-6.6 2.1-7.3 3.4-7.3c1.3 0 0 3 .1 6.8z" class="st127"/></g><g id="Balloons_R_3"><path d="M1211.1 466.4h-.3c.3-24 8.7-36 8.8-36.1l.2.2s-8.4 11.9-8.7 35.9z" class="st120"/><path d="M1238.5 416.4c-2.2 7.1-11.8 17.1-18.8 14.9-7.1-2.2-9-16-6.8-23a13.4 13.4 0 0125.6 8.1z" class="st1"/><path d="M1236.3 417.4c-1.3 4-4.5 8.7-8.4 12.3 4.8-3 9.3-8.7 10.7-13.2a13.3 13.3 0 00-8.1-16.6 15.6 15.6 0 015.8 17.5z" class="st128"/><path d="M1219.2 408.3c-2.2 3.1-3.1 6.5-4.2 5.8-1.1-.8-1.2-4.3 1.1-7.4s6-4.7 7-3.9c1.1.7-1.6 2.4-3.9 5.5z" class="st129"/></g><g id="Balloons_R_4"><path d="M1222.4 429.3c0 7.4-6 19.9-13.4 19.9s-13.4-12.5-13.4-19.9a13.4 13.4 0 0126.8 0z" class="st11"/><path d="M1220.6 430.8c0 4.2-1.6 9.7-4.2 14.3a27.4 27.4 0 006.2-15.9c0-7.2-5.7-13.1-12.8-13.4 6.3 2.1 10.8 8 10.8 15z" class="st130"/><path d="M1201.6 427.4c-1.2 3.7-1 7.2-2.3 6.8s-2.4-3.7-1.2-7.4 4.3-6.3 5.5-5.9c1.3.4-.8 2.8-2 6.5z" class="st124"/></g><g id="Balloons_L_1"><path d="M526.5 464.4c-2.3-15.5-.6-48.7-.6-49.1h.2c0 .3-1.7 33.5.6 49l-.2.1z" class="st120"/><path d="M535.9 402.8c0 6-4.8 16-10.8 16-6 0-10.8-10-10.8-16s4.8-10.8 10.8-10.8c6 0 10.8 4.8 10.8 10.8z" class="st121"/><path d="M534.5 404c0 3.3-1.3 7.8-3.4 11.5 3-3.5 5-8.9 5-12.7 0-5.8-4.5-10.5-10.2-10.8 4.9 1.7 8.6 6.4 8.6 12z" class="st122"/><path d="M518.6 400.4c-1 2.9-.8 5.8-1.8 5.4-1-.3-1.9-3-1-5.9s3.4-5 4.4-4.7c1 .3-.7 2.2-1.6 5.2z" class="st123"/><path fill="#855749" d="M519.5 426.1l-.5 1.8 2.1-.6z"/><ellipse cx="526.7" cy="470.3" class="st56" rx="15.5" ry="1.5"/></g><g id="Balloons_L_2"><path d="M526.7 467.5a182.5 182.5 0 00-6.8-39.9l.2-.1c.1.2 5.3 16.9 6.8 39.9l-.2.1z" class="st120"/><path d="M522.4 412.8c1.9 5.7.4 16.7-5.2 18.6-5.7 1.9-13.4-6.1-15.3-11.8s1.2-11.7 6.8-13.6a10.8 10.8 0 0113.7 6.8z" class="st106"/><path d="M521.4 414.5c1 3.2 1.2 7.8.4 12a22 22 0 00.7-13.6 10.8 10.8 0 00-13.1-7c5.3-.1 10.3 3.2 12 8.6z" class="st126"/><path d="M505.8 415.8c0 3.1 1 5.7 0 5.7-1.1 0-2.8-2.2-2.8-5.3s1.7-5.9 2.7-5.9 0 2.4.1 5.5z" class="st127"/></g><g id="Balloons_L_2_1_"><path d="M526.2 460h-.2c.3-19.3 7-28.9 7.1-29l.2.1c-.1.1-6.8 9.6-7.1 28.9z" class="st120"/><path d="M548.2 419.9c-1.8 5.7-9.4 13.8-15.1 12-5.7-1.8-7.2-12.8-5.4-18.5a10.7 10.7 0 1120.5 6.5z" class="st1"/><path d="M546.4 420.6c-1 3.2-3.6 7-6.7 9.9 3.9-2.4 7.4-7 8.6-10.6a10.7 10.7 0 00-6.5-13.4c4.3 3.1 6.3 8.8 4.6 14.1z" class="st128"/><path d="M532.7 413.3c-1.8 2.5-2.5 5.2-3.4 4.6s-1-3.4.8-5.9c1.8-2.5 4.8-3.8 5.7-3.2.9.7-1.3 2-3.1 4.5z" class="st129"/></g><g id="Balloons_L_3"><path d="M535.3 430.2c0 6-4.8 16-10.8 16s-10.8-10-10.8-16 4.8-10.8 10.8-10.8 10.8 4.8 10.8 10.8z" class="st11"/><path d="M533.9 431.4c0 3.3-1.3 7.8-3.4 11.5 3-3.5 5-8.9 5-12.7 0-5.8-4.5-10.5-10.2-10.8 4.9 1.7 8.6 6.4 8.6 12z" class="st130"/><path d="M518.6 428.6c-1 2.9-.8 5.8-1.8 5.4s-1.9-3-1-5.9 3.4-5 4.4-4.7c1 .4-.7 2.3-1.6 5.2z" class="st124"/></g></svg>