<?xml version="1.0" encoding="utf-8"?>
<!-- Generator: Adobe Illustrator 22.1.0, SVG Export Plug-In . SVG Version: 6.00 Build 0)  -->
<svg version="1.1" id="Слой_1" xmlns="http://www.w3.org/2000/svg" xmlns:xlink="http://www.w3.org/1999/xlink" x="0px" y="0px"
	 viewBox="0 0 1280.6 800" style="enable-background:new 0 0 1280.6 800;" xml:space="preserve">
<style type="text/css">
	.st0{fill:#E7E8EC;}
	.st1{fill:#75AEB9;}
	.st2{fill:#B9CDEB;}
	.st3{fill:#C9DCF8;}
	.st4{fill:#DDE9FA;}
	.st5{fill:#AFC3E3;}
	.st6{fill:#D4E3F9;}
	.st7{opacity:0.34;fill:#232121;enable-background:new    ;}
	.st8{opacity:0.37;fill:#FFFFFF;enable-background:new    ;}
	.st9{fill:#BEE696;}
	.st10{fill:#F1DB7D;}
	.st11{fill:#96CD7C;}
	.st12{opacity:0.2;fill:#232121;enable-background:new    ;}
	.st13{fill:none;}
	.st14{opacity:0.32;fill:#232121;enable-background:new    ;}
	.st15{fill:#5E8E44;}
	.st16{fill:#8EBD5C;}
	.st17{opacity:0.21;fill:#FFFFFF;enable-background:new    ;}
	.st18{fill:#709A5B;}
	.st19{fill:#F1D970;}
	.st20{fill:#A16B77;}
	.st21{fill:#6C8A56;}
	.st22{clip-path:url(#SVGID_2_);fill:#5E8E44;}
	.st23{opacity:0.1;clip-path:url(#SVGID_4_);fill:#232121;enable-background:new    ;}
	.st24{clip-path:url(#SVGID_6_);fill:#F1D970;}
	.st25{clip-path:url(#SVGID_8_);fill:#69552E;}
	.st26{clip-path:url(#SVGID_10_);fill:#69552E;}
	.st27{opacity:0.32;clip-path:url(#SVGID_12_);fill:#3C3939;enable-background:new    ;}
	.st28{fill:none;stroke:#A1C37E;stroke-width:0.3945;stroke-miterlimit:10;}
	.st29{clip-path:url(#SVGID_14_);fill:#487435;}
	.st30{clip-path:url(#SVGID_16_);fill:#F1D970;}
	.st31{clip-path:url(#SVGID_18_);fill:#69552E;}
	.st32{clip-path:url(#SVGID_20_);fill:#69552E;}
	.st33{clip-path:url(#SVGID_22_);fill:#4B5D3F;}
	.st34{fill:#4A7337;}
	.st35{fill:#E8CE5A;}
	.st36{fill:#69552E;}
	.st37{fill:#22302E;}
	.st38{fill:#59714B;}
	.st39{fill:#5E4A31;}
	.st40{fill:#304A23;}
	.st41{opacity:0.2;fill:#FFFFFF;enable-background:new    ;}
	.st42{fill:#43692E;}
	.st43{fill:#E0C757;}
	.st44{fill:#47573B;}
	.st45{opacity:0.25;fill:#3C3939;enable-background:new    ;}
	.st46{fill:#7B5059;}
	.st47{fill:#2C481F;}
	.st48{opacity:0.32;}
	.st49{fill:#232121;}
	.st50{fill:#7D5C3E;}
	.st51{opacity:0.32;fill:#3C3939;enable-background:new    ;}
	.st52{fill:#A6CB7E;}
	.st53{fill:#7B945F;}
	.st54{fill:#536745;}
	.st55{fill:#617C50;}
	.st56{fill:#C7C7C7;}
	.st57{fill:#ADADAD;}
	.st58{fill:#8F8E8E;}
</style>
<g id="BG">
	<rect x="0.6" y="0.7" class="st0" width="1280" height="800"/>
	<path class="st0" d="M548.7,170.4"/>
</g>
<g id="Sky">
	<path class="st1" d="M164.1,600.8c-42-0.3-41.9-10.2-81-24.6s-73.9-46-77.9-85.1c-5.4-52.5,42.7-94.8,86.5-128.1
		c71.4-54.3,142.8-108.5,214.2-162.8c22.2-16.9,44.9-34,71.3-44.2c26.5-10.2,57.8-12.8,83.2-0.4c39.1,19,54.9,67.3,95.1,84.1
		c33.8,14.1,74.4,0.6,102.6-21.9S812.5,62.9,864.8,40.5c56.9-24.4,123.2,6.9,136.8,64c12.6,53.1,40.4,103,80.6,142.3
		c50.8,49.7,120.2,83.3,159.3,141.7c43.8,65.5,39.6,153.3,0.1,221.2s-110,116.9-187,144.8c-77,28-160.6,36.6-243.2,38.4
		c-178.2,3.9-357-23-524.9-78.8c-29-9.7-58.3-20.5-82.1-38.8C180.6,657,162.9,629.6,164.1,600.8z"/>
	<path class="st1" d="M581.6,187.7c0,0,82.6-113.8,180-146.4s-47.1,85.7-73.5,102.9C661.8,161.4,573.2,230.2,581.6,187.7z"/>
	<path class="st1" d="M36.4,292.1c0,0,7-73.2,90.9-122.8s115,2.9,57.8,48.5S51.4,323.9,36.4,292.1"/>
	<path class="st1" d="M220.8,41.3c-1.5,8.8-8.5,16.5-14.4,22.5c-21.8,22.2-43.8,44.6-65.7,60.5c-16.7,12-33.4,20-47,19.9
		c-8.3-0.1-5.5-17.9,4.5-28.8c0.2-0.2,0.4-0.5,0.6-0.7c6.7-7.2,13.7-12.1,20.5-17C146.2,78.5,173.1,59.2,200,40
		c6.5-4.6,13.3-9.4,18-7.4C220.4,33.6,221.6,36.7,220.8,41.3z"/>
</g>
<g id="Buildings_1">
	<rect x="578.1" y="203.3" class="st2" width="51.1" height="164.5"/>
</g>
<g id="Buildings_2">
	<rect x="734.4" y="265.7" class="st2" width="86.9" height="140.8"/>
</g>
<g id="Buildings_3">
	<rect x="597.9" y="258.8" class="st3" width="51.1" height="131"/>
</g>
<g id="Buildings_4">
	<rect x="583.8" y="280" class="st4" width="46.4" height="75.9"/>
	<rect x="580.1" y="279.9" class="st5" width="53.9" height="9.1"/>
	<rect x="580.1" y="327.2" class="st5" width="53.9" height="9.1"/>
	<rect x="586.4" y="338" class="st2" width="7.7" height="11"/>
	<rect x="598.1" y="338" class="st2" width="7.7" height="11"/>
	<rect x="609.8" y="338" class="st2" width="7.7" height="11"/>
	<rect x="621.5" y="338" class="st2" width="7.7" height="11"/>
	<rect x="586.4" y="290.9" class="st2" width="7.7" height="11"/>
	<rect x="598.1" y="290.9" class="st2" width="7.7" height="11"/>
	<rect x="609.8" y="290.9" class="st2" width="7.7" height="11"/>
	<rect x="621.5" y="290.9" class="st2" width="7.7" height="11"/>
	<rect x="586.4" y="303.2" class="st2" width="7.7" height="11"/>
	<rect x="598.1" y="303.2" class="st2" width="7.7" height="11"/>
	<rect x="609.8" y="303.2" class="st2" width="7.7" height="11"/>
	<rect x="621.5" y="303.2" class="st2" width="7.7" height="11"/>
	<rect x="586.4" y="315.4" class="st2" width="7.7" height="11"/>
	<rect x="598.1" y="315.4" class="st2" width="7.7" height="11"/>
	<rect x="609.8" y="315.4" class="st2" width="7.7" height="11"/>
	<rect x="621.5" y="315.4" class="st2" width="7.7" height="11"/>
</g>
<g id="Buildings_5">
	<rect x="543.2" y="260.5" class="st3" width="31.6" height="107.3"/>
</g>
<g id="Buildings_6">
	<polygon class="st2" points="337.7,406.5 267,406.5 267,251.9 337.7,282.6 	"/>
</g>
<g id="Buildings_7">
	<rect x="310.5" y="306.6" class="st3" width="70.7" height="99.9"/>
</g>
<g id="Buildings_8">
	<rect x="363" y="236.8" class="st2" width="44.9" height="169.7"/>
</g>
<g id="Buildings_9">
	<rect x="390.8" y="295.1" class="st2" width="61.2" height="111.4"/>
</g>
<g id="Buildings_10">
	<polygon class="st2" points="517.1,406.5 455.9,406.5 455.9,255.5 517.1,277.7 	"/>
</g>
<g id="Buildings_11">
	<rect x="431.3" y="307.2" class="st3" width="101.5" height="60.6"/>
</g>
<g id="Buildings_12">
	<rect x="356.9" y="321.2" class="st6" width="78.8" height="41.4"/>
	<rect x="412.2" y="320.4" class="st2" width="8.1" height="42.1"/>
	<rect x="418" y="323.8" class="st7" width="2.3" height="38.8"/>
	<rect x="373.5" y="320.4" class="st2" width="8.1" height="42.1"/>
	<rect x="379.3" y="323.8" class="st7" width="2.3" height="38.8"/>
	<rect x="353.5" y="315.7" class="st2" width="86.5" height="8.1"/>
	<polygon class="st6" points="437.7,315.7 396.2,290.2 357.2,315.7 	"/>
</g>
<g id="Buildings_13">
	<rect x="218.6" y="306.6" class="st3" width="70.7" height="99.9"/>
</g>
<g id="Buildings_14">
	<polygon class="st2" points="702.6,385 651.6,385 651.6,251.6 702.6,197.7 	"/>
</g>
<g id="Buildings_15">
	<rect x="713.6" y="279.4" class="st3" width="31.6" height="107.3"/>
</g>
<g id="Buildings_16">
	<rect x="865.4" y="290.2" class="st2" width="123.7" height="113.3"/>
</g>
<g id="Buildings_17">
	<rect x="787.3" y="206.5" class="st3" width="66" height="231.7"/>
</g>
<g id="Clouds_1">
	<polygon class="st8" points="1078.5,56.2 665.5,88.1 1247.3,95.4 	"/>
</g>
<g id="Landscape_6">
	<path class="st9" d="M247,374.6c0,0,198.2-78.3,535.7-3.9s497.5,0,497.5,0l0.5,430H0.6L0,548.2L247,374.6"/>
	<path class="st10" d="M403,342.2l8.7,0.2c0,0-19.5,14,34.5,23.2c11.9,2,32.9,3.2,53,5.3c35.5,3.6,75.6-20.1,89.3-28.7l9.3,0.4
		c-28.8,22-82.4,30-83.1,37.3c-1,9.9,95.4,77,161,83.8c42.3,4.4,84.9,5.6,127.5,5.6c-46.1,0.1-92.1-0.9-137.9-5.6
		c-52.9-5.5-139.2-57.9-165.2-80.4l0,0c-5.3-5.9-31-10.6-48.9-11.9C425.5,369.7,384.2,353.9,403,342.2z"/>
</g>
<g id="Landscape_6_Tree">
	<path class="st11" d="M488.9,403.7l-8.3,40.6c4.9,3.1,15,2.4,19.9-0.2L488.9,403.7z"/>
</g>
<g id="Landscape_6_Tree_1_">
	<path class="st11" d="M459.7,372.5l-14,68.8c8.2,5.3,25.4,4,33.7-0.3L459.7,372.5z"/>
</g>
<g id="Landscape_6_Tree_2_">
	<path class="st11" d="M507.1,389.1l-10.3,50.4c6,3.9,18.6,3,24.7-0.2L507.1,389.1z"/>
</g>
<g id="Landscape_back">
	<path class="st11" d="M308.3,387.1L453.1,416c52.3,11.6,106.9,7,156.6-13.1L738,357.8c3.4-1.4,6.9-2.4,10.5-3L976.2,313
		c8.4-1.4,304.4-33.2,304.4-33.2l-0.5,239.3L535.6,665.8c-10,2-20.4,0.9-29.8-3.2L180.4,522.8c-43.6-18.7-39.9-81.7,5.6-95.2
		L308.3,387.1z"/>
	<path class="st10" d="M482.4,475c0,0,417.6-52,370.6-92.7s-114.9-24.5-114.9-24.5s78.9-15.6,128,16.8
		c48.7,32.1-83.9,69.5-354.5,112.8L482.4,475z"/>
	<path class="st12" d="M310.5,387.1c5.3,3.1,474.2,97.3,474.2,97.3L339.8,421L310.5,387.1z"/>
	<polygon class="st13" points="4.4,2.8 1280.6,0.7 1280.6,800.7 0.6,800.7 	"/>
	<path class="st14" d="M1280.7,303.1v-23.7l-299.1,32.9l-233,42.1C748.6,354.4,1084.9,303.1,1280.7,303.1z"/>
</g>
<g id="Landscape_back_Tree_1">
	<path class="st15" d="M1157,401.6l-13,63.9c7.7,4.9,23.6,3.7,31.3-0.2L1157,401.6z"/>
</g>
<g id="Landscape_back_Tree_2">
	<path class="st15" d="M1134.1,412.2l-10.3,50.4c6,3.9,18.6,3,24.7-0.2L1134.1,412.2z"/>
</g>
<g id="Landscape_back_Tree_3">
	<path class="st16" d="M1256.3,233.9l-13,63.9c7.7,4.9,23.6,3.7,31.3-0.2L1256.3,233.9z"/>
</g>
<g id="Landscape_back_Tree_4">
	<path class="st16" d="M1228.8,207.2l-17.4,85.1c10.2,6.6,31.5,5,41.7-0.3L1228.8,207.2z"/>
</g>
<g id="Landscape_back_Tree_5">
	<path class="st16" d="M1133.3,251.9l-10.2,49.7c6,3.8,18.4,2.9,24.4-0.2L1133.3,251.9z"/>
</g>
<g id="Landscape_back_Tree_6">
	<path class="st16" d="M1109.6,253.3l-10.2,49.7c6,3.8,18.4,2.9,24.4-0.2L1109.6,253.3z"/>
</g>
<g id="Mist_back_1">
	<polygon class="st8" points="1030.6,241.3 589.4,296.7 1255.1,264.2 	"/>
</g>
<g id="Mist_back_2">
	<path class="st17" d="M1281.2,351.6c0,0-14.5-2.8-35-5.7c-50.8-7.1-138.2-14.8-130.1,19c11.4,47.3-41.1,54-83.9,40.8
		c-42.8-13.2-73.4-7.2-179.2,10.1c-105.9,17.3-181.8,28.4-221.4,20.6c0,0,187.6,32,645.3,32L1281.2,351.6z"/>
</g>
<g id="Landscape_5">
	<path class="st18" d="M46.1,225.5h0.3c20.2,0,38.6,11.5,47.4,29.5l18,36.9c6.6,13.5,18.6,23.6,33,27.7l103.9,30.1
		c4.3,1.2,8.3,3,12.1,5.2l154.6,90.7c39.3,23.1,85,33,130.3,28.4l59.5-6c5.2-0.5,10.4-0.3,15.5,0.7l410.9,79.4l244.9,47.8l3.9,204.6
		H0.6l-0.5-571C0.1,229.5,19,225.5,46.1,225.5z"/>
	<path class="st19" d="M256.1,352.6c0,0-43.8,3.9-71.2,46.5c-36.4,56.7,142.4,60.2,219.5,77.7c3.7,0.8,8.5,2.2,14.7,4
		c16.1,4.7,37.9,15.4,74.6,23.8c25.9,6,65.9,11.2,99.2,15.3c33.4,4.2,88.4,13.1,132.3,17.3l34.3-10.2c-23.5-1.4-72.7-6.5-115.1-11.3
		c-31.8-3.6-69.3-5.1-112.9-13.2c-35.1-6.5-66-19.4-75.6-22c-32.2-8.8-71-16.4-114.1-23.6c-52.7-8.9-155-23-147.6-50.3
		c8.9-32.8,64.5-52.5,69.4-50L256.1,352.6z"/>
	<path class="st7" d="M93.3,254.4c11.1,21.3,21.4,48,33,55.6c0,0-116.4,15.1-65.7,25.6c45.1,9.4,158.7,13,187.9,15.3
		c4.1,0.3,8,1.6,11.6,3.6l35.4,20.8c0,0,31.9,18.7-52-0.7c-90.3-20.9-139.6,7.4-86.8,20.6c52.5,13.1,153.5-1.1,122.3,20.7
		c-0.3,0.2-0.6,0.4-1,0.5c-25.8,10.3-80.9,17.3-41.9,28c35.7,9.8,140.8,34.7,224.5,36.7c9.2,0.2,18.4-0.2,27.5-1.1l119-12
		c0,0,110.7,29.8,62,44.7s-282.3,4.2-235.6,29.9c46.7,25.6,367.7,16,367.7,16L289.4,679.1L-0.2,634.9l0.3-406.4
		c32.5-3.5,47.9-3,47.9-3C67.2,225.5,84.8,237.3,93.3,254.4z"/>
	<polygon class="st20" points="179.8,291.3 185.7,289.6 180.5,290.5 	"/>
	<polygon class="st20" points="160.3,288.1 161.4,294.1 163.1,295.5 	"/>
</g>
<g id="Landscape_5_Tree_1">
	<path class="st21" d="M177.4,311c-0.2,3.4,0.8,6.9,3,9.5s5.7,4.1,9.1,3.7c3.4-0.4,6.4-2.7,8.2-5.6s2.5-6.4,2.6-9.8
		c0.1-3-0.3-6-1.7-8.6s-4.1-4.6-7.1-4.7c-2,0-3.9,0.7-5.5,1.8C181.3,300.2,177.7,305.4,177.4,311z"/>
	<path class="st20" d="M186.3,339.6h1.3c0,0,0.1-13.5,0.8-19.3c0,0,6.4,0.7,6-9.3c0,0-1.3,9.2-6,7.8l2-16.1l-1.4,6
		c0,0-1.7-0.2-1.5-6.9c0,0-1.2,6.4,1.3,7.8C188.9,309.7,187,319.2,186.3,339.6z"/>
</g>
<g id="Landscape_5_Tree_2">
	<path class="st9" d="M176.6,318.6c3.6-0.7,7.1-2.2,10-4.5c5.4-4.2,8.8-10.8,9.2-17.5c0.5-6.8-1.9-13.7-6.4-18.9
		c-2.7-3.2-6.2-5.8-10.2-7.1c-7.3-2.4-15.7-0.4-21.6,4.5c-5.5,4.6-9,11.5-9.2,18.7c-0.2,7.1,2.8,14.4,8.1,19.1
		C162,317.6,169.6,319.8,176.6,318.6z"/>
	<path class="st20" d="M170.7,340.9h2.3c0,0,1.9-53.2,0-62.1C173,278.8,172.6,328.6,170.7,340.9z"/>
	<polygon class="st20" points="173.8,295.5 185.7,284.4 173.8,298.3 	"/>
	<polygon class="st20" points="173.8,304.7 156.2,289.6 172.5,306.6 	"/>
</g>
<g id="Lanscape_4">
	<g>
		<g>
			<defs>
				<polyline id="SVGID_1_" points="4.4,2.8 1280.6,0.7 1280.6,800.7 0.6,800.7 				"/>
			</defs>
			<clipPath id="SVGID_2_">
				<use xlink:href="#SVGID_1_"  style="overflow:visible;"/>
			</clipPath>
			<path class="st22" d="M321.1,629.9L591.3,558l100.7-9c8.6-0.8,17-2.8,25-5.9l229.8-91c15.4-6.1,31.7-9.2,48.2-9.2h139
				c23.3,0,45.1-11.6,58.1-30.8l89.5-132.2l-1,520.9H0.6L321.1,629.9z"/>
		</g>
		<g>
			<defs>
				<polyline id="SVGID_3_" points="4.4,2.8 1280.6,0.7 1280.6,800.7 0.6,800.7 				"/>
			</defs>
			<clipPath id="SVGID_4_">
				<use xlink:href="#SVGID_3_"  style="overflow:visible;"/>
			</clipPath>
			<polygon class="st23" points="362.2,618.9 1284.5,598.9 503,581.4 			"/>
		</g>
		<g>
			<defs>
				<polyline id="SVGID_5_" points="4.4,2.8 1280.6,0.7 1280.6,800.7 0.6,800.7 				"/>
			</defs>
			<clipPath id="SVGID_6_">
				<use xlink:href="#SVGID_5_"  style="overflow:visible;"/>
			</clipPath>
			<path class="st24" d="M1014.2,442.8c67.9,6.1,84.3,110,84.3,110l29.8-19.2c0,0-57-94.4-99.6-90.7L1014.2,442.8L1014.2,442.8z"/>
		</g>
		<g>
			<defs>
				<polyline id="SVGID_7_" points="4.4,2.8 1280.6,0.7 1280.6,800.7 0.6,800.7 				"/>
			</defs>
			<clipPath id="SVGID_8_">
				<use xlink:href="#SVGID_7_"  style="overflow:visible;"/>
			</clipPath>
			<path class="st25" d="M1123.2,525.6c-54.7-85.4-89.6-82.8-89.6-82.8s31.8-2.6,88.6,82.8H1123.2z"/>
		</g>
		<g>
			<defs>
				<polyline id="SVGID_9_" points="4.4,2.8 1280.6,0.7 1280.6,800.7 0.6,800.7 				"/>
			</defs>
			<clipPath id="SVGID_10_">
				<use xlink:href="#SVGID_9_"  style="overflow:visible;"/>
			</clipPath>
			<path class="st26" d="M1014.2,442.8c0,0,59.2-2.6,85.2,110l2.8-2.4C1102.2,550.5,1076.4,445.4,1014.2,442.8z"/>
		</g>
		<g>
			<defs>
				<polyline id="SVGID_11_" points="4.4,2.8 1280.6,0.7 1280.6,800.7 0.6,800.7 				"/>
			</defs>
			<clipPath id="SVGID_12_">
				<use xlink:href="#SVGID_11_"  style="overflow:visible;"/>
			</clipPath>
			<path class="st27" d="M1003.2,442.8c-20.9,0-41.5,3.9-60.9,11.6l-172.9,68.5l0,0c33.7-7,69.4-11.9,107.7-14.2
				c38.3-2.3,116.4-50.8,196.3-47.2c79.9,3.6,146.3,54.7,150.3,8.7c4.1-46,75.5-162.9,75.5-162.9l-18.1-26.9l-86.4,127
				c-14.9,22.1-31.4,35.4-63.5,35.3L1003.2,442.8L1003.2,442.8z"/>
		</g>
	</g>
	<path class="st28" d="M1092.8,463.3"/>
</g>
<g id="Lanscape_3">
	<g>
		<g>
			<defs>
				<polyline id="SVGID_13_" points="4.4,2.8 1280.6,0.7 1280.6,800.7 0.6,800.7 				"/>
			</defs>
			<clipPath id="SVGID_14_">
				<use xlink:href="#SVGID_13_"  style="overflow:visible;"/>
			</clipPath>
			<path class="st29" d="M1280,688.4c-41.7-13.7-85.9-25.5-164.5-30.5c-143.6-9.1-220.3-41.4-250.9-58
				c133.9,60,207.6-57.3,299.5-122c0,0,2.9,0,9.6-4.4c6.5-4.2,4-4.6,4-4.6c11.6-6.3,27.1-15.6,39.9-19.6l62.6-14.9L1280,688.4z"/>
		</g>
		<g>
			<defs>
				<polyline id="SVGID_15_" points="4.4,2.8 1280.6,0.7 1280.6,800.7 0.6,800.7 				"/>
			</defs>
			<clipPath id="SVGID_16_">
				<use xlink:href="#SVGID_15_"  style="overflow:visible;"/>
			</clipPath>
			<path class="st30" d="M1164,477.9c0,0,42.1-10.2,58,36.3c36.5,106.4-154.9,139.1-154.9,139.1l139.3,13.5c0,0,48.9-24.6,62.9-65.1
				c21-60.6-15.7-142.2-91.6-132.7C1177.7,468.9,1176.5,472.3,1164,477.9z"/>
		</g>
		<g>
			<defs>
				<polyline id="SVGID_17_" points="4.4,2.8 1280.6,0.7 1280.6,800.7 0.6,800.7 				"/>
			</defs>
			<clipPath id="SVGID_18_">
				<use xlink:href="#SVGID_17_"  style="overflow:visible;"/>
			</clipPath>
			<path class="st31" d="M1177.7,468.9c77.2-7.5,105.7,76.3,86.2,132.7c-12.8,36.9-56.1,60.6-63.4,64.5l5.9,0.6
				c0,0,48.9-24.6,62.9-65.1C1289.5,543.3,1255.8,459.2,1177.7,468.9z"/>
		</g>
		<g>
			<defs>
				<polyline id="SVGID_19_" points="4.4,2.8 1280.6,0.7 1280.6,800.7 0.6,800.7 				"/>
			</defs>
			<clipPath id="SVGID_20_">
				<use xlink:href="#SVGID_19_"  style="overflow:visible;"/>
			</clipPath>
			<path class="st32" d="M1225.5,516.2c-20.2-50.9-61-38.5-61.4-38.3c0,0,42.1-10.2,58,36.3c36.5,106.4-154.9,139.1-154.9,139.1
				l27.8,2.7C1151.1,640.3,1258,598,1225.5,516.2z"/>
		</g>
		<g>
			<defs>
				<polyline id="SVGID_21_" points="4.4,2.8 1280.6,0.7 1280.6,800.7 0.6,800.7 				"/>
			</defs>
			<clipPath id="SVGID_22_">
				<use xlink:href="#SVGID_21_"  style="overflow:visible;"/>
			</clipPath>
			<path class="st33" d="M1073.6,552.9c0,0-1.6-3.9-3.1-5.4c0,0,1.8,3.4,6,2.5c4.3-0.9-1.8-11.3-1.8-11.3s5.7,6.9,8.7,6.3
				c3-0.6-2.7-4.6-2.7-4.6s3.8,3.5,5.6,2.7s2.8-4.9-0.2-6.7c-3-1.7,4.2-0.1,3.6,4.2L1073.6,552.9z"/>
		</g>
	</g>
	<polygon class="st34" points="759.3,462.3 739.8,555.8 784.1,555.8 	"/>
</g>
<g id="Landscape_2">
	<path class="st34" d="M1279.5,687.1l1.1,113.6H0.6L0.1,412.8c25.2,24.3,57.2,40.3,91.8,46.1l38.9,6.5l38.9,49.2l33.5,27.1l65,17.4
		l27,8.4l21.1,27.3l6.8,4.1c7.6,4.5,16.2,6.9,25,6.9h7.1l27.5,6.7l15.2,10.2c8,5.4,17.5,8.3,27.2,8.3c4.8,0,9.6-0.7,14.2-2.1
		c4.6-1.4,9-3.5,13-6.2l3.3-2.3c7.7-5.2,16.8-8,26.1-8c8.1,0,16.1,1,23.8,3.1c7.8,2,15.3,5.1,22.3,9l11.5,6.5l33.8,18.9l14.1,7.1
		c7,3.6,14.8,5.4,22.7,5.3c9.5-0.1,18.6-2.5,26.8-6.8s15.3-10.5,20.8-18.2l34-51.2c1-1.5,1.9-3.2,3.5-4.6
		c115.8-98.2,274.1,67.4,418.1,76.6C1192.1,663.1,1237.7,673.4,1279.5,687.1z"/>
	<path class="st35" d="M515.6,717.4c34.8-3.4,123.8-25,131.5-45.8c10.4-28.2,45.5-27.2,66.5-39.2c21-11.9,11.5-43.7,20.6-63.1
		c7.7-16.3,48.8-18.7,50.1-18.7c11.9,0,27.9,2.9,27.9,2.9c-11.2-0.9-36.7,2.7-42.2,11.3c-7.7,11.9,9.1,62.8-9.9,78.4
		c-19,15.6-31.8,22-36.2,34.8c-5.6,16.5-46.9,36.7-46.9,36.7L515.6,717.4z"/>
	<path class="st36" d="M667.4,708.9c0,0,45.2-13.9,51.2-30.9c4.7-13.2,18.9-19.7,39.4-35.8c20.6-16.1,3.6-66.6,12-78.8
		c6-8.9,30.1-10.7,42.2-9.8c-11.2-0.9-34,2.7-39.5,11.3c-7.7,11.9,7.9,62.8-11.1,78.4c-19,15.6-32.6,22-37,34.8
		c-5.6,16.5-48.2,30-48.2,30L667.4,708.9z"/>
	<path class="st36" d="M517.5,723.9c34.8-3.6,123.4-26,131.2-47.6c10.4-29.3,45.5-28.3,66.5-40.7s11.5-45.4,20.6-65.6
		c7.7-17,47.9-19.3,47.9-19.3c-7.6-0.2-41.8,2.3-49.5,18.7c-9.1,19.4,0.4,51.1-20.6,63.1c-21,11.9-56.1,10.9-66.5,39.2
		c-7.7,20.8-96.4,42.4-131.2,45.8L517.5,723.9z"/>
	<path class="st37" d="M840.3,560.9c0,0,5.7,0.2,6.3-5.4c0,0-1.3,6,1.4,6.6c0,0,1.8-0.9,1.5-4c0,0,1.3,2.2,0.4,5.2
		c0,0,4.3,0,4.4-1.5c0,0-1,1.5,2.4,3.2c0,0,4.3-3,2.8-9.6c0,0,3.2,3.4,0,10.3c0,0,0.9-2.9,3.6-2.5c0,0-2.7,1.5,0.6,3.6l-2.9,2.6
		l-18.2-5.4L840.3,560.9z"/>
	<path class="st38" d="M478.9,613.7c5.1-5.5,2.8-12.4,2.8-12.4c0.1,8.1-7.6,12.4-7.6,12.4c-3.1-13.9,7.2-25.8,7.2-25.8
		c-12.4,7.2-12.3,26.8-12.3,26.8s-3.1-4.9,0-15.4c0,0-4.3,3.2-2.7,15.4l3.3,4L478.9,613.7z"/>
	<path class="st14" d="M423,642.3c21,0,22.1-14.7,32.6-21.8l-3.3,2.3c-4,2.7-8.4,4.8-13,6.2s-9.4,2.1-14.2,2.1
		c-9.7,0-19.2-2.9-27.2-8.3l-15.2-10.2C382.7,612.5,413.3,642.3,423,642.3z"/>
	<path class="st38" d="M476.4,611.5c-0.5-4.7,3.1-7.8,3.1-7.8c-3,4.5-0.7,9.3-0.7,9.3c6.5-6.8,5.8-16.7,5.8-16.7
		c3.4,7.9-3.7,18.9-3.7,18.9s3.3-1.8,5.6-8.6c0,0,0.9,3.1-4.3,9.5l-3.1,1.2L476.4,611.5z"/>
	<path class="st38" d="M216.4,600.8c5.3-6.1,7-15.1,4.4-22.7"/>
</g>
<g id="Landscape_2_Tree">
	<path class="st39" d="M616.6,665.5c-2.5,1.6-7.8,2.7-12.3,0v-7h12.3V665.5z"/>
	<path class="st34" d="M618.5,604.7l-8.8-0.2l7.8-4.1l-7.8-33.1l-6.1,25.9c3.2,2.2,6.1,4.4,6.1,4.4l-7.4,1.5L596,626
		c4-1.1,9.1-2.6,9.1-2.6l-10.6,9.2l-5.6,24c9.8,10.2,36.6,6.4,41.7-0.3L618.5,604.7z"/>
	<path class="st40" d="M630.6,656.2l-12.1-51.5l-3.5-0.1l7.9,56C626.5,659.5,629.3,658,630.6,656.2z"/>
	<polygon class="st40" points="617.5,600.4 609.8,567.3 614.6,601.9 	"/>
</g>
<g id="Mist_2">
	<path class="st41" d="M0.4,768.4c0,0,350-179.2,404.6-129.1c94.4,86.6,262.2,41.6,286,33.7c150.6-49.8,346.9,57.8,579.8,57.8
		L0.8,799.2L0.4,768.4z"/>
</g>
<g id="Lamdscape_front">
	<path class="st42" d="M657.2,698.6l623.4-61.3v163.3H0.6v-37l529.8-52.5C530.4,711.2,604.1,723.4,657.2,698.6z"/>
	<path class="st43" d="M282.2,799.2c0,0,55.7-22.9,132.1-28.5c52.8-3.9,153.5-18.5,115.1-59.4c0,0,71,11.7,126.8-12.5
		c0,0,41,41.7,0,100.5L282.2,799.2L282.2,799.2z"/>
	<path class="st36" d="M542,712.7l-13.6-1.5c38.5,40.9-61.3,55.5-114.1,59.4c-76.3,5.7-132.9,27-132.9,27l8.1,0.1
		c19.1-6.4,66.5-20.6,125.5-25.1C468.1,768.5,579,755.1,542,712.7z"/>
	<path class="st36" d="M656.2,698.7c-0.5,0.2-1,0.4-1.6,0.7l0,0c0,0,46.2,57.1-20.9,101.8l23.4-1
		C698.2,741.4,656.2,698.7,656.2,698.7z"/>
	<path class="st44" d="M985.9,503.8"/>
</g>
<g id="Trees_front_1">
	<path class="st45" d="M931.6,756.8c17.4-2.8,9.7-6.6,8.5-8.7c-5.8-9.9-169.2-17.3-234.2,1.4C699.8,768.7,925,757.8,931.6,756.8z"/>
	<path class="st46" d="M1280.5,732c-4-0.6-8-1.4-11.8-2.6v-15.3h11.8V732z"/>
	<path class="st47" d="M1280.7,388.4l7.8,7.6l-11.2,7l-12,51.5l29.5,5.5l-33.8,12.7l-13.1,56.2l40.6,9.3l-46.8,17.4l-32.1,137.2
		c5,3.3,10.4,6,16.1,8.3c16.7,7.2,35.6,11.7,55.3,14.3"/>
</g>
<g id="Trees_front_2">
	<path class="st39" d="M1158,715.5c-5.4,3.5-17.1,5.8-26.8,0v-15.3h26.8V715.5z"/>
	<path class="st47" d="M1164.5,639.2c0,0,11.6,1.4,20.4,2.7l-6.9-31c-7.8-2-16.8-4.4-16.8-5.3c0-1,9-1.6,15.2-1.9l-11.7-52.3
		l-13.2-1.1l11.5-6.4l-21.9-98.1l-14.9,74.7l11.3,4.6l-13.6,6.7l-8,39.9l21.5,7.4l-24.4,7.2l-7.3,36.7l22.8,7.5l-26.5,11l-11,54.8
		c24.4,20.5,88,14.2,106,0l-10.4-46.5L1164.5,639.2z"/>
</g>
<g id="Trees_front_3">
	<path class="st46" d="M989.2,702.3c-5.4,3.5-17.1,5.8-26.8,0V687h26.8V702.3z"/>
	<path class="st47" d="M993.3,569.4l-19.2-0.4l17-9.1l-17-72.4l-13.2,56.7c6.9,4.9,13.2,9.7,13.2,9.7l-16.2,3.2l-13.7,58.8
		c8.8-2.3,19.8-5.6,19.8-5.6l-23.2,20.2l-12.2,52.4c21.4,22.3,80,13.9,91.3-0.8L993.3,569.4z"/>
	<g class="st48">
		<path class="st49" d="M1019.8,682l-26.4-112.6l-7.7-0.2l17.3,122.5C1010.7,689.2,1016.8,685.8,1019.8,682z"/>
		<polygon class="st49" points="991.1,559.9 974.1,487.5 984.8,563.3 		"/>
	</g>
</g>
<g id="Trees_front_4">
	<g>
		<path class="st11" d="M951.8,508.4c12.1,31.6,14.8,67.5,3.1,99.3s-38.9,58.4-72.1,65.2c-33.1,6.8-70.8-9-85.7-39.4
			c-8.1-16.6-9.3-36.5-3.1-53.9c5.2-14.5,15.2-27.3,17.9-42.5c4.8-26.9-14.5-55.6-4.1-80.9c8.8-21.5,36-29.9,58.9-26.2
			C906.7,436.5,937.4,470.7,951.8,508.4z"/>
		<path class="st50" d="M851.9,719.9c0,0-5.5-62,10-104.6c15.6-42.6,14.3-100.9,14.3-100.9s5.6,40.1-4,88.2
			c-2.4,12.1-18.5,50.8-10.3,117.2L851.9,719.9L851.9,719.9z"/>
	</g>
	<path class="st20" d="M851.9,719.9c0,0-5.5-62,10-104.6c15.6-42.6,14.3-100.9,14.3-100.9s5.6,40.1-4,88.2
		c-2.4,12.1-18.5,50.8-10.3,117.2L851.9,719.9L851.9,719.9z"/>
	<path class="st51" d="M866.8,430c-5.1-0.8-10.5-1.1-15.8-0.7c0,0,82.9,24.5,82.9,130.5c0,88.4-40.1,109-53.4,113.5
		c0.8-0.1,1.6-0.3,2.3-0.4c33.1-6.8,60.4-33.4,72.1-65.2c11.7-31.7,8.9-67.7-3.1-99.3C937.4,470.7,906.7,436.5,866.8,430z"/>
</g>
<g id="Trees_front_5">
	<path class="st11" d="M995.3,602.1c-2.4-12.2-2.1-24.9,0.9-36.9c3.3-12.9,9.6-24.9,15.9-36.6c6.2-11.6,12.4-23.3,18.6-34.9
		c1.8-3.3,3.9-6.9,7.6-7.7c3.6-0.8,7,1.6,9.9,3.9c24.2,20,40.3,49.4,44,80.6c2.2,18.5-0.1,38.3-10.3,53.9
		c-10.2,15.6-29.5,26.1-47.8,22.4c-10.2-2-19.4-8.2-26-16.4S997.3,612.4,995.3,602.1z"/>
	<path class="st51" d="M1071.9,615.7c-16.5,33.8-63.9,14.8-63.9,14.8c6.6,8.1,15.8,14.3,26,16.4c18.3,3.6,37.6-6.8,47.8-22.4
		c10.2-15.6,12.6-35.4,10.3-53.9c-3.7-31.1-19.8-60.6-44-80.6C1048.1,489.9,1099.5,559.1,1071.9,615.7z"/>
	<path class="st20" d="M1051.5,708.9V529.3l-3.1,73.2c0,0-12.5,3.6-12.5-39.4c0,0-5.7,40.5,11.4,43.1l-4.1,102.8L1051.5,708.9
		L1051.5,708.9z"/>
</g>
<g id="Trees_front_6">
	<path class="st52" d="M126.8,577.5c-7.8-12.6-23.2-21.9-23.4-36.7c-0.2-12,10.2-22.6,8.5-34.5c-2-13.3-18.1-20.6-21.1-33.7
		c-2.7-11.8,6.2-22.9,8.7-34.8c2.7-12.8-2.9-26.9-13.6-34.4s-25.9-7.9-37-1s-17.4,20.8-15.4,33.7c1.9,12,10.1,23.9,5.8,35.3
		c-2.5,6.6-8.8,11-14.2,15.5c-5.5,4.6-10.8,10.6-10.3,17.7c0.5,7.6,7.5,13.2,9.4,20.6c1.6,6.2-0.7,12.9-4.2,18.3
		c-3.4,5.4-8,10.1-11.5,15.5c-1.6,2.4-2.9,4.9-4,7.5c0,0-10.7,22.5,0.4,47c1.6,3.5,2.7,5,3.4,5.1c0.9,1.6,1.9,3.1,3,4.6
		c13.3,18.5,36.4,28.7,59.2,28.8c19,0.1,38.6-7,50.8-21.4C133.5,615.9,136.9,593.6,126.8,577.5z"/>
	<g>
		<path class="st20" d="M55.1,721.4h6.4c0,0,13.3-248.2,0-275.3c0,0,4.1,42.5,0.7,134.3C58.8,672.2,55.1,721.4,55.1,721.4z"/>
		<polygon class="st20" points="66.4,597.4 91.2,565.5 66.4,587.3 		"/>
		<path class="st20" d="M63.1,550.1c0,0-8.5-26-25-45.6c0,0,14.2,13.2,25.2,34.5L63.1,550.1z"/>
	</g>
</g>
<g id="Trees_front_Bush_1">
	<path class="st21" d="M729.3,751.8c0,0-0.2-30.9-27.2-46c0,0,32.9,0.9,52.4,27.8L729.3,751.8z"/>
	<path class="st53" d="M731.4,737.9c0,0,0.6-28,19.7-39.3c0,0-6.6,14.7,0,35L731.4,737.9z"/>
</g>
<g id="Trees_front_Bush_2">
	<path class="st54" d="M408.5,733.7c0,0-6-36.5-27.8-46c0,0,20.4-0.8,31.7,25.3c0,0-6-22.1,1.8-33.9c0,0-3.2,28.4,11.4,39.5
		c0,0,6.7-12.6,4.4-22.9c0,0,1.6,22.9,11,27.6c0,0,12-11.8,7.2-32.4c0,0,8.4,13.4,4.5,29.2c0,0,19.4,3.9,20-7.9c0,0,3.3,15,0,21.3
		L408.5,733.7z"/>
</g>
<g id="Trees_front_Bush_3">
	<path class="st55" d="M60.2,746.9c-5.9,0-11.2-3.3-13.9-8.5c-1.5-3-2.7-6.1-3.5-9.3c-0.4-1.6-0.8-3.3-0.5-5s1.2-3.3,2.8-3.9
		c1.6-0.6,3.7,0.1,4.2,1.7c-0.5-2.8-0.7-5.9,0-8.6c0.7-2.7,2.6-5.3,5.2-6.4c2.6-1.1,6-0.4,7.6,2c1.1,1.6,1.2,3.6,0.8,5.4
		s-1.2,3.6-2.1,5.2c1.4-1.1,2.2-2.3,3.3-3.8c1.1-1.5,2.2-3,3.6-4c1.5-1.1,3.4-1.6,5.2-1c0.8,2.6,0.7,5.5-0.3,8
		c0.9-0.5,1.6-0.7,2.6-0.9s2,0,2.8,0.6c1,1,1,2.7,0.5,4c-0.8,2-2.5,3.6-4.6,4.3c1.6-0.9,3.7-1.9,5.2-0.8c1,0.7,1.3,2.2,1.1,3.4
		s-1,2.3-1.7,3.4l-5,7.3c-2.9,4.3-7.8,6.8-13,6.8L60.2,746.9z"/>
</g>
<g id="Trees_front_Stone">
	<path class="st56" d="M706.6,747l9.7-15.2c0.8-1.3,2.3-2.1,3.8-2.1l30-6.4c2,0,3.9-1,5-2.7l21.7-19.1c4.8-7.2,12.9-11.5,21.5-11.5
		h40c1.7,0,3.2,0.9,4,2.4l7.3,14.1c0.6,1.2,1.7,2,3,2.3l22.8,5.2c0.6,0.1,1.2,0.4,1.7,0.8l41.5,31c3.5,2.6,1.6,8.1-2.7,8.1H710.4
		c-2.5,0-4.5-2-4.5-4.5v-0.1C705.9,748.5,706.1,747.7,706.6,747z"/>
	<path class="st57" d="M918.5,745.9l-41.5-31c-0.5-0.4-1.1-0.6-1.7-0.8l-22.8-5.2c-1.3-0.3-2.4-1.1-3-2.3l-7.3-14.1
		c-0.8-1.5-2.3-2.4-4-2.4H813l11.3,32l-24.2,12l-39,20h154.7C920.2,754,922,748.4,918.5,745.9z"/>
	<path class="st58" d="M870,754h68.8c3.2,0,5.1-3.7,3.1-6.3L928.1,730c-0.7-0.9-1.9-1.5-3.1-1.5h-36.2c-1,0-1.9,0.4-2.7,1.1
		l-18.8,17.7C864.7,749.7,866.4,754,870,754z"/>
</g>
<g id="Button_Rectangle">
</g>
<g id="Button_Text">
</g>
</svg>
