<?xml version="1.0" encoding="utf-8"?>
<!-- Generator: Adobe Illustrator 22.1.0, SVG Export Plug-In . SVG Version: 6.00 Build 0)  -->
<svg version="1.1" xmlns="http://www.w3.org/2000/svg" xmlns:xlink="http://www.w3.org/1999/xlink" x="0px" y="0px"
	 viewBox="0 0 1280.6 800" style="enable-background:new 0 0 1280.6 800;" xml:space="preserve">
<style type="text/css">
	.st0{fill:#E7E8EC;}
	.st1{fill:#75AEB9;}
	.st2{fill:#B9CDEB;}
	.st3{fill:#C9DCF8;}
	.st4{fill:#DDE9FA;}
	.st5{fill:#AFC3E3;}
	.st6{fill:#D4E3F9;}
	.st7{opacity:0.34;fill:#232121;}
	.st8{opacity:0.37;fill:#FFFFFF;}
	.st9{fill:#BEE696;}
	.st10{fill:#F1DB7D;}
	.st11{fill:#96CD7C;}
	.st12{opacity:0.2;fill:#232121;}
	.st13{fill:none;}
	.st14{opacity:0.32;fill:#232121;}
	.st15{fill:#5E8E44;}
	.st16{fill:#8EBD5C;}
	.st17{fill:#A66C78;}
	.st18{fill:#864A54;}
	.st19{opacity:0.21;fill:#FFFFFF;}
	.st20{fill:#709A5B;}
	.st21{fill:#F1D970;}
	.st22{fill:#A16B77;}
	.st23{fill:#6C8A56;}
	.st24{clip-path:url(#SVGID_2_);fill:#5E8E44;}
	.st25{opacity:0.1;clip-path:url(#SVGID_2_);fill:#232121;}
	.st26{clip-path:url(#SVGID_2_);fill:#F1D970;}
	.st27{clip-path:url(#SVGID_2_);fill:#69552E;}
	.st28{opacity:0.32;clip-path:url(#SVGID_2_);fill:#3C3939;}
	.st29{fill:none;stroke:#A1C37E;stroke-width:0.3945;stroke-miterlimit:10;}
	.st30{opacity:0.37;fill:#232121;}
	.st31{fill:#3B2722;}
	.st32{fill:#792914;}
	.st33{fill:#F15128;}
	.st34{fill:#EFF0F0;}
	.st35{opacity:0.1;fill:#232121;}
	.st36{opacity:0.3;fill:#232121;}
	.st37{fill:#CFCFD0;}
	.st38{fill:#554835;}
	.st39{fill:#A4A5A8;}
	.st40{clip-path:url(#SVGID_4_);fill:#487435;}
	.st41{clip-path:url(#SVGID_4_);fill:#F1D970;}
	.st42{clip-path:url(#SVGID_4_);fill:#69552E;}
	.st43{clip-path:url(#SVGID_4_);fill:#4B5D3F;}
	.st44{fill:#4A7337;}
	.st45{fill:#E8CE5A;}
	.st46{fill:#69552E;}
	.st47{fill:#22302E;}
	.st48{fill:#59714B;}
	.st49{fill:#5E4A31;}
	.st50{fill:#304A23;}
	.st51{fill:#875D46;}
	.st52{fill:#66A32E;}
	.st53{fill:#4D7A23;}
	.st54{fill:#654635;}
	.st55{fill:#6B2379;}
	.st56{opacity:0.48;fill:#3C3939;}
	.st57{fill:#302F30;}
	.st58{fill:#0577AE;}
	.st59{fill:#079FE8;}
	.st60{fill:#737373;}
	.st61{fill:#3A5C1A;}
	.st62{fill:#9937A4;}
	.st63{fill:#F7BA99;}
	.st64{fill:#595959;}
	.st65{fill:#FFFFFF;}
	.st66{fill:#6E6E6E;}
	.st67{fill:#BFBFBF;}
	.st68{fill:#919191;}
	.st69{fill:#FF882A;}
	.st70{fill:#501A5B;}
	.st71{fill:#313547;}
	.st72{fill:#FBF7EA;}
	.st73{fill:#CF9C80;}
	.st74{opacity:0.2;fill:#FFFFFF;}
	.st75{fill:#EABA7E;}
	.st76{fill:#B08B5F;}
	.st77{fill:#43692E;}
	.st78{fill:#E0C757;}
	.st79{fill:#47573B;}
	.st80{opacity:0.25;fill:#3C3939;}
	.st81{fill:#7B5059;}
	.st82{fill:#2C481F;}
	.st83{opacity:0.32;}
	.st84{fill:#232121;}
	.st85{fill:#7D5C3E;}
	.st86{opacity:0.32;fill:#3C3939;}
	.st87{fill:#A6CB7E;}
	.st88{fill:#7B945F;}
	.st89{fill:#536745;}
	.st90{fill:#617C50;}
	.st91{fill:#C7C7C7;}
	.st92{fill:#ADADAD;}
	.st93{fill:#8F8E8E;}
	.st94{display:none;}
	.st95{display:inline;}
	.st96{display:inline;fill:#3B767A;}
	.st97{display:inline;fill:#875D46;}
	.st98{display:inline;fill:#9F7D6B;}
	.st99{display:inline;fill:#1A1D22;}
	.st100{display:inline;fill:#24262F;}
	.st101{display:inline;fill:#2D2F3C;}
	.st102{display:inline;fill:#373B4C;}
	.st103{display:inline;opacity:0.32;fill:#232121;}
	.st104{display:inline;fill:#B6A352;}
	.st105{display:inline;fill:#654635;}
	.st106{display:inline;fill:#4E9DA3;}
	.st107{display:inline;fill:#2C595C;}
	.st108{display:inline;fill:#DBBC32;}
	.st109{display:inline;fill:#836B0B;}
	.st110{display:inline;fill:#A48D26;}
	.st111{display:inline;fill:#FFDF57;}
	.st112{display:inline;fill:#FFE579;}
	.st113{display:inline;fill:#CA716A;}
	.st114{display:inline;fill:#B9BBBD;}
	.st115{display:inline;fill:#414042;}
	.st116{display:inline;fill:#41465F;}
	.st117{display:inline;fill:#676B7F;}
	.st118{display:inline;fill:#A4A5A8;}
	.st119{display:inline;fill:#B8878E;}
	.st120{display:inline;fill:#6B665E;}
	.st121{fill:#6B6C6F;}
	.st122{fill:#414042;}
	.st123{fill:#676668;}
	.st124{fill:#89898C;}
	.st125{fill:#57585A;}
	.st126{fill:#FFA55E;}
	.st127{fill:#909093;}
	.st128{fill:#A7A6F6;}
	.st129{fill:#9190DB;}
	.st130{fill:#CACAFA;}
	.st131{opacity:0.52;fill:#FFFFFF;}
	.st132{fill:#4C568E;}
	.st133{fill:#FFDF57;}
	.st134{fill:#EBCB44;}
	.st135{fill:#FFEC9A;}
	.st136{fill:#639FAB;}
	.st137{fill:#ACCED5;}
	.st138{fill:#83BF66;}
	.st139{fill:#855749;}
</style>
<g id="BG">
	<rect x="0.6" y="0.7" class="st0" width="1280" height="800"/>
	<path class="st0" d="M548.7,170.4"/>
</g>
<g id="Sky">
	<path class="st1" d="M164.1,600.8c-42-0.3-41.9-10.2-81-24.6s-73.9-46-77.9-85.1c-5.4-52.5,42.7-94.8,86.5-128.1
		c71.4-54.3,142.8-108.5,214.2-162.8c22.2-16.9,44.9-34,71.3-44.2c26.5-10.2,57.8-12.8,83.2-0.4c39.1,19,54.9,67.3,95.1,84.1
		c33.8,14.1,74.4,0.6,102.6-21.9S812.5,62.9,864.8,40.5c56.9-24.4,123.2,6.9,136.8,64c12.6,53.1,40.4,103,80.6,142.3
		c50.8,49.7,120.2,83.3,159.3,141.7c43.8,65.5,39.6,153.3,0.1,221.2c-39.5,67.9-110,116.9-187,144.8c-77,28-160.6,36.6-243.2,38.4
		c-178.2,3.9-357-23-524.9-78.8c-29-9.7-58.3-20.5-82.1-38.8C180.6,657,162.9,629.6,164.1,600.8z"/>
	<path class="st1" d="M581.6,187.7c0,0,82.6-113.8,180-146.4s-47.1,85.7-73.5,102.9C661.8,161.4,573.2,230.2,581.6,187.7z"/>
	<path class="st1" d="M36.4,292.1c0,0,7-73.2,90.9-122.8s115,2.9,57.8,48.5S51.4,323.9,36.4,292.1"/>
	<path class="st1" d="M220.8,41.3c-1.5,8.8-8.5,16.5-14.4,22.5c-21.8,22.2-43.8,44.6-65.7,60.5c-16.7,12-33.4,20-47,19.9
		c-8.3-0.1-5.5-17.9,4.5-28.8c0.2-0.2,0.4-0.5,0.6-0.7c6.7-7.2,13.7-12.1,20.5-17c26.9-19.2,53.8-38.5,80.7-57.7
		c6.5-4.6,13.3-9.4,18-7.4C220.4,33.6,221.6,36.7,220.8,41.3z"/>
</g>
<g id="Buildings_1">
	<rect x="578.1" y="203.3" class="st2" width="51.1" height="164.5"/>
</g>
<g id="Buildings_2">
	<rect x="734.4" y="265.7" class="st2" width="86.9" height="140.8"/>
</g>
<g id="Buildings_3">
	<rect x="597.9" y="258.8" class="st3" width="51.1" height="131"/>
</g>
<g id="Buildings_4">
	
		<rect x="583.9" y="280" transform="matrix(-1 -4.484025e-11 4.484025e-11 -1 1214.1445 635.8665)" class="st4" width="46.4" height="75.9"/>
	
		<rect x="580.1" y="280" transform="matrix(-1 -4.487178e-11 4.487178e-11 -1 1214.1445 569.0074)" class="st5" width="53.9" height="9.1"/>
	
		<rect x="580.1" y="327.3" transform="matrix(-1 -4.490553e-11 4.490553e-11 -1 1214.1445 663.569)" class="st5" width="53.9" height="9.1"/>
	<rect x="586.4" y="338" class="st2" width="7.7" height="11"/>
	<rect x="598.1" y="338" class="st2" width="7.7" height="11"/>
	<rect x="609.8" y="338" class="st2" width="7.7" height="11"/>
	<rect x="621.5" y="338" class="st2" width="7.7" height="11"/>
	<rect x="586.4" y="290.9" class="st2" width="7.7" height="11"/>
	<rect x="598.1" y="290.9" class="st2" width="7.7" height="11"/>
	<rect x="609.8" y="290.9" class="st2" width="7.7" height="11"/>
	<rect x="621.5" y="290.9" class="st2" width="7.7" height="11"/>
	<rect x="586.4" y="303.2" class="st2" width="7.7" height="11"/>
	<rect x="598.1" y="303.2" class="st2" width="7.7" height="11"/>
	<rect x="609.8" y="303.2" class="st2" width="7.7" height="11"/>
	<rect x="621.5" y="303.2" class="st2" width="7.7" height="11"/>
	<rect x="586.4" y="315.4" class="st2" width="7.7" height="11"/>
	<rect x="598.1" y="315.4" class="st2" width="7.7" height="11"/>
	<rect x="609.8" y="315.4" class="st2" width="7.7" height="11"/>
	<rect x="621.5" y="315.4" class="st2" width="7.7" height="11"/>
</g>
<g id="Buildings_5">
	<rect x="543.2" y="260.5" class="st3" width="31.6" height="107.3"/>
</g>
<g id="Buildings_6">
	<polygon class="st2" points="337.7,406.5 267,406.5 267,251.9 337.7,282.6 	"/>
</g>
<g id="Buildings_7">
	<rect x="310.5" y="306.6" class="st3" width="70.7" height="99.9"/>
</g>
<g id="Buildings_8">
	<rect x="363" y="236.8" class="st2" width="44.9" height="169.7"/>
</g>
<g id="Buildings_9">
	<rect x="390.8" y="295.1" class="st2" width="61.2" height="111.4"/>
</g>
<g id="Buildings_10">
	<polygon class="st2" points="517.1,406.5 455.9,406.5 455.9,255.5 517.1,277.7 	"/>
</g>
<g id="Buildings_11">
	<rect x="431.3" y="307.2" class="st3" width="101.5" height="60.6"/>
</g>
<g id="Buildings_12">
	
		<rect x="356.8" y="321.2" transform="matrix(-1 -4.490509e-11 4.490509e-11 -1 792.4801 683.7693)" class="st6" width="78.8" height="41.4"/>
	
		<rect x="395.2" y="337.5" transform="matrix(-4.489494e-11 1 -1 -4.489494e-11 757.8087 -74.7526)" class="st2" width="42.1" height="8.1"/>
	
		<rect x="399.8" y="342" transform="matrix(-1.416130e-11 1 -1 -1.416130e-11 762.3309 -75.9692)" class="st7" width="38.8" height="2.3"/>
	
		<rect x="356.5" y="337.5" transform="matrix(-4.493846e-11 1 -1 -4.493846e-11 719.115 -36.059)" class="st2" width="42.1" height="8.1"/>
	
		<rect x="361.1" y="342" transform="matrix(-1.416130e-11 1 -1 -1.416130e-11 723.6372 -37.2756)" class="st7" width="38.8" height="2.3"/>
	
		<rect x="353.6" y="315.7" transform="matrix(-1 -4.485224e-11 4.485224e-11 -1 793.6282 639.4869)" class="st2" width="86.5" height="8.1"/>
	<polygon class="st6" points="437.7,315.7 396.2,290.2 357.2,315.7 	"/>
</g>
<g id="Buildings_13">
	<rect x="218.6" y="306.6" class="st3" width="70.7" height="99.9"/>
</g>
<g id="Buildings_14">
	<polygon class="st2" points="702.6,385 651.6,385 651.6,251.6 702.6,197.7 	"/>
</g>
<g id="Buildings_15">
	<rect x="713.6" y="279.4" class="st3" width="31.6" height="107.3"/>
</g>
<g id="Buildings_16">
	<rect x="865.4" y="290.2" class="st2" width="123.7" height="113.3"/>
</g>
<g id="Buildings_17">
	<rect x="787.3" y="206.5" class="st3" width="66" height="231.7"/>
</g>
<g id="Clouds_1">
	<polygon class="st8" points="1078.5,56.2 665.5,88.1 1247.3,95.4 	"/>
</g>
<g id="Landscape_6">
	<path class="st9" d="M247,374.6c0,0,198.2-78.3,535.7-3.9s497.5,0,497.5,0l0.5,430H0.6L0,548.2L247,374.6"/>
	<path class="st10" d="M403,342.2l8.7,0.2c0,0-19.5,14,34.5,23.2c11.9,2,32.9,3.2,53,5.3c35.5,3.6,75.6-20.1,89.3-28.7l9.3,0.4
		c-28.8,22-82.4,30-83.1,37.3c-1,9.9,95.4,77,161,83.8c42.3,4.4,84.9,5.6,127.5,5.6c-46.1,0.1-92.1-0.9-137.9-5.6
		c-52.9-5.5-139.2-57.9-165.2-80.4l0,0c-5.3-5.9-31-10.6-48.9-11.9C425.5,369.7,384.2,353.9,403,342.2z"/>
</g>
<g id="Landscape_6_Tree">
	<path class="st11" d="M488.9,403.7l-8.3,40.6c4.9,3.1,15,2.4,19.9-0.2L488.9,403.7z"/>
</g>
<g id="Landscape_6_Tree_1_">
	<path class="st11" d="M459.7,372.5l-14,68.8c8.2,5.3,25.4,4,33.7-0.3L459.7,372.5z"/>
</g>
<g id="Landscape_6_Tree_2_">
	<path class="st11" d="M507.1,389.1l-10.3,50.4c6,3.9,18.6,3,24.7-0.2L507.1,389.1z"/>
</g>
<g id="Landscape_back">
	<path class="st11" d="M308.3,387.1L453.1,416c52.3,11.6,106.9,7,156.6-13.1l128.3-45.1c3.4-1.4,6.9-2.4,10.5-3l227.7-41.8
		c8.4-1.4,304.4-33.2,304.4-33.2l-0.5,239.3L535.6,665.8c-10,2-20.4,0.9-29.8-3.2L180.4,522.8c-43.6-18.7-39.9-81.7,5.6-95.2
		L308.3,387.1z"/>
	<path class="st10" d="M482.4,475c0,0,417.6-52,370.6-92.7s-114.9-24.5-114.9-24.5s78.9-15.6,128,16.8
		c48.7,32.1-83.9,69.5-354.5,112.8L482.4,475z"/>
	<path class="st12" d="M310.5,387.1c5.3,3.1,474.2,97.3,474.2,97.3L339.8,421L310.5,387.1z"/>
	<polygon class="st13" points="4.4,2.8 1280.6,0.7 1280.6,800.7 0.6,800.7 	"/>
	<path class="st14" d="M1280.7,303.1v-23.7l-299.1,32.9l-233,42.1C748.6,354.4,1084.9,303.1,1280.7,303.1z"/>
</g>
<g id="Landscape_back_Tree_1">
	<path class="st15" d="M1157,401.6l-13,63.9c7.7,4.9,23.6,3.7,31.3-0.2L1157,401.6z"/>
</g>
<g id="Landscape_back_Tree_2">
	<path class="st15" d="M1134.1,412.2l-10.3,50.4c6,3.9,18.6,3,24.7-0.2L1134.1,412.2z"/>
</g>
<g id="Landscape_back_Tree_3">
	<path class="st16" d="M1256.3,233.9l-13,63.9c7.7,4.9,23.6,3.7,31.3-0.2L1256.3,233.9z"/>
</g>
<g id="Landscape_back_Tree_4">
	<path class="st16" d="M1228.8,207.2l-17.4,85.1c10.2,6.6,31.5,5,41.7-0.3L1228.8,207.2z"/>
</g>
<g id="Landscape_back_Tree_5">
	<path class="st16" d="M1133.3,251.9l-10.2,49.7c6,3.8,18.4,2.9,24.4-0.2L1133.3,251.9z"/>
</g>
<g id="Landscape_back_Tree_6">
	<path class="st16" d="M1109.6,253.3l-10.2,49.7c6,3.8,18.4,2.9,24.4-0.2L1109.6,253.3z"/>
</g>
<g id="Sign">
	<path class="st17" d="M499.2,365L499.2,365c-1,0.2-1.9-0.6-1.9-1.6v-51.8c0-0.8,0.6-1.5,1.4-1.6h0c1-0.2,1.9,0.6,1.9,1.6v51.8
		C500.5,364.2,499.9,364.9,499.2,365z"/>
	<path class="st18" d="M498.6,310c-0.1,0-0.1,0-0.2,0.1c0.6,0.2,1.1,0.8,1.1,1.6v51.8c0,0.7-0.5,1.3-1.2,1.6
		c0.3,0.1,0.5,0.1,0.8,0.1c0.8-0.1,1.4-0.8,1.4-1.6v-51.8C500.5,310.6,499.6,309.8,498.6,310z"/>
</g>
<g id="Sign_2">
	<path class="st17" d="M516,332.8h-35.7c-0.4,0-0.7-0.1-1-0.4l-5.4-4.7c-0.6-0.6-0.7-1.6-0.1-2.2l5.4-5.4c0.3-0.3,0.7-0.4,1-0.4H516
		c0.4,0,0.8,0.2,1,0.4l5,5.1c0.6,0.6,0.6,1.5,0,2.1l-5,5.1C516.8,332.7,516.4,332.8,516,332.8z"/>
	<polygon class="st18" points="511.5,323.3 511.5,329.3 516.3,326.3 	"/>
	<polygon class="st18" points="485.6,329.3 485.6,323.3 480.8,326.3 	"/>
	<rect x="484.7" y="325.1" class="st18" width="27.3" height="2.2"/>
</g>
<g id="Mist_back_1">
	<polygon class="st8" points="1030.6,241.3 589.4,296.7 1255.1,264.2 	"/>
</g>
<g id="Mist_back_2">
	<path class="st19" d="M1281.2,351.6c0,0-14.5-2.8-35-5.7c-50.8-7.1-138.2-14.8-130.1,19c11.4,47.3-41.1,54-83.9,40.8
		c-42.8-13.2-73.4-7.2-179.2,10.1c-105.9,17.3-181.8,28.4-221.4,20.6c0,0,187.6,32,645.3,32L1281.2,351.6z"/>
</g>
<g id="Landscape_5">
	<path class="st20" d="M46.1,225.5h0.3c20.2,0,38.6,11.5,47.4,29.5l18,36.9c6.6,13.5,18.6,23.6,33,27.7l103.9,30.1
		c4.3,1.2,8.3,3,12.1,5.2l154.6,90.7c39.3,23.1,85,33,130.3,28.4l59.5-6c5.2-0.5,10.4-0.3,15.5,0.7l410.9,79.4l244.9,47.8l3.9,204.6
		H0.6L0.1,229.5C0.1,229.5,19,225.5,46.1,225.5z"/>
	<path class="st21" d="M256.1,352.6c0,0-43.8,3.9-71.2,46.5c-36.4,56.7,142.4,60.2,219.5,77.7c3.7,0.8,8.5,2.2,14.7,4
		c16.1,4.7,37.9,15.4,74.6,23.8c25.9,6,65.9,11.2,99.2,15.3c33.4,4.2,88.4,13.1,132.3,17.3l34.3-10.2c-23.5-1.4-72.7-6.5-115.1-11.3
		c-31.8-3.6-69.3-5.1-112.9-13.2c-35.1-6.5-66-19.4-75.6-22c-32.2-8.8-71-16.4-114.1-23.6c-52.7-8.9-155-23-147.6-50.3
		c8.9-32.8,64.5-52.5,69.4-50L256.1,352.6z"/>
	<path class="st7" d="M93.3,254.4c11.1,21.3,21.4,48,33,55.6c0,0-116.4,15.1-65.7,25.6c45.1,9.4,158.7,13,187.9,15.3
		c4.1,0.3,8,1.6,11.6,3.6l35.4,20.8c0,0,31.9,18.7-52-0.7c-90.3-20.9-139.6,7.4-86.8,20.6c52.5,13.1,153.5-1.1,122.3,20.7
		c-0.3,0.2-0.6,0.4-1,0.5c-25.8,10.3-80.9,17.3-41.9,28c35.7,9.8,140.8,34.7,224.5,36.7c9.2,0.2,18.4-0.2,27.5-1.1l119-12
		c0,0,110.7,29.8,62,44.7c-48.7,14.9-282.3,4.2-235.6,29.9c46.7,25.6,367.7,16,367.7,16L289.4,679.1L-0.2,634.9l0.3-406.4
		c32.5-3.5,47.9-3,47.9-3C67.2,225.5,84.8,237.3,93.3,254.4z"/>
	<polygon class="st22" points="179.8,291.3 185.7,289.6 180.5,290.5 	"/>
	<polygon class="st22" points="160.3,288.1 161.4,294.1 163.1,295.5 	"/>
</g>
<g id="Landscape_5_Tree_1">
	<path class="st23" d="M177.4,311c-0.2,3.4,0.8,6.9,3,9.5c2.2,2.6,5.7,4.1,9.1,3.7c3.4-0.4,6.4-2.7,8.2-5.6c1.8-2.9,2.5-6.4,2.6-9.8
		c0.1-3-0.3-6-1.7-8.6c-1.4-2.6-4.1-4.6-7.1-4.7c-2,0-3.9,0.7-5.5,1.8C181.3,300.2,177.7,305.4,177.4,311z"/>
	<path class="st22" d="M186.3,339.6h1.3c0,0,0.1-13.5,0.8-19.3c0,0,6.4,0.7,6-9.3c0,0-1.3,9.2-6,7.8l2-16.1l-1.4,6
		c0,0-1.7-0.2-1.5-6.9c0,0-1.2,6.4,1.3,7.8C188.9,309.7,187,319.2,186.3,339.6z"/>
</g>
<g id="Landscape_5_Tree_2">
	<path class="st9" d="M176.6,318.6c3.6-0.7,7.1-2.2,10-4.5c5.4-4.2,8.8-10.8,9.2-17.5c0.5-6.8-1.9-13.7-6.4-18.9
		c-2.7-3.2-6.2-5.8-10.2-7.1c-7.3-2.4-15.7-0.4-21.6,4.5c-5.5,4.6-9,11.5-9.2,18.7c-0.2,7.1,2.8,14.4,8.1,19.1
		C162,317.6,169.6,319.8,176.6,318.6z"/>
	<path class="st22" d="M170.7,340.9h2.3c0,0,1.9-53.2,0-62.1C173,278.8,172.6,328.6,170.7,340.9z"/>
	<polygon class="st22" points="173.8,295.5 185.7,284.4 173.8,298.3 	"/>
	<polygon class="st22" points="173.8,304.7 156.2,289.6 172.5,306.6 	"/>
</g>
<g id="Lanscape_4">
	<g>
		<defs>
			<polyline id="SVGID_1_" points="4.4,2.8 1280.6,0.7 1280.6,800.7 0.6,800.7 			"/>
		</defs>
		<clipPath id="SVGID_2_">
			<use xlink:href="#SVGID_1_"  style="overflow:visible;"/>
		</clipPath>
		<path class="st24" d="M321.1,629.9l270.2-71.9l100.7-9c8.6-0.8,17-2.8,25-5.9l229.8-91c15.4-6.1,31.7-9.2,48.2-9.2h139
			c23.3,0,45.1-11.6,58.1-30.8l89.5-132.2l-1,520.9H0.6L321.1,629.9z"/>
		<polygon class="st25" points="362.2,618.9 1284.5,598.9 503,581.4 		"/>
		<path class="st26" d="M1014.2,442.8c67.9,6.1,84.3,110,84.3,110l29.8-19.2c0,0-57-94.4-99.6-90.7H1014.2z"/>
		<path class="st27" d="M1123.2,525.6c-54.7-85.4-89.6-82.8-89.6-82.8s31.8-2.6,88.6,82.8L1123.2,525.6z"/>
		<path class="st27" d="M1014.2,442.8c0,0,59.2-2.6,85.2,110l2.8-2.4C1102.2,550.5,1076.4,445.4,1014.2,442.8z"/>
		<path class="st28" d="M1003.2,442.8c-20.9,0-41.5,3.9-60.9,11.6l-172.9,68.5l0,0c33.7-7,69.4-11.9,107.7-14.2
			c38.3-2.3,116.4-50.8,196.3-47.2c79.9,3.6,146.3,54.7,150.3,8.7c4.1-46,75.5-162.9,75.5-162.9l-18.1-26.9l-86.4,127
			c-14.9,22.1-31.4,35.4-63.5,35.3H1003.2z"/>
	</g>
	<path class="st29" d="M1092.8,463.3"/>
</g>
<g id="Target">
	<path class="st30" d="M167.3,392.9c-8.3,1.1-20.4-6.7-19.8-11.4c0.7-4.7,13-4.4,24.5-2.8C183.6,380.4,211.2,387,167.3,392.9z"/>
	<path class="st31" d="M190.1,384.6l-20.7-22.7l1.6-1.3l21.1,23.7C192.1,384.3,191.7,385.2,190.1,384.6z"/>
	<path class="st31" d="M163.5,392.7l9.8-30.9l-1.4-1.2l-10.7,31.9C161.2,392.6,162.1,393.8,163.5,392.7z"/>
	<path class="st31" d="M148.4,381.5l23.2-25.2l-0.4-1.8l-24.4,25.9C146.8,380.3,146.9,381.9,148.4,381.5z"/>
	<path class="st32" d="M189.7,353.4c-1.6-13.5-10.7-23.7-21.3-25l-0.1-0.5l-4.3,0.5c0,0-0.1,0-0.1,0c0,0-0.1,0-0.1,0l-0.3,0l0,0
		c-12.2,1.7-20.6,15.1-18.9,30.3c1.8,15.1,13.1,26.2,25.3,25.1l0,0l4.9-0.6l-0.1-0.5C184.8,379,191.3,366.9,189.7,353.4z"/>
	
		<ellipse transform="matrix(0.9932 -0.1162 0.1162 0.9932 -40.1584 22.3417)" class="st33" cx="171.5" cy="355.6" rx="22.7" ry="27.9"/>
	
		<ellipse transform="matrix(0.9932 -0.1162 0.1162 0.9932 -40.1584 22.3417)" class="st34" cx="171.5" cy="355.6" rx="18" ry="22.1"/>
	
		<ellipse transform="matrix(0.9932 -0.1162 0.1162 0.9932 -40.1584 22.3417)" class="st33" cx="171.5" cy="355.6" rx="12.4" ry="15.3"/>
	
		<ellipse transform="matrix(0.9932 -0.1162 0.1162 0.9932 -40.1584 22.3417)" class="st34" cx="171.5" cy="355.6" rx="7.6" ry="9.3"/>
	<path class="st35" d="M183.1,332.3L161,379.6c4.1,2.8,8.9,4.3,13.8,3.7c12.5-1.5,21.1-15,19.3-30.3
		C193.1,344.2,188.9,336.8,183.1,332.3z"/>
	
		<ellipse transform="matrix(0.9932 -0.1162 0.1162 0.9932 -40.1584 22.3417)" class="st33" cx="171.5" cy="355.6" rx="3.1" ry="3.8"/>
	<polygon class="st36" points="171.6,355.6 186.9,377 187.4,376.4 171.5,355.2 	"/>
</g>
<g id="Arrow">
	<polygon class="st37" points="192.4,346.6 193.1,340.9 200.4,338.6 199.8,343.5 203.4,347 195.8,350.3 	"/>
	<polygon class="st38" points="171.6,355.6 171.5,355.2 201.8,342.1 202.1,343 	"/>
	<polygon class="st39" points="193.3,340.8 193.4,344.6 194.2,340.5 	"/>
	<polygon class="st39" points="194.9,340.3 195.2,343.2 195.6,340.1 	"/>
	<polygon class="st39" points="196.4,339.8 196.5,343.5 197.1,339.6 	"/>
	<polygon class="st39" points="198.3,339.2 198.2,342.4 200,338.7 	"/>
	<polygon class="st39" points="196.2,350.1 194.5,346.8 196.3,349.3 196,347.8 197.2,349.6 	"/>
	<polygon class="st39" points="198.2,349.2 196.1,346.1 199.4,348.7 198.9,348.9 197.8,347.9 198.5,349.1 	"/>
	<polygon class="st39" points="201.2,347.9 198.9,345.4 201.6,347.7 	"/>
</g>
<g id="Lanscape_3">
	<g>
		<defs>
			<polyline id="SVGID_3_" points="4.4,2.8 1280.6,0.7 1280.6,800.7 0.6,800.7 			"/>
		</defs>
		<clipPath id="SVGID_4_">
			<use xlink:href="#SVGID_3_"  style="overflow:visible;"/>
		</clipPath>
		<path class="st40" d="M1280,688.4c-41.7-13.7-85.9-25.5-164.5-30.5c-143.6-9.1-220.3-41.4-250.9-58c133.9,60,207.6-57.3,299.5-122
			c0,0,2.9,0,9.6-4.4c6.5-4.2,4-4.6,4-4.6c11.6-6.3,27.1-15.6,39.9-19.6l62.6-14.9L1280,688.4z"/>
		<path class="st41" d="M1164,477.9c0,0,42.1-10.2,58,36.3c36.5,106.4-154.9,139.1-154.9,139.1l139.3,13.5c0,0,48.9-24.6,62.9-65.1
			c21-60.6-15.7-142.2-91.6-132.7C1177.7,468.9,1176.5,472.3,1164,477.9z"/>
		<path class="st42" d="M1177.7,468.9c77.2-7.5,105.7,76.3,86.2,132.7c-12.8,36.9-56.1,60.6-63.4,64.5l5.9,0.6
			c0,0,48.9-24.6,62.9-65.1C1289.5,543.3,1255.8,459.2,1177.7,468.9z"/>
		<path class="st42" d="M1225.5,516.2c-20.2-50.9-61-38.5-61.4-38.3c0,0,42.1-10.2,58,36.3c36.5,106.4-154.9,139.1-154.9,139.1
			l27.8,2.7C1151.1,640.3,1258,598,1225.5,516.2z"/>
		<path class="st43" d="M1073.6,552.9c0,0-1.6-3.9-3.1-5.4c0,0,1.8,3.4,6,2.5c4.3-0.9-1.8-11.3-1.8-11.3s5.7,6.9,8.7,6.3
			c3-0.6-2.7-4.6-2.7-4.6s3.8,3.5,5.6,2.7s2.8-4.9-0.2-6.7c-3-1.7,4.2-0.1,3.6,4.2L1073.6,552.9z"/>
	</g>
	<polygon class="st44" points="759.3,462.3 739.8,555.8 784.1,555.8 	"/>
</g>
<g id="Landscape_2">
	<path class="st44" d="M1279.5,687.1l1.1,113.6H0.6L0.1,412.8c25.2,24.3,57.2,40.3,91.8,46.1l38.9,6.5l38.9,49.2l33.5,27.1l65,17.4
		l27,8.4l21.1,27.3l6.8,4.1c7.6,4.5,16.2,6.9,25,6.9h7.1l27.5,6.7l15.2,10.2c8,5.4,17.5,8.3,27.2,8.3c4.8,0,9.6-0.7,14.2-2.1
		c4.6-1.4,9-3.5,13-6.2l3.3-2.3c7.7-5.2,16.8-8,26.1-8c8.1,0,16.1,1,23.8,3.1c7.8,2,15.3,5.1,22.3,9l11.5,6.5l33.8,18.9l14.1,7.1
		c7,3.6,14.8,5.4,22.7,5.3c9.5-0.1,18.6-2.5,26.8-6.8c8.2-4.3,15.3-10.5,20.8-18.2l34-51.2c1-1.5,1.9-3.2,3.5-4.6
		c115.8-98.2,274.1,67.4,418.1,76.6C1192.1,663.1,1237.7,673.4,1279.5,687.1z"/>
	<path class="st45" d="M515.6,717.4c34.8-3.4,123.8-25,131.5-45.8c10.4-28.2,45.5-27.2,66.5-39.2c21-11.9,11.5-43.7,20.6-63.1
		c7.7-16.3,48.8-18.7,50.1-18.7c11.9,0,27.9,2.9,27.9,2.9c-11.2-0.9-36.7,2.7-42.2,11.3c-7.7,11.9,9.1,62.8-9.9,78.4
		c-19,15.6-31.8,22-36.2,34.8c-5.6,16.5-46.9,36.7-46.9,36.7L515.6,717.4z"/>
	<path class="st46" d="M667.4,708.9c0,0,45.2-13.9,51.2-30.9c4.7-13.2,18.9-19.7,39.4-35.8c20.6-16.1,3.6-66.6,12-78.8
		c6-8.9,30.1-10.7,42.2-9.8c-11.2-0.9-34,2.7-39.5,11.3c-7.7,11.9,7.9,62.8-11.1,78.4c-19,15.6-32.6,22-37,34.8
		c-5.6,16.5-48.2,30-48.2,30L667.4,708.9z"/>
	<path class="st46" d="M517.5,723.9c34.8-3.6,123.4-26,131.2-47.6c10.4-29.3,45.5-28.3,66.5-40.7c21-12.4,11.5-45.4,20.6-65.6
		c7.7-17,47.9-19.3,47.9-19.3c-7.6-0.2-41.8,2.3-49.5,18.7c-9.1,19.4,0.4,51.1-20.6,63.1c-21,11.9-56.1,10.9-66.5,39.2
		c-7.7,20.8-96.4,42.4-131.2,45.8L517.5,723.9z"/>
	<path class="st47" d="M840.3,560.9c0,0,5.7,0.2,6.3-5.4c0,0-1.3,6,1.4,6.6c0,0,1.8-0.9,1.5-4c0,0,1.3,2.2,0.4,5.2
		c0,0,4.3,0,4.4-1.5c0,0-1,1.5,2.4,3.2c0,0,4.3-3,2.8-9.6c0,0,3.2,3.4,0,10.3c0,0,0.9-2.9,3.6-2.5c0,0-2.7,1.5,0.6,3.6l-2.9,2.6
		l-18.2-5.4L840.3,560.9z"/>
	<path class="st48" d="M478.9,613.7c5.1-5.5,2.8-12.4,2.8-12.4c0.1,8.1-7.6,12.4-7.6,12.4c-3.1-13.9,7.2-25.8,7.2-25.8
		c-12.4,7.2-12.3,26.8-12.3,26.8s-3.1-4.9,0-15.4c0,0-4.3,3.2-2.7,15.4l3.3,4L478.9,613.7z"/>
	<path class="st14" d="M423,642.3c21,0,22.1-14.7,32.6-21.8l-3.3,2.3c-4,2.7-8.4,4.8-13,6.2c-4.6,1.4-9.4,2.1-14.2,2.1
		c-9.7,0-19.2-2.9-27.2-8.3l-15.2-10.2C382.7,612.5,413.3,642.3,423,642.3z"/>
	<path class="st48" d="M476.4,611.5c-0.5-4.7,3.1-7.8,3.1-7.8c-3,4.5-0.7,9.3-0.7,9.3c6.5-6.8,5.8-16.7,5.8-16.7
		c3.4,7.9-3.7,18.9-3.7,18.9s3.3-1.8,5.6-8.6c0,0,0.9,3.1-4.3,9.5l-3.1,1.2L476.4,611.5z"/>
	<path class="st48" d="M216.4,600.8c5.3-6.1,7-15.1,4.4-22.7"/>
</g>
<g id="Landscape_2_Tree">
	<path class="st49" d="M616.6,665.5c-2.5,1.6-7.8,2.7-12.3,0l0-7h12.3V665.5z"/>
	<path class="st44" d="M618.5,604.7l-8.8-0.2l7.8-4.1l-7.8-33.1l-6.1,25.9c3.2,2.2,6.1,4.4,6.1,4.4l-7.4,1.5L596,626
		c4-1.1,9.1-2.6,9.1-2.6l-10.6,9.2l-5.6,24c9.8,10.2,36.6,6.4,41.7-0.3L618.5,604.7z"/>
	<path class="st50" d="M630.6,656.2l-12.1-51.5l-3.5-0.1l7.9,56C626.5,659.5,629.3,658,630.6,656.2z"/>
	<polygon class="st50" points="617.5,600.4 609.8,567.3 614.6,601.9 	"/>
</g>
<g id="Parents_Hand">
	<path class="st51" d="M738.1,467.6c-0.2,4.9-8.1,15.9-15.5,22c0,0-3.5,2.2-4.8,2.4c-0.6,0.1-1.2,0.5-1,0.9c0.2,0.5,1,0.8,2.1,0.4
		c1.8-0.6,0.5,1.1-0.8,2.2c-1.4,1.1-1.7,2.9-0.4,3.7c1.3,0.8,6.4-2.7,8-7.2c0,0,13.6-9.5,14.9-16.9
		C741.9,467.6,738.1,467.6,738.1,467.6z"/>
	<path class="st52" d="M736.1,482.8c-4-1.7-4.2-3.2-4.2-3.2c0.6-4.6,6.3-16.4,11.1-18.4c0,0-0.6,4.9-0.2,9.7
		C743.5,478.5,736.1,482.8,736.1,482.8z"/>
	<path class="st53" d="M736.7,482.9c0.1-0.2,0-0.5-0.2-0.5c-2-0.6-3.6-2.2-4.4-3.1c-0.3-0.4-0.9-0.3-1.1,0.1
		c-0.1,0.2-0.2,0.4-0.3,0.6c-0.3,0.5-0.6,0.8-0.8,1c-0.3,0.2-0.4,0.6-0.2,0.9c0.5,0.8,1.7,2.1,4.2,3.2c0.2,0.1,0.4,0,0.6-0.1
		c0.3-0.3,0.8-0.8,1.1-0.9C736.2,483.8,736.5,483.3,736.7,482.9z"/>
</g>
<g id="Parents_Head_Man">
	<path class="st51" d="M745.1,457.7c0.8,0,0.9,1.2,1,2.5c0.1,1.2,1.1,2.3,2.5,2.5c0,0,0,0,0.1,0c1.6,0.2,3-0.9,3.2-2.4
		c0.2-1.3,0.5-3.2,1.2-5.4c0.1-0.4,0.3-0.9,0.5-1.3c0.1-0.3,0.2-0.5,0.3-0.8c0.1-0.2,0.1-0.3,0.2-0.5c0,0,0-0.4,0.1-1
		c0.2-1.7,0.5-5.1,0.3-6.4c-1-6-12.1-6.1-13.3-0.8C741.1,444.2,738.5,457.8,745.1,457.7z"/>
	<path class="st51" d="M756,451.2c-0.7,1.1-2,1.6-2.9,1.1c-0.9-0.5-1-1.8-0.3-2.9c0.7-1.1,2-1.6,2.9-1.1
		C756.6,448.9,756.7,450.1,756,451.2z"/>
	<path class="st54" d="M754.7,451.6c0,0,0.5-0.2,0.9-1.1c0.5-1.3-0.5-1.8-0.5-1.8S756.2,449.9,754.7,451.6z"/>
	<path class="st54" d="M749.2,457.4c1.5,0-1.9,0.4-3,3.1c-0.1-2.1-0.5-2.8-1-2.8C745.1,457.7,747.8,457.5,749.2,457.4z"/>
	<path class="st55" d="M754.2,452.5c0,0-0.4,4-1.4,4.1c-0.4,0-0.6-0.3-0.7-0.7c-0.1-0.5,0.1-1,0.4-1.5l1.3-1.9L754.2,452.5z"/>
	<path class="st55" d="M755.2,448.1c0,0,1.7-5.9,0.6-7.1s-11.9-9.2-15.5-4.4c-2.7,3.5,1.4,5.7,1.4,5.7s1,0.8,4.6,0.1
		c3.6-0.6,5.2-0.6,5.1,0.7s1.7,1.5,1.7,1.5L753,449C753,449,753.8,447.9,755.2,448.1z"/>
</g>
<g id="Parents">
	<ellipse class="st56" cx="752.7" cy="568.4" rx="37.7" ry="3"/>
	<path class="st51" d="M744.8,565.7l-13.2,0.8c-1.4-2.8,5.9-4.2,8.5-4.3l0.1-3.3l4.8,0c0,0-0.5,1.6-0.4,3.2
		C744.7,563.9,744.8,565.7,744.8,565.7z"/>
	<path class="st51" d="M759.1,566.4l-12.8,1.2c-1.4-2.8,5.7-4.3,8.3-4.4l-0.2-3.3l4.4-0.3c0,0,0.1,1.6,0.2,3.2
		C759,564.6,759.1,566.4,759.1,566.4z"/>
	<g>
		<path class="st57" d="M754.2,563.1c-0.2,1.7,3.8,1.3,5,1.2c0.2,0,0.3,0.1,0.4,0.3c0.1,0.7,0.3,2.2,0.3,2.2
			c-0.8,0.7-13.2,1.7-13.9,1.2C744.5,565,751.6,563.3,754.2,563.1z"/>
	</g>
	<g>
		<path class="st57" d="M739.6,562.2c-0.2,1.6,3.8,1.4,5,1.3c0.2,0,0.3,0.1,0.4,0.3c0.1,0.6,0.2,2,0.2,2c-0.8,0.6-13.2,1.2-14,0.8
			C729.8,563.8,736.9,562.4,739.6,562.2z"/>
	</g>
	<path class="st53" d="M758.4,461.9c0,0,6,3.7,10.3,9.8c0,0,5.5,0.1,9.9,2.8c0,0,0.6,2.2-1.5,3.7c0,0-8.3-0.1-12.4-1l-8.8-6.6
		L758.4,461.9z"/>
	<path class="st58" d="M740.7,500.7l-1.2,60.3c0,0.3,0.2,0.5,0.4,0.6c0.7,0.2,2.4,0.4,4.8-0.1c0.2,0,0.4-0.3,0.4-0.5l6.7-65.8
		L740.7,500.7z"/>
	<path class="st59" d="M744.8,494.4l9.5,67.8c0,0.3,0.2,0.5,0.5,0.6c2,0.6,3.5,0.1,4.2-0.3c0.2-0.1,0.4-0.4,0.4-0.6l-0.5-67.5
		L744.8,494.4z"/>
	<path class="st52" d="M746.1,460.2c-5.4,1-9.1,6.3-9,14c0.1,6.5,0.7,17.8,3.1,26c0.1,0.3,0.2,0.5,0.5,0.6c1.4,0.9,8,3.9,18.4,0
		c0.4-0.2,0.7-0.6,0.7-1.1c-0.1-18.4,2.8-33.8-0.1-36.8c-2.5-2.3-4.6-2.6-7.8-3c0,0.7-0.7,2-2.8,2.1
		C746,462,746.1,460.2,746.1,460.2z"/>
	<path class="st60" d="M737.1,476.9"/>
	<path class="st53" d="M740.6,500.9c-0.2-0.2-0.4-0.4-0.5-0.6c-1.9-6.4-2.7-14.8-2.9-21.2c0.5,3.3,5.5,25.2,22.5,21.2
		c-0.1,0.3-0.3,0.5-0.6,0.6C748.6,504.8,742.1,501.8,740.6,500.9z"/>
	<path class="st51" d="M780.7,478.5c-0.9,2.9-3.9,2.7-4.8,1.6c-1.1-1.3-0.2-2.6,1.4-4.2c0,0-1.4-1.8-0.9-2.1
		C777.9,472.9,781.5,475.9,780.7,478.5z"/>
	<path class="st61" d="M758.7,499.4c0,0-8.6,4-17.8,0.2C740.9,499.6,748.6,502.3,758.7,499.4z"/>
	<path class="st62" d="M758.8,502.7l1.9,57.3l4.6,0.2c1.2-12.8,3.8-40.2,4.9-57.3L758.8,502.7z"/>
	<path class="st63" d="M754.6,568.2l10-1.1c0,0,0.3-2.7,0.7-7l-4.6-0.2l0.1,3.1c0,0.7-0.5,1.2-1.2,1.3
		C754.9,564.9,753.4,566.8,754.6,568.2z"/>
	<path class="st55" d="M767.6,509.3l2.1,0.7c-1.2,16.2-3.2,37.4-4.3,48.9L767.6,509.3z"/>
	<path class="st64" d="M759,564.5c2.9,1,5.7,0.3,5.9-0.4c0.1-0.2,0.5,0.1,0.5,0.3c0,1.4-0.3,2.8-0.3,2.8c-0.6,0.8-9.7,1.9-12.1,1.2
		C751.7,566.7,754.7,564.9,759,564.5z"/>
	<path class="st63" d="M758,564.6c0,0,2,0.6,0.9,1.1c-1.1,0.5-2.9-0.6-2.9-0.6S756.4,564.9,758,564.6z"/>
	<path class="st55" d="M773.2,561.3l4.3-0.1c0.4-14.4,1.1-45.8,0.9-58.6l-11.1,1.1C766.7,515.8,772.5,549,773.2,561.3z"/>
	<path class="st63" d="M765.5,569.8l11.7-1.2c0,0,0.1-2.9,0.2-7.5l-4.3,0.1c0.1,1.5,0.1,2.6,0,3.4c-0.1,0.7-0.6,1.2-1.3,1.3
		C767.1,566.5,764.3,568.2,765.5,569.8z"/>
	<polygon class="st55" points="775,507.9 776.9,561.2 777.4,561.2 778.4,507.1 	"/>
	<path class="st64" d="M771.9,566c2.7,0.8,4.6,0.4,5.4,0.1c0.2-0.1,0.5,0.1,0.5,0.3c0,1.4-0.1,2.2-0.1,2.2
		c-0.6,0.8-9.7,1.9-12.1,1.2C764.3,568.2,767.1,566.5,771.9,566z"/>
	<path class="st63" d="M770.6,566.1c0,0,2,0.6,0.9,1.1c-1.1,0.5-2.9-0.6-2.9-0.6S768.9,566.4,770.6,566.1z"/>
	<path class="st65" d="M779.5,511c0,0-1.3-33.2-3.2-37.3c-0.2-0.5-1.5-1-3-1.4c-4.2-1.1-8.8-0.6-12.4,1.6c-0.9,0.6-1.6,1.1-1.7,1.6
		c-0.3,4.3-1.5,35.3-1.5,35.3S763.4,516.1,779.5,511z"/>
	<path class="st66" d="M762.4,507.7c0,0,2.9,0.3,2.9,0.7c0,0.4-2.9,0.5-2.9,0.5L762.4,507.7z"/>
	<path class="st67" d="M779.5,511c0,0,0-1-0.1-2.7l0,0c-22.2,4.4-20-18.2-20-18.2l-1,3c-0.4,8.9-0.7,17.7-0.7,17.7
		S763.4,516.1,779.5,511z"/>
	<path class="st68" d="M765.7,507.9c0,0-2.9,0-3,0.4c0,0.4,3,0.9,3,0.9L765.7,507.9z"/>
	<path class="st63" d="M759.7,474.8l-0.3,15.7l2.5,16.6l0,0c0,0,0.2,1.1,2,0.9c2.6-0.3,5.1,2.3,1.1,2.7c-0.7,0.1-1.5,0-2.1-0.2
		c-1.9-0.5-3.4-2-3.9-3.9c-1.1-4.6-3.7-15-3.7-16.3C755.2,487.1,758.2,476.9,759.7,474.8z"/>
	<path class="st63" d="M763.2,508.2c1,0,1.9-0.9,1.9-0.9s10.5-14.4,10.5-15.4c0-0.8-0.4-9-1-12.4c-0.1-0.8,0-1.7,0.4-2.4l0.3-1.8
		c0.1-0.6,1-0.7,1.2-0.1c1.6,4.5,3.9,15.3,3.5,17.9c-0.5,3.1-12.7,16.2-12.7,16.2s-2.1,2-5.1,1.7
		C758.1,510.6,760.6,508.1,763.2,508.2z"/>
	<path class="st65" d="M773.9,485.1l-0.3-1.6c-0.1-6.5,0.8-8.7,2.5-10.2c0,0,2.4,2.7,4,7.7C780.2,481,780.2,483.2,773.9,485.1z"/>
	<path class="st65" d="M759.9,484.6l0.4-10.4c0,0-2.6,1.4-4.4,8.3C755.9,482.6,756.8,484.3,759.9,484.6z"/>
	<path class="st67" d="M776,473.5c0,0-2.9,1.6-2.3,10.3C773.7,483.8,773.6,476.4,776,473.5z"/>
	<path class="st67" d="M759.7,483.8c0,0-0.9-7.2,1.9-10.4C761.6,473.4,759.6,476.6,759.7,483.8z"/>
	<g id="Logo">
		<circle class="st69" cx="747" cy="479.6" r="7.8"/>
		<path class="st65" d="M741.1,477.4c-0.2-0.1-0.3-0.2-0.4-0.3c-0.1-0.1-0.1-0.3-0.1-0.5c0-0.2,0-0.4,0.1-0.5
			c0.1-0.1,0.2-0.3,0.4-0.4c0.2-0.1,0.3-0.1,0.5-0.1c0.2,0,0.4,0,0.5,0.1c0.2,0.1,0.3,0.2,0.4,0.3c0.1,0.1,0.1,0.3,0.1,0.5
			c0,0.2,0,0.4-0.1,0.5c-0.1,0.1-0.2,0.3-0.4,0.4c-0.2,0.1-0.3,0.1-0.5,0.1C741.4,477.5,741.2,477.4,741.1,477.4z M742,476.9
			c0.1-0.1,0.1-0.2,0.1-0.4c0-0.2,0-0.3-0.1-0.4c-0.1-0.1-0.2-0.1-0.3-0.1c-0.1,0-0.3,0-0.4,0.1c-0.1,0.1-0.1,0.2-0.1,0.4
			c0,0.2,0,0.3,0.1,0.4c0.1,0.1,0.2,0.1,0.4,0.1S741.9,477,742,476.9z"/>
		<path class="st65" d="M744.9,475.7c0.1,0.1,0.2,0.4,0.2,0.6l0,1.1l-0.6,0l0-1c0-0.2,0-0.3-0.1-0.3c-0.1-0.1-0.2-0.1-0.3-0.1
			c-0.1,0-0.3,0-0.3,0.1c-0.1,0.1-0.1,0.2-0.1,0.4l0,0.9l-0.6,0l0-1.9l0.5,0l0,0.2c0.1-0.1,0.2-0.1,0.3-0.2s0.2-0.1,0.4-0.1
			C744.5,475.5,744.7,475.6,744.9,475.7z"/>
		<path class="st65" d="M747.5,476.7l-1.4,0c0,0.1,0.1,0.2,0.2,0.3c0.1,0.1,0.2,0.1,0.4,0.1c0.1,0,0.2,0,0.3,0
			c0.1,0,0.1-0.1,0.2-0.1l0.3,0.3c-0.2,0.2-0.4,0.3-0.8,0.3c-0.2,0-0.4,0-0.6-0.1c-0.2-0.1-0.3-0.2-0.4-0.3
			c-0.1-0.1-0.1-0.3-0.1-0.5c0-0.2,0-0.4,0.1-0.5c0.1-0.2,0.2-0.3,0.4-0.4c0.2-0.1,0.3-0.1,0.5-0.1c0.2,0,0.4,0,0.5,0.1
			c0.2,0.1,0.3,0.2,0.4,0.3c0.1,0.2,0.1,0.3,0.1,0.5C747.5,476.5,747.5,476.6,747.5,476.7z M746.2,476c-0.1,0.1-0.1,0.2-0.2,0.3
			l0.9,0c0-0.1-0.1-0.2-0.2-0.3s-0.2-0.1-0.3-0.1C746.4,475.9,746.3,476,746.2,476z"/>
		<path class="st65" d="M742,480.5c-0.1,0-0.1,0.1-0.2,0.1c-0.1,0-0.2,0-0.3,0c-0.2,0-0.4-0.1-0.5-0.2c-0.1-0.1-0.2-0.3-0.2-0.5
			l0-0.8l-0.3,0l0-0.4l0.3,0l0-0.5l0.6,0l0,0.5l0.5,0l0,0.4l-0.5,0l0,0.8c0,0.1,0,0.1,0.1,0.2c0,0,0.1,0.1,0.2,0.1
			c0.1,0,0.2,0,0.2-0.1L742,480.5z"/>
		<path class="st65" d="M745.4,478.7l-0.7,1.9l-0.5,0l-0.4-1.2l-0.4,1.2l-0.5,0l-0.7-1.9l0.5,0l0.5,1.3l0.5-1.3l0.5,0l0.5,1.3
			l0.5-1.3L745.4,478.7z"/>
		<path class="st65" d="M746,480.5c-0.2-0.1-0.3-0.2-0.4-0.3c-0.1-0.1-0.1-0.3-0.1-0.5c0-0.2,0-0.4,0.1-0.5c0.1-0.1,0.2-0.3,0.4-0.4
			c0.2-0.1,0.3-0.1,0.5-0.1c0.2,0,0.4,0,0.5,0.1c0.2,0.1,0.3,0.2,0.4,0.3c0.1,0.1,0.1,0.3,0.1,0.5c0,0.2,0,0.4-0.1,0.5
			c-0.1,0.1-0.2,0.3-0.4,0.4c-0.2,0.1-0.3,0.1-0.5,0.1C746.4,480.7,746.2,480.6,746,480.5z M746.9,480.1c0.1-0.1,0.1-0.2,0.1-0.4
			c0-0.2,0-0.3-0.1-0.4c-0.1-0.1-0.2-0.1-0.3-0.1c-0.1,0-0.3,0-0.4,0.1c-0.1,0.1-0.1,0.2-0.1,0.4c0,0.2,0,0.3,0.1,0.4
			c0.1,0.1,0.2,0.1,0.4,0.1S746.8,480.2,746.9,480.1z"/>
		<path class="st65" d="M741.1,483.5c-0.2-0.1-0.3-0.2-0.4-0.3c-0.1-0.1-0.1-0.3-0.1-0.5c0-0.2,0-0.4,0.1-0.5
			c0.1-0.1,0.2-0.3,0.4-0.4c0.2-0.1,0.3-0.1,0.5-0.1c0.2,0,0.4,0,0.5,0.1c0.2,0.1,0.3,0.2,0.3,0.4l-0.4,0.2
			c-0.1-0.2-0.2-0.3-0.4-0.3c-0.1,0-0.3,0-0.4,0.1c-0.1,0.1-0.1,0.2-0.1,0.4s0,0.3,0.1,0.4c0.1,0.1,0.2,0.1,0.4,0.1
			c0.2,0,0.3-0.1,0.4-0.3l0.4,0.2c-0.1,0.2-0.2,0.3-0.3,0.4c-0.2,0.1-0.3,0.1-0.5,0.1C741.4,483.6,741.3,483.6,741.1,483.5z"/>
		<path class="st65" d="M744.6,481.8c0.2,0.1,0.2,0.4,0.2,0.6l0,1.1l-0.5,0l0-0.2c-0.1,0.2-0.3,0.3-0.6,0.3c-0.1,0-0.3,0-0.4-0.1
			c-0.1,0-0.2-0.1-0.2-0.2c-0.1-0.1-0.1-0.2-0.1-0.3c0-0.2,0.1-0.3,0.2-0.4c0.1-0.1,0.3-0.2,0.6-0.2l0.4,0c0-0.1,0-0.2-0.1-0.3
			c-0.1-0.1-0.2-0.1-0.3-0.1c-0.1,0-0.2,0-0.3,0c-0.1,0-0.2,0.1-0.3,0.1l-0.2-0.4c0.1-0.1,0.2-0.1,0.4-0.2c0.1,0,0.3-0.1,0.4-0.1
			C744.2,481.6,744.4,481.7,744.6,481.8z M744.1,483.2c0.1,0,0.1-0.1,0.2-0.2l0-0.2l-0.4,0c-0.2,0-0.3,0.1-0.3,0.2
			c0,0.1,0,0.1,0.1,0.2c0.1,0,0.1,0.1,0.2,0.1C744,483.2,744.1,483.2,744.1,483.2z"/>
		<path class="st65" d="M746.5,481.7c0.1,0,0.2-0.1,0.4-0.1l0,0.5c-0.1,0-0.1,0-0.1,0c-0.2,0-0.3,0-0.4,0.1
			c-0.1,0.1-0.1,0.2-0.1,0.4l0,0.9l-0.6,0l0-1.9l0.5,0l0,0.3C746.3,481.8,746.3,481.7,746.5,481.7z"/>
		<path class="st65" d="M749.3,482.8l-1.4,0c0,0.1,0.1,0.2,0.2,0.3c0.1,0.1,0.2,0.1,0.4,0.1c0.1,0,0.2,0,0.3,0
			c0.1,0,0.1-0.1,0.2-0.1l0.3,0.3c-0.2,0.2-0.4,0.3-0.8,0.3c-0.2,0-0.4,0-0.6-0.1c-0.2-0.1-0.3-0.2-0.4-0.3
			c-0.1-0.1-0.1-0.3-0.1-0.5c0-0.2,0-0.4,0.1-0.5c0.1-0.2,0.2-0.3,0.4-0.4c0.2-0.1,0.3-0.1,0.5-0.1c0.2,0,0.4,0,0.5,0.1
			c0.2,0.1,0.3,0.2,0.4,0.3c0.1,0.2,0.1,0.3,0.1,0.5C749.3,482.6,749.3,482.7,749.3,482.8z M748,482.1c-0.1,0.1-0.1,0.2-0.2,0.3
			l0.9,0c0-0.1-0.1-0.2-0.2-0.3c-0.1-0.1-0.2-0.1-0.3-0.1C748.2,482,748.1,482.1,748,482.1z"/>
		<path class="st65" d="M751.9,482.8l-1.4,0c0,0.1,0.1,0.2,0.2,0.3c0.1,0.1,0.2,0.1,0.4,0.1c0.1,0,0.2,0,0.3,0
			c0.1,0,0.1-0.1,0.2-0.1l0.3,0.3c-0.2,0.2-0.4,0.3-0.8,0.3c-0.2,0-0.4,0-0.6-0.1c-0.2-0.1-0.3-0.2-0.4-0.3
			c-0.1-0.1-0.1-0.3-0.1-0.5c0-0.2,0-0.4,0.1-0.5s0.2-0.3,0.4-0.4c0.2-0.1,0.3-0.1,0.5-0.1c0.2,0,0.4,0,0.5,0.1
			c0.2,0.1,0.3,0.2,0.4,0.3c0.1,0.2,0.1,0.3,0.1,0.5C751.9,482.6,751.9,482.7,751.9,482.8z M750.6,482.1c-0.1,0.1-0.1,0.2-0.2,0.3
			l0.9,0c0-0.1-0.1-0.2-0.2-0.3c-0.1-0.1-0.2-0.1-0.3-0.1C750.8,482,750.7,482.1,750.6,482.1z"/>
		<path class="st65" d="M656.8,544.4c0.2-0.1,0.4-0.1,0.7-0.1l0,0.9c-0.1,0-0.2,0-0.2,0c-0.3,0-0.5,0.1-0.7,0.2
			c-0.2,0.2-0.2,0.4-0.2,0.7l0,1.7l-1,0l0-3.5l1,0l0,0.5C656.5,544.7,656.6,544.5,656.8,544.4z"/>
	</g>
</g>
<g id="Parents_Head_Woman">
	<path class="st70" d="M765.3,449.3c0,0-8.1-0.2-6.2,6.9s10.3,1.4,10.3,0.8C769.4,456.4,765.3,449.3,765.3,449.3z"/>
	<path class="st71" d="M764.8,454.6c0,0,1,7.4-6,13.6c0,0,4.5,2.2,10.7,1.8c6.2-0.4,3.2-14.8,3.1-14.9
		C772.4,455,764.8,454.6,764.8,454.6z"/>
	<path class="st63" d="M758.6,462c0,5,2.6,5.4,3.2,5.6c2.7,0.7,3.1,1.3,3.2,5.1c0,0,2.7,2.5,5.5-0.1c0,0,0-3.2,1-6.9
		c0.1-0.5,0.3-0.9,0.4-1.4c0.1-0.3,0.2-0.5,0.3-0.8c0.1-0.2,0.1-0.3,0.2-0.5c0,0,0-0.4,0.1-1c0.1-1.7,0.8-5.8,0.7-7.1
		c-0.4-3.6-3.7-5.7-6.5-5.6c-5.1,0.1-5.8,2.3-7.1,6.2C759.5,455.4,758.6,458.8,758.6,462z"/>
	<path class="st63" d="M773.9,461.9c-0.7,1.1-2,1.6-2.9,1.2c-0.9-0.5-1.1-1.8-0.4-2.9s1.9-1.7,2.8-1.2
		C774.2,459.4,774.5,460.7,773.9,461.9z"/>
	
		<ellipse transform="matrix(0.9999 -1.192840e-02 1.192840e-02 0.9999 -5.4612 9.239)" class="st72" cx="771.8" cy="462.4" rx="0.6" ry="0.5"/>
	<path class="st73" d="M765,471.2c-0.2-2.5-0.8-3-3.1-3.6c1.9,0.4,2.8,0.4,3.9,0.4C766.7,468,765.3,470.7,765,471.2z"/>
	<path class="st73" d="M772.6,462.4c0,0,0.6-0.2,0.9-1.2c0.5-1.4-0.6-2-0.6-2S774.2,460.6,772.6,462.4z"/>
	<path class="st71" d="M771.7,463.2c-1,1.9-4.2,5-8.4,5.1c3.5,2.7,10.3,1.9,10.3,1.9c4.5-13.6,0.3-18,0.3-18
		c-6.7-6.6-14.6-1.9-14.6,0.7c0,0,0.4,3.9,10.4,7.3c0.6,0.2,1.5-1.8,3.2-1.4C774.5,459.2,774.7,462.4,771.7,463.2z"/>
</g>
<g id="Mist_2">
	<path class="st74" d="M0.4,768.4c0,0,350-179.2,404.6-129.1c94.4,86.6,262.2,41.6,286,33.7c150.6-49.8,346.9,57.8,579.8,57.8
		L0.8,799.2L0.4,768.4z"/>
</g>
<g id="Stage">
	<path class="st75" d="M927.8,340.6H899l-0.9-8.6h-25.8l-1.3,12.9h-29.3l-2.4,13.2c21.8-1.8,57.6-5,92.4,3.5L927.8,340.6z"/>
	<path class="st76" d="M883.2,351.8v-11.3h-2.3v-4.3h7.7v15.6H883.2z"/>
	<path class="st76" d="M918.5,354.1h-9.7l5.6-6.3c0.3-0.3,0.4-0.7,0.4-1c0-0.3-0.1-0.5-0.3-0.7c-0.2-0.2-0.4-0.3-0.8-0.3
		c-0.4,0-0.7,0.1-0.9,0.4c-0.1,0.3-0.2,0.6-0.2,0.8h-3.5c0-0.4,0.1-0.8,0.2-1.3c0.1-0.5,0.3-0.9,0.6-1.4c0.3-0.5,0.8-0.9,1.4-1.2
		c0.6-0.3,1.5-0.5,2.5-0.5c1,0,1.9,0.2,2.6,0.5c0.7,0.3,1.2,0.8,1.6,1.3s0.5,1.2,0.5,1.9c0,0.5-0.1,0.9-0.2,1.3s-0.3,0.8-0.6,1.1
		c-0.2,0.3-0.5,0.7-0.8,1c-0.3,0.3-0.7,0.8-1.3,1.2h2.8V354.1z"/>
	<path class="st76" d="M856.7,351.2h-0.4v-1.6h0.4c0.5,0,0.8-0.2,0.8-0.6c0-0.2-0.1-0.3-0.2-0.4c-0.1-0.1-0.3-0.1-0.4-0.1
		c-0.3,0-0.4,0.1-0.5,0.2c-0.1,0.1-0.1,0.3-0.1,0.4h-2.5c0.1-0.7,0.4-1.3,0.8-1.9c0.5-0.6,1.3-0.8,2.4-0.8c0.6,0,1.1,0.1,1.6,0.3
		c0.5,0.2,0.9,0.4,1.1,0.8c0.3,0.3,0.4,0.7,0.4,1.2c0,0.3-0.1,0.6-0.2,0.8c-0.1,0.2-0.3,0.4-0.5,0.6c-0.2,0.1-0.4,0.2-0.7,0.3v0
		c0.2,0.1,0.5,0.1,0.7,0.3c0.2,0.1,0.4,0.3,0.6,0.6c0.2,0.3,0.3,0.6,0.3,1.1c0,0.4-0.1,0.8-0.3,1.2c-0.2,0.4-0.6,0.7-1.1,0.9
		c-0.5,0.2-1.2,0.4-2.1,0.4c-1.2,0-2-0.3-2.5-0.9c-0.5-0.6-0.7-1.3-0.8-2h2.6c0,0.2,0.1,0.4,0.2,0.6c0.1,0.2,0.3,0.3,0.7,0.3
		c0.5,0,0.7-0.2,0.7-0.7C857.6,351.4,857.3,351.2,856.7,351.2z"/>
</g>
<g id="Lamdscape_front">
	<path class="st77" d="M657.2,698.6l623.4-61.3v163.3H0.6l0-37l529.8-52.5C530.4,711.2,604.1,723.4,657.2,698.6z"/>
	<path class="st78" d="M282.2,799.2c0,0,55.7-22.9,132.1-28.5c52.8-3.9,153.5-18.5,115.1-59.4c0,0,71,11.7,126.8-12.5
		c0,0,41,41.7,0,100.5H282.2z"/>
	<path class="st46" d="M542,712.7l-13.6-1.5c38.5,40.9-61.3,55.5-114.1,59.4c-76.3,5.7-132.9,27-132.9,27l8.1,0.1
		c19.1-6.4,66.5-20.6,125.5-25.1C468.1,768.5,579,755.1,542,712.7z"/>
	<path class="st46" d="M656.2,698.7c-0.5,0.2-1,0.4-1.6,0.7l0,0c0,0,46.2,57.1-20.9,101.8l23.4-1
		C698.2,741.4,656.2,698.7,656.2,698.7z"/>
	<path class="st79" d="M985.9,503.8"/>
</g>
<g id="Trees_front_1">
	<path class="st80" d="M931.6,756.8c17.4-2.8,9.7-6.6,8.5-8.7c-5.8-9.9-169.2-17.3-234.2,1.4C699.8,768.7,925,757.8,931.6,756.8z"/>
	<path class="st81" d="M1280.5,732c-4-0.6-8-1.4-11.8-2.6v-15.3h11.8L1280.5,732z"/>
	<path class="st82" d="M1280.7,388.4l7.8,7.6l-11.2,7l-12,51.5l29.5,5.5l-33.8,12.7l-13.1,56.2l40.6,9.3l-46.8,17.4l-32.1,137.2
		c5,3.3,10.4,6,16.1,8.3c16.7,7.2,35.6,11.7,55.3,14.3"/>
</g>
<g id="Trees_front_2">
	<path class="st49" d="M1158,715.5c-5.4,3.5-17.1,5.8-26.8,0v-15.3h26.8V715.5z"/>
	<path class="st82" d="M1164.5,639.2c0,0,11.6,1.4,20.4,2.7l-6.9-31c-7.8-2-16.8-4.4-16.8-5.3c0-1,9-1.6,15.2-1.9l-11.7-52.3
		l-13.2-1.1l11.5-6.4l-21.9-98.1l-14.9,74.7l11.3,4.6l-13.6,6.7l-8,39.9l21.5,7.4l-24.4,7.2l-7.3,36.7l22.8,7.5l-26.5,11l-11,54.8
		c24.4,20.5,88,14.2,106,0l-10.4-46.5L1164.5,639.2z"/>
</g>
<g id="Trees_front_3">
	<path class="st81" d="M989.2,702.3c-5.4,3.5-17.1,5.8-26.8,0v-15.3h26.8V702.3z"/>
	<path class="st82" d="M993.3,569.4l-19.2-0.4l17-9.1l-17-72.4l-13.2,56.7c6.9,4.9,13.2,9.7,13.2,9.7l-16.2,3.2l-13.7,58.8
		c8.8-2.3,19.8-5.6,19.8-5.6l-23.2,20.2l-12.2,52.4c21.4,22.3,80,13.9,91.3-0.8L993.3,569.4z"/>
	<g class="st83">
		<path class="st84" d="M1019.8,682l-26.4-112.6l-7.7-0.2l17.3,122.5C1010.7,689.2,1016.8,685.8,1019.8,682z"/>
		<polygon class="st84" points="991.1,559.9 974.1,487.5 984.8,563.3 		"/>
	</g>
</g>
<g id="Trees_front_4">
	<g>
		<path class="st11" d="M951.8,508.4c12.1,31.6,14.8,67.5,3.1,99.3s-38.9,58.4-72.1,65.2c-33.1,6.8-70.8-9-85.7-39.4
			c-8.1-16.6-9.3-36.5-3.1-53.9c5.2-14.5,15.2-27.3,17.9-42.5c4.8-26.9-14.5-55.6-4.1-80.9c8.8-21.5,36-29.9,58.9-26.2
			C906.7,436.5,937.4,470.7,951.8,508.4z"/>
		<path class="st85" d="M851.9,719.9c0,0-5.5-62,10-104.6c15.6-42.6,14.3-100.9,14.3-100.9s5.6,40.1-4,88.2
			c-2.4,12.1-18.5,50.8-10.3,117.2H851.9z"/>
	</g>
	<path class="st22" d="M851.9,719.9c0,0-5.5-62,10-104.6c15.6-42.6,14.3-100.9,14.3-100.9s5.6,40.1-4,88.2
		c-2.4,12.1-18.5,50.8-10.3,117.2H851.9z"/>
	<path class="st86" d="M866.8,430c-5.1-0.8-10.5-1.1-15.8-0.7c0,0,82.9,24.5,82.9,130.5c0,88.4-40.1,109-53.4,113.5
		c0.8-0.1,1.6-0.3,2.3-0.4c33.1-6.8,60.4-33.4,72.1-65.2c11.7-31.7,8.9-67.7-3.1-99.3C937.4,470.7,906.7,436.5,866.8,430z"/>
</g>
<g id="Trees_front_5">
	<path class="st11" d="M995.3,602.1c-2.4-12.2-2.1-24.9,0.9-36.9c3.3-12.9,9.6-24.9,15.9-36.6c6.2-11.6,12.4-23.3,18.6-34.9
		c1.8-3.3,3.9-6.9,7.6-7.7c3.6-0.8,7,1.6,9.9,3.9c24.2,20,40.3,49.4,44,80.6c2.2,18.5-0.1,38.3-10.3,53.9
		c-10.2,15.6-29.5,26.1-47.8,22.4c-10.2-2-19.4-8.2-26-16.4S997.3,612.4,995.3,602.1z"/>
	<path class="st86" d="M1071.9,615.7c-16.5,33.8-63.9,14.8-63.9,14.8c6.6,8.1,15.8,14.3,26,16.4c18.3,3.6,37.6-6.8,47.8-22.4
		c10.2-15.6,12.6-35.4,10.3-53.9c-3.7-31.1-19.8-60.6-44-80.6C1048.1,489.9,1099.5,559.1,1071.9,615.7z"/>
	<path class="st22" d="M1051.5,708.9V529.3l-3.1,73.2c0,0-12.5,3.6-12.5-39.4c0,0-5.7,40.5,11.4,43.1l-4.1,102.8H1051.5z"/>
</g>
<g id="Trees_front_6">
	<path class="st87" d="M126.8,577.5c-7.8-12.6-23.2-21.9-23.4-36.7c-0.2-12,10.2-22.6,8.5-34.5c-2-13.3-18.1-20.6-21.1-33.7
		c-2.7-11.8,6.2-22.9,8.7-34.8c2.7-12.8-2.9-26.9-13.6-34.4c-10.7-7.5-25.9-7.9-37-1c-11.1,6.9-17.4,20.8-15.4,33.7
		c1.9,12,10.1,23.9,5.8,35.3c-2.5,6.6-8.8,11-14.2,15.5c-5.5,4.6-10.8,10.6-10.3,17.7c0.5,7.6,7.5,13.2,9.4,20.6
		c1.6,6.2-0.7,12.9-4.2,18.3c-3.4,5.4-8,10.1-11.5,15.5c-1.6,2.4-2.9,4.9-4,7.5c0,0-10.7,22.5,0.4,47c1.6,3.5,2.7,5,3.4,5.1
		c0.9,1.6,1.9,3.1,3,4.6c13.3,18.5,36.4,28.7,59.2,28.8c19,0.1,38.6-7,50.8-21.4C133.5,615.9,136.9,593.6,126.8,577.5z"/>
	<g>
		<path class="st22" d="M55.1,721.4h6.4c0,0,13.3-248.2,0-275.3c0,0,4.1,42.5,0.7,134.3C58.8,672.2,55.1,721.4,55.1,721.4z"/>
		<polygon class="st22" points="66.4,597.4 91.2,565.5 66.4,587.3 		"/>
		<path class="st22" d="M63.1,550.1c0,0-8.5-26-25-45.6c0,0,14.2,13.2,25.2,34.5L63.1,550.1z"/>
	</g>
</g>
<g id="Trees_front_Bush_1">
	<path class="st23" d="M729.3,751.8c0,0-0.2-30.9-27.2-46c0,0,32.9,0.9,52.4,27.8L729.3,751.8z"/>
	<path class="st88" d="M731.4,737.9c0,0,0.6-28,19.7-39.3c0,0-6.6,14.7,0,35L731.4,737.9z"/>
</g>
<g id="Trees_front_Bush_2">
	<path class="st89" d="M408.5,733.7c0,0-6-36.5-27.8-46c0,0,20.4-0.8,31.7,25.3c0,0-6-22.1,1.8-33.9c0,0-3.2,28.4,11.4,39.5
		c0,0,6.7-12.6,4.4-22.9c0,0,1.6,22.9,11,27.6c0,0,12-11.8,7.2-32.4c0,0,8.4,13.4,4.5,29.2c0,0,19.4,3.9,20-7.9c0,0,3.3,15,0,21.3
		L408.5,733.7z"/>
</g>
<g id="Trees_front_Bush_3">
	<path class="st90" d="M60.2,746.9c-5.9,0-11.2-3.3-13.9-8.5c-1.5-3-2.7-6.1-3.5-9.3c-0.4-1.6-0.8-3.3-0.5-5
		c0.3-1.7,1.2-3.3,2.8-3.9c1.6-0.6,3.7,0.1,4.2,1.7c-0.5-2.8-0.7-5.9,0-8.6c0.7-2.7,2.6-5.3,5.2-6.4c2.6-1.1,6-0.4,7.6,2
		c1.1,1.6,1.2,3.6,0.8,5.4s-1.2,3.6-2.1,5.2c1.4-1.1,2.2-2.3,3.3-3.8c1.1-1.5,2.2-3,3.6-4c1.5-1.1,3.4-1.6,5.2-1
		c0.8,2.6,0.7,5.5-0.3,8c0.9-0.5,1.6-0.7,2.6-0.9c1-0.2,2,0,2.8,0.6c1,1,1,2.7,0.5,4c-0.8,2-2.5,3.6-4.6,4.3
		c1.6-0.9,3.7-1.9,5.2-0.8c1,0.7,1.3,2.2,1.1,3.4s-1,2.3-1.7,3.4l-5,7.3c-2.9,4.3-7.8,6.8-13,6.8L60.2,746.9z"/>
</g>
<g id="Trees_front_Stone">
	<path class="st91" d="M706.6,747l9.7-15.2c0.8-1.3,2.3-2.1,3.8-2.1l30-6.4c2,0,3.9-1,5-2.7l21.7-19.1c4.8-7.2,12.9-11.5,21.5-11.5
		h40c1.7,0,3.2,0.9,4,2.4l7.3,14.1c0.6,1.2,1.7,2,3,2.3l22.8,5.2c0.6,0.1,1.2,0.4,1.7,0.8l41.5,31c3.5,2.6,1.6,8.1-2.7,8.1H710.4
		c-2.5,0-4.5-2-4.5-4.5v-0.1C705.9,748.5,706.1,747.7,706.6,747z"/>
	<path class="st92" d="M918.5,745.9l-41.5-31c-0.5-0.4-1.1-0.6-1.7-0.8l-22.8-5.2c-1.3-0.3-2.4-1.1-3-2.3l-7.3-14.1
		c-0.8-1.5-2.3-2.4-4-2.4h-25.2l11.3,32l-24.2,12l-39,20h154.7C920.2,754,922,748.4,918.5,745.9z"/>
	<path class="st93" d="M870,754h68.8c3.2,0,5.1-3.7,3.1-6.3L928.1,730c-0.7-0.9-1.9-1.5-3.1-1.5h-36.2c-1,0-1.9,0.4-2.7,1.1
		l-18.8,17.7C864.7,749.7,866.4,754,870,754z"/>
</g>
<g id="Character" class="st94">
	<g class="st95">
		<defs>
			<rect id="SVGID_5_" x="0.6" y="0.7" width="1280" height="800"/>
		</defs>
		<clipPath id="SVGID_6_">
			<use xlink:href="#SVGID_5_"  style="overflow:visible;"/>
		</clipPath>
	</g>
	<path class="st96" d="M426,670.8c0,0,27.1-30.3-52-119l-22.3,42.1L426,670.8z"/>
	<polygon class="st97" points="370.1,1121.1 384.4,1202 407,1204.3 396.3,1117.9 	"/>
	<polygon class="st97" points="234.3,1173.7 236.3,1246.3 256.3,1245.5 260.6,1172.6 	"/>
	<polygon class="st98" points="257.7,1222.3 253,1225.8 252.6,1243.6 256.5,1242.9 	"/>
	<polygon class="st99" points="212.8,747.6 224.2,977.2 231.1,1226.6 262.7,1225.4 290.2,985.5 290.1,759.6 	"/>
	<polygon class="st100" points="264.3,1225.4 291.8,985.5 287.6,796.6 275.1,792.1 283.6,984.8 259.1,1225.6 	"/>
	<polygon class="st101" points="350.7,758.1 407,1170.6 377.4,1177 254,763.7 	"/>
	<path class="st102" d="M351.2,771.1c-5.6-6-6.9,4-6.9,4l-10.6,9.9l69.6,385.6l3.8,0L351.2,771.1z"/>
	<path class="st96" d="M231.2,516.2c0,0-17.2,8-44.3,76.7c-7.5,19-12.4,37.6-12.4,51.3c0,21.4,55.7,101.5,47.3,61.6
		S231.2,516.2,231.2,516.2z"/>
	<path class="st97" d="M362.3,532.1c0,0-11.8-29-35.9-19.5C302.3,522.2,340,548.2,362.3,532.1z"/>
	<path class="st103" d="M221.4,774.9c0,0,82.4,24.9,129.8-3.8c37.7-22.9-129.8-9.5-129.8-9.5V774.9z"/>
	<path class="st104" d="M364.9,641c0,0,19.9,10.2,19.2-13.2c-0.5-17.2-16.9-60.1-34.3-97.9c-2.1-4.6-8.1-5.8-11.8-2.3l-9.8,9.3
		L364.9,641z"/>
	<path class="st97" d="M263.3,481.5c3.4,5.7,1.5,19.2-0.5,27.6c11.7,4.6,24.8,5.4,36.3,0.4c-1.2-2.8-2.2-16.3-1.7-19.3
		c25.4-0.7,38.4,2.4,37.7-19.7c-0.3-10.7-1.1-20.6-2.5-31.3c-1.3-9.8-2.7-22.9-7.5-31.7c-7.8-14.3-35.2-14.6-47.9-9.1
		c-14.4,6.2-24.9,20.6-27.2,36.3C247.7,450.4,253.5,465.5,263.3,481.5z"/>
	<path class="st105" d="M281.8,452.9c0,0-7.5-2.7-7-11.7c0.6-10.2,8.4-9.5,8.4-9.5s-7-0.2-7.5,9.6
		C275.2,449.5,281.8,452.9,281.8,452.9z"/>
	<path class="st96" d="M357.6,766.5v10c0,0-88.7,50.9-145.6,29.2l-2.2-13L357.6,766.5z"/>
	<path class="st105" d="M332.5,484.2c-9.2,8.7-38.1,0.1-38.1,0.1l2.4,6C307.3,491.3,328.2,491.8,332.5,484.2z"/>
	<path class="st106" d="M340.5,544.8c-8.6-20.4-22.9-30.4-41-36.3c-33.6,8.9-37.1-2.6-38.5-2.1c0,0,0,0,0,0l-22,6.3
		c-8.4,2.4-14,9.2-18.7,16.6c-24.9,39.4-24.3,212.1-20.9,247.1c1.1,11.7,8.1,22.8,18.6,24.9c56.4,11.5,141.2-31.2,141.6-37.2
		C362,727.2,369,612.2,340.5,544.8z"/>
	<polyline class="st107" points="345.9,773.8 345.3,782.9 357.6,776.5 357.6,766.5 346.5,773.8 	"/>
	<path class="st96" d="M359.6,764.1c1.9-28.9,6.6-105.9-5.2-170.3l-20.8-15.4c0,0,16.8,114.2,12.2,195.3
		C354.3,769.2,359.5,765.6,359.6,764.1z"/>
	<path class="st96" d="M254.9,556.3c0,0,33.4,10.7,54.6,69c16.5,45.3,31.3,103.1,26.9,117.4c-8.3,27-107,36.8-125.5,24.1
		c-9.4-6.5-27-126.4-8.3-178.1C220.8,539,254.9,556.3,254.9,556.3z"/>
	<path class="st108" d="M329.3,741.2c0,0,28.3-30.1,34-65.5c0.5-3.1,0.4-6.2-0.1-9.3l-2.3-13.9c-2.1,14.6-4.3,40-42.7,70.8
		C317.4,724,329.3,741.2,329.3,741.2z"/>
	<path class="st104" d="M299.5,557c0.5-0.3,2.8-24.9,28.7-33.1c0,0-29.6-0.4-32.9,27.1L299.5,557z"/>
	<path class="st96" d="M225,560.1c0,0-18.1-16.8,11.6-20.1s9.9,21.8,9.9,21.8s11.7-22.8-11.1-17.9C212.5,548.7,225,560.1,225,560.1z
		"/>
	<path class="st108" d="M225,560.1c0,0-18.9-20.7,10.9-24s9.9,21.8,9.9,21.8s11.7-22.8-11.1-17.9S225,560.1,225,560.1z"/>
	<path class="st106" d="M243,767.8c0,0,5.7,16.8,5.3,21.1s-13.7,14.2-23.5,11.7s-13-38.5-13-38.5L243,767.8z"/>
	<path class="st109" d="M243,790.5c0,0,3.5-1.1-19-49.3l-8.3,0.5l6.3,51.2c0,0,8.9,1.5,9.6,1.4C232.5,794.2,243,790.5,243,790.5z"/>
	<path class="st108" d="M197.5,748.9c0,0,6.4,24.4,16.2,44c3.3,6.6,11.1,9.5,17.8,6.5c4.1-1.8,8.4-4.6,11.5-8.9
		c0,0-10.7-0.8-25.5-47.5L197.5,748.9z"/>
	<path class="st110" d="M207,585.6c0,0-14.7-3.3-3.6-15.4s10.6-13.3,18.5-9.6L207,585.6z"/>
	<path class="st111" d="M191.7,750c-32.7-182.5,36-200.5,47-198.1c14.4-1.9,65.2,25.5,95,181.9c1.4,7.2-2.3,14.4-8.9,17.5
		c-11,5.2-31,12.7-64,18.7C202.7,780.7,193.4,759.7,191.7,750z"/>
	<path class="st112" d="M198.3,625c0,0,28.9,0.1,59.6-10.5c0,0,6,12.6,6.2,19.3c0,0-48.5,15.8-62.6,8.5L198.3,625z"/>
	<path class="st106" d="M426.6,654.5c-14.3-39.2-43.9-89.5-53.7-110.4c-5.3-11.2-15.1-19.6-27.1-22.9c-13.7-3.8-31.4-8.6-40.4-10.2
		c-15.8-2.9,17,55.6,17,55.6c4.3,10.4,25.5,53.7,44.7,86.1c9.3,15.6,34.7,47.8,48.4,42.8C424,692.3,434.4,675.8,426.6,654.5z"/>
	<path class="st112" d="M200.9,699.9c0,0,54.6-18.6,81.6-11.4c0,0,3.1,32.3,12.2,48.7c0,0-24.3,16.4-51.7,17.9
		c-27.4,1.5-32.9-5.2-32.9-5.2S198.7,727.6,200.9,699.9z"/>
	<path class="st96" d="M293.3,601.9c0,0-3.9-64.6,47.2-82.1l-31.4,5.9l-31.2,52.8L293.3,601.9z"/>
	<path class="st108" d="M285.8,607.5l-11.2-22.8c0,0-4.4-47.5,36.2-71.8c0,0,14.9-3.3,29.8,6.9C340.5,519.7,294.4,519.7,285.8,607.5
		z"/>
	<path class="st108" d="M201.6,686.9c1.1-0.9,35.8,4.6,76.2-10.7c0,0,6.3-0.6,8.9,13.6c0,0-43.3,19.5-91,11.3
		C195.8,701.1,194,693,201.6,686.9z"/>
	<path class="st110" d="M361,652.5c0,0-1.4,35.7-31.5,61v3.3C329.5,716.8,361.9,691.2,361,652.5z"/>
	<path class="st110" d="M363.7,674.5c0,0-5.3,30.8-33.3,61.5l3.6-0.3C334,735.8,360.7,702.3,363.7,674.5z"/>
	<path class="st108" d="M212.4,748.9c0,0-10.3-10.3-11.8-39c0,0-2.7,22.1,8.3,42.9c0,0,41,19.2,85.7-15.6
		C294.7,737.2,243.4,764.7,212.4,748.9z"/>
	<path class="st108" d="M198.1,623.9c0,0-1.8,15.6,3.7,20.5c0,0,22.2,4.2,62.5-8.8c0,0,0.7-11.7-6.5-21c0,0,3.9,15.5,1.8,17.7
		c0,0-28.2,12.6-56.2,9C203.5,641.3,199.5,636.4,198.1,623.9z"/>
	<path class="st108" d="M295.7,762.1c9.1-3,24.1-8.3,29.1-10.7c6.6-3.1,10.2-10.4,8.9-17.5c-29.8-156.4-80.6-183.8-95-181.9
		c-6.1-1.3-29.7,3.6-44.1,38.8l0,0c0,0,8.5-18.7,29.2-22.5c28-5.1,42.7,16.8,57.6,55.5c14.7,38.1,29.5,94.2,32.3,111
		C316.1,749.8,303.7,759.5,295.7,762.1z"/>
	<path class="st96" d="M415.4,695.4c7.6-2.8,17.6-16.8,13.2-34.2c0.1,1.4-3.9,27.5-27.2,22.9c-17.9-3.5-54.6-68.9-63.1-84.2
		c8.4,16.5,18.8,36,28.7,52.7C376.3,668.3,401.8,700.5,415.4,695.4z"/>
	<path class="st96" d="M335.2,595.4c0,0-21.9-76,12.7-73.5C347.9,521.8,319.8,517.6,335.2,595.4z"/>
	<path class="st96" d="M258.4,509.5c0,0,4.9,11.4,40.9,2.8C299.3,512.3,263.3,524.3,258.4,509.5z"/>
	<path class="st113" d="M236.6,1242.5c6.3,3.7,17.3,3.1,20.8-2.4l39.7,10.4c2.6,1.4,4.2,4.3,4.3,7.5l0,0.1c0.1,4.8-3.3,8.9-7.7,9.1
		l-64,3.3l4.3-27C234.3,1242.5,235.6,1241.9,236.6,1242.5z"/>
	<polygon class="st114" points="230.5,1266.2 299.7,1264 298.8,1267 229.9,1270.6 	"/>
	<path class="st115" d="M283.7,1247c-0.1,0.7-0.4,1.5-0.7,2.3c-0.2,0.4,0,0.9,0.4,1.1c0.1,0.1,0.2,0.1,0.3,0.1
		c0.3,0,0.6-0.2,0.7-0.4c0.4-0.9,0.7-1.7,0.8-2.6L283.7,1247z"/>
	<path class="st115" d="M277.4,1245.4c0,1.1-0.2,2.5-0.9,4c-0.2,0.4,0,0.9,0.4,1.1c0.1,0.1,0.2,0.1,0.3,0.1c0.3,0,0.6-0.2,0.7-0.4
		c0.7-1.5,1-3,1.1-4.2L277.4,1245.4z"/>
	<path class="st115" d="M269.9,1249.6c-0.2,0.4,0,0.9,0.4,1.1c0.1,0,0.2,0.1,0.3,0.1c0.3,0,0.6-0.2,0.8-0.5c1.1-2.4,1.2-4.7,1.1-6.2
		l-1.7-0.4C270.9,1244.9,271,1247.2,269.9,1249.6z"/>
	<path class="st116" d="M261.7,484.3c-2.9-9.2-14.7-36.2-21.2-58.9c-4.1-14.3,2.2-29.5,15.1-36.9c23.5-13.4,53.7-30.4,69.6-27.6
		c23.7,4.2,14.6,35.9-4.2,50.2c-13.8,10.5-21.7,1.3-25.7,8.9c-2.9,5.5,9.1,7.4,4,15.3c-5.6,8.6-6-7.4-15.6-7.4c-9.5,0-15,15-7.9,23
		c4.3,4.9,7.2,7.6,11.7,12.1c3.4,3.4,3.7,8.9,0.5,12.6c-3.7,4.3-10.3,9.3-21.9,11.3C264.2,487.3,262.3,486.2,261.7,484.3z"/>
	<path class="st117" d="M325.3,360.9c-4.4-0.8-9.9,0-16.1,1.7c0.1,0,39.7-3.6,15.9,44.9l0.1,0C341.1,392.1,347.2,364.8,325.3,360.9z
		"/>
	<path class="st110" d="M276.2,577.8l-1.8-2.1c0,0,0-41.8,36.3-62.9l2.7-0.5C313.4,512.3,277.9,534.3,276.2,577.8z"/>
	<path class="st110" d="M287.4,594.4c0,0,7.4-69.2,53.1-74.7c0,0-3.6-2.3-4.7-2.8c0,0-41.4,7.1-50,75.4L287.4,594.4z"/>
	<path class="st110" d="M229.2,773c0,0,7.7,16,13.9,17.5c0,0-0.8,1.1-1.2,1.5c0,0-9.3-4-14.4-19.1L229.2,773z"/>
	<path class="st110" d="M212.5,790.4c-3.6-6.9-9.6-24-9.6-24l2.2,1.2c0.1,0.1,9.6,31.8,19.6,32.8c0,0-4.5,0-7.9-3.6
		C213.3,793.3,212.5,790.4,212.5,790.4z"/>
	<path class="st118" d="M257.4,1240.1c-3.5,5.5-14.5,6.1-20.8,2.4c-1-0.6-2.3,0-2.5,1.2c0,0,2.8,4.2,13.4,4.2
		c10.6,0,12.6-7.1,12.6-7.1L257.4,1240.1z"/>
	<path class="st113" d="M383.8,1196.2c7.9,2.2,19.7-1.5,21.9-8.2l46.1,0c3.2,0.8,5.8,3.4,6.9,6.7l0,0.1c1.5,5-1,10.2-5.7,11.6
		l-68.5,21l-3.1-29.3C381.3,1196.8,382.5,1195.9,383.8,1196.2z"/>
	<polygon class="st114" points="384,1222.6 458.4,1201.4 458.2,1204.7 384.5,1227.4 	"/>
	<path class="st115" d="M436.2,1188c0.1,0.8,0,1.7-0.2,2.6c-0.1,0.5,0.2,0.9,0.7,1c0.1,0,0.3,0,0.4,0c0.3-0.1,0.6-0.3,0.6-0.7
		c0.2-1,0.2-2,0.2-2.9L436.2,1188z"/>
	<path class="st115" d="M428.8,1188c0.3,1.2,0.5,2.7,0.1,4.4c-0.1,0.5,0.2,0.9,0.7,1c0.1,0,0.3,0,0.4,0c0.3-0.1,0.6-0.3,0.6-0.7
		c0.4-1.8,0.2-3.4-0.1-4.7L428.8,1188z"/>
	<path class="st115" d="M421.9,1194.5c-0.1,0.5,0.3,0.9,0.8,1c0.1,0,0.3,0,0.4,0c0.3-0.1,0.6-0.4,0.7-0.7c0.5-2.8-0.1-5.2-0.6-6.8
		l-2,0C421.7,1189.3,422.4,1191.7,421.9,1194.5z"/>
	<path class="st118" d="M405.7,1188c-2.2,6.7-14,10.4-21.9,8.2c-1.3-0.3-2.5,0.6-2.4,1.9c0,0,4.2,3.6,15.7,0.8
		c11.5-2.9,11.7-10.9,11.7-10.9L405.7,1188z"/>
	<path class="st119" d="M297.6,1204.6"/>
	<path class="st120" d="M409.7,1210.7"/>
	<g class="st95">
		<circle class="st69" cx="232.8" cy="664.4" r="13"/>
		<path class="st65" d="M222.6,662.3c-0.3-0.1-0.5-0.3-0.7-0.5c-0.2-0.2-0.3-0.5-0.4-0.8c-0.1-0.3,0-0.6,0.1-0.9
			c0.1-0.3,0.3-0.5,0.5-0.7c0.2-0.2,0.5-0.3,0.9-0.4c0.3-0.1,0.6,0,0.9,0.1c0.3,0.1,0.5,0.3,0.7,0.5c0.2,0.2,0.3,0.5,0.4,0.8
			c0.1,0.3,0,0.6-0.1,0.9c-0.1,0.3-0.3,0.5-0.5,0.7c-0.2,0.2-0.5,0.3-0.8,0.4C223.2,662.4,222.9,662.4,222.6,662.3z M223.9,661.3
			c0.1-0.2,0.2-0.4,0.1-0.7c0-0.3-0.2-0.5-0.3-0.6c-0.2-0.1-0.4-0.2-0.6-0.1c-0.2,0-0.4,0.1-0.5,0.3c-0.1,0.2-0.2,0.4-0.1,0.7
			c0,0.3,0.2,0.5,0.3,0.6c0.2,0.1,0.4,0.2,0.6,0.1C223.6,661.6,223.8,661.5,223.9,661.3z"/>
		<path class="st65" d="M228.3,658.6c0.3,0.2,0.5,0.5,0.5,1l0.3,1.8l-0.9,0.1l-0.3-1.6c0-0.2-0.1-0.4-0.3-0.5
			c-0.1-0.1-0.3-0.1-0.5-0.1c-0.2,0-0.4,0.1-0.5,0.3c-0.1,0.2-0.1,0.4-0.1,0.7l0.3,1.5l-0.9,0.1l-0.5-3.1l0.9-0.1l0.1,0.4
			c0.1-0.2,0.2-0.3,0.4-0.4c0.2-0.1,0.4-0.2,0.6-0.2C227.7,658.4,228,658.4,228.3,658.6z"/>
		<path class="st65" d="M232.9,659.4l-2.4,0.4c0.1,0.2,0.2,0.3,0.4,0.4c0.2,0.1,0.4,0.1,0.6,0.1c0.2,0,0.3-0.1,0.4-0.1
			c0.1-0.1,0.2-0.2,0.3-0.3l0.6,0.4c-0.2,0.4-0.6,0.6-1.2,0.7c-0.4,0.1-0.7,0-1-0.1c-0.3-0.1-0.5-0.2-0.7-0.5
			c-0.2-0.2-0.3-0.5-0.4-0.8c-0.1-0.3,0-0.6,0.1-0.9c0.1-0.3,0.3-0.5,0.5-0.7c0.2-0.2,0.5-0.3,0.8-0.3c0.3-0.1,0.6,0,0.9,0.1
			c0.3,0.1,0.5,0.2,0.7,0.5c0.2,0.2,0.3,0.5,0.4,0.8C232.9,659.2,232.9,659.3,232.9,659.4z M230.7,658.8c-0.1,0.1-0.2,0.3-0.2,0.5
			l1.5-0.3c-0.1-0.2-0.2-0.3-0.3-0.4c-0.2-0.1-0.3-0.1-0.5-0.1C230.9,658.6,230.8,658.6,230.7,658.8z"/>
		<path class="st65" d="M224.9,667.3c-0.1,0.1-0.2,0.1-0.3,0.2c-0.1,0.1-0.3,0.1-0.4,0.1c-0.4,0.1-0.7,0-0.9-0.1
			c-0.2-0.2-0.4-0.4-0.4-0.8l-0.2-1.3l-0.5,0.1l-0.1-0.7l0.5-0.1l-0.1-0.8l0.9-0.1l0.1,0.8l0.8-0.1l0.1,0.7l-0.8,0.1l0.2,1.3
			c0,0.1,0.1,0.2,0.2,0.3c0.1,0.1,0.2,0.1,0.3,0.1c0.1,0,0.3-0.1,0.3-0.2L224.9,667.3z"/>
		<path class="st65" d="M230,663.4l-0.6,3.3l-0.9,0.1l-1-1.8l-0.4,2.1l-0.9,0.1l-1.6-2.9l0.9-0.1l1.1,2l0.4-2.2l0.8-0.1l1.1,2
			l0.4-2.2L230,663.4z"/>
		<path class="st65" d="M231.5,666.2c-0.3-0.1-0.5-0.3-0.7-0.5c-0.2-0.2-0.3-0.5-0.4-0.8c-0.1-0.3,0-0.6,0.1-0.9
			c0.1-0.3,0.3-0.5,0.5-0.7c0.2-0.2,0.5-0.3,0.9-0.4c0.3-0.1,0.6,0,0.9,0.1c0.3,0.1,0.5,0.3,0.7,0.5c0.2,0.2,0.3,0.5,0.4,0.8
			c0.1,0.3,0,0.6-0.1,0.9c-0.1,0.3-0.3,0.5-0.5,0.7c-0.2,0.2-0.5,0.3-0.8,0.4C232.1,666.3,231.8,666.3,231.5,666.2z M232.9,665.2
			c0.1-0.2,0.2-0.4,0.1-0.7c0-0.3-0.2-0.5-0.3-0.6c-0.2-0.1-0.4-0.2-0.6-0.1c-0.2,0-0.4,0.1-0.5,0.3c-0.1,0.2-0.2,0.4-0.1,0.7
			c0,0.3,0.2,0.5,0.3,0.6c0.2,0.1,0.4,0.2,0.6,0.1C232.6,665.5,232.7,665.4,232.9,665.2z"/>
		<path class="st65" d="M224.2,672.3c-0.3-0.1-0.5-0.3-0.7-0.5c-0.2-0.2-0.3-0.5-0.4-0.8c-0.1-0.3,0-0.6,0.1-0.9
			c0.1-0.3,0.3-0.5,0.5-0.7c0.2-0.2,0.5-0.3,0.9-0.4c0.3-0.1,0.6,0,0.9,0.1c0.3,0.1,0.5,0.3,0.6,0.5l-0.6,0.5
			c-0.2-0.3-0.5-0.4-0.8-0.3c-0.2,0-0.4,0.1-0.5,0.3c-0.1,0.2-0.2,0.4-0.1,0.7c0,0.3,0.2,0.5,0.3,0.6c0.2,0.1,0.4,0.2,0.6,0.1
			c0.3-0.1,0.5-0.2,0.6-0.5l0.8,0.3c-0.1,0.3-0.2,0.5-0.4,0.7c-0.2,0.2-0.5,0.3-0.8,0.4C224.8,672.4,224.5,672.4,224.2,672.3z"/>
		<path class="st65" d="M229.5,668.7c0.3,0.2,0.5,0.5,0.6,1l0.3,1.8l-0.8,0.1l-0.1-0.4c-0.1,0.3-0.4,0.5-0.9,0.6c-0.2,0-0.5,0-0.6,0
			c-0.2-0.1-0.3-0.1-0.5-0.3c-0.1-0.1-0.2-0.3-0.2-0.5c0-0.3,0-0.5,0.2-0.7c0.2-0.2,0.5-0.3,1-0.4l0.7-0.1c0-0.2-0.1-0.3-0.3-0.4
			c-0.1-0.1-0.3-0.1-0.6-0.1c-0.2,0-0.3,0.1-0.5,0.2c-0.2,0.1-0.3,0.2-0.4,0.3l-0.4-0.6c0.2-0.1,0.3-0.3,0.6-0.4
			c0.2-0.1,0.5-0.2,0.7-0.2C228.8,668.5,229.2,668.5,229.5,668.7z M229.1,671c0.1-0.1,0.2-0.2,0.2-0.4l-0.1-0.3l-0.6,0.1
			c-0.4,0.1-0.5,0.2-0.5,0.5c0,0.1,0.1,0.2,0.2,0.3c0.1,0.1,0.2,0.1,0.4,0C228.9,671.1,229,671.1,229.1,671z"/>
		<path class="st65" d="M232.5,668c0.2-0.1,0.4-0.2,0.6-0.2l0.1,0.8c-0.1,0-0.2,0-0.2,0c-0.3,0-0.5,0.1-0.6,0.3
			c-0.1,0.2-0.2,0.4-0.1,0.7l0.2,1.5l-0.9,0.1l-0.5-3.1l0.9-0.1l0.1,0.4C232.2,668.2,232.4,668.1,232.5,668z"/>
		<path class="st65" d="M237.5,668.9l-2.4,0.4c0.1,0.2,0.2,0.3,0.4,0.4c0.2,0.1,0.4,0.1,0.6,0.1c0.2,0,0.3-0.1,0.4-0.1
			c0.1-0.1,0.2-0.2,0.3-0.3l0.6,0.4c-0.2,0.4-0.6,0.6-1.2,0.7c-0.4,0.1-0.7,0-1-0.1c-0.3-0.1-0.5-0.2-0.7-0.5
			c-0.2-0.2-0.3-0.5-0.4-0.8c-0.1-0.3,0-0.6,0.1-0.9c0.1-0.3,0.3-0.5,0.5-0.7c0.2-0.2,0.5-0.3,0.8-0.3c0.3-0.1,0.6,0,0.9,0.1
			c0.3,0.1,0.5,0.2,0.7,0.5c0.2,0.2,0.3,0.5,0.4,0.8C237.5,668.7,237.5,668.8,237.5,668.9z M235.2,668.3c-0.1,0.1-0.2,0.3-0.2,0.5
			l1.5-0.3c-0.1-0.2-0.2-0.3-0.3-0.4c-0.2-0.1-0.3-0.1-0.5-0.1C235.5,668.1,235.4,668.1,235.2,668.3z"/>
		<path class="st65" d="M241.7,668.2l-2.4,0.4c0.1,0.2,0.2,0.3,0.4,0.4c0.2,0.1,0.4,0.1,0.6,0.1c0.2,0,0.3-0.1,0.4-0.1
			c0.1-0.1,0.2-0.2,0.3-0.3l0.6,0.4c-0.2,0.4-0.6,0.6-1.2,0.7c-0.4,0.1-0.7,0-1-0.1c-0.3-0.1-0.5-0.2-0.7-0.5
			c-0.2-0.2-0.3-0.5-0.4-0.8c-0.1-0.3,0-0.6,0.1-0.9c0.1-0.3,0.3-0.5,0.5-0.7c0.2-0.2,0.5-0.3,0.8-0.3c0.3-0.1,0.6,0,0.9,0.1
			c0.3,0.1,0.5,0.2,0.7,0.5c0.2,0.2,0.3,0.5,0.4,0.8C241.7,668,241.7,668.1,241.7,668.2z M239.4,667.6c-0.1,0.1-0.2,0.3-0.2,0.5
			l1.5-0.3c-0.1-0.2-0.2-0.3-0.3-0.4c-0.2-0.1-0.3-0.1-0.5-0.1C239.7,667.4,239.6,667.4,239.4,667.6z"/>
		<path class="st65" d="M243.9,666.1c0.2-0.1,0.4-0.2,0.6-0.2l0.1,0.8c-0.1,0-0.2,0-0.2,0c-0.3,0-0.5,0.1-0.6,0.3
			c-0.1,0.2-0.2,0.4-0.1,0.7l0.2,1.5l-0.9,0.1l-0.5-3.1l0.9-0.1l0.1,0.4C243.6,666.3,243.7,666.2,243.9,666.1z"/>
	</g>
</g>
<g id="Button_Rectangle">
</g>
<g id="Button_Text">
</g>
<g id="Pump_Dynamic">
	<rect x="1048.7" y="377.6" class="st121" width="3.4" height="38.2"/>
	<path class="st122" d="M1062.6,380h-24.5c-1.3,0-2.4-1.1-2.4-2.4l0,0c0-1.3,1.1-2.4,2.4-2.4h24.5c1.3,0,2.4,1.1,2.4,2.4l0,0
		C1065,379,1063.9,380,1062.6,380z"/>
	<path class="st123" d="M1063.7,375.3h-8.8c1,0,1.7,1.1,1.7,2.4s-0.8,2.4-1.7,2.4h8.8c1,0,1.7-1.1,1.7-2.4
		S1064.6,375.3,1063.7,375.3z"/>
	<rect x="1051" y="380" class="st124" width="1" height="29.4"/>
</g>
<g id="Pump">
	<ellipse class="st56" cx="1050.3" cy="450.8" rx="14.9" ry="1.9"/>
	<rect x="1044.3" y="409.6" class="st69" width="12.1" height="41.7"/>
	<rect x="1042.5" y="447" class="st125" width="15.6" height="4.4"/>
	<rect x="1042.5" y="409.4" class="st125" width="15.6" height="6.4"/>
	<rect x="1053.5" y="409.4" class="st121" width="4.7" height="6.4"/>
	<rect x="1053.1" y="447" class="st121" width="5" height="4.4"/>
	<rect x="1054.8" y="415.8" class="st126" width="1.6" height="31.1"/>
</g>
<g id="Balloons_R_1">
	<path class="st127" d="M1211.4,471.9c-2.9-19.3-0.8-60.7-0.7-61.1l0.3,0c0,0.4-2.2,41.8,0.7,61L1211.4,471.9z"/>
	<path class="st128" d="M1223.2,395.1c0,7.4-6,19.9-13.4,19.9s-13.4-12.5-13.4-19.9s6-13.4,13.4-13.4S1223.2,387.7,1223.2,395.1z"/>
	<path class="st129" d="M1221.4,396.7c0,4.2-1.6,9.7-4.2,14.3c3.7-4.3,6.2-11.1,6.2-15.9c0-7.2-5.7-13.1-12.8-13.4
		C1216.8,383.8,1221.4,389.7,1221.4,396.7z"/>
	<path class="st130" d="M1201.6,392.1c-1.2,3.7-1,7.2-2.3,6.8s-2.4-3.7-1.2-7.4s4.3-6.3,5.5-5.9
		C1204.9,386.1,1202.8,388.5,1201.6,392.1z"/>
	<path class="st131" d="M1206,417c0.5-1.7,0.3-3.3,0.9-3.1c0.6,0.2,0.6,1.5,0.2,3.2s-1.3,3.1-1.9,2.9S1205.5,418.7,1206,417z"/>
	<polygon class="st132" points="1220,428.3 1218.4,430.1 1221.1,430.5 	"/>
	<ellipse class="st56" cx="1211.7" cy="479.2" rx="19.2" ry="1.9"/>
</g>
<g id="Balloons_R_2">
	<path class="st127" d="M1211.7,475.8c-1.9-28.7-8.4-49.4-8.5-49.7l0.3-0.1c0.1,0.2,6.6,21,8.5,49.7L1211.7,475.8z"/>
	<path class="st133" d="M1206.4,407.7c2.3,7,0.6,20.8-6.5,23.1c-7,2.3-16.7-7.6-19-14.7c-2.3-7,1.5-14.6,8.5-17
		S1204.1,400.6,1206.4,407.7z"/>
	<path class="st134" d="M1205.2,409.7c1.3,3.9,1.5,9.7,0.5,14.9c2.2-5.2,2.4-12.5,0.9-17c-2.3-6.8-9.5-10.6-16.3-8.7
		C1196.8,398.9,1203,403.1,1205.2,409.7z"/>
	<path class="st135" d="M1185.7,411.3c0,3.8,1.3,7.1,0,7.1c-1.3,0-3.5-2.8-3.5-6.6c0-3.8,2.1-7.3,3.4-7.3
		C1186.9,404.5,1185.6,407.5,1185.7,411.3z"/>
</g>
<g id="Balloons_R_3">
	<path class="st127" d="M1211.1,466.4l-0.3,0c0.3-24,8.7-36,8.8-36.1l0.2,0.2C1219.8,430.5,1211.4,442.4,1211.1,466.4z"/>
	<path class="st1" d="M1238.5,416.4c-2.2,7.1-11.8,17.1-18.8,14.9c-7.1-2.2-9-16-6.8-23c2.2-7.1,9.8-11,16.9-8.7
		C1236.8,401.8,1240.7,409.4,1238.5,416.4z"/>
	<path class="st136" d="M1236.3,417.4c-1.3,4-4.5,8.7-8.4,12.3c4.8-3,9.3-8.7,10.7-13.2c2.2-6.8-1.4-14.2-8.1-16.6
		C1235.9,403.7,1238.4,410.7,1236.3,417.4z"/>
	<path class="st137" d="M1219.2,408.3c-2.2,3.1-3.1,6.5-4.2,5.8c-1.1-0.8-1.2-4.3,1.1-7.4s6-4.7,7-3.9
		C1224.2,403.5,1221.5,405.2,1219.2,408.3z"/>
</g>
<g id="Balloons_R_4">
	<path class="st11" d="M1222.4,429.3c0,7.4-6,19.9-13.4,19.9c-7.4,0-13.4-12.5-13.4-19.9c0-7.4,6-13.4,13.4-13.4
		C1216.4,415.8,1222.4,421.8,1222.4,429.3z"/>
	<path class="st138" d="M1220.6,430.8c0,4.2-1.6,9.7-4.2,14.3c3.7-4.3,6.2-11.1,6.2-15.9c0-7.2-5.7-13.1-12.8-13.4
		C1216.1,417.9,1220.6,423.8,1220.6,430.8z"/>
	<path class="st131" d="M1201.6,427.4c-1.2,3.7-1,7.2-2.3,6.8s-2.4-3.7-1.2-7.4s4.3-6.3,5.5-5.9
		C1204.9,421.3,1202.8,423.7,1201.6,427.4z"/>
</g>
<g id="Balloons_L_1">
	<path class="st127" d="M526.5,464.4c-2.3-15.5-0.6-48.7-0.6-49.1l0.2,0c0,0.3-1.7,33.5,0.6,49L526.5,464.4z"/>
	<path class="st128" d="M535.9,402.8c0,6-4.8,16-10.8,16c-6,0-10.8-10-10.8-16c0-6,4.8-10.8,10.8-10.8
		C531.1,392,535.9,396.8,535.9,402.8z"/>
	<path class="st129" d="M534.5,404c0,3.3-1.3,7.8-3.4,11.5c3-3.5,5-8.9,5-12.7c0-5.8-4.5-10.5-10.2-10.8
		C530.8,393.7,534.5,398.4,534.5,404z"/>
	<path class="st130" d="M518.6,400.4c-1,2.9-0.8,5.8-1.8,5.4c-1-0.3-1.9-3-1-5.9s3.4-5,4.4-4.7C521.2,395.5,519.5,397.4,518.6,400.4
		z"/>
	<polygon class="st139" points="519.5,426.1 519,427.9 521.1,427.3 	"/>
	<ellipse class="st56" cx="526.7" cy="470.3" rx="15.5" ry="1.5"/>
</g>
<g id="Balloons_L_2">
	<path class="st127" d="M526.7,467.5c-1.5-23.1-6.7-39.7-6.8-39.9l0.2-0.1c0.1,0.2,5.3,16.9,6.8,39.9L526.7,467.5z"/>
	<path class="st133" d="M522.4,412.8c1.9,5.7,0.4,16.7-5.2,18.6c-5.7,1.9-13.4-6.1-15.3-11.8s1.2-11.7,6.8-13.6
		C514.5,404.1,520.5,407.2,522.4,412.8z"/>
	<path class="st134" d="M521.4,414.5c1,3.2,1.2,7.8,0.4,12c1.7-4.2,1.9-10,0.7-13.6c-1.8-5.5-7.6-8.5-13.1-7
		C514.7,405.8,519.7,409.1,521.4,414.5z"/>
	<path class="st135" d="M505.8,415.8c0,3.1,1,5.7,0,5.7c-1.1,0-2.8-2.2-2.8-5.3s1.7-5.9,2.7-5.9S505.7,412.7,505.8,415.8z"/>
</g>
<g id="Balloons_L_2_1_">
	<path class="st127" d="M526.2,460l-0.2,0c0.3-19.3,7-28.9,7.1-29l0.2,0.1C533.2,431.2,526.5,440.7,526.2,460z"/>
	<path class="st1" d="M548.2,419.9c-1.8,5.7-9.4,13.8-15.1,12c-5.7-1.8-7.2-12.8-5.4-18.5s7.9-8.8,13.5-7
		C546.9,408.1,550,414.2,548.2,419.9z"/>
	<path class="st136" d="M546.4,420.6c-1,3.2-3.6,7-6.7,9.9c3.9-2.4,7.4-7,8.6-10.6c1.8-5.5-1.1-11.4-6.5-13.4
		C546.1,409.6,548.1,415.3,546.4,420.6z"/>
	<path class="st137" d="M532.7,413.3c-1.8,2.5-2.5,5.2-3.4,4.6s-1-3.4,0.8-5.9c1.8-2.5,4.8-3.8,5.7-3.2
		C536.7,409.5,534.5,410.8,532.7,413.3z"/>
</g>
<g id="Balloons_L_3">
	<path class="st11" d="M535.3,430.2c0,6-4.8,16-10.8,16s-10.8-10-10.8-16s4.8-10.8,10.8-10.8S535.3,424.2,535.3,430.2z"/>
	<path class="st138" d="M533.9,431.4c0,3.3-1.3,7.8-3.4,11.5c3-3.5,5-8.9,5-12.7c0-5.8-4.5-10.5-10.2-10.8
		C530.2,421.1,533.9,425.8,533.9,431.4z"/>
	<path class="st131" d="M518.6,428.6c-1,2.9-0.8,5.8-1.8,5.4s-1.9-3-1-5.9s3.4-5,4.4-4.7C521.2,423.8,519.5,425.7,518.6,428.6z"/>
</g>
</svg>
