<?xml version="1.0" encoding="utf-8"?>
<!-- Generator: Adobe Illustrator 22.1.0, SVG Export Plug-In . SVG Version: 6.00 Build 0)  -->
<svg version="1.1" xmlns="http://www.w3.org/2000/svg" xmlns:xlink="http://www.w3.org/1999/xlink" x="0px" y="0px"
	 viewBox="0 0 1280 800" style="enable-background:new 0 0 1280 800;" xml:space="preserve">
<style type="text/css">
	.st0{fill:#C5E5E5;}
	.st1{opacity:0.21;fill:#FFFFFF;}
	.st2{opacity:0.45;fill:#FFFFFF;}
	.st3{fill:#93C979;}
	.st4{fill:#83C464;}
	.st5{fill:#8CD16B;}
	.st6{fill:#6AA84E;}
	.st7{fill:#75B05A;}
	.st8{fill:#70AB54;}
	.st9{fill:#E0C757;}
	.st10{fill:#938548;}
	.st11{fill:#5E9646;}
	.st12{fill:#F7BA99;}
	.st13{fill:#302F30;}
	.st14{fill:#875D46;}
	.st15{fill:#66A32E;}
	.st16{fill:#4C3528;}
	.st17{fill:#6B2379;}
	.st18{fill:#4D7A23;}
	.st19{fill:#0577AE;}
	.st20{fill:#079FE8;}
	.st21{fill:#737373;}
	.st22{fill:#3A5C1A;}
	.st23{fill:#9937A4;}
	.st24{fill:#595959;}
	.st25{fill:#FFFFFF;}
	.st26{fill:#313547;}
	.st27{fill:#FBF7EA;}
	.st28{fill:#6E6E6E;}
	.st29{fill:#BFBFBF;}
	.st30{fill:#919191;}
	.st31{fill:#CF9C80;}
	.st32{fill:#41465F;}
	.st33{fill:#FF882A;}
	.st34{display:none;}
	.st35{display:inline;fill:#FF882A;}
	.st36{display:inline;}
</style>
<g id="Sky">
	<rect x="-0.8" class="st0" width="1280.5" height="800.3"/>
</g>
<g id="Sky2">
	<polygon class="st1" points="-0.8,800.3 1279.7,800.3 1279.7,291.7 -0.8,291.7 	"/>
</g>
<g id="Cloud">
	<path class="st2" d="M1279.7,125.8c-3.9-8.9-11.1-14.4-22.2-16.2c-1.1-0.2-2.5-2.2-2.8-3.5c-3.7-18.2-17.2-29.4-35.5-29.3
		c-16.8,0.1-30.8,12.3-33.7,29.7c-0.4,2.6-1.2,3.7-3.8,4.5c-3.8,1.2-7.9,2.6-10.6,5.2c-4.9,4.8-8.9,10.5-13.9,16.5
		c-12.9-2.3-24,2.5-31.4,15.5c-14.9-9-30.9-3.2-33.1,11.6c62.3,0,124.5,0,187,0V125.8z"/>
</g>
<g id="Trees_back">
	<polygon class="st3" points="58.4,187.8 27.4,296.7 83.9,296.7 	"/>
	<polygon class="st3" points="129.7,203.9 98.8,312.9 155.2,312.9 	"/>
	<polygon class="st4" points="30.2,159.3 -0.8,268.3 55.7,268.3 	"/>
</g>
<g id="Hill">
	<g>
		<path class="st4" d="M-0.8,561.1c426.8,34,853.7,68,1280.5,101.9v-22.5c-33-3.2-65.9-6.5-98.7-9.8
			c-189.1-19.1-372.8-77.4-532.1-166c-169.5-94.2-349.7-191.5-552-200.2c-33-1.4-65.5-0.4-97.7,2.6V561.1z"/>
		<path class="st5" d="M96.9,264.6c-21.4-0.8-42.5-0.8-63.6,0.2c0,0,0,0,0,0c183.3,49.7,237.3,81.1,233.4,101.8
			c-6.6,34.7-174.9,28-267.5,55.4v132.5c39.7,31.2,94,61,145.7,81.2c252.2,98.7,642.2,48.7,697.6-90.2c2.1-5.3,3.7-10.7,4.8-16.1
			c-69.1-22.8-135.7-50.3-198.4-82.1C479.4,361.3,299.2,272.5,96.9,264.6z"/>
	</g>
</g>
<g id="Trees_2">
	<polygon class="st6" points="58.4,314.3 27.4,423.3 83.9,423.3 	"/>
	<polygon class="st6" points="143.1,314.3 112.1,423.3 168.6,423.3 	"/>
	<polygon class="st6" points="199.5,345.7 168.6,454.6 225,454.6 	"/>
	<polygon class="st7" points="86.6,338.4 55.7,447.4 112.1,447.4 	"/>
	<polygon class="st7" points="21.6,267.1 -0.8,408.1 47.1,408.1 	"/>
</g>
<g id="Hill2">
	<path class="st4" d="M-2.5,615.9l584-250.7c-392.2,61.9-583.1-4.8-583.1-4.8L-2.5,615.9z"/>
</g>
<g id="Bush">
	<path class="st6" d="M303.5,530.6c-3.9-0.5-5.6-1.6-7-5.4c-6.1-16.5-17.6-28-34.8-32c-9.4-2.2-19.4-1.3-30.4-1.9
		c-7-16.6-20-27-39.8-28.6c-1.7-0.1-4-3.1-4.7-5.2c-9.6-29.5-37.5-48.6-67.9-46.1c-31.4,2.6-56.1,26.5-59.8,58.1
		c-0.7,5.9-0.1,11.9-0.1,18.5c-14.8-5.3-28.2-4.2-40.4,4.6c-12.3,8.8-16.9,21.5-17,35.9c-0.8,0.2-1.6,0.4-2.4,0.6v35.6
		c111.4,0,222.8,0,334.2,0C335.1,548.3,321.5,532.9,303.5,530.6z"/>
	<ellipse class="st8" cx="132.7" cy="454.6" rx="33.9" ry="30"/>
</g>
<g id="Hill2_1_">
	<path class="st8" d="M1279.7,207.4c-617.8,0-826.8,315.9-1280.5,315.9v277h1280.5V207.4z"/>
</g>
<g id="Light_grass">
	<path class="st7" d="M1279.2,224.8c0,0-302.9-33.9-473.5,153.4C615.7,586.8,519.4,682.7-2.5,744l0,56.3h967
		c149.5-149.1,79.4-490.2,315.2-508.6L1279.2,224.8z"/>
</g>
<g id="Road">
	<path class="st9" d="M782.1,800.3c52.3-43.5,92.5-92.7,118.3-145.1c59.7-121.4,145.7-389.7,379.3-389.7v-30.4
		c-318.3,0-521.4,258.6-620.1,364.2c-84,89.9-323.9,163.7-662.1,200.9H782.1z"/>
	<g>
		<g>
			<path class="st10" d="M1279.7,235.9c-60.2,0.7-120.2,10.8-177.1,29.6c-28.5,9.5-56.3,20.9-83.1,34.3
				c-26.9,13.3-52.9,28.3-78,44.7c-50.2,32.9-96.5,71.4-139.8,112.9c-21.7,20.8-42.5,42.4-62.9,64.5c-20.4,22.1-40.1,44.7-60.2,67.3
				l-7.6,8.4l-3.8,4.2c-1.3,1.4-2.5,2.8-3.9,4.2c-5.3,5.7-11,11-16.8,16.2l-4.4,3.8l-4.5,3.6l-2.3,1.8l-2.3,1.8l-4.6,3.5
				c-6.2,4.5-12.5,9-19,13.1c-12.8,8.4-26.1,16-39.7,23.1c-13.5,7.1-27.3,13.7-41.2,19.8c-13.9,6.1-28,11.8-42.2,17.2
				c-14.2,5.4-28.5,10.4-42.9,15.1c-28.8,9.5-57.9,17.9-87.3,25.3c-29.3,7.4-58.9,14-88.6,19.7c-29.7,5.6-59.5,10.5-89.5,14.5
				c-30,4-60,7.1-90.1,9.2c-30.1,2.1-60.3,3.2-90.5,2.9l0-1.5c60.2-2.5,120.1-9.4,179.4-19.1c29.7-4.9,59.2-10.4,88.6-16.8
				c29.4-6.3,58.6-13.4,87.5-21.3c57.9-15.8,115-34.7,169.5-59c27.2-12.3,53.9-25.8,78.7-41.9c6.2-4,12.3-8.2,18.3-12.5l4.4-3.3
				l2.2-1.7l2.2-1.7l4.3-3.4l4.2-3.6c5.5-4.8,10.9-9.7,15.9-15c1.3-1.3,2.5-2.6,3.8-4l3.8-4.1l7.6-8.3l30.6-33.2
				c10.3-11.1,20.6-22.1,31-33c20.9-21.9,42.3-43.3,64.4-63.9c44.3-41.3,91.7-79.4,142.9-111.9c12.8-8.1,25.8-15.9,39.1-23.2
				c13.3-7.3,26.7-14.3,40.4-20.7c27.4-13,55.7-24,84.6-33c14.4-4.5,29.1-8.4,43.8-11.7c14.7-3.3,29.6-6.2,44.6-8.4
				c15-2.2,30-3.8,45.1-4.8c15.1-1,30.2-1.4,45.3-1.3V235.9z"/>
		</g>
		<g>
			<path class="st10" d="M781.7,799.8c23.2-22,45-45.3,64.3-70.4c2.4-3.1,4.7-6.3,7.1-9.5c2.3-3.2,4.6-6.4,6.9-9.6
				c2.3-3.2,4.4-6.5,6.6-9.8c2.1-3.3,4.2-6.7,6.3-10l6.1-10.1c1.9-3.4,3.9-6.8,5.8-10.3l2.7-5.2c0.9-1.7,1.8-3.5,2.7-5.2
				c1.7-3.5,3.5-7,5.1-10.6c3.4-7.2,6.7-14.4,9.9-21.7l9.8-21.8c3.3-7.3,6.6-14.6,9.9-21.8c3.4-7.3,6.8-14.5,10.2-21.8
				c6.9-14.5,14.1-28.9,21.4-43.2c7.3-14.3,15-28.5,23-42.4c8-14,16.3-27.8,25.2-41.3c8.9-13.5,18.2-26.7,28.1-39.4
				c19.9-25.4,42.2-49.1,67.6-69.2l4.8-3.7l4.9-3.6c3.2-2.4,6.6-4.7,9.9-7c6.7-4.5,13.6-8.8,20.6-12.7c7-4,14.3-7.6,21.6-11l5.6-2.4
				l2.8-1.2l2.8-1.1l5.6-2.2c1.9-0.7,3.8-1.3,5.7-2c30.4-10.8,62.8-15.3,94.8-14.8v1.5c-16,0.3-31.9,1.9-47.5,4.8
				c-7.8,1.4-15.6,3.3-23.2,5.3l-5.7,1.7c-1.9,0.6-3.8,1.1-5.7,1.8c-3.8,1.3-7.5,2.5-11.2,4c-1.8,0.7-3.7,1.4-5.5,2.1l-5.5,2.3
				l-2.7,1.2l-2.7,1.3l-5.4,2.5c-7.1,3.5-14.1,7.2-20.9,11.4c-6.8,4-13.4,8.5-19.8,13c-3.2,2.4-6.4,4.6-9.5,7.1l-4.7,3.7l-4.6,3.8
				c-24.3,20.3-45.6,44-64.5,69.4c-9.5,12.7-18.4,25.8-26.8,39.3c-8.4,13.5-16.4,27.2-24,41.2c-7.5,14-14.7,28.2-21.6,42.5
				c-6.9,14.4-13.4,28.9-19.9,43.4l-19.4,43.8c-3.3,7.3-6.6,14.6-10,21.9c-3.4,7.3-6.9,14.5-10.5,21.8
				c-7.4,14.5-15.6,28.7-24.7,42.1c-2.3,3.3-4.7,6.7-7,9.9c-2.4,3.2-4.8,6.5-7.3,9.7c-2.5,3.2-5,6.4-7.6,9.5
				c-2.6,3.1-5.2,6.2-7.9,9.2c-21.3,24.3-45.4,46.1-71.3,65L781.7,799.8z"/>
		</g>
	</g>
</g>
<g id="Shadow_grass">
	<path class="st6" d="M-0.8,597.4c354.7-2.3,553.7-221.3,848.4-331c-319.8,91.4-520,256.9-848.4,256.9V597.4z"/>
</g>
<g id="Bush2">
	<path class="st11" d="M1279.7,800.3V577.5c-23.7-40.2-67.4-67.1-117.4-67.1c-75.2,0-136.2,61-136.2,136.2c0,1,0,2.1,0,3.1
		c0,0,0,0,0,0c-45.4,0-82.3,36.8-82.3,82.3c0,2.3,0.1,4.5,0.3,6.7c-0.1,0-0.2,0-0.3,0c-22.1,0-41.1,13-49.9,31.7
		c-5.5-3-11.8-4.6-18.4-4.6c-20,0-36.4,15.1-38.7,34.5H1279.7z"/>
</g>
<g id="Parents">
	<path class="st12" d="M813.3,559.9l-41.6,2.5c-4.3-8.8,18.7-13.2,26.8-13.7l0.2-10.4l15.1,0.1c0,0-1.5,5-1.2,10.2
		C813,554,813.3,559.7,813.3,559.9z"/>
	<path class="st12" d="M858.6,562l-40.4,3.9c-4.3-8.8,18.1-13.5,26.1-14l-0.7-10.4l13.8-1c0,0,0.3,5,0.5,10.1
		C858.3,556.2,858.6,561.9,858.6,562z"/>
	<g>
		<path class="st13" d="M843.1,551.5c-0.5,5.5,12.1,4.2,15.8,3.8c0.6-0.1,1.1,0.3,1.1,0.9c0.3,2.1,1,6.8,1,6.9
			c-2.4,2.1-41.6,5.4-44,3.9C812.3,557.6,834.7,552.2,843.1,551.5z"/>
	</g>
	<g>
		<path class="st13" d="M797,548.7c-0.7,5.1,11.9,4.3,15.7,4c0.6,0,1.1,0.3,1.1,0.9c0.2,2,0.8,6.4,0.8,6.4
			c-2.5,1.9-41.7,3.9-44.1,2.4C765.9,553.6,788.5,549.2,797,548.7z"/>
	</g>
	<path class="st14" d="M792.2,250c-0.6,15.5-25.6,50.2-48.8,69.4c0,0-11.2,7.1-15.3,7.5c-2,0.2-3.7,1.6-3,3c0.7,1.5,3.1,2.6,6.6,1.3
		c5.6-2,1.7,3.6-2.6,7c-4.3,3.4-5.3,9.3-1.2,11.7c4.1,2.4,20.1-8.4,25.3-22.9c0,0,42.8-30,46.9-53.5
		C804.1,250.1,792.2,250,792.2,250z"/>
	<path class="st15" d="M785.8,298.2c-12.5-5.4-13.2-9.9-13.2-9.9c1.8-14.6,19.9-51.8,34.9-58c0,0-2,15.4-0.5,30.6
		C809.3,284.5,785.8,298.2,785.8,298.2z"/>
	<path class="st14" d="M814.2,218.7c2.5,0,3,3.9,3.3,8c0.3,3.9,3.6,7.2,7.8,7.8c0.1,0,0.1,0,0.2,0c5,0.6,9.4-2.9,10-7.5
		c0.5-4,1.6-10.2,3.8-17c0.4-1.4,0.9-2.8,1.5-4.2c0.3-0.8,0.6-1.6,1-2.4c0.2-0.5,0.4-1,0.6-1.5c0,0,0.1-1.3,0.3-3.2
		c0.5-5.4,1.4-16,0.8-20.1c-3-18.9-38.2-19.2-42-2.5C801.6,176.2,793.5,219.1,814.2,218.7z"/>
	<path class="st14" d="M848.7,198.4c-2.3,3.4-6.4,4.9-9.2,3.3c-2.8-1.6-3.2-5.7-1-9.1c2.3-3.4,6.4-4.9,9.2-3.3
		C850.5,190.9,850.9,194.9,848.7,198.4z"/>
	<path class="st16" d="M844.6,199.5c0,0,1.7-0.5,2.9-3.4c1.6-4-1.4-5.7-1.4-5.7S849.2,194.3,844.6,199.5z"/>
	<path class="st16" d="M827.1,217.9c4.8-0.1-6.1,1.2-9.4,9.7c-0.4-6.7-1.6-9-3.3-8.9C814.4,218.7,822.8,218,827.1,217.9z"/>
	<path class="st17" d="M843,202.4c0,0-1.2,12.7-4.4,12.9c-1.4,0.1-2-1-2.2-2.2c-0.3-1.6,0.2-3.3,1.1-4.7l4-6.1L843,202.4z"/>
	<path class="st18" d="M856.2,232.1c0,0,19,11.5,32.4,30.9c0,0,17.2,0.4,31.3,8.8c0,0,1.7,6.9-4.6,11.6c0,0-26.1-0.2-39.2-3.2
		l-27.7-20.9L856.2,232.1z"/>
	<path class="st19" d="M800.3,354.5l-3.7,190.3c0,0.9,0.6,1.6,1.4,1.8c2.3,0.5,7.6,1.2,15.3-0.3c0.8-0.2,1.3-0.8,1.4-1.6L836,337
		L800.3,354.5z"/>
	<path class="st20" d="M813.4,334.7l30.1,214c0.1,0.9,0.8,1.7,1.7,1.9c6.3,2,11,0.2,13.1-1c0.8-0.4,1.2-1.2,1.2-2l-1.5-213
		L813.4,334.7z"/>
	<path class="st15" d="M817.4,226.6c-17.1,3.2-28.7,19.9-28.4,44.4c0.2,20.6,2.3,56.3,9.8,82.2c0.2,0.8,0.8,1.5,1.5,2
		c4.5,3,25.2,12.4,58.2,0c1.4-0.5,2.3-1.9,2.3-3.4c-0.3-58.1,8.9-106.8-0.3-116.3c-7.8-7.2-14.4-8.2-24.7-9.6
		c-0.1,2.2-2.3,6.5-8.8,6.5C817.1,232.5,817.4,226.6,817.4,226.6z"/>
	<path class="st17" d="M846.1,188.6c0,0,5.2-18.5,2-22.5c-3.2-4-37.5-29-49-13.9c-8.4,11,4.6,17.9,4.6,17.9s3.2,2.4,14.6,0.4
		c11.3-2,16.4-1.9,16.1,2.1c-0.3,4,5.5,4.6,5.5,4.6l-0.6,14.1C839.2,191.4,841.9,187.8,846.1,188.6z"/>
	<path class="st21" d="M789.2,279.5"/>
	<path class="st18" d="M800.2,355.1c-0.7-0.5-1.2-1.2-1.5-2c-5.9-20.3-8.4-46.6-9.3-67c1.7,10.4,17.5,79.6,71,67
		c-0.4,0.9-1.1,1.6-2,2C825.4,367.5,804.7,358.1,800.2,355.1z"/>
	<path class="st12" d="M926.7,284.4c-2.8,9.2-12.4,8.4-15,5c-3.3-4.2-0.7-8.1,4.4-13.4c0,0-4.6-5.8-3-6.6
		C917.8,266.9,929.2,276.4,926.7,284.4z"/>
	<path class="st22" d="M857.3,350.4c0,0-27.2,12.6-56.3,0.7C801,351,825.4,359.5,857.3,350.4z"/>
	<path class="st23" d="M857.5,360.8l6,180.8l14.6,0.6c3.9-40.4,12.1-127,15.5-180.9L857.5,360.8z"/>
	<path class="st12" d="M844.3,567.8l31.6-3.5c0,0,0.8-8.4,2.2-22.1l-14.6-0.6l0.3,9.8c0.1,2.1-1.6,3.9-3.8,4.2
		C845.2,557.3,840.5,563.4,844.3,567.8z"/>
	<path class="st17" d="M885.2,381.6l6.8,2.2c-3.7,51.1-10,118-13.5,154.3L885.2,381.6z"/>
	<path class="st24" d="M858.3,555.8c9.2,3.2,17.9,1.1,18.6-1.4c0.2-0.7,1.5,0.3,1.5,1c-0.1,4.5-0.9,8.8-0.9,8.8
		c-2,2.5-30.5,6-38.3,3.8C835.2,563,844.7,557.2,858.3,555.8z"/>
	<path class="st12" d="M855.1,556.4c0,0,6.3,1.9,2.9,3.4s-9.1-2-9.1-2S850,557.1,855.1,556.4z"/>
	<path class="st17" d="M903,545.7l13.4-0.2c1.1-45.5,3.4-144.5,2.9-184.8l-35.1,3.5C882.6,402.1,900.8,507,903,545.7z"/>
	<path class="st12" d="M878.9,572.8l37-3.7c0,0,0.2-9.1,0.6-23.6l-13.4,0.2c0.3,4.6,0.3,8.3,0.1,10.8c-0.2,2.1-2,3.8-4.2,4.1
		C883.7,562.2,874.8,567.8,878.9,572.8z"/>
	<polygon class="st17" points="908.7,377.4 914.7,545.6 916.4,545.6 919.4,374.8 	"/>
	<path class="st24" d="M898.8,560.6c8.6,2.7,14.4,1.4,17,0.4c0.7-0.3,1.5,0.3,1.5,1c-0.1,4.5-0.2,7-0.2,7c-2,2.5-30.5,6-38.3,3.8
		C874.8,567.8,883.7,562.2,898.8,560.6z"/>
	<path class="st12" d="M894.6,561.2c0,0,6.3,1.9,2.9,3.4c-3.4,1.5-9.1-2-9.1-2S889.6,561.8,894.6,561.2z"/>
	<path class="st25" d="M922.9,387c0,0-4.2-104.9-10-117.8c-0.7-1.6-4.8-3.1-9.6-4.4c-13.3-3.5-27.6-1.9-39.3,5.1
		c-3,1.8-5.1,3.6-5.2,5c-0.9,13.6-4.8,111.5-4.8,111.5S872,403.1,922.9,387z"/>
	<path class="st26" d="M878,192.1c0,0-25.6-0.6-19.5,21.7c6.1,22.3,32.5,4.5,32.5,2.6S878,192.1,878,192.1z"/>
	<path class="st26" d="M876.5,209c0,0,3.2,23.3-19,42.8c0,0,14.2,7.1,33.7,5.7c19.5-1.4,10.2-46.8,9.7-47
		C900.3,210.3,876.5,209,876.5,209z"/>
	<path class="st12" d="M857,232.4c0.1,15.8,8.2,17.1,10.2,17.6c8.6,2.1,9.8,4.2,10.1,16.1c0,0,8.5,7.8,17.4-0.2c0,0-0.1-10,3.1-21.9
		c0.4-1.4,0.8-2.9,1.3-4.4c0.3-0.8,0.6-1.6,0.9-2.5c0.2-0.5,0.4-1,0.6-1.5c0,0,0.1-1.3,0.2-3.3c0.3-5.5,2.5-18.4,2.1-22.5
		c-1.3-11.5-11.8-17.9-20.6-17.8c-16.2,0.2-18.4,7.4-22.3,19.5C859.9,211.6,856.9,222.4,857,232.4z"/>
	<path class="st12" d="M905.2,231.9c-2.1,3.6-6.4,5.2-9.2,3.7c-2.8-1.5-3.5-5.6-1.4-9.2c2.1-3.6,6.1-5.3,8.9-3.8
		C906.3,224.1,907.3,228.4,905.2,231.9z"/>
	
		<ellipse transform="matrix(0.9999 -1.192840e-02 1.192840e-02 0.9999 -2.7242 10.7347)" class="st27" cx="898.5" cy="233.7" rx="1.8" ry="1.7"/>
	<path class="st28" d="M868.9,376.5c0,0,9.2,1.1,9.2,2.3c0,1.2-9.1,1.6-9.1,1.6L868.9,376.5z"/>
	<path class="st29" d="M922.9,387c0,0-0.1-3.2-0.4-8.5l0,0c-70.1,13.9-63.1-57.4-63.1-57.4l-3.2,9.5c-1.2,28-2.3,55.9-2.3,55.9
		S872,403.1,922.9,387z"/>
	<path class="st30" d="M879.2,377.4c0,0-9.2,0-9.4,1.2c-0.2,1.2,9.4,3,9.4,3L879.2,377.4z"/>
	<path class="st12" d="M860.4,272.8l-1,49.6l7.8,52.5l0,0c0,0,0.6,3.4,6.2,2.7c8.1-1,16.2,7.2,3.4,8.7c-2.3,0.3-4.6,0-6.6-0.5
		c-6.1-1.5-10.7-6.4-12.2-12.2c-3.6-14.4-11.7-47.5-11.7-51.5C846,311.7,855.7,279.3,860.4,272.8z"/>
	<path class="st31" d="M877.1,261.4c-0.6-7.8-2.6-9.6-9.9-11.4c5.9,1.4,8.7,1.2,12.2,1.2C882.4,251.2,878,259.9,877.1,261.4z"/>
	<path class="st31" d="M901.1,233.7c0,0,1.8-0.7,2.9-3.9c1.5-4.5-1.9-6.2-1.9-6.2S906.1,227.9,901.1,233.7z"/>
	<path class="st12" d="M871.4,378.2c3.2,0,6.1-2.9,6.1-2.9s33-45.5,33.2-48.8c0.2-2.6-1.4-28.3-3.3-39c-0.5-2.6,0-5.2,1.3-7.5l1-5.7
		c0.4-2,3.1-2.2,3.8-0.3c5,14.2,12.2,48.4,11,56.4c-1.5,9.6-40.1,51-40.1,51s-6.8,6.4-16.2,5.5C855.4,385.7,863.3,378.1,871.4,378.2
		z"/>
	<path class="st25" d="M905.3,305.3l-0.9-5c-0.3-20.5,2.6-27.4,8-32.2c0,0,7.7,8.4,12.5,24.3C925,292.5,925,299.4,905.3,305.3z"/>
	<path class="st25" d="M860.9,303.8l1.3-32.7c0,0-8.4,4.5-13.8,26.3C848.4,297.4,851.3,302.9,860.9,303.8z"/>
	<path class="st29" d="M911.7,268.8c0,0-9.3,5-7.2,32.4C904.6,301.2,904.3,277.8,911.7,268.8z"/>
	<path class="st29" d="M860.4,301.2c0,0-2.9-22.8,6-32.7C866.4,268.5,860,278.4,860.4,301.2z"/>
	<path class="st32" d="M898.4,236.1c-3.1,6-13.4,15.7-26.6,16.1c10.9,8.5,32.7,6,32.7,6c14.3-43.1,1-56.7,1-56.7
		c-21.3-20.8-46.1-5.9-46,2.3c0,0,1.4,12.2,33,23.1c1.9,0.7,4.8-5.8,10-4.5C907.1,223.5,907.9,233.6,898.4,236.1z"/>
	<path class="st18" d="M787.9,298.4c0.3-0.7,0-1.5-0.7-1.7c-6.3-1.8-11.5-6.9-13.9-9.6c-1-1.1-2.7-1-3.5,0.3
		c-0.3,0.5-0.7,1.1-1.1,1.9c-0.9,1.7-1.8,2.6-2.6,3.2c-0.9,0.7-1.3,1.9-0.7,2.9c1.6,2.5,5.2,6.6,13.3,10.1c0.6,0.3,1.3,0.1,1.8-0.4
		c0.9-1,2.4-2.5,3.4-2.9C786.1,301.3,787.3,299.6,787.9,298.4z"/>
	<ellipse class="st33" cx="816.7" cy="285.6" rx="22.5" ry="23"/>
	<path class="st25" d="M799.7,279.1c-0.5-0.2-0.8-0.6-1.1-1c-0.3-0.4-0.4-0.9-0.4-1.5c0-0.6,0.1-1.1,0.4-1.5c0.3-0.4,0.6-0.8,1.1-1
		c0.5-0.2,1-0.4,1.6-0.4c0.6,0,1.1,0.1,1.5,0.4c0.5,0.2,0.8,0.6,1.1,1c0.3,0.4,0.4,0.9,0.4,1.5c0,0.6-0.1,1.1-0.4,1.5
		c-0.3,0.4-0.6,0.8-1.1,1c-0.5,0.2-1,0.4-1.5,0.4C800.7,279.5,800.2,279.4,799.7,279.1z M802.3,277.7c0.3-0.3,0.4-0.7,0.4-1.1
		c0-0.5-0.1-0.8-0.4-1.1c-0.3-0.3-0.6-0.4-1-0.4c-0.4,0-0.7,0.1-1,0.4c-0.3,0.3-0.4,0.7-0.4,1.1c0,0.5,0.1,0.8,0.4,1.1
		c0.3,0.3,0.6,0.4,1,0.4C801.7,278.1,802,278,802.3,277.7z"/>
	<path class="st25" d="M810.6,274.3c0.4,0.4,0.6,1,0.6,1.9v3.2h-1.6v-3c0-0.4-0.1-0.8-0.3-1c-0.2-0.2-0.5-0.3-0.8-0.3
		c-0.4,0-0.7,0.1-1,0.4c-0.2,0.3-0.4,0.6-0.4,1.1v2.8h-1.6v-5.6h1.5v0.7c0.2-0.2,0.5-0.4,0.8-0.5c0.3-0.1,0.7-0.2,1-0.2
		C809.6,273.7,810.2,273.9,810.6,274.3z"/>
	<path class="st25" d="M818.3,277.1h-4.1c0.1,0.3,0.3,0.6,0.5,0.8c0.3,0.2,0.6,0.3,1,0.3c0.3,0,0.5,0,0.8-0.1
		c0.2-0.1,0.4-0.2,0.6-0.4l0.8,0.9c-0.5,0.6-1.3,0.9-2.3,0.9c-0.6,0-1.2-0.1-1.6-0.4c-0.5-0.2-0.8-0.6-1.1-1
		c-0.3-0.4-0.4-0.9-0.4-1.5c0-0.5,0.1-1,0.4-1.5c0.3-0.4,0.6-0.8,1-1c0.4-0.2,0.9-0.4,1.5-0.4c0.5,0,1,0.1,1.5,0.4
		c0.4,0.2,0.8,0.6,1,1c0.2,0.4,0.4,1,0.4,1.5C818.3,276.6,818.3,276.8,818.3,277.1z M814.5,275.3c-0.2,0.2-0.4,0.5-0.4,0.9h2.7
		c-0.1-0.4-0.2-0.6-0.4-0.8c-0.2-0.2-0.5-0.3-0.9-0.3C815.1,274.9,814.8,275,814.5,275.3z"/>
	<path class="st25" d="M802.2,288.5c-0.2,0.1-0.3,0.2-0.6,0.3c-0.2,0.1-0.5,0.1-0.7,0.1c-0.7,0-1.2-0.2-1.5-0.5
		c-0.4-0.3-0.5-0.8-0.5-1.5v-2.3H798v-1.3h0.8v-1.4h1.6v1.4h1.4v1.3h-1.4v2.3c0,0.2,0.1,0.4,0.2,0.5c0.1,0.1,0.3,0.2,0.5,0.2
		c0.3,0,0.5-0.1,0.6-0.2L802.2,288.5z"/>
	<path class="st25" d="M812,283.1l-2,5.6h-1.5l-1.2-3.5l-1.3,3.5h-1.5l-2-5.6h1.5l1.3,3.8l1.3-3.8h1.3l1.3,3.8l1.3-3.8H812z"/>
	<path class="st25" d="M813.9,288.4c-0.5-0.2-0.8-0.6-1.1-1c-0.3-0.4-0.4-0.9-0.4-1.5c0-0.6,0.1-1.1,0.4-1.5c0.3-0.4,0.6-0.8,1.1-1
		c0.5-0.2,1-0.4,1.6-0.4c0.6,0,1.1,0.1,1.5,0.4c0.5,0.2,0.8,0.6,1.1,1c0.3,0.4,0.4,0.9,0.4,1.5c0,0.6-0.1,1.1-0.4,1.5
		c-0.3,0.4-0.6,0.8-1.1,1c-0.5,0.2-1,0.4-1.5,0.4C814.9,288.8,814.4,288.7,813.9,288.4z M816.5,287.1c0.3-0.3,0.4-0.7,0.4-1.1
		c0-0.5-0.1-0.8-0.4-1.1c-0.3-0.3-0.6-0.4-1-0.4c-0.4,0-0.7,0.1-1,0.4c-0.3,0.3-0.4,0.7-0.4,1.1c0,0.5,0.1,0.8,0.4,1.1
		c0.3,0.3,0.6,0.4,1,0.4C815.9,287.5,816.2,287.3,816.5,287.1z"/>
	<path class="st25" d="M799.8,297c-0.5-0.2-0.8-0.6-1.1-1c-0.3-0.4-0.4-0.9-0.4-1.5c0-0.6,0.1-1.1,0.4-1.5c0.3-0.4,0.6-0.8,1.1-1
		c0.5-0.2,1-0.4,1.6-0.4c0.6,0,1.1,0.1,1.5,0.4c0.4,0.2,0.7,0.6,0.9,1.1l-1.2,0.7c-0.3-0.5-0.7-0.8-1.2-0.8c-0.4,0-0.8,0.1-1,0.4
		c-0.3,0.3-0.4,0.7-0.4,1.1s0.1,0.9,0.4,1.1c0.3,0.3,0.6,0.4,1,0.4c0.5,0,1-0.3,1.2-0.8l1.2,0.7c-0.2,0.4-0.5,0.8-0.9,1
		c-0.4,0.3-0.9,0.4-1.5,0.4C800.8,297.4,800.2,297.3,799.8,297z"/>
	<path class="st25" d="M809.8,292.3c0.5,0.4,0.7,1,0.7,1.9v3.2H809v-0.7c-0.3,0.5-0.9,0.8-1.7,0.8c-0.4,0-0.8-0.1-1.1-0.2
		c-0.3-0.1-0.5-0.3-0.7-0.6c-0.2-0.3-0.2-0.5-0.2-0.9c0-0.5,0.2-0.9,0.6-1.2c0.4-0.3,1-0.4,1.8-0.4h1.3c0-0.4-0.1-0.6-0.3-0.8
		c-0.2-0.2-0.5-0.3-0.9-0.3c-0.3,0-0.6,0-0.9,0.1c-0.3,0.1-0.5,0.2-0.7,0.4l-0.6-1.1c0.3-0.2,0.7-0.4,1.1-0.5
		c0.4-0.1,0.8-0.2,1.3-0.2C808.7,291.6,809.3,291.8,809.8,292.3z M808.4,296.1c0.2-0.1,0.4-0.3,0.4-0.6V295h-1.1c-0.7,0-1,0.2-1,0.7
		c0,0.2,0.1,0.4,0.2,0.5c0.2,0.1,0.4,0.2,0.7,0.2C808,296.3,808.2,296.3,808.4,296.1z"/>
	<path class="st25" d="M815.1,291.8c0.3-0.1,0.7-0.2,1.1-0.2v1.5c-0.2,0-0.3,0-0.4,0c-0.5,0-0.8,0.1-1.1,0.4
		c-0.3,0.3-0.4,0.7-0.4,1.2v2.6h-1.6v-5.6h1.5v0.7C814.5,292.2,814.8,292,815.1,291.8z"/>
	<path class="st25" d="M823.4,295h-4.1c0.1,0.3,0.3,0.6,0.5,0.8c0.3,0.2,0.6,0.3,1,0.3c0.3,0,0.5,0,0.8-0.1c0.2-0.1,0.4-0.2,0.6-0.4
		l0.8,0.9c-0.5,0.6-1.3,0.9-2.3,0.9c-0.6,0-1.2-0.1-1.6-0.4c-0.5-0.2-0.8-0.6-1.1-1c-0.3-0.4-0.4-0.9-0.4-1.5c0-0.5,0.1-1,0.4-1.5
		c0.3-0.4,0.6-0.8,1-1c0.4-0.2,0.9-0.4,1.5-0.4c0.5,0,1,0.1,1.5,0.4c0.4,0.2,0.8,0.6,1,1c0.2,0.4,0.4,1,0.4,1.5
		C823.4,294.6,823.4,294.7,823.4,295z M819.7,293.2c-0.2,0.2-0.4,0.5-0.4,0.9h2.7c-0.1-0.4-0.2-0.6-0.4-0.8
		c-0.2-0.2-0.5-0.3-0.9-0.3C820.2,292.9,819.9,293,819.7,293.2z"/>
	<path class="st25" d="M830.7,295h-4.1c0.1,0.3,0.3,0.6,0.5,0.8c0.3,0.2,0.6,0.3,1,0.3c0.3,0,0.5,0,0.8-0.1c0.2-0.1,0.4-0.2,0.6-0.4
		l0.8,0.9c-0.5,0.6-1.3,0.9-2.3,0.9c-0.6,0-1.2-0.1-1.6-0.4c-0.5-0.2-0.8-0.6-1.1-1c-0.3-0.4-0.4-0.9-0.4-1.5c0-0.5,0.1-1,0.4-1.5
		c0.3-0.4,0.6-0.8,1-1c0.4-0.2,0.9-0.4,1.5-0.4c0.5,0,1,0.1,1.5,0.4c0.4,0.2,0.8,0.6,1,1c0.2,0.4,0.4,1,0.4,1.5
		C830.8,294.6,830.8,294.7,830.7,295z M827,293.2c-0.2,0.2-0.4,0.5-0.4,0.9h2.7c-0.1-0.4-0.2-0.6-0.4-0.8c-0.2-0.2-0.5-0.3-0.9-0.3
		C827.6,292.9,827.3,293,827,293.2z"/>
	<path class="st25" d="M835,291.8c0.3-0.1,0.7-0.2,1.1-0.2v1.5c-0.2,0-0.3,0-0.4,0c-0.5,0-0.8,0.1-1.1,0.4c-0.3,0.3-0.4,0.7-0.4,1.2
		v2.6h-1.6v-5.6h1.5v0.7C834.5,292.2,834.7,292,835,291.8z"/>
</g>
<g id="Button" class="st34">
	<path class="st35" d="M1242.6,728.5l-31.3-28.8c-2.2-2-5.9-0.6-5.9,2.2v9.9c0,1.7-1.6,3.1-3.5,3.1h-36.7c-1.9,0-3.5,1.4-3.5,3.1
		v25.5c0,1.7,1.6,3.1,3.5,3.1h36.7c1.9,0,3.5,1.4,3.5,3.1v9.9c0,2.8,3.8,4.2,5.9,2.2l31.3-28.8
		C1243.9,731.7,1243.9,729.8,1242.6,728.5z"/>
	<g class="st36">
		<path class="st25" d="M1221.3,702.1c5.6,4,11.1,8.2,16.6,12.4c2.7,2.1,5.4,4.2,8.2,6.4c2.7,2.1,5.4,4.3,8.1,6.4
			c1.1,0.9,1.3,2.4,0.4,3.5l-0.1,0.1l-0.1,0.1c-2.4,2.8-4.8,5.4-7.3,8.1c-2.5,2.7-5,5.3-7.5,7.9c-5.1,5.2-10.4,10.2-16.1,14.9
			c-2.9,2.3-5.9,4.6-9.3,6.5c-0.9,0.5-1.8,0.9-2.8,1.3c-1,0.4-2.1,0.8-3.5,0.9c-0.8,0.1-1.4,0-2.1-0.1c-0.7-0.1-1.4-0.3-2.1-0.6
			c-1.4-0.6-2.5-1.7-3.2-2.8c-1.5-2.2-1.9-4.4-2.1-6.4c-0.2-2-0.2-4-0.1-5.9c0.3-3.8,0.9-7.5,1.8-11.2l2.5,2.9
			c-5.4,0.1-10.9,0.3-16.3,0.7c-5.5,0.3-11,0.9-16.6,0.8c-2.8-0.1-5.6-0.3-8.4-1c-0.3-0.1-0.7-0.2-1-0.3l-0.5-0.2
			c-0.1,0-0.2-0.1-0.4-0.2c-0.1-0.1-0.2-0.1-0.3-0.2c-0.8-0.6-1.1-1.3-1.5-2c-0.7-1.3-1.1-2.7-1.5-4c-1.5-5.4-2.2-11-2.3-16.6
			c0-2.8,0.1-5.7,0.8-8.6c0.3-1.4,0.8-2.9,1.5-4.3c0.4-0.7,0.8-1.4,1.3-2.1c0.5-0.7,1.2-1.3,1.9-1.8c1.4-1,2.9-1.7,4.4-2.2
			c1.5-0.5,3-0.8,4.5-0.9c2.9-0.3,5.8-0.3,8.6-0.2c11.2,0.8,21.9,2.9,32.7,3.6l-1.8,3.4c-1.2-1.9-2.3-3.8-3.2-5.8
			c-0.9-2-1.8-4.1-2.1-6.6c0-0.6,0-1.3,0.2-2.1c0.2-0.7,0.7-1.6,1.4-2c0.7-0.5,1.4-0.6,2.1-0.6c0.7,0,1.2,0.1,1.8,0.2
			c2.3,0.5,4.2,1.5,6.1,2.5c0.2,0.1,0.2,0.3,0.1,0.4c-0.1,0.1-0.2,0.2-0.4,0.1c-1-0.3-2-0.6-3.1-0.8c-1-0.2-2-0.4-3-0.4
			c-0.9,0-1.9,0.1-2.2,0.5c-0.2,0.2-0.2,0.3-0.2,0.6c0,0.3,0,0.7,0.1,1.1c0.4,1.7,1.4,3.5,2.4,5.2c1.1,1.7,2.3,3.4,3.5,5
			c0.7,0.9,0.6,2.3-0.3,3c-0.4,0.3-0.8,0.5-1.3,0.5l-0.2,0c-2.8,0-5.6-0.1-8.4-0.2c-2.8-0.2-5.5-0.4-8.3-0.7
			c-5.5-0.6-10.9-1.2-16.2-1.5c-2.7-0.2-5.3-0.3-7.8-0.2c-2.5,0.2-4.9,0.6-6.7,1.7c-1.7,1-2.9,3.1-3.7,5.5c-0.8,2.4-1.3,5-1.5,7.7
			c-0.3,9.7-0.8,25.5,13,22.2c2.7-0.1,5.4-0.4,8.1-0.8c2.7-0.4,5.4-0.8,8.1-1.3c5.4-0.9,10.9-1.7,16.5-2.1c1.3-0.1,2.4,0.9,2.5,2.1
			c0,0.2,0,0.4,0,0.6l0,0.3c-0.5,3.4-0.9,6.9-1,10.3c0,1.7,0.1,3.4,0.3,4.9c0.2,1.5,0.7,3,1.3,3.7c0.3,0.4,0.6,0.6,0.8,0.7
			c0.1,0.1,0.3,0.1,0.5,0.1c0.2,0,0.5,0,0.6,0c0.4,0,1-0.3,1.7-0.5c0.7-0.3,1.4-0.7,2.1-1.1c2.8-1.7,5.6-3.8,8.3-6.1
			c5.5-4.5,10.7-9.3,15.9-14.2c5.2-4.9,10.4-9.9,15.4-15l0.2,3.7c-2.5-2.3-5.1-4.7-7.6-7c-2.5-2.4-5-4.7-7.5-7.1
			c-5-4.8-9.9-9.6-14.8-14.5c-0.1-0.1-0.1-0.3,0-0.4C1221,702,1221.1,702,1221.3,702.1z"/>
	</g>
</g>
</svg>
