<?xml version="1.0" encoding="utf-8"?>
<!-- Generator: Adobe Illustrator 17.1.0, SVG Export Plug-In . SVG Version: 6.00 Build 0)  -->
<!DOCTYPE svg PUBLIC "-//W3C//DTD SVG 1.1//EN" "http://www.w3.org/Graphics/SVG/1.1/DTD/svg11.dtd">
<svg version="1.1" id="Layer_1" xmlns="http://www.w3.org/2000/svg" xmlns:xlink="http://www.w3.org/1999/xlink" x="0px" y="0px"
	 viewBox="0 0 841.9 595.3" enable-background="new 0 0 841.9 595.3" xml:space="preserve">
<g id="Sign" display="none">
	<path display="inline" fill="#A66C78" d="M328.2,274.6L328.2,274.6c-0.7,0.1-1.2-0.4-1.2-1.1v-34.1c0-0.5,0.4-1,0.9-1.1l0,0
		c0.7-0.1,1.2,0.4,1.2,1.1v34.1C329,274.1,328.6,274.6,328.2,274.6z"/>
	<path display="inline" fill="#864A54" d="M327.8,238.5c-0.1,0-0.1,0-0.1,0.1c0.4,0.1,0.7,0.5,0.7,1.1v34.1c0,0.5-0.3,0.9-0.8,1.1
		c0.2,0.1,0.3,0.1,0.5,0.1c0.5-0.1,0.9-0.5,0.9-1.1v-34.1C329,238.9,328.4,238.3,327.8,238.5z"/>
</g>
<g id="Sign_2" display="none">
	<path display="inline" fill="#A66C78" d="M339.2,253.5h-23.5c-0.3,0-0.5-0.1-0.7-0.3l-3.6-3.1c-0.4-0.4-0.5-1.1-0.1-1.4l3.6-3.6
		c0.2-0.2,0.5-0.3,0.7-0.3h23.5c0.3,0,0.5,0.1,0.7,0.3l3.3,3.4c0.4,0.4,0.4,1,0,1.4l-3.3,3.4C339.8,253.4,339.5,253.5,339.2,253.5z"
		/>
	<polygon display="inline" fill="#864A54" points="336.3,247.2 336.3,251.2 339.4,249.2 	"/>
	<polygon display="inline" fill="#864A54" points="319.2,251.2 319.2,247.2 316.1,249.2 	"/>
	<rect x="318.7" y="248.4" display="inline" fill="#864A54" width="17.9" height="1.4"/>
</g>
<g id="Target" display="none">
	<path display="inline" opacity="0.37" fill="#232121" enable-background="new    " d="M110,293c-5.5,0.7-13.4-4.4-13-7.5
		c0.5-3.1,8.5-2.9,16.1-1.8C120.7,284.8,138.8,289.1,110,293z"/>
	<path display="inline" fill="#3B2722" d="M125,287.5l-13.6-14.9l1.1-0.9l13.9,15.6C126.3,287.3,126,287.9,125,287.5z"/>
	<path display="inline" fill="#3B2722" d="M107.5,292.8l6.4-20.3l-0.9-0.8l-7,21C106,292.8,106.6,293.6,107.5,292.8z"/>
	<path display="inline" fill="#3B2722" d="M97.6,285.5l15.3-16.6l-0.3-1.2l-16,17C96.5,284.7,96.6,285.7,97.6,285.5z"/>
	<path display="inline" fill="#792914" d="M124.7,267c-1.1-8.9-7-15.6-14-16.4l-0.1-0.3l-2.8,0.3h-0.1h-0.1h-0.2l0,0
		c-8,1.1-13.5,9.9-12.4,19.9c1.2,9.9,8.6,17.2,16.6,16.5l0,0l3.2-0.4l-0.1-0.3C121.5,283.8,125.8,275.9,124.7,267z"/>
	
		<ellipse transform="matrix(-0.1162 -0.9932 0.9932 -0.1162 -140.783 411.6229)" display="inline" fill="#F15128" cx="112.7" cy="268.4" rx="18.3" ry="14.9"/>
	
		<ellipse transform="matrix(-0.1162 -0.9932 0.9932 -0.1162 -140.783 411.6229)" display="inline" fill="#EFF0F0" cx="112.7" cy="268.4" rx="14.5" ry="11.8"/>
	
		<ellipse transform="matrix(-0.1162 -0.9932 0.9932 -0.1162 -140.783 411.6229)" display="inline" fill="#F15128" cx="112.7" cy="268.4" rx="10.1" ry="8.2"/>
	
		<ellipse transform="matrix(-0.1162 -0.9932 0.9932 -0.1162 -140.783 411.6229)" display="inline" fill="#EFF0F0" cx="112.7" cy="268.4" rx="6.1" ry="5"/>
	<path display="inline" opacity="0.1" fill="#232121" enable-background="new    " d="M120.4,253.1l-14.5,31.1
		c2.7,1.8,5.9,2.8,9.1,2.4c8.2-1,13.9-9.9,12.7-19.9C126.9,261,124.2,256.1,120.4,253.1z"/>
	
		<ellipse transform="matrix(-0.1162 -0.9932 0.9932 -0.1162 -140.783 411.6229)" display="inline" fill="#F15128" cx="112.7" cy="268.4" rx="2.5" ry="2"/>
	<polygon display="inline" opacity="0.3" fill="#232121" enable-background="new    " points="112.8,268.5 122.9,282.5 123.2,282.1 
		112.7,268.2 	"/>
</g>
<g id="Arrow" display="none">
	<polygon display="inline" fill="#CFCFD0" points="126.5,262.5 126.9,258.8 131.7,257.3 131.4,260.5 133.7,262.8 128.7,265 	"/>
	<polygon display="inline" fill="#554835" points="112.8,268.5 112.7,268.2 132.7,259.6 132.9,260.2 	"/>
	<polygon display="inline" fill="#A4A5A8" points="127.1,258.7 127.1,261.2 127.7,258.5 	"/>
	<polygon display="inline" fill="#A4A5A8" points="128.1,258.4 128.3,260.3 128.6,258.3 	"/>
	<polygon display="inline" fill="#A4A5A8" points="129.1,258.1 129.2,260.5 129.6,257.9 	"/>
	<polygon display="inline" fill="#A4A5A8" points="130.4,257.7 130.3,259.8 131.5,257.3 	"/>
	<polygon display="inline" fill="#A4A5A8" points="129,264.8 127.9,262.7 129.1,264.3 128.9,263.3 129.6,264.5 	"/>
	<polygon display="inline" fill="#A4A5A8" points="130.3,264.2 128.9,262.2 131.1,263.9 130.8,264 130,263.4 130.5,264.2 	"/>
	<polygon display="inline" fill="#A4A5A8" points="132.3,263.4 130.8,261.7 132.5,263.3 	"/>
</g>
<g>
	<path fill="#EBB642" d="M488.9,320.7c3,0,7.4,3.3,8,3.9c0.7,0.8-0.4,4.7-0.4,4.7c-0.1,0-0.1,0-0.2,0c-0.1,0-0.2,0-0.3,0
		c0,0,0,0,0,0c0.1,0,0.2,0,0.3,0c0.2,0,0.3,0,0.5,0.1c0.6,0.4,0.7,1.2,0.2,1.9c-0.3,0.5-0.8,0.8-1.3,0.8c0,0,0,0,0,0h0.1
		c0,0-0.3,2.6-0.9,2.7c0,0-0.1,0-0.1,0c-0.2,0.9-0.3,1.6-0.4,2.2c1.8,0.2,3,0.4,4.4,1.4c0,0,0,0,0,0c0-1.3,0.2-2.7,0.4-3.5
		c0-0.1-0.1-0.2-0.1-0.3c-0.7-2.6,0.6-3.7,1.9-4.2c0.8-0.4,1.8-0.7,2.8-0.7c1.6,0,3.3,0.6,5,2.2c0,0,2.8,2.9-0.2,11.8
		c0,0-0.6,0.1-1.5,0.1c-0.1,0-0.3,0-0.4,0c0,0.4-0.1,0.7-0.1,1c0.6,0.1,1.2,0.2,1.8,0.3c0.5,0.1,0.9,0.3,1.2,0.4
		c0.4,0.1,0.8,0.3,1.2,0.5c0,0,0,0,0,0c1.1,0,2.9,1.7,2.4,3.2c-0.1,0.5-0.4,0.8-0.6,1c0.1,0.2,0.2,0.4,0.2,0.6c0,0,0.1,0.6-1,1.3
		c0.6,2.8,1.1,5.6,0.9,6.6c-0.1,0.4-0.4,1-0.8,1.7c0.2,3.4,0.4,6.5,0.4,8.3c0,0,0,0,0,0c0.1,1.1,0.1,1.8,0.1,1.8
		c-0.2,0.1-0.5,0.1-0.7,0.2c0,9.9-0.4,25.1-0.6,32.8l-0.1,0c0,1.3-0.1,2.4-0.1,3.2c0,0,0,0,0,0c0,0,0.1,0,0.1,0
		c0.1,0,0.3,0.1,0.3,0.2c0,0.9-0.1,1.4-0.1,1.4c-0.3,0.4-4,0.9-6.3,0.9c-0.7,0-1.3,0-1.6-0.1c0,0,0,0,0,0l-0.1,0
		c-0.8-1.1,1.1-2.2,4.1-2.6c0.5-0.1,0.8-0.4,0.9-0.9c0.1-0.5,0.1-1.2,0-2.2l0.1,0c-0.3-5.2-1.9-15.8-3-24.9
		c-0.8,9.1-1.7,18.7-2.2,24.3l0,0c-0.1,1-0.2,1.9-0.2,2.6c0,0,0,0,0.1,0c0.1,0,0.3,0.1,0.3,0.2c0,0.9-0.2,1.8-0.2,1.8
		c-0.3,0.4-4,0.9-6.3,0.9c-0.7,0-1.3,0-1.6-0.1c-0.1-0.1-0.1-0.2-0.2-0.4c-1.3,0.1-2.6,0.2-3.5,0.2c-0.5,0-0.9,0-1-0.1
		c-1-2,3.7-3.1,5.4-3.2c0,0,0,0.1,0,0.1c0.1,0,0.2,0,0.3,0l0-0.4c-0.1-0.1-0.2-0.2-0.2-0.3l-3.5-25.3l-2.5,24.5
		c0,0.1-0.1,0.3-0.3,0.3c0,0,0,0-0.1,0c0,0.1,0,0.3,0,0.4c0,0.3,0,0.6,0.1,0.9c0.1,0,0.2,0.1,0.2,0.2c0.1,0.4,0.1,1.3,0.1,1.3
		c-0.4,0.3-5.4,0.6-7.9,0.6c-0.7,0-1.2,0-1.3-0.1c-0.9-1.8,3.7-2.8,5.5-2.9c0,0,0,0,0,0c0.1,0,0.2,0,0.3,0l0-0.4c-0.1,0-0.1,0-0.1,0
		c-0.1-0.1-0.3-0.2-0.3-0.4l0.8-39.5c0,0,0,0-0.1,0c-0.1-0.1-0.3-0.3-0.3-0.4c-1.1-3.6-1.6-8.2-1.8-12.1c-0.2,0.1-0.3,0.2-0.5,0.3
		c0.1,0.1,0.1,0.2,0,0.3c-0.1,0.3-0.3,0.6-0.7,0.8c-0.2,0.1-0.5,0.4-0.7,0.6c-0.1,0-0.2,0.1-0.3,0.1c0,0-0.1,0-0.1,0
		c-2.6,2.6-5.4,4.5-5.4,4.5c-1,2.7-3.8,4.8-4.9,4.8c-0.1,0-0.2,0-0.3-0.1c-0.9-0.5-0.7-1.7,0.3-2.4c0.7-0.6,1.5-1.5,0.9-1.5
		c-0.1,0-0.2,0-0.4,0.1c-0.2,0.1-0.4,0.1-0.6,0.1c-0.4,0-0.7-0.2-0.7-0.4c-0.1-0.3,0.3-0.5,0.7-0.6c0.9-0.1,3.2-1.6,3.2-1.6
		c1.6-1.3,3.3-3.1,4.8-4.9c-0.1-0.1-0.1-0.1-0.1-0.2c-0.1-0.2-0.1-0.5,0.1-0.6c0.1-0.1,0.3-0.3,0.5-0.7c0.1-0.1,0.1-0.3,0.2-0.4
		c0.1-0.1,0.2-0.2,0.4-0.2c0.1,0,0.2,0,0.3,0.1c0.6-3.2,4.2-10.6,7.2-11.8c0,0,0,0,0,0.1c0.6-0.4,1.3-0.6,2.1-0.8c0,0,0,0.2,0.1,0.4
		c0-0.1-0.1-0.3-0.1-0.4c-0.1-0.9-0.1-1.6-0.7-1.6c0,0,0,0,0,0c-4.3,0-2.6-8.9-2.5-8.9c0.1-0.4,0.3-0.8,0.5-1.1
		c-0.1-0.1-0.2-0.1-0.2-0.1s-2.7-1.4-0.9-3.7C487.2,321,488,320.7,488.9,320.7 M499,405.7c0,0,0.1,0,0.1,0c0,0,0.1,0,0.1,0
		c0.1,0,0.1,0,0.2,0c0.5-0.1,0.8-0.4,0.8-0.9l-0.1-2l0,0l-1.1-31.8c0,0,0,0,0,0l0.2,33c0,0.1-0.1,0.3-0.3,0.4c0,0,0,0,0,0
		c0,0.1,0,0.1,0,0.2C499,405,499,405.3,499,405.7 M488.9,317.7c-1.9,0-3.5,0.8-4.6,2.2c-1.3,1.7-1.3,3.3-1.1,4.4
		c0.2,0.9,0.6,1.6,1,2.2c-0.1,0.6-0.2,1.5-0.3,2.6c-0.2,2.4,0.1,4.4,0.7,5.9c0.2,0.5,0.5,0.9,0.7,1.3c-3.1,2.6-5.6,7.8-6.7,11.1
		c-0.3,0.3-0.6,0.6-0.8,1.1l-0.1,0.2l0,0c-0.5,0.5-0.9,1.1-1,1.8c0,0.1,0,0.2-0.1,0.3c-1.1,1.3-2.3,2.4-3.4,3.3
		c-0.8,0.5-1.7,1-2,1.1c-1.2,0.2-2.2,1-2.7,1.9c-0.5,0.9-0.5,1.9-0.1,2.8c0,0.1,0.1,0.2,0.1,0.3c-0.3,0.6-0.4,1.3-0.3,1.9
		c0.1,1.4,0.8,2.6,2,3.3c0.6,0.3,1.2,0.5,1.9,0.5c2.5,0,5.9-2.7,7.4-5.9c0.6-0.5,1.7-1.3,2.8-2.2c0.3,2.2,0.7,4.5,1.4,6.6
		c0,0.2,0.1,0.3,0.2,0.5c0,0,0,0.1,0.1,0.1l-0.7,36.7c-1.9,0.4-4.1,1.3-5.1,3c-0.7,1.2-0.7,2.5-0.1,3.8c0.3,0.6,0.8,1.1,1.3,1.3
		c0.7,0.3,1.4,0.4,2.7,0.4c1.3,0,3.2-0.1,4.9-0.2c0.4,0,0.8-0.1,1.1-0.1c0.2,0.2,0.4,0.4,0.6,0.6c0.8,0.6,1.8,0.6,2.7,0.6
		c0.6,0,1.5,0,2.4-0.1c0.1,0.1,0.3,0.1,0.4,0.1c0.6,0.2,1.4,0.3,2.4,0.3c1,0,2.7,0,4.3-0.3c0.5,0.6,1.2,0.9,1.9,1
		c0.6,0.1,1.2,0.2,2.1,0.2c2.1,0,7.3-0.2,8.7-2.1c0.3-0.4,0.5-0.9,0.6-1.4c0-0.1,0.1-0.8,0.1-1.8c0-0.5-0.1-1-0.3-1.4
		c0-0.4,0-0.9,0-1.3c0-0.2,0.1-0.4,0.1-0.6c0.2-6.4,0.5-20.8,0.6-31.1c0.5-0.5,0.7-1.2,0.7-1.9c0,0,0-0.8-0.1-2c0-0.1,0-0.1,0-0.2
		c-0.1-1.8-0.2-4.4-0.4-7.2c0.4-0.7,0.7-1.4,0.8-1.9c0.2-1.2,0-3.2-0.6-6.2c0.6-0.8,0.8-1.6,0.7-2.3c0.1-0.2,0.2-0.4,0.3-0.7
		c0.5-1.5,0.1-3.2-0.9-4.6c-0.7-1-1.9-2-3.3-2.3c2.6-9-0.3-12.6-1-13.3c0,0,0,0-0.1-0.1c-2.6-2.5-5.3-3.1-7.1-3.1
		c-1.3,0-2.7,0.3-3.9,0.8c0.6-3.5-0.4-4.5-0.9-5C498.6,322,493.4,317.7,488.9,317.7L488.9,317.7z"/>
</g>
<g id="Stage" display="none">
	<path display="inline" fill="#EABA7E" d="M610,258.6H591l-0.6-5.7h-17l-0.9,8.5h-19.3l-1.6,8.7c14.3-1.2,37.9-3.3,60.7,2.3
		L610,258.6z"/>
	<path display="inline" fill="#B08B5F" d="M580.6,266v-7.4h-1.5v-2.8h5.1V266L580.6,266L580.6,266z"/>
	<path display="inline" fill="#B08B5F" d="M603.8,267.5h-6.4l3.7-4.1c0.2-0.2,0.3-0.5,0.3-0.7c0-0.2-0.1-0.3-0.2-0.5
		c-0.1-0.1-0.3-0.2-0.5-0.2c-0.3,0-0.5,0.1-0.6,0.3c-0.1,0.2-0.1,0.4-0.1,0.5h-2.3c0-0.3,0.1-0.5,0.1-0.9c0.1-0.3,0.2-0.6,0.4-0.9
		s0.5-0.6,0.9-0.8c0.4-0.2,1-0.3,1.6-0.3s1.2,0.1,1.7,0.3c0.5,0.2,0.8,0.5,1.1,0.9c0.3,0.3,0.3,0.8,0.3,1.2c0,0.3-0.1,0.6-0.1,0.9
		c-0.1,0.3-0.2,0.5-0.4,0.7c-0.1,0.2-0.3,0.5-0.5,0.7c-0.2,0.2-0.5,0.5-0.9,0.8h1.8L603.8,267.5L603.8,267.5z"/>
	<path display="inline" fill="#B08B5F" d="M563.2,265.6h-0.3v-1.1h0.3c0.3,0,0.5-0.1,0.5-0.4c0-0.1-0.1-0.2-0.1-0.3
		c-0.1-0.1-0.2-0.1-0.3-0.1c-0.2,0-0.3,0.1-0.3,0.1c-0.1,0.1-0.1,0.2-0.1,0.3h-1.6c0.1-0.5,0.3-0.9,0.5-1.2c0.3-0.4,0.9-0.5,1.6-0.5
		c0.4,0,0.7,0.1,1.1,0.2c0.3,0.1,0.6,0.3,0.7,0.5c0.2,0.2,0.3,0.5,0.3,0.8c0,0.2-0.1,0.4-0.1,0.5c-0.1,0.1-0.2,0.3-0.3,0.4
		c-0.1,0.1-0.3,0.1-0.5,0.2l0,0c0.1,0.1,0.3,0.1,0.5,0.2c0.1,0.1,0.3,0.2,0.4,0.4s0.2,0.4,0.2,0.7c0,0.3-0.1,0.5-0.2,0.8
		c-0.1,0.3-0.4,0.5-0.7,0.6c-0.3,0.1-0.8,0.3-1.4,0.3c-0.8,0-1.3-0.2-1.6-0.6c-0.3-0.4-0.5-0.9-0.5-1.3h1.7c0,0.1,0.1,0.3,0.1,0.4
		c0.1,0.1,0.2,0.2,0.5,0.2c0.3,0,0.5-0.1,0.5-0.5C563.8,265.7,563.6,265.6,563.2,265.6z"/>
</g>
<g id="Pump_Dynamic" display="none">
	<rect x="689.4" y="282.9" display="inline" fill="#6B6C6F" width="2.2" height="25.1"/>
	<path display="inline" fill="#414042" d="M698.6,284.5h-16.1c-0.9,0-1.6-0.7-1.6-1.6l0,0c0-0.9,0.7-1.6,1.6-1.6h16.1
		c0.9,0,1.6,0.7,1.6,1.6l0,0C700.2,283.8,699.4,284.5,698.6,284.5z"/>
	<path display="inline" fill="#676668" d="M699.3,281.4h-5.8c0.7,0,1.1,0.7,1.1,1.6c0,0.9-0.5,1.6-1.1,1.6h5.8
		c0.7,0,1.1-0.7,1.1-1.6C700.4,282.1,699.9,281.4,699.3,281.4z"/>
	<rect x="690.9" y="284.5" display="inline" fill="#89898C" width="0.7" height="19.3"/>
</g>
<g id="Pump" display="none">
	<ellipse display="inline" opacity="0.48" fill="#3C3939" enable-background="new    " cx="690.5" cy="331" rx="9.8" ry="1.2"/>
	<rect x="686.5" y="304" display="inline" fill="#FF882A" width="8" height="27.4"/>
	<rect x="685.4" y="328.5" display="inline" fill="#57585A" width="10.3" height="2.9"/>
	<rect x="685.4" y="303.8" display="inline" fill="#57585A" width="10.3" height="4.2"/>
	<rect x="692.6" y="303.8" display="inline" fill="#6B6C6F" width="3.1" height="4.2"/>
	<rect x="692.3" y="328.5" display="inline" fill="#6B6C6F" width="3.3" height="2.9"/>
	<rect x="693.4" y="308" display="inline" fill="#FFA55E" width="1.1" height="20.4"/>
</g>
<g id="Balloons_R_1" display="none">
	<path display="inline" fill="#909093" d="M796.4,344.9c-1.9-12.7-0.5-39.9-0.5-40.2h0.2c0,0.3-1.4,27.5,0.5,40.1L796.4,344.9z"/>
	<path display="inline" fill="#A7A6F6" d="M804.2,294.4c0,4.9-3.9,13.1-8.8,13.1c-4.9,0-8.8-8.2-8.8-13.1s3.9-8.8,8.8-8.8
		C800.2,285.6,804.2,289.6,804.2,294.4z"/>
	<path display="inline" fill="#9190DB" d="M803,295.5c0,2.8-1.1,6.4-2.8,9.4c2.4-2.8,4.1-7.3,4.1-10.5c0-4.7-3.7-8.6-8.4-8.8
		C799.9,287,803,290.9,803,295.5z"/>
	<path display="inline" fill="#CACAFA" d="M790,292.4c-0.8,2.4-0.7,4.7-1.5,4.5c-0.9-0.3-1.6-2.4-0.8-4.9s2.8-4.1,3.6-3.9
		C792.1,288.5,790.7,290.1,790,292.4z"/>
	<path display="inline" opacity="0.52" fill="#FFFFFF" enable-background="new    " d="M792.8,308.8c0.3-1.1,0.2-2.2,0.6-2
		c0.4,0.1,0.4,1,0.1,2.1s-0.9,2-1.2,1.9C791.9,310.7,792.5,309.9,792.8,308.8z"/>
	<polygon display="inline" fill="#4C568E" points="802.1,316.2 801,317.4 802.8,317.7 	"/>
	<ellipse display="inline" opacity="0.48" fill="#3C3939" enable-background="new    " cx="796.6" cy="349.7" rx="12.6" ry="1.2"/>
</g>
<g id="Balloons_R_2" display="none">
	<path display="inline" fill="#909093" d="M796.6,347.5c-1.2-18.9-5.5-32.5-5.6-32.7l0.2-0.1c0.1,0.1,4.3,13.8,5.6,32.7L796.6,347.5
		z"/>
	<path display="inline" fill="#FFDF57" d="M793.1,302.7c1.5,4.6,0.4,13.7-4.3,15.2c-4.6,1.5-11-5-12.5-9.7c-1.5-4.6,1-9.6,5.6-11.2
		S791.6,298,793.1,302.7z"/>
	<path display="inline" fill="#EBCB44" d="M792.3,304c0.9,2.6,1,6.4,0.3,9.8c1.4-3.4,1.6-8.2,0.6-11.2c-1.5-4.5-6.2-7-10.7-5.7
		C786.8,296.9,790.9,299.7,792.3,304z"/>
	<path display="inline" fill="#FFEC9A" d="M779.5,305.1c0,2.5,0.9,4.7,0,4.7s-2.3-1.8-2.3-4.3s1.4-4.8,2.2-4.8
		S779.4,302.6,779.5,305.1z"/>
</g>
<g id="Balloons_R_3" display="none">
	<path display="inline" fill="#909093" d="M796.2,341.3H796c0.2-15.8,5.7-23.7,5.8-23.7l0.1,0.1
		C801.9,317.7,796.4,325.5,796.2,341.3z"/>
	<path display="inline" fill="#75AEB9" d="M814.2,308.4c-1.4,4.7-7.8,11.2-12.4,9.8c-4.7-1.4-5.9-10.5-4.5-15.1
		c1.4-4.7,6.4-7.2,11.1-5.7C813.1,298.8,815.7,303.8,814.2,308.4z"/>
	<path display="inline" fill="#639FAB" d="M812.8,309.1c-0.9,2.6-3,5.7-5.5,8.1c3.2-2,6.1-5.7,7-8.7c1.4-4.5-0.9-9.3-5.3-10.9
		C812.5,300.1,814.1,304.7,812.8,309.1z"/>
	<path display="inline" fill="#ACCED5" d="M801.5,303.1c-1.4,2-2,4.3-2.8,3.8c-0.7-0.5-0.8-2.8,0.7-4.9c1.5-2,3.9-3.1,4.6-2.6
		C804.8,299.9,803,301.1,801.5,303.1z"/>
</g>
<g id="Balloons_R_4" display="none">
	<path display="inline" fill="#96CD7C" d="M803.6,316.9c0,4.9-3.9,13.1-8.8,13.1c-4.9,0-8.8-8.2-8.8-13.1c0-4.9,3.9-8.8,8.8-8.8
		C799.7,308,803.6,312,803.6,316.9z"/>
	<path display="inline" fill="#83BF66" d="M802.4,317.9c0,2.8-1.1,6.4-2.8,9.4c2.4-2.8,4.1-7.3,4.1-10.5c0-4.7-3.7-8.6-8.4-8.8
		C799.5,309.4,802.4,313.3,802.4,317.9z"/>
	<path display="inline" opacity="0.52" fill="#FFFFFF" enable-background="new    " d="M790,315.7c-0.8,2.4-0.7,4.7-1.5,4.5
		c-0.9-0.3-1.6-2.4-0.8-4.9s2.8-4.1,3.6-3.9C792.1,311.6,790.7,313.2,790,315.7z"/>
</g>
<g id="Balloons_L_1" display="none">
	<path display="inline" fill="#909093" d="M346.1,340c-1.5-10.2-0.4-32-0.4-32.3h0.1c0,0.2-1.1,22,0.4,32.2L346.1,340z"/>
	<path display="inline" fill="#A7A6F6" d="M352.3,299.5c0,3.9-3.2,10.5-7.1,10.5c-3.9,0-7.1-6.6-7.1-10.5s3.2-7.1,7.1-7.1
		C349.2,292.4,352.3,295.5,352.3,299.5z"/>
	<path display="inline" fill="#9190DB" d="M351.4,300.3c0,2.2-0.9,5.1-2.2,7.6c2-2.3,3.3-5.9,3.3-8.3c0-3.8-3-6.9-6.7-7.1
		C349,293.5,351.4,296.6,351.4,300.3z"/>
	<path display="inline" fill="#CACAFA" d="M340.9,297.9c-0.7,1.9-0.5,3.8-1.2,3.6c-0.7-0.2-1.2-2-0.7-3.9c0.6-1.9,2.2-3.3,2.9-3.1
		C342.6,294.7,341.5,295.9,340.9,297.9z"/>
	<polygon display="inline" fill="#855749" points="341.5,314.8 341.2,316 342.6,315.6 	"/>
	<ellipse display="inline" opacity="0.48" fill="#3C3939" enable-background="new    " cx="346.3" cy="343.9" rx="10.2" ry="1"/>
</g>
<g id="Balloons_L_2" display="none">
	<path display="inline" fill="#909093" d="M346.3,342c-1-15.2-4.4-26.1-4.5-26.2l0.1-0.1c0.1,0.1,3.5,11.1,4.5,26.2L346.3,342z"/>
	<path display="inline" fill="#FFDF57" d="M343.4,306.1c1.2,3.7,0.3,11-3.4,12.2c-3.7,1.2-8.8-4-10.1-7.8c-1.2-3.7,0.8-7.7,4.5-8.9
		C338.2,300.3,342.2,302.4,343.4,306.1z"/>
	<path display="inline" fill="#EBCB44" d="M342.8,307.2c0.7,2.1,0.8,5.1,0.3,7.9c1.1-2.8,1.2-6.6,0.5-8.9c-1.2-3.6-5-5.6-8.6-4.6
		C338.4,301.5,341.7,303.6,342.8,307.2z"/>
	<path display="inline" fill="#FFEC9A" d="M332.5,308c0,2,0.7,3.7,0,3.7c-0.7,0-1.8-1.4-1.8-3.5c0-2,1.1-3.9,1.8-3.9
		S332.5,306,332.5,308z"/>
</g>
<g id="Balloons_L_2_1_" display="none">
	<path display="inline" fill="#909093" d="M345.9,337.1h-0.1c0.2-12.7,4.6-19,4.7-19.1l0.1,0.1C350.5,318.2,346.1,324.4,345.9,337.1
		z"/>
	<path display="inline" fill="#75AEB9" d="M360.4,310.7c-1.2,3.7-6.2,9.1-9.9,7.9c-3.7-1.2-4.7-8.4-3.6-12.2
		c1.2-3.7,5.2-5.8,8.9-4.6C359.5,303,361.6,307,360.4,310.7z"/>
	<path display="inline" fill="#639FAB" d="M359.2,311.2c-0.7,2.1-2.4,4.6-4.4,6.5c2.6-1.6,4.9-4.6,5.7-7c1.2-3.6-0.7-7.5-4.3-8.8
		C359,304,360.3,307.7,359.2,311.2z"/>
	<path display="inline" fill="#ACCED5" d="M350.2,306.4c-1.2,1.6-1.6,3.4-2.2,3c-0.6-0.4-0.7-2.2,0.5-3.9c1.2-1.6,3.2-2.5,3.7-2.1
		C352.8,303.9,351.4,304.7,350.2,306.4z"/>
</g>
<g id="Balloons_L_3" display="none">
	<path display="inline" fill="#96CD7C" d="M351.9,317.5c0,3.9-3.2,10.5-7.1,10.5c-3.9,0-7.1-6.6-7.1-10.5s3.2-7.1,7.1-7.1
		C348.8,310.4,351.9,313.5,351.9,317.5z"/>
	<path display="inline" fill="#83BF66" d="M351,318.3c0,2.2-0.9,5.1-2.2,7.6c2-2.3,3.3-5.9,3.3-8.3c0-3.8-3-6.9-6.7-7.1
		C348.6,311.5,351,314.6,351,318.3z"/>
	<path display="inline" opacity="0.52" fill="#FFFFFF" enable-background="new    " d="M340.9,316.4c-0.7,1.9-0.5,3.8-1.2,3.6
		c-0.7-0.3-1.2-2-0.7-3.9c0.6-1.9,2.2-3.3,2.9-3.1C342.6,313.3,341.5,314.5,340.9,316.4z"/>
</g>
</svg>
