<?xml version="1.0" encoding="utf-8"?>
<!-- Generator: Adobe Illustrator 22.1.0, SVG Export Plug-In . SVG Version: 6.00 Build 0)  -->
<svg version="1.1" xmlns="http://www.w3.org/2000/svg" xmlns:xlink="http://www.w3.org/1999/xlink" x="0px" y="0px"
	 viewBox="0 0 1280 800" style="enable-background:new 0 0 1280 800;" xml:space="preserve">
<style type="text/css">
	.st0{fill:#C5E5E5;}
	.st1{fill:#70AB54;}
	.st2{fill:#7FBA63;}
	.st3{fill:#588C40;}
	.st4{fill:#E0C757;}
	.st5{fill:#6D5E21;}
	.st6{fill:#383530;}
	.st7{opacity:0.36;fill:#201600;}
	.st8{fill:#875D46;}
	.st9{fill:#7F7E7C;}
	.st10{fill:#654635;}
	.st11{fill:#D7684B;}
	.st12{fill:#E2E2E2;}
	.st13{fill:#C9C8C8;}
	.st14{fill:#595651;}
	.st15{fill:#A14730;}
	.st16{fill:none;stroke:#595651;stroke-width:3.2318;stroke-miterlimit:10;}
	.st17{fill:none;stroke:#312A20;stroke-width:3.2318;stroke-linecap:round;stroke-linejoin:round;stroke-miterlimit:10;}
	.st18{fill:#262833;}
	.st19{fill:#1E2029;}
	.st20{fill:#363847;}
	.st21{fill:none;stroke:#595651;stroke-width:3.3622;stroke-miterlimit:10;}
	.st22{fill:none;stroke:#312A20;stroke-width:3.3622;stroke-linecap:round;stroke-linejoin:round;stroke-miterlimit:10;}
	.st23{fill:none;stroke:#312A20;stroke-width:2.6628;stroke-linecap:round;stroke-linejoin:round;stroke-miterlimit:10;}
	.st24{fill:#706F6D;}
	
		.st25{fill:none;stroke:#3A3C4D;stroke-width:4;stroke-linecap:round;stroke-linejoin:round;stroke-miterlimit:10;stroke-dasharray:10;}
	
		.st26{fill:none;stroke:#434659;stroke-width:4;stroke-linecap:round;stroke-linejoin:round;stroke-miterlimit:10;stroke-dasharray:10;}
	.st27{fill:#A45B35;}
	.st28{opacity:0.19;fill:#201600;}
	.st29{fill:#E2946B;}
	.st30{fill:#7E4628;}
	.st31{fill:#E1A98B;}
	.st32{fill:#5F351E;}
	.st33{fill:#472816;}
	.st34{display:none;}
	.st35{display:inline;}
	.st36{fill:#FF882A;}
	.st37{fill:#FFFFFF;}
</style>
<g id="Sky">
	<polygon class="st0" points="1280,799 1.5,799.9 0,-0.1 1280,0 	"/>
</g>
<g id="Bush">
	<g>
		<circle class="st1" cx="249.7" cy="417.5" r="224.8"/>
		<circle class="st1" cx="439.5" cy="497.6" r="149.4"/>
		<circle class="st1" cx="577" cy="564" r="96.8"/>
		<circle class="st1" cx="-98.8" cy="524.7" r="96.8"/>
		<circle class="st1" cx="588.9" cy="467.2" r="52"/>
		<circle class="st1" cx="658.1" cy="626.5" r="52"/>
		<circle class="st1" cx="664.8" cy="566.7" r="30.7"/>
		<circle class="st1" cx="24.8" cy="427.9" r="96.8"/>
		<circle class="st1" cx="65.8" cy="547.1" r="148.1"/>
	</g>
	<g>
		<circle class="st1" cx="1197.3" cy="567.5" r="171.4"/>
		<circle class="st1" cx="1333.5" cy="645.8" r="113.9"/>
		<circle class="st1" cx="1431.4" cy="708.8" r="73.8"/>
		<circle class="st1" cx="923.6" cy="616.3" r="73.8"/>
		<circle class="st1" cx="1449.4" cy="636.7" r="39.7"/>
		<circle class="st1" cx="1487" cy="763.7" r="39.7"/>
		<circle class="st1" cx="1497.6" cy="719.1" r="23.4"/>
		<circle class="st1" cx="1026.2" cy="554.5" r="73.8"/>
		<circle class="st1" cx="1046.1" cy="648.6" r="113"/>
	</g>
	<ellipse transform="matrix(0.5569 -0.8306 0.8306 0.5569 -121.3693 396.5202)" class="st2" cx="311" cy="312" rx="72" ry="119.2"/>
	
		<ellipse transform="matrix(0.5569 -0.8306 0.8306 0.5569 -179.5238 362.1242)" class="st2" cx="249.7" cy="349.3" rx="33.9" ry="47.7"/>
	
		<ellipse transform="matrix(0.5569 -0.8306 0.8306 0.5569 -143.4398 542.9034)" class="st2" cx="437.1" cy="405.9" rx="41.6" ry="85.6"/>
	
		<ellipse transform="matrix(0.2704 -0.9627 0.9627 0.2704 458.0878 1516.8104)" class="st2" cx="1229.8" cy="456.2" rx="41.6" ry="85.6"/>
	<ellipse transform="matrix(0.5 -0.866 0.866 0.5 71.2026 1173.5275)" class="st2" cx="1051.9" cy="525.1" rx="24.9" ry="51.3"/>
	<ellipse transform="matrix(0.5 -0.866 0.866 0.5 52.3038 1217.2051)" class="st2" cx="1080.3" cy="563.3" rx="12.2" ry="25.1"/>
	<ellipse transform="matrix(0.5 -0.866 0.866 0.5 182.8967 1213.3986)" class="st2" cx="1142.3" cy="448.3" rx="12.2" ry="25.1"/>
	
		<ellipse transform="matrix(0.7452 -0.6669 0.6669 0.7452 -140.8167 519.4087)" class="st2" cx="609.2" cy="444" rx="13.2" ry="23.7"/>
	<circle class="st3" cx="-52.5" cy="399" r="152.9"/>
	<circle class="st3" cx="132.3" cy="491.6" r="102.6"/>
	<circle class="st3" cx="277.2" cy="547.1" r="125.8"/>
	<circle class="st3" cx="-2" cy="579" r="125.8"/>
	<circle class="st3" cx="153.7" cy="603.8" r="125.8"/>
	<circle class="st3" cx="383.4" cy="650.7" r="81.4"/>
	
		<ellipse transform="matrix(0.5569 -0.8306 0.8306 0.5569 -265.0517 139.2922)" class="st1" cx="-2" cy="318.1" rx="41.6" ry="85.6"/>
	
		<ellipse transform="matrix(0.5569 -0.8306 0.8306 0.5569 -257.2753 477.2101)" class="st1" cx="318.6" cy="479.7" rx="34.6" ry="71.2"/>
	
		<ellipse transform="matrix(0.5569 -0.8306 0.8306 0.5569 -281.2282 434.6253)" class="st1" cx="266.8" cy="480.9" rx="19.6" ry="40.3"/>
	
		<ellipse transform="matrix(0.5569 -0.8306 0.8306 0.5569 -283.6992 323.9388)" class="st1" cx="161.8" cy="427.9" rx="19.6" ry="40.3"/>
	<ellipse transform="matrix(0.5569 -0.8306 0.8306 0.5569 -322.6279 193.2062)" class="st1" cx="19.8" cy="399" rx="45.1" ry="72"/>
</g>
<g id="Ground">
	<path class="st4" d="M1280.1,703.5V800H0l0-187.6C0,612.4,916.5,612.8,1280.1,703.5"/>
	<path class="st2" d="M0,629.5c0,0,780-35,1280.1,74.1l-0.1-21.2c-130.9-38.6-542-97.1-1279.7-92.8L0,629.5z"/>
	<path class="st5" d="M0,636.7c0,0,684.7-20.5,1280.1,66.9c0,0-301.9-105.7-1280.1-91.3L0,636.7z"/>
</g>
<g id="Legs_1_">
	<path class="st6" d="M110.3,506.7c0,0.2,0,0.4,0,0.6c0-0.1,0-0.3,0-0.4C110.3,506.8,110.3,506.8,110.3,506.7z"/>
	<path class="st7" d="M39.5,668.6c-11.3,3.6-22.8,24.7,11.3,31.5c56.4,11.3,204.7,25.4,229.9,1.9c16.3-15.2,90.5-7,102.3-22.8
		c0,0,20.3-28.6-58.5-39.2C250.8,630.2,136,637.7,39.5,668.6z"/>
	<polygon class="st8" points="69.8,618.4 77.8,567.5 138,568 136.1,640.7 94.1,657 	"/>
	<polygon class="st8" points="184.5,602.3 188.8,551 248.9,547.1 252.1,620 211.5,639.1 	"/>
	
		<ellipse transform="matrix(0.7379 -0.6749 0.6749 0.7379 -338.2149 203.0985)" class="st9" cx="92.4" cy="537" rx="9.4" ry="16.4"/>
	<path class="st10" d="M184.8,599.7c0,0,18.1,32.9,66.7,6.1l3.7,20.5c0,0-29.6,12.5-31.6,13.3c-2,0.8-28.4,0.6-28.4,0.6L183,620.8
		L184.8,599.7z"/>
	<path class="st11" d="M163.8,648.9c0,0-6.4,14.2-0.6,26.6c0,0,211,23.6,219.6-8.3l0.3-13.3c0,0,2.4-17.8-54.2-28.7
		c-6.4-1.2-12.7-3-18.9-5.3c-14.2-5.2-38.4-14.7-47.1-21.8c-1.3-1-3.2-0.8-4.1,0.6c-4.6,6.6-18.3,22.1-44.9,21.5
		c-17.4-0.4-25.6-9.4-29.5-18c-2.4-5.3-10-5.4-12.5-0.2C165.9,614.8,159.5,633.2,163.8,648.9z"/>
	<path class="st12" d="M383,653.9l-0.3,13.3c-8.6,31.9-219.6,8.3-219.6,8.3c-5.8-12.3,0.6-26.6,0.6-26.6s12.4,9.5,163.9,11.5
		c0,0,57.8-2.7,47.7-18.3C383.7,648.7,383,653.9,383,653.9z"/>
	<path class="st13" d="M375.3,642.1c7,8.7-12.6,14.4-30,16.6l0,0l1.9,2.3c0,0,5.5,5.4,2.2,20.4c23.6-3.7,31.7-7.7,33.7-15l0.1-13.4
		C383.1,653,384.4,648.5,375.3,642.1z"/>
	<g>
		<path class="st14" d="M285.4,683.8l14.2-12.4c5.2-4.5,12.2-7.1,21.5-8c45.9-4.3,54.9-11.5,56.1-15.4c0.8-2.4-1.1-4.4-2-5.1
			l-0.3-0.3l0.3-0.4l1.2,1c0.7,0.6,1.3,1.2,1.7,2c0.2,0.3,0.3,0.5,0.3,0.6c0.2,0.8,0.2,1.6-0.1,2.5c-2.4,7.4-21.6,12.8-57.1,16.1
			c-9.1,0.8-15.9,3.4-20.9,7.7l-12.7,11.1l-0.5,0.5L285.4,683.8z"/>
	</g>
	<path class="st15" d="M341.8,628c-2.3-0.8-20.7-4.5-27-6.6c-14.8-5-40-14.3-49.1-21.3c-0.3-0.3-0.7-0.4-1.1-0.5l-5.4,9
		c0,0,61.6,21,71.4,22C340.5,631.7,340.8,629.3,341.8,628z"/>
	<ellipse class="st16" cx="274.3" cy="615.3" rx="3" ry="2.9"/>
	<ellipse class="st16" cx="294.1" cy="623.8" rx="3" ry="2.9"/>
	<ellipse class="st16" cx="314.2" cy="630.1" rx="3" ry="2.9"/>
	<path class="st17" d="M274.3,615.3c0,0,2.5-10.3,6.4-9.4"/>
	<path class="st17" d="M300.8,615.9c-5.9,0.6-6.7,7.9-6.7,7.9s-1.4-9.9-12.1-15.2"/>
	<path class="st17" d="M304.7,617.9c0,0,6.6,2,9.5,12.2c0,0,1.9-6.1,5.1-7.2"/>
	<path class="st15" d="M284,659.6l-1.5-0.1c0.2-0.1,16.7-12.6,31.6-16.1c21.3-5.1,27.6-15.2,27.7-15.3l0.7,0.2
		c-0.2,0.5-6.3,11.1-28.1,16.3C299.7,648,284.1,659.5,284,659.6z"/>
	<path class="st12" d="M265.4,599.9c-1.9,5.3-13.7,31.7-52.2,30.8c-32.1-0.7-41.6-18.1-43.7-23.2c0.8-1.9,1.6-3.7,2.5-5.5
		c2.5-5.2,10.1-5.1,12.5,0.2c3.9,8.6,12.1,17.6,29.5,18c26.6,0.6,40.3-14.9,44.9-21.5c0.9-1.3,2.9-1.6,4.1-0.6
		C263.7,598.7,264.5,599.3,265.4,599.9z"/>
	<path class="st10" d="M69.8,618.4c0,0,20.5,28.6,69.1,7.4l-1.5,23.9c0,0-30.9,8.7-33,9.2c-2.1,0.6-28.3-3-28.3-3l-9.6-20.8
		L69.8,618.4z"/>
	<path class="st18" d="M291.4,0l-34.8,582.8c-0.2,3-2.1,5.6-5,6.7c-16.7,5.9-46.4,7.4-64.5-2.6c-2.2-1.2-3.6-3.5-3.8-6L158.4,0
		H291.4z"/>
	<path class="st19" d="M199.6,0h-47.7l31.5,580.9c0.2,2.5,1.6,4.7,3.8,6c2.4,1.3,5,2.4,7.8,3.4L199.6,0z"/>
	<path class="st20" d="M25.3,0l42.8,602c-0.1,3.8,2,7.4,5.4,9.1c13.9,7,48.3,10.8,63.6,4.5c3.1-1.3,5.3-4.1,5.9-7.5L171.3-0.1
		L25.3,0z"/>
	<path class="st18" d="M25.3,0l41.8,576.9l1,25c-0.1,3.8,2,7.4,5.4,9.1c2.1,1.1,4.7,2.1,7.7,3l-8-614L25.3,0z"/>
	<g>
		<path class="st15" d="M189.1,655.9l-1.1-0.1c1-22.3-20.3-43-20.6-43.2l0.4-1.1C168.1,611.8,190.1,633.1,189.1,655.9z"/>
	</g>
	<path class="st11" d="M41.5,664.3c0,0-7.9,14-2.7,26.9c0,0,222.2,39.1,233.9,7.4l1.4-13.4c0,0,3.9-17.9-55.3-33
		c-6.7-1.7-13.3-4-19.6-6.7c-14.6-6.3-39.6-17.7-48.3-25.5c-1.3-1.1-3.3-1-4.4,0.3c-5.4,6.4-21.1,21.1-49.4,18.6
		c-18.4-1.6-26.4-11.3-29.9-20.4c-2.1-5.5-10.2-6.2-13.2-1.1C46.4,629.8,38.2,648,41.5,664.3z"/>
	<path class="st12" d="M274,685.1l-1.4,13.4c-11.6,31.7-233.9-7.4-233.9-7.4c-5.2-12.9,2.7-26.9,2.7-26.9s12.5,10.5,173.2,23.4
		c0,0,61.6,1.4,52-15.1C275.1,679.8,274,685.1,274,685.1z"/>
	<path class="st15" d="M226.1,654.1c-2.4-0.7-4.8-1.3-7.4-2c-6.7-1.7-13.3-4-19.6-6.7c-14.6-6.3-39.6-17.7-48.3-25.5
		c-0.3-0.3-0.7-0.5-1.1-0.6l-2.2,11.4c0,0,57.1,23.5,67,25.4C224.5,657.8,226.1,654.1,226.1,654.1z"/>
	<path class="st13" d="M266.7,672.6c5.8,9.9-14.1,13.4-30.9,14.6l0,0l1.7,2.5c0,0,4.9,6.1,0.2,20.8c19.1-1.2,32.4-4.8,35-11.9
		l1.4-13.4C274,685.1,275.1,679.8,266.7,672.6z"/>
	<path class="st14" d="M168,708.3l16.1-11.6c5.8-4.2,13.5-6.4,23.5-6.6c49.1-1.1,59.2-7.7,60.8-11.6c1-2.4-0.8-4.5-1.7-5.3l-0.3-0.3
		l0.4-0.4l1.2,1.1c0.7,0.6,1.2,1.3,1.6,2.1c0.1,0.3,0.2,0.5,0.3,0.7c0.1,0.8,0,1.7-0.3,2.6c-3.1,7.3-23.9,11.4-61.9,12.3
		c-9.7,0.2-17.1,2.3-22.8,6.3L170.4,708l-0.6,0.5L168,708.3z"/>
	<ellipse class="st21" cx="161.5" cy="638.2" rx="3.1" ry="3"/>
	<ellipse class="st21" cx="181.9" cy="648.2" rx="3.1" ry="3"/>
	<ellipse class="st21" cx="202.7" cy="656" rx="3.1" ry="3"/>
	<path class="st22" d="M161.5,638.2c0,0,3.5-10.3,7.5-9.1"/>
	<path class="st22" d="M189.6,640.7c-6.3,0.1-7.7,7.5-7.7,7.5s-0.7-10.2-11.7-16.3"/>
	<path class="st22" d="M193.6,643c0,0,6.9,2.5,9.1,13c0,0,2.5-6,6-6.9"/>
	<path class="st12" d="M153.2,621.9c-2.5,5.2-17,31.1-57.8,27.5c-34-3-42.7-21.3-44.6-26.7c1-1.9,2-3.7,3-5.4
		c3.1-5.1,11.1-4.4,13.2,1.1c3.5,9,11.5,18.7,29.9,20.4c28.2,2.5,44-12.2,49.4-18.6c1.1-1.3,3.2-1.4,4.4-0.3
		C151.5,620.5,152.3,621.2,153.2,621.9z"/>
	<path class="st15" d="M164.9,683.4l-1.7-0.2c0.2-0.1,18.2-11.8,34.1-15.1c22.6-4.6,28.3-14.2,28.4-14.3l1.1,0.5
		c-0.2,0.4-6,10.1-29.2,14.9C181.9,672.4,165,683.3,164.9,683.4z"/>
	<path class="st15" d="M70.4,671.6l-1.1-0.1c1-22.3-21.2-42.7-21.4-42.9l0.6-1.2C48.7,627.6,71.4,648.7,70.4,671.6z"/>
	<path class="st22" d="M156.3,625.1c0,0-43.7,8.6-31.9,21.2S156.3,625.1,156.3,625.1z"/>
	<path class="st23" d="M265.4,600.1c0,0-25.6,24.2-12.4,27.7C266.2,631.3,265.4,600.1,265.4,600.1z"/>
	<path class="st24" d="M53.9,570.4"/>
	<line class="st25" x1="198.7" y1="2.8" x2="198.6" y2="547.9"/>
	<line class="st26" x1="69.7" y1="2.8" x2="79.3" y2="565.9"/>
	<line class="st20" x1="171.3" y1="-0.1" x2="25.3" y2="0"/>
</g>
<g id="Log">
	<path class="st7" d="M888.9,802.3c195.2-94.4,227-119.6,227-119.6s-171.3,60-337.9,119.6H888.9z"/>
	<path class="st27" d="M866,799.5L1116,682.7c-21.8-106.4-108.7-114.5-108.7-114.5l-597.1,22.4l167.6,208.8H866z"/>
	<path class="st28" d="M866,799.5L1116,682.7c-6.6-32.5-19.1-55.6-33.5-72.3c-189.1,82-486.5,84.5-490.4,83.2
		c0,0-11.9,32.8-29.3,81.2l18.9,24.7H866z"/>
	<path class="st29" d="M639.8,799.5c-20.8-71.6-66.5-163.4-166.5-195.8C307.8,549.9,168.7,690,94,799.5H639.8z"/>
	<path class="st30" d="M647.9,799.5l230.6-71.7c0,0-264.1,36.9-272.5,41.7l12.5,30H647.9z"/>
	<polygon class="st30" points="538.3,636.5 738.6,644.9 525.9,666.4 	"/>
	<path class="st31" d="M144,799.5c48.4-76.6,132.1-163.8,262.2-162c111.3,1.6,169.5,88.8,198.8,162h28.8
		c-20.4-74.9-65.3-170.2-162.6-188.1C287.2,577.6,169,701,105.8,799.5H144z"/>
	<path class="st30" d="M842.4,669.6c2.7,1.8,82.2-20.5,176.8-28.1L842.4,669.6z"/>
	<path class="st30" d="M920.9,710.4c2.7-6.8,95.1-53.5,136.3-51.4L920.9,710.4z"/>
	<path class="st30" d="M559.9,666.5c-3.7,1.8-23.5,23.1-23.5,23.1l5.3-37.9L559.9,666.5z"/>
	<polygon class="st30" points="184,708.5 227.6,735.2 210.3,687.1 	"/>
	<path class="st27" d="M240.4,702.3c0,0,137.7-116.9,274.7-37.8C515,664.5,403.1,621.7,240.4,702.3z"/>
	<path class="st30" d="M1032.6,575c-1.4-0.5-185.4,15.7-182.7,16.1c2.7,0.4,194.1-11,194.1-11L1032.6,575z"/>
	<polygon class="st30" points="1066,594.4 1028.6,602.1 1075.2,602.6 	"/>
	<path class="st30" d="M657.3,705.2c0,0,142.6-26.9,146.8-26.5C808.3,679.1,740.6,709.6,657.3,705.2z"/>
	<polygon class="st30" points="1113.1,670.7 1028,724.7 1116,682.7 	"/>
	<path class="st30" d="M1008.1,592.3l-135.4,16.1C872.7,608.4,963.9,610,1008.1,592.3z"/>
	<path class="st30" d="M746.5,611.8c3.7-3.1-74.2-44.4-89.4-82.2l-30.8,46.3c0,0,34.4,15,30.1,42.8
		C656.4,618.7,703.5,648.5,746.5,611.8z"/>
	<path class="st32" d="M642.8,562.8c0,0,31.5,16.4,48.8,31.1c0,0-41.8-34.6-42.2-34.8C649,558.8,642.8,562.8,642.8,562.8z"/>
	<path class="st31" d="M657.1,529.6c8.1,8.9-14.9,70.4-36.1,40.7C608.5,552.8,641.5,517.1,657.1,529.6z"/>
	<path class="st29" d="M649.3,539.1c4.7,5.1-8.7,40.8-20.9,23.6C621.2,552.5,640.2,531.9,649.3,539.1z"/>
	<polygon class="st32" points="651.9,561 643.2,558.7 649.1,566.1 652.3,565.4 	"/>
	<path class="st33" d="M1037,607.4"/>
	<path class="st27" d="M511.9,799.5h49.8c-20.6-44.7-57.5-89.6-124.8-99.5C436.9,700,489.9,729.2,511.9,799.5z"/>
	<path class="st31" d="M264.5,799.5c38.1-40.7,89.1-75.2,148.8-66.3c46.8,7,78.6,35.1,99.9,66.3h50.7
		c-21.8-48.7-62.9-96.8-142.4-108.1c-87.9-12.4-164.6,47.9-217.7,108.1H264.5z"/>
	<path class="st30" d="M114.9,799.5c68.8-96.2,188.7-215.1,346.8-182.2c104.2,21.7,151,111,171.9,182.2h6.7
		c-22.7-81.2-76-188.5-200.2-205.4C273.2,571.4,156.2,699.4,91.5,799.5H114.9z"/>
	<polygon class="st30" points="635.5,799.5 633.9,778.8 624.1,766.7 587.7,799.5 	"/>
	<path class="st30" d="M830.4,799.5h33.9l139.9-65C964.5,735.9,895.2,766.2,830.4,799.5z"/>
</g>
<g id="Слой_6" class="st34">
	<g class="st35">
		<path class="st36" d="M1250,736.5l-31.2-28.8c-2.2-2-5.9-0.6-5.9,2.2v9.8c0,1.7-1.5,3.1-3.5,3.1h-36.6c-1.9,0-3.5,1.4-3.5,3.1
			v25.4c0,1.7,1.5,3.1,3.5,3.1h36.6c1.9,0,3.5,1.4,3.5,3.1v9.8c0,2.8,3.8,4.2,5.9,2.2l31.2-28.8
			C1251.3,739.6,1251.3,737.7,1250,736.5z"/>
		<g>
			<path class="st37" d="M1228.7,710.1c5.6,4,11.1,8.2,16.6,12.4c2.7,2.1,5.4,4.2,8.1,6.4c2.7,2.1,5.4,4.3,8.1,6.4
				c1.1,0.9,1.3,2.4,0.4,3.5l-0.1,0.1l-0.1,0.1c-2.4,2.8-4.8,5.4-7.3,8.1c-2.5,2.6-5,5.3-7.5,7.9c-5.1,5.2-10.4,10.2-16.1,14.8
				c-2.9,2.3-5.8,4.6-9.3,6.5c-0.9,0.5-1.8,0.9-2.8,1.3c-1,0.4-2.1,0.8-3.5,0.9c-0.8,0.1-1.4,0-2.1-0.1c-0.7-0.1-1.4-0.3-2.1-0.6
				c-1.4-0.6-2.5-1.7-3.2-2.8c-1.5-2.2-1.9-4.4-2.1-6.4c-0.2-2-0.2-4-0.1-5.9c0.3-3.8,0.9-7.5,1.8-11.1l2.5,2.9
				c-5.4,0.1-10.8,0.3-16.3,0.7c-5.5,0.3-10.9,0.9-16.5,0.8c-2.8-0.1-5.6-0.3-8.4-1c-0.3-0.1-0.7-0.2-1-0.3l-0.5-0.2
				c-0.1,0-0.2-0.1-0.4-0.2c-0.1-0.1-0.2-0.1-0.3-0.2c-0.8-0.6-1.1-1.3-1.5-2c-0.7-1.3-1.1-2.7-1.5-4c-1.5-5.4-2.2-10.9-2.3-16.6
				c0-2.8,0.1-5.7,0.8-8.6c0.3-1.4,0.8-2.9,1.5-4.3c0.4-0.7,0.8-1.4,1.3-2.1c0.5-0.7,1.2-1.3,1.9-1.8c1.4-1,2.9-1.7,4.4-2.2
				c1.5-0.5,3-0.8,4.5-0.9c2.9-0.3,5.8-0.3,8.6-0.2c11.2,0.8,21.9,2.9,32.6,3.6l-1.8,3.4c-1.2-1.9-2.3-3.8-3.2-5.8
				c-0.9-2-1.8-4.1-2.1-6.6c0-0.6,0-1.3,0.2-2.1c0.2-0.7,0.7-1.6,1.4-2c0.7-0.5,1.4-0.6,2.1-0.6c0.7,0,1.2,0.1,1.8,0.2
				c2.3,0.5,4.2,1.5,6.1,2.5c0.1,0.1,0.2,0.3,0.1,0.4c-0.1,0.1-0.2,0.2-0.4,0.1c-1-0.3-2-0.6-3.1-0.8c-1-0.2-2-0.4-3-0.4
				c-0.9,0-1.9,0.1-2.2,0.5c-0.2,0.2-0.2,0.3-0.2,0.6c0,0.3,0,0.7,0.1,1.1c0.4,1.7,1.4,3.5,2.4,5.2c1.1,1.7,2.2,3.4,3.5,5
				c0.7,0.9,0.6,2.3-0.3,3c-0.4,0.3-0.8,0.5-1.3,0.5l-0.2,0c-2.8,0-5.6-0.1-8.3-0.2c-2.8-0.2-5.5-0.4-8.3-0.7
				c-5.5-0.6-10.9-1.2-16.2-1.5c-2.7-0.2-5.3-0.3-7.8-0.2c-2.5,0.2-4.9,0.6-6.7,1.7c-1.7,1-2.9,3.1-3.7,5.5c-0.8,2.4-1.3,5-1.5,7.7
				c-0.3,9.7-0.8,25.5,13,22.2c2.7-0.1,5.4-0.4,8.1-0.8c2.7-0.4,5.4-0.8,8.1-1.3c5.4-0.9,10.9-1.7,16.4-2.1c1.3-0.1,2.4,0.8,2.5,2.1
				c0,0.2,0,0.4,0,0.6l0,0.3c-0.5,3.4-0.9,6.9-1,10.3c0,1.7,0.1,3.4,0.3,4.9c0.2,1.5,0.7,3,1.3,3.7c0.3,0.4,0.6,0.6,0.8,0.7
				c0.1,0.1,0.3,0.1,0.5,0.1c0.2,0,0.5,0,0.6,0c0.4,0,1-0.3,1.7-0.5c0.7-0.3,1.4-0.7,2.1-1.1c2.8-1.7,5.6-3.8,8.3-6
				c5.4-4.4,10.7-9.3,15.9-14.2c5.2-4.9,10.3-9.9,15.4-15l0.2,3.7c-2.5-2.3-5.1-4.7-7.6-7c-2.5-2.4-5-4.7-7.5-7.1
				c-5-4.8-9.9-9.6-14.7-14.5c-0.1-0.1-0.1-0.3,0-0.4C1228.4,710,1228.6,710,1228.7,710.1z"/>
		</g>
	</g>
</g>
</svg>
