<?xml version="1.0" encoding="utf-8"?>
<!-- Generator: Adobe Illustrator 22.1.0, SVG Export Plug-In . SVG Version: 6.00 Build 0)  -->
<svg version="1.1" xmlns="http://www.w3.org/2000/svg" xmlns:xlink="http://www.w3.org/1999/xlink" x="0px" y="0px"
	 viewBox="0 0 1280.6 800" style="enable-background:new 0 0 1280.6 800;" xml:space="preserve">
<style type="text/css">
	.st0{display:none;}
	.st1{display:inline;fill:#A66C78;}
	.st2{display:inline;fill:#864A54;}
	.st3{display:inline;opacity:0.37;fill:#232121;}
	.st4{display:inline;fill:#3B2722;}
	.st5{display:inline;fill:#792914;}
	.st6{display:inline;fill:#F15128;}
	.st7{display:inline;fill:#EFF0F0;}
	.st8{display:inline;opacity:0.1;fill:#232121;}
	.st9{display:inline;opacity:0.3;fill:#232121;}
	.st10{display:inline;fill:#CFCFD0;}
	.st11{display:inline;fill:#554835;}
	.st12{display:inline;fill:#A4A5A8;}
	.st13{display:inline;fill:#875D46;}
	.st14{display:inline;fill:#66A32E;}
	.st15{display:inline;fill:#4D7A23;}
	.st16{display:inline;fill:#654635;}
	.st17{display:inline;fill:#6B2379;}
	.st18{display:inline;opacity:0.48;fill:#3C3939;}
	.st19{display:inline;}
	.st20{fill:#302F30;}
	.st21{display:inline;fill:#0577AE;}
	.st22{display:inline;fill:#079FE8;}
	.st23{display:inline;fill:#737373;}
	.st24{display:inline;fill:#3A5C1A;}
	.st25{display:inline;fill:#9937A4;}
	.st26{display:inline;fill:#F7BA99;}
	.st27{display:inline;fill:#595959;}
	.st28{display:inline;fill:#FFFFFF;}
	.st29{display:inline;fill:#6E6E6E;}
	.st30{display:inline;fill:#BFBFBF;}
	.st31{display:inline;fill:#919191;}
	.st32{fill:#FF882A;}
	.st33{fill:#FFFFFF;}
	.st34{display:inline;fill:#501A5B;}
	.st35{display:inline;fill:#313547;}
	.st36{display:inline;fill:#FBF7EA;}
	.st37{display:inline;fill:#CF9C80;}
	.st38{fill:#EABA7E;}
	.st39{fill:#B08B5F;}
	.st40{display:inline;fill:#6B6C6F;}
	.st41{display:inline;fill:#414042;}
	.st42{display:inline;fill:#676668;}
	.st43{display:inline;fill:#89898C;}
	.st44{display:inline;fill:#FF882A;}
	.st45{display:inline;fill:#57585A;}
	.st46{display:inline;fill:#FFA55E;}
	.st47{display:inline;fill:#909093;}
	.st48{display:inline;fill:#A7A6F6;}
	.st49{display:inline;fill:#9190DB;}
	.st50{display:inline;fill:#CACAFA;}
	.st51{display:inline;opacity:0.52;fill:#FFFFFF;}
	.st52{display:inline;fill:#4C568E;}
	.st53{display:inline;fill:#FFDF57;}
	.st54{display:inline;fill:#EBCB44;}
	.st55{display:inline;fill:#FFEC9A;}
	.st56{display:inline;fill:#75AEB9;}
	.st57{display:inline;fill:#639FAB;}
	.st58{display:inline;fill:#ACCED5;}
	.st59{display:inline;fill:#96CD7C;}
	.st60{display:inline;fill:#83BF66;}
	.st61{display:inline;fill:#855749;}
</style>
<g id="Sign" class="st0">
	<path class="st1" d="M499.2,365L499.2,365c-1,0.2-1.9-0.6-1.9-1.6v-51.8c0-0.8,0.6-1.5,1.4-1.6h0c1-0.2,1.9,0.6,1.9,1.6v51.8
		C500.5,364.2,499.9,364.9,499.2,365z"/>
	<path class="st2" d="M498.6,310c-0.1,0-0.1,0-0.2,0.1c0.6,0.2,1.1,0.8,1.1,1.6v51.8c0,0.7-0.5,1.3-1.2,1.6c0.3,0.1,0.5,0.1,0.8,0.1
		c0.8-0.1,1.4-0.8,1.4-1.6v-51.8C500.5,310.6,499.6,309.8,498.6,310z"/>
</g>
<g id="Sign_2" class="st0">
	<path class="st1" d="M516,332.8h-35.7c-0.4,0-0.7-0.1-1-0.4l-5.4-4.7c-0.6-0.6-0.7-1.6-0.1-2.2l5.4-5.4c0.3-0.3,0.7-0.4,1-0.4H516
		c0.4,0,0.8,0.2,1,0.4l5,5.1c0.6,0.6,0.6,1.5,0,2.1l-5,5.1C516.8,332.7,516.4,332.8,516,332.8z"/>
	<polygon class="st2" points="511.5,323.3 511.5,329.3 516.3,326.3 	"/>
	<polygon class="st2" points="485.6,329.3 485.6,323.3 480.8,326.3 	"/>
	<rect x="484.7" y="325.1" class="st2" width="27.3" height="2.2"/>
</g>
<g id="Target" class="st0">
	<path class="st3" d="M167.3,392.9c-8.3,1.1-20.4-6.7-19.8-11.4c0.7-4.7,13-4.4,24.5-2.8C183.6,380.4,211.2,387,167.3,392.9z"/>
	<path class="st4" d="M190.1,384.6l-20.7-22.7l1.6-1.3l21.1,23.7C192.1,384.3,191.7,385.2,190.1,384.6z"/>
	<path class="st4" d="M163.5,392.7l9.8-30.9l-1.4-1.2l-10.7,31.9C161.2,392.6,162.1,393.8,163.5,392.7z"/>
	<path class="st4" d="M148.4,381.5l23.2-25.2l-0.4-1.8l-24.4,25.9C146.8,380.3,146.9,381.9,148.4,381.5z"/>
	<path class="st5" d="M189.7,353.4c-1.6-13.5-10.7-23.7-21.3-25l-0.1-0.5l-4.3,0.5c0,0-0.1,0-0.1,0c0,0-0.1,0-0.1,0l-0.3,0l0,0
		c-12.2,1.7-20.6,15.1-18.9,30.3c1.8,15.1,13.1,26.2,25.3,25.1l0,0l4.9-0.6l-0.1-0.5C184.8,379,191.3,366.9,189.7,353.4z"/>
	
		<ellipse transform="matrix(0.9932 -0.1162 0.1162 0.9932 -40.1584 22.3417)" class="st6" cx="171.5" cy="355.6" rx="22.7" ry="27.9"/>
	
		<ellipse transform="matrix(0.9932 -0.1162 0.1162 0.9932 -40.1584 22.3417)" class="st7" cx="171.5" cy="355.6" rx="18" ry="22.1"/>
	
		<ellipse transform="matrix(0.9932 -0.1162 0.1162 0.9932 -40.1584 22.3417)" class="st6" cx="171.5" cy="355.6" rx="12.4" ry="15.3"/>
	
		<ellipse transform="matrix(0.9932 -0.1162 0.1162 0.9932 -40.1584 22.3417)" class="st7" cx="171.5" cy="355.6" rx="7.6" ry="9.3"/>
	<path class="st8" d="M183.1,332.3L161,379.6c4.1,2.8,8.9,4.3,13.8,3.7c12.5-1.5,21.1-15,19.3-30.3
		C193.1,344.2,188.9,336.8,183.1,332.3z"/>
	
		<ellipse transform="matrix(0.9932 -0.1162 0.1162 0.9932 -40.1584 22.3417)" class="st6" cx="171.5" cy="355.6" rx="3.1" ry="3.8"/>
	<polygon class="st9" points="171.6,355.6 186.9,377 187.4,376.4 171.5,355.2 	"/>
</g>
<g id="Arrow" class="st0">
	<polygon class="st10" points="192.4,346.6 193.1,340.9 200.4,338.6 199.8,343.5 203.4,347 195.8,350.3 	"/>
	<polygon class="st11" points="171.6,355.6 171.5,355.2 201.8,342.1 202.1,343 	"/>
	<polygon class="st12" points="193.3,340.8 193.4,344.6 194.2,340.5 	"/>
	<polygon class="st12" points="194.9,340.3 195.2,343.2 195.6,340.1 	"/>
	<polygon class="st12" points="196.4,339.8 196.5,343.5 197.1,339.6 	"/>
	<polygon class="st12" points="198.3,339.2 198.2,342.4 200,338.7 	"/>
	<polygon class="st12" points="196.2,350.1 194.5,346.8 196.3,349.3 196,347.8 197.2,349.6 	"/>
	<polygon class="st12" points="198.2,349.2 196.1,346.1 199.4,348.7 198.9,348.9 197.8,347.9 198.5,349.1 	"/>
	<polygon class="st12" points="201.2,347.9 198.9,345.4 201.6,347.7 	"/>
</g>
<g id="Parents_Hand" class="st0">
	<path class="st13" d="M738.1,467.6c-0.2,4.9-8.1,15.9-15.5,22c0,0-3.5,2.2-4.8,2.4c-0.6,0.1-1.2,0.5-1,0.9c0.2,0.5,1,0.8,2.1,0.4
		c1.8-0.6,0.5,1.1-0.8,2.2c-1.4,1.1-1.7,2.9-0.4,3.7c1.3,0.8,6.4-2.7,8-7.2c0,0,13.6-9.5,14.9-16.9
		C741.9,467.6,738.1,467.6,738.1,467.6z"/>
	<path class="st14" d="M736.1,482.8c-4-1.7-4.2-3.2-4.2-3.2c0.6-4.6,6.3-16.4,11.1-18.4c0,0-0.6,4.9-0.2,9.7
		C743.5,478.5,736.1,482.8,736.1,482.8z"/>
	<path class="st15" d="M736.7,482.9c0.1-0.2,0-0.5-0.2-0.5c-2-0.6-3.6-2.2-4.4-3.1c-0.3-0.4-0.9-0.3-1.1,0.1
		c-0.1,0.2-0.2,0.4-0.3,0.6c-0.3,0.5-0.6,0.8-0.8,1c-0.3,0.2-0.4,0.6-0.2,0.9c0.5,0.8,1.7,2.1,4.2,3.2c0.2,0.1,0.4,0,0.6-0.1
		c0.3-0.3,0.8-0.8,1.1-0.9C736.2,483.8,736.5,483.3,736.7,482.9z"/>
</g>
<g id="Parents_Head_Man" class="st0">
	<path class="st13" d="M745.1,457.7c0.8,0,0.9,1.2,1,2.5c0.1,1.2,1.1,2.3,2.5,2.5c0,0,0,0,0.1,0c1.6,0.2,3-0.9,3.2-2.4
		c0.2-1.3,0.5-3.2,1.2-5.4c0.1-0.4,0.3-0.9,0.5-1.3c0.1-0.3,0.2-0.5,0.3-0.8c0.1-0.2,0.1-0.3,0.2-0.5c0,0,0-0.4,0.1-1
		c0.2-1.7,0.5-5.1,0.3-6.4c-1-6-12.1-6.1-13.3-0.8C741.1,444.2,738.5,457.8,745.1,457.7z"/>
	<path class="st13" d="M756,451.2c-0.7,1.1-2,1.6-2.9,1.1c-0.9-0.5-1-1.8-0.3-2.9c0.7-1.1,2-1.6,2.9-1.1
		C756.6,448.9,756.7,450.1,756,451.2z"/>
	<path class="st16" d="M754.7,451.6c0,0,0.5-0.2,0.9-1.1c0.5-1.3-0.5-1.8-0.5-1.8S756.2,449.9,754.7,451.6z"/>
	<path class="st16" d="M749.2,457.4c1.5,0-1.9,0.4-3,3.1c-0.1-2.1-0.5-2.8-1-2.8C745.1,457.7,747.8,457.5,749.2,457.4z"/>
	<path class="st17" d="M754.2,452.5c0,0-0.4,4-1.4,4.1c-0.4,0-0.6-0.3-0.7-0.7c-0.1-0.5,0.1-1,0.4-1.5l1.3-1.9L754.2,452.5z"/>
	<path class="st17" d="M755.2,448.1c0,0,1.7-5.9,0.6-7.1s-11.9-9.2-15.5-4.4c-2.7,3.5,1.4,5.7,1.4,5.7s1,0.8,4.6,0.1
		c3.6-0.6,5.2-0.6,5.1,0.7s1.7,1.5,1.7,1.5L753,449C753,449,753.8,447.9,755.2,448.1z"/>
</g>
<g id="Parents" class="st0">
	<ellipse class="st18" cx="752.7" cy="568.4" rx="37.7" ry="3"/>
	<path class="st13" d="M744.8,565.7l-13.2,0.8c-1.4-2.8,5.9-4.2,8.5-4.3l0.1-3.3l4.8,0c0,0-0.5,1.6-0.4,3.2
		C744.7,563.9,744.8,565.7,744.8,565.7z"/>
	<path class="st13" d="M759.1,566.4l-12.8,1.2c-1.4-2.8,5.7-4.3,8.3-4.4l-0.2-3.3l4.4-0.3c0,0,0.1,1.6,0.2,3.2
		C759,564.6,759.1,566.4,759.1,566.4z"/>
	<g class="st19">
		<path class="st20" d="M754.2,563.1c-0.2,1.7,3.8,1.3,5,1.2c0.2,0,0.3,0.1,0.4,0.3c0.1,0.7,0.3,2.2,0.3,2.2
			c-0.8,0.7-13.2,1.7-13.9,1.2C744.5,565,751.6,563.3,754.2,563.1z"/>
	</g>
	<g class="st19">
		<path class="st20" d="M739.6,562.2c-0.2,1.6,3.8,1.4,5,1.3c0.2,0,0.3,0.1,0.4,0.3c0.1,0.6,0.2,2,0.2,2c-0.8,0.6-13.2,1.2-14,0.8
			C729.8,563.8,736.9,562.4,739.6,562.2z"/>
	</g>
	<path class="st15" d="M758.4,461.9c0,0,6,3.7,10.3,9.8c0,0,5.5,0.1,9.9,2.8c0,0,0.6,2.2-1.5,3.7c0,0-8.3-0.1-12.4-1l-8.8-6.6
		L758.4,461.9z"/>
	<path class="st21" d="M740.7,500.7l-1.2,60.3c0,0.3,0.2,0.5,0.4,0.6c0.7,0.2,2.4,0.4,4.8-0.1c0.2,0,0.4-0.3,0.4-0.5l6.7-65.8
		L740.7,500.7z"/>
	<path class="st22" d="M744.8,494.4l9.5,67.8c0,0.3,0.2,0.5,0.5,0.6c2,0.6,3.5,0.1,4.2-0.3c0.2-0.1,0.4-0.4,0.4-0.6l-0.5-67.5
		L744.8,494.4z"/>
	<path class="st14" d="M746.1,460.2c-5.4,1-9.1,6.3-9,14c0.1,6.5,0.7,17.8,3.1,26c0.1,0.3,0.2,0.5,0.5,0.6c1.4,0.9,8,3.9,18.4,0
		c0.4-0.2,0.7-0.6,0.7-1.1c-0.1-18.4,2.8-33.8-0.1-36.8c-2.5-2.3-4.6-2.6-7.8-3c0,0.7-0.7,2-2.8,2.1
		C746,462,746.1,460.2,746.1,460.2z"/>
	<path class="st23" d="M737.1,476.9"/>
	<path class="st15" d="M740.6,500.9c-0.2-0.2-0.4-0.4-0.5-0.6c-1.9-6.4-2.7-14.8-2.9-21.2c0.5,3.3,5.5,25.2,22.5,21.2
		c-0.1,0.3-0.3,0.5-0.6,0.6C748.6,504.8,742.1,501.8,740.6,500.9z"/>
	<path class="st13" d="M780.7,478.5c-0.9,2.9-3.9,2.7-4.8,1.6c-1.1-1.3-0.2-2.6,1.4-4.2c0,0-1.4-1.8-0.9-2.1
		C777.9,472.9,781.5,475.9,780.7,478.5z"/>
	<path class="st24" d="M758.7,499.4c0,0-8.6,4-17.8,0.2C740.9,499.6,748.6,502.3,758.7,499.4z"/>
	<path class="st25" d="M758.8,502.7l1.9,57.3l4.6,0.2c1.2-12.8,3.8-40.2,4.9-57.3L758.8,502.7z"/>
	<path class="st26" d="M754.6,568.2l10-1.1c0,0,0.3-2.7,0.7-7l-4.6-0.2l0.1,3.1c0,0.7-0.5,1.2-1.2,1.3
		C754.9,564.9,753.4,566.8,754.6,568.2z"/>
	<path class="st17" d="M767.6,509.3l2.1,0.7c-1.2,16.2-3.2,37.4-4.3,48.9L767.6,509.3z"/>
	<path class="st27" d="M759,564.5c2.9,1,5.7,0.3,5.9-0.4c0.1-0.2,0.5,0.1,0.5,0.3c0,1.4-0.3,2.8-0.3,2.8c-0.6,0.8-9.7,1.9-12.1,1.2
		C751.7,566.7,754.7,564.9,759,564.5z"/>
	<path class="st26" d="M758,564.6c0,0,2,0.6,0.9,1.1c-1.1,0.5-2.9-0.6-2.9-0.6S756.4,564.9,758,564.6z"/>
	<path class="st17" d="M773.2,561.3l4.3-0.1c0.4-14.4,1.1-45.8,0.9-58.6l-11.1,1.1C766.7,515.8,772.5,549,773.2,561.3z"/>
	<path class="st26" d="M765.5,569.8l11.7-1.2c0,0,0.1-2.9,0.2-7.5l-4.3,0.1c0.1,1.5,0.1,2.6,0,3.4c-0.1,0.7-0.6,1.2-1.3,1.3
		C767.1,566.5,764.3,568.2,765.5,569.8z"/>
	<polygon class="st17" points="775,507.9 776.9,561.2 777.4,561.2 778.4,507.1 	"/>
	<path class="st27" d="M771.9,566c2.7,0.8,4.6,0.4,5.4,0.1c0.2-0.1,0.5,0.1,0.5,0.3c0,1.4-0.1,2.2-0.1,2.2
		c-0.6,0.8-9.7,1.9-12.1,1.2C764.3,568.2,767.1,566.5,771.9,566z"/>
	<path class="st26" d="M770.6,566.1c0,0,2,0.6,0.9,1.1c-1.1,0.5-2.9-0.6-2.9-0.6S768.9,566.4,770.6,566.1z"/>
	<path class="st28" d="M779.5,511c0,0-1.3-33.2-3.2-37.3c-0.2-0.5-1.5-1-3-1.4c-4.2-1.1-8.8-0.6-12.4,1.6c-0.9,0.6-1.6,1.1-1.7,1.6
		c-0.3,4.3-1.5,35.3-1.5,35.3S763.4,516.1,779.5,511z"/>
	<path class="st29" d="M762.4,507.7c0,0,2.9,0.3,2.9,0.7c0,0.4-2.9,0.5-2.9,0.5L762.4,507.7z"/>
	<path class="st30" d="M779.5,511c0,0,0-1-0.1-2.7l0,0c-22.2,4.4-20-18.2-20-18.2l-1,3c-0.4,8.9-0.7,17.7-0.7,17.7
		S763.4,516.1,779.5,511z"/>
	<path class="st31" d="M765.7,507.9c0,0-2.9,0-3,0.4c0,0.4,3,0.9,3,0.9L765.7,507.9z"/>
	<path class="st26" d="M759.7,474.8l-0.3,15.7l2.5,16.6l0,0c0,0,0.2,1.1,2,0.9c2.6-0.3,5.1,2.3,1.1,2.7c-0.7,0.1-1.5,0-2.1-0.2
		c-1.9-0.5-3.4-2-3.9-3.9c-1.1-4.6-3.7-15-3.7-16.3C755.2,487.1,758.2,476.9,759.7,474.8z"/>
	<path class="st26" d="M763.2,508.2c1,0,1.9-0.9,1.9-0.9s10.5-14.4,10.5-15.4c0-0.8-0.4-9-1-12.4c-0.1-0.8,0-1.7,0.4-2.4l0.3-1.8
		c0.1-0.6,1-0.7,1.2-0.1c1.6,4.5,3.9,15.3,3.5,17.9c-0.5,3.1-12.7,16.2-12.7,16.2s-2.1,2-5.1,1.7
		C758.1,510.6,760.6,508.1,763.2,508.2z"/>
	<path class="st28" d="M773.9,485.1l-0.3-1.6c-0.1-6.5,0.8-8.7,2.5-10.2c0,0,2.4,2.7,4,7.7C780.2,481,780.2,483.2,773.9,485.1z"/>
	<path class="st28" d="M759.9,484.6l0.4-10.4c0,0-2.6,1.4-4.4,8.3C755.9,482.6,756.8,484.3,759.9,484.6z"/>
	<path class="st30" d="M776,473.5c0,0-2.9,1.6-2.3,10.3C773.7,483.8,773.6,476.4,776,473.5z"/>
	<path class="st30" d="M759.7,483.8c0,0-0.9-7.2,1.9-10.4C761.6,473.4,759.6,476.6,759.7,483.8z"/>
	<g id="Logo" class="st19">
		<circle class="st32" cx="747" cy="479.6" r="7.8"/>
		<path class="st33" d="M741.1,477.4c-0.2-0.1-0.3-0.2-0.4-0.3c-0.1-0.1-0.1-0.3-0.1-0.5c0-0.2,0-0.4,0.1-0.5
			c0.1-0.1,0.2-0.3,0.4-0.4c0.2-0.1,0.3-0.1,0.5-0.1c0.2,0,0.4,0,0.5,0.1c0.2,0.1,0.3,0.2,0.4,0.3c0.1,0.1,0.1,0.3,0.1,0.5
			c0,0.2,0,0.4-0.1,0.5c-0.1,0.1-0.2,0.3-0.4,0.4c-0.2,0.1-0.3,0.1-0.5,0.1C741.4,477.5,741.2,477.4,741.1,477.4z M742,476.9
			c0.1-0.1,0.1-0.2,0.1-0.4c0-0.2,0-0.3-0.1-0.4c-0.1-0.1-0.2-0.1-0.3-0.1c-0.1,0-0.3,0-0.4,0.1c-0.1,0.1-0.1,0.2-0.1,0.4
			c0,0.2,0,0.3,0.1,0.4c0.1,0.1,0.2,0.1,0.4,0.1S741.9,477,742,476.9z"/>
		<path class="st33" d="M744.9,475.7c0.1,0.1,0.2,0.4,0.2,0.6l0,1.1l-0.6,0l0-1c0-0.2,0-0.3-0.1-0.3c-0.1-0.1-0.2-0.1-0.3-0.1
			c-0.1,0-0.3,0-0.3,0.1c-0.1,0.1-0.1,0.2-0.1,0.4l0,0.9l-0.6,0l0-1.9l0.5,0l0,0.2c0.1-0.1,0.2-0.1,0.3-0.2s0.2-0.1,0.4-0.1
			C744.5,475.5,744.7,475.6,744.9,475.7z"/>
		<path class="st33" d="M747.5,476.7l-1.4,0c0,0.1,0.1,0.2,0.2,0.3c0.1,0.1,0.2,0.1,0.4,0.1c0.1,0,0.2,0,0.3,0
			c0.1,0,0.1-0.1,0.2-0.1l0.3,0.3c-0.2,0.2-0.4,0.3-0.8,0.3c-0.2,0-0.4,0-0.6-0.1c-0.2-0.1-0.3-0.2-0.4-0.3
			c-0.1-0.1-0.1-0.3-0.1-0.5c0-0.2,0-0.4,0.1-0.5c0.1-0.2,0.2-0.3,0.4-0.4c0.2-0.1,0.3-0.1,0.5-0.1c0.2,0,0.4,0,0.5,0.1
			c0.2,0.1,0.3,0.2,0.4,0.3c0.1,0.2,0.1,0.3,0.1,0.5C747.5,476.5,747.5,476.6,747.5,476.7z M746.2,476c-0.1,0.1-0.1,0.2-0.2,0.3
			l0.9,0c0-0.1-0.1-0.2-0.2-0.3s-0.2-0.1-0.3-0.1C746.4,475.9,746.3,476,746.2,476z"/>
		<path class="st33" d="M742,480.5c-0.1,0-0.1,0.1-0.2,0.1c-0.1,0-0.2,0-0.3,0c-0.2,0-0.4-0.1-0.5-0.2c-0.1-0.1-0.2-0.3-0.2-0.5
			l0-0.8l-0.3,0l0-0.4l0.3,0l0-0.5l0.6,0l0,0.5l0.5,0l0,0.4l-0.5,0l0,0.8c0,0.1,0,0.1,0.1,0.2c0,0,0.1,0.1,0.2,0.1
			c0.1,0,0.2,0,0.2-0.1L742,480.5z"/>
		<path class="st33" d="M745.4,478.7l-0.7,1.9l-0.5,0l-0.4-1.2l-0.4,1.2l-0.5,0l-0.7-1.9l0.5,0l0.5,1.3l0.5-1.3l0.5,0l0.5,1.3
			l0.5-1.3L745.4,478.7z"/>
		<path class="st33" d="M746,480.5c-0.2-0.1-0.3-0.2-0.4-0.3c-0.1-0.1-0.1-0.3-0.1-0.5c0-0.2,0-0.4,0.1-0.5c0.1-0.1,0.2-0.3,0.4-0.4
			c0.2-0.1,0.3-0.1,0.5-0.1c0.2,0,0.4,0,0.5,0.1c0.2,0.1,0.3,0.2,0.4,0.3c0.1,0.1,0.1,0.3,0.1,0.5c0,0.2,0,0.4-0.1,0.5
			c-0.1,0.1-0.2,0.3-0.4,0.4c-0.2,0.1-0.3,0.1-0.5,0.1C746.4,480.7,746.2,480.6,746,480.5z M746.9,480.1c0.1-0.1,0.1-0.2,0.1-0.4
			c0-0.2,0-0.3-0.1-0.4c-0.1-0.1-0.2-0.1-0.3-0.1c-0.1,0-0.3,0-0.4,0.1c-0.1,0.1-0.1,0.2-0.1,0.4c0,0.2,0,0.3,0.1,0.4
			c0.1,0.1,0.2,0.1,0.4,0.1S746.8,480.2,746.9,480.1z"/>
		<path class="st33" d="M741.1,483.5c-0.2-0.1-0.3-0.2-0.4-0.3c-0.1-0.1-0.1-0.3-0.1-0.5c0-0.2,0-0.4,0.1-0.5
			c0.1-0.1,0.2-0.3,0.4-0.4c0.2-0.1,0.3-0.1,0.5-0.1c0.2,0,0.4,0,0.5,0.1c0.2,0.1,0.3,0.2,0.3,0.4l-0.4,0.2
			c-0.1-0.2-0.2-0.3-0.4-0.3c-0.1,0-0.3,0-0.4,0.1c-0.1,0.1-0.1,0.2-0.1,0.4s0,0.3,0.1,0.4c0.1,0.1,0.2,0.1,0.4,0.1
			c0.2,0,0.3-0.1,0.4-0.3l0.4,0.2c-0.1,0.2-0.2,0.3-0.3,0.4c-0.2,0.1-0.3,0.1-0.5,0.1C741.4,483.6,741.3,483.6,741.1,483.5z"/>
		<path class="st33" d="M744.6,481.8c0.2,0.1,0.2,0.4,0.2,0.6l0,1.1l-0.5,0l0-0.2c-0.1,0.2-0.3,0.3-0.6,0.3c-0.1,0-0.3,0-0.4-0.1
			c-0.1,0-0.2-0.1-0.2-0.2c-0.1-0.1-0.1-0.2-0.1-0.3c0-0.2,0.1-0.3,0.2-0.4c0.1-0.1,0.3-0.2,0.6-0.2l0.4,0c0-0.1,0-0.2-0.1-0.3
			c-0.1-0.1-0.2-0.1-0.3-0.1c-0.1,0-0.2,0-0.3,0c-0.1,0-0.2,0.1-0.3,0.1l-0.2-0.4c0.1-0.1,0.2-0.1,0.4-0.2c0.1,0,0.3-0.1,0.4-0.1
			C744.2,481.6,744.4,481.7,744.6,481.8z M744.1,483.2c0.1,0,0.1-0.1,0.2-0.2l0-0.2l-0.4,0c-0.2,0-0.3,0.1-0.3,0.2
			c0,0.1,0,0.1,0.1,0.2c0.1,0,0.1,0.1,0.2,0.1C744,483.2,744.1,483.2,744.1,483.2z"/>
		<path class="st33" d="M746.5,481.7c0.1,0,0.2-0.1,0.4-0.1l0,0.5c-0.1,0-0.1,0-0.1,0c-0.2,0-0.3,0-0.4,0.1
			c-0.1,0.1-0.1,0.2-0.1,0.4l0,0.9l-0.6,0l0-1.9l0.5,0l0,0.3C746.3,481.8,746.3,481.7,746.5,481.7z"/>
		<path class="st33" d="M749.3,482.8l-1.4,0c0,0.1,0.1,0.2,0.2,0.3c0.1,0.1,0.2,0.1,0.4,0.1c0.1,0,0.2,0,0.3,0
			c0.1,0,0.1-0.1,0.2-0.1l0.3,0.3c-0.2,0.2-0.4,0.3-0.8,0.3c-0.2,0-0.4,0-0.6-0.1c-0.2-0.1-0.3-0.2-0.4-0.3
			c-0.1-0.1-0.1-0.3-0.1-0.5c0-0.2,0-0.4,0.1-0.5c0.1-0.2,0.2-0.3,0.4-0.4c0.2-0.1,0.3-0.1,0.5-0.1c0.2,0,0.4,0,0.5,0.1
			c0.2,0.1,0.3,0.2,0.4,0.3c0.1,0.2,0.1,0.3,0.1,0.5C749.3,482.6,749.3,482.7,749.3,482.8z M748,482.1c-0.1,0.1-0.1,0.2-0.2,0.3
			l0.9,0c0-0.1-0.1-0.2-0.2-0.3c-0.1-0.1-0.2-0.1-0.3-0.1C748.2,482,748.1,482.1,748,482.1z"/>
		<path class="st33" d="M751.9,482.8l-1.4,0c0,0.1,0.1,0.2,0.2,0.3c0.1,0.1,0.2,0.1,0.4,0.1c0.1,0,0.2,0,0.3,0
			c0.1,0,0.1-0.1,0.2-0.1l0.3,0.3c-0.2,0.2-0.4,0.3-0.8,0.3c-0.2,0-0.4,0-0.6-0.1c-0.2-0.1-0.3-0.2-0.4-0.3
			c-0.1-0.1-0.1-0.3-0.1-0.5c0-0.2,0-0.4,0.1-0.5s0.2-0.3,0.4-0.4c0.2-0.1,0.3-0.1,0.5-0.1c0.2,0,0.4,0,0.5,0.1
			c0.2,0.1,0.3,0.2,0.4,0.3c0.1,0.2,0.1,0.3,0.1,0.5C751.9,482.6,751.9,482.7,751.9,482.8z M750.6,482.1c-0.1,0.1-0.1,0.2-0.2,0.3
			l0.9,0c0-0.1-0.1-0.2-0.2-0.3c-0.1-0.1-0.2-0.1-0.3-0.1C750.8,482,750.7,482.1,750.6,482.1z"/>
		<path class="st33" d="M656.8,544.4c0.2-0.1,0.4-0.1,0.7-0.1l0,0.9c-0.1,0-0.2,0-0.2,0c-0.3,0-0.5,0.1-0.7,0.2
			c-0.2,0.2-0.2,0.4-0.2,0.7l0,1.7l-1,0l0-3.5l1,0l0,0.5C656.5,544.7,656.6,544.5,656.8,544.4z"/>
	</g>
</g>
<g id="Parents_Head_Woman" class="st0">
	<path class="st34" d="M765.3,449.3c0,0-8.1-0.2-6.2,6.9s10.3,1.4,10.3,0.8C769.4,456.4,765.3,449.3,765.3,449.3z"/>
	<path class="st35" d="M764.8,454.6c0,0,1,7.4-6,13.6c0,0,4.5,2.2,10.7,1.8c6.2-0.4,3.2-14.8,3.1-14.9
		C772.4,455,764.8,454.6,764.8,454.6z"/>
	<path class="st26" d="M758.6,462c0,5,2.6,5.4,3.2,5.6c2.7,0.7,3.1,1.3,3.2,5.1c0,0,2.7,2.5,5.5-0.1c0,0,0-3.2,1-6.9
		c0.1-0.5,0.3-0.9,0.4-1.4c0.1-0.3,0.2-0.5,0.3-0.8c0.1-0.2,0.1-0.3,0.2-0.5c0,0,0-0.4,0.1-1c0.1-1.7,0.8-5.8,0.7-7.1
		c-0.4-3.6-3.7-5.7-6.5-5.6c-5.1,0.1-5.8,2.3-7.1,6.2C759.5,455.4,758.6,458.8,758.6,462z"/>
	<path class="st26" d="M773.9,461.9c-0.7,1.1-2,1.6-2.9,1.2c-0.9-0.5-1.1-1.8-0.4-2.9s1.9-1.7,2.8-1.2
		C774.2,459.4,774.5,460.7,773.9,461.9z"/>
	
		<ellipse transform="matrix(0.9999 -1.192840e-02 1.192840e-02 0.9999 -5.4612 9.239)" class="st36" cx="771.8" cy="462.4" rx="0.6" ry="0.5"/>
	<path class="st37" d="M765,471.2c-0.2-2.5-0.8-3-3.1-3.6c1.9,0.4,2.8,0.4,3.9,0.4C766.7,468,765.3,470.7,765,471.2z"/>
	<path class="st37" d="M772.6,462.4c0,0,0.6-0.2,0.9-1.2c0.5-1.4-0.6-2-0.6-2S774.2,460.6,772.6,462.4z"/>
	<path class="st35" d="M771.7,463.2c-1,1.9-4.2,5-8.4,5.1c3.5,2.7,10.3,1.9,10.3,1.9c4.5-13.6,0.3-18,0.3-18
		c-6.7-6.6-14.6-1.9-14.6,0.7c0,0,0.4,3.9,10.4,7.3c0.6,0.2,1.5-1.8,3.2-1.4C774.5,459.2,774.7,462.4,771.7,463.2z"/>
</g>
<g id="Stage">
	<path class="st38" d="M927.8,340.6H899l-0.9-8.6h-25.8l-1.3,12.9h-29.3l-2.4,13.2c21.8-1.8,57.6-5,92.4,3.5L927.8,340.6z"/>
	<path class="st39" d="M883.2,351.8v-11.3h-2.3v-4.3h7.7v15.6H883.2z"/>
	<path class="st39" d="M918.5,354.1h-9.7l5.6-6.3c0.3-0.3,0.4-0.7,0.4-1c0-0.3-0.1-0.5-0.3-0.7c-0.2-0.2-0.4-0.3-0.8-0.3
		c-0.4,0-0.7,0.1-0.9,0.4c-0.1,0.3-0.2,0.6-0.2,0.8h-3.5c0-0.4,0.1-0.8,0.2-1.3c0.1-0.5,0.3-0.9,0.6-1.4c0.3-0.5,0.8-0.9,1.4-1.2
		c0.6-0.3,1.5-0.5,2.5-0.5c1,0,1.9,0.2,2.6,0.5c0.7,0.3,1.2,0.8,1.6,1.3s0.5,1.2,0.5,1.9c0,0.5-0.1,0.9-0.2,1.3s-0.3,0.8-0.6,1.1
		c-0.2,0.3-0.5,0.7-0.8,1c-0.3,0.3-0.7,0.8-1.3,1.2h2.8V354.1z"/>
	<path class="st39" d="M856.7,351.2h-0.4v-1.6h0.4c0.5,0,0.8-0.2,0.8-0.6c0-0.2-0.1-0.3-0.2-0.4c-0.1-0.1-0.3-0.1-0.4-0.1
		c-0.3,0-0.4,0.1-0.5,0.2c-0.1,0.1-0.1,0.3-0.1,0.4h-2.5c0.1-0.7,0.4-1.3,0.8-1.9c0.5-0.6,1.3-0.8,2.4-0.8c0.6,0,1.1,0.1,1.6,0.3
		c0.5,0.2,0.9,0.4,1.1,0.8c0.3,0.3,0.4,0.7,0.4,1.2c0,0.3-0.1,0.6-0.2,0.8c-0.1,0.2-0.3,0.4-0.5,0.6c-0.2,0.1-0.4,0.2-0.7,0.3v0
		c0.2,0.1,0.5,0.1,0.7,0.3c0.2,0.1,0.4,0.3,0.6,0.6c0.2,0.3,0.3,0.6,0.3,1.1c0,0.4-0.1,0.8-0.3,1.2c-0.2,0.4-0.6,0.7-1.1,0.9
		c-0.5,0.2-1.2,0.4-2.1,0.4c-1.2,0-2-0.3-2.5-0.9c-0.5-0.6-0.7-1.3-0.8-2h2.6c0,0.2,0.1,0.4,0.2,0.6c0.1,0.2,0.3,0.3,0.7,0.3
		c0.5,0,0.7-0.2,0.7-0.7C857.6,351.4,857.3,351.2,856.7,351.2z"/>
</g>
<g id="Pump_Dynamic" class="st0">
	<rect x="1048.7" y="377.6" class="st40" width="3.4" height="38.2"/>
	<path class="st41" d="M1062.6,380h-24.5c-1.3,0-2.4-1.1-2.4-2.4l0,0c0-1.3,1.1-2.4,2.4-2.4h24.5c1.3,0,2.4,1.1,2.4,2.4l0,0
		C1065,379,1063.9,380,1062.6,380z"/>
	<path class="st42" d="M1063.7,375.3h-8.8c1,0,1.7,1.1,1.7,2.4s-0.8,2.4-1.7,2.4h8.8c1,0,1.7-1.1,1.7-2.4S1064.6,375.3,1063.7,375.3
		z"/>
	<rect x="1051" y="380" class="st43" width="1" height="29.4"/>
</g>
<g id="Pump" class="st0">
	<ellipse class="st18" cx="1050.3" cy="450.8" rx="14.9" ry="1.9"/>
	<rect x="1044.3" y="409.6" class="st44" width="12.1" height="41.7"/>
	<rect x="1042.5" y="447" class="st45" width="15.6" height="4.4"/>
	<rect x="1042.5" y="409.4" class="st45" width="15.6" height="6.4"/>
	<rect x="1053.5" y="409.4" class="st40" width="4.7" height="6.4"/>
	<rect x="1053.1" y="447" class="st40" width="5" height="4.4"/>
	<rect x="1054.8" y="415.8" class="st46" width="1.6" height="31.1"/>
</g>
<g id="Balloons_R_1" class="st0">
	<path class="st47" d="M1211.4,471.9c-2.9-19.3-0.8-60.7-0.7-61.1l0.3,0c0,0.4-2.2,41.8,0.7,61L1211.4,471.9z"/>
	<path class="st48" d="M1223.2,395.1c0,7.4-6,19.9-13.4,19.9s-13.4-12.5-13.4-19.9s6-13.4,13.4-13.4S1223.2,387.7,1223.2,395.1z"/>
	<path class="st49" d="M1221.4,396.7c0,4.2-1.6,9.7-4.2,14.3c3.7-4.3,6.2-11.1,6.2-15.9c0-7.2-5.7-13.1-12.8-13.4
		C1216.8,383.8,1221.4,389.7,1221.4,396.7z"/>
	<path class="st50" d="M1201.6,392.1c-1.2,3.7-1,7.2-2.3,6.8s-2.4-3.7-1.2-7.4s4.3-6.3,5.5-5.9
		C1204.9,386.1,1202.8,388.5,1201.6,392.1z"/>
	<path class="st51" d="M1206,417c0.5-1.7,0.3-3.3,0.9-3.1c0.6,0.2,0.6,1.5,0.2,3.2s-1.3,3.1-1.9,2.9S1205.5,418.7,1206,417z"/>
	<polygon class="st52" points="1220,428.3 1218.4,430.1 1221.1,430.5 	"/>
	<ellipse class="st18" cx="1211.7" cy="479.2" rx="19.2" ry="1.9"/>
</g>
<g id="Balloons_R_2" class="st0">
	<path class="st47" d="M1211.7,475.8c-1.9-28.7-8.4-49.4-8.5-49.7l0.3-0.1c0.1,0.2,6.6,21,8.5,49.7L1211.7,475.8z"/>
	<path class="st53" d="M1206.4,407.7c2.3,7,0.6,20.8-6.5,23.1c-7,2.3-16.7-7.6-19-14.7c-2.3-7,1.5-14.6,8.5-17
		S1204.1,400.6,1206.4,407.7z"/>
	<path class="st54" d="M1205.2,409.7c1.3,3.9,1.5,9.7,0.5,14.9c2.2-5.2,2.4-12.5,0.9-17c-2.3-6.8-9.5-10.6-16.3-8.7
		C1196.8,398.9,1203,403.1,1205.2,409.7z"/>
	<path class="st55" d="M1185.7,411.3c0,3.8,1.3,7.1,0,7.1c-1.3,0-3.5-2.8-3.5-6.6c0-3.8,2.1-7.3,3.4-7.3
		C1186.9,404.5,1185.6,407.5,1185.7,411.3z"/>
</g>
<g id="Balloons_R_3" class="st0">
	<path class="st47" d="M1211.1,466.4l-0.3,0c0.3-24,8.7-36,8.8-36.1l0.2,0.2C1219.8,430.5,1211.4,442.4,1211.1,466.4z"/>
	<path class="st56" d="M1238.5,416.4c-2.2,7.1-11.8,17.1-18.8,14.9c-7.1-2.2-9-16-6.8-23c2.2-7.1,9.8-11,16.9-8.7
		C1236.8,401.8,1240.7,409.4,1238.5,416.4z"/>
	<path class="st57" d="M1236.3,417.4c-1.3,4-4.5,8.7-8.4,12.3c4.8-3,9.3-8.7,10.7-13.2c2.2-6.8-1.4-14.2-8.1-16.6
		C1235.9,403.7,1238.4,410.7,1236.3,417.4z"/>
	<path class="st58" d="M1219.2,408.3c-2.2,3.1-3.1,6.5-4.2,5.8c-1.1-0.8-1.2-4.3,1.1-7.4s6-4.7,7-3.9
		C1224.2,403.5,1221.5,405.2,1219.2,408.3z"/>
</g>
<g id="Balloons_R_4" class="st0">
	<path class="st59" d="M1222.4,429.3c0,7.4-6,19.9-13.4,19.9c-7.4,0-13.4-12.5-13.4-19.9c0-7.4,6-13.4,13.4-13.4
		C1216.4,415.8,1222.4,421.8,1222.4,429.3z"/>
	<path class="st60" d="M1220.6,430.8c0,4.2-1.6,9.7-4.2,14.3c3.7-4.3,6.2-11.1,6.2-15.9c0-7.2-5.7-13.1-12.8-13.4
		C1216.1,417.9,1220.6,423.8,1220.6,430.8z"/>
	<path class="st51" d="M1201.6,427.4c-1.2,3.7-1,7.2-2.3,6.8s-2.4-3.7-1.2-7.4s4.3-6.3,5.5-5.9
		C1204.9,421.3,1202.8,423.7,1201.6,427.4z"/>
</g>
<g id="Balloons_L_1" class="st0">
	<path class="st47" d="M526.5,464.4c-2.3-15.5-0.6-48.7-0.6-49.1l0.2,0c0,0.3-1.7,33.5,0.6,49L526.5,464.4z"/>
	<path class="st48" d="M535.9,402.8c0,6-4.8,16-10.8,16c-6,0-10.8-10-10.8-16c0-6,4.8-10.8,10.8-10.8
		C531.1,392,535.9,396.8,535.9,402.8z"/>
	<path class="st49" d="M534.5,404c0,3.3-1.3,7.8-3.4,11.5c3-3.5,5-8.9,5-12.7c0-5.8-4.5-10.5-10.2-10.8
		C530.8,393.7,534.5,398.4,534.5,404z"/>
	<path class="st50" d="M518.6,400.4c-1,2.9-0.8,5.8-1.8,5.4c-1-0.3-1.9-3-1-5.9s3.4-5,4.4-4.7C521.2,395.5,519.5,397.4,518.6,400.4z
		"/>
	<polygon class="st61" points="519.5,426.1 519,427.9 521.1,427.3 	"/>
	<ellipse class="st18" cx="526.7" cy="470.3" rx="15.5" ry="1.5"/>
</g>
<g id="Balloons_L_2" class="st0">
	<path class="st47" d="M526.7,467.5c-1.5-23.1-6.7-39.7-6.8-39.9l0.2-0.1c0.1,0.2,5.3,16.9,6.8,39.9L526.7,467.5z"/>
	<path class="st53" d="M522.4,412.8c1.9,5.7,0.4,16.7-5.2,18.6c-5.7,1.9-13.4-6.1-15.3-11.8s1.2-11.7,6.8-13.6
		C514.5,404.1,520.5,407.2,522.4,412.8z"/>
	<path class="st54" d="M521.4,414.5c1,3.2,1.2,7.8,0.4,12c1.7-4.2,1.9-10,0.7-13.6c-1.8-5.5-7.6-8.5-13.1-7
		C514.7,405.8,519.7,409.1,521.4,414.5z"/>
	<path class="st55" d="M505.8,415.8c0,3.1,1,5.7,0,5.7c-1.1,0-2.8-2.2-2.8-5.3s1.7-5.9,2.7-5.9S505.7,412.7,505.8,415.8z"/>
</g>
<g id="Balloons_L_2_1_" class="st0">
	<path class="st47" d="M526.2,460l-0.2,0c0.3-19.3,7-28.9,7.1-29l0.2,0.1C533.2,431.2,526.5,440.7,526.2,460z"/>
	<path class="st56" d="M548.2,419.9c-1.8,5.7-9.4,13.8-15.1,12c-5.7-1.8-7.2-12.8-5.4-18.5s7.9-8.8,13.5-7
		C546.9,408.1,550,414.2,548.2,419.9z"/>
	<path class="st57" d="M546.4,420.6c-1,3.2-3.6,7-6.7,9.9c3.9-2.4,7.4-7,8.6-10.6c1.8-5.5-1.1-11.4-6.5-13.4
		C546.1,409.6,548.1,415.3,546.4,420.6z"/>
	<path class="st58" d="M532.7,413.3c-1.8,2.5-2.5,5.2-3.4,4.6s-1-3.4,0.8-5.9c1.8-2.5,4.8-3.8,5.7-3.2
		C536.7,409.5,534.5,410.8,532.7,413.3z"/>
</g>
<g id="Balloons_L_3" class="st0">
	<path class="st59" d="M535.3,430.2c0,6-4.8,16-10.8,16s-10.8-10-10.8-16s4.8-10.8,10.8-10.8S535.3,424.2,535.3,430.2z"/>
	<path class="st60" d="M533.9,431.4c0,3.3-1.3,7.8-3.4,11.5c3-3.5,5-8.9,5-12.7c0-5.8-4.5-10.5-10.2-10.8
		C530.2,421.1,533.9,425.8,533.9,431.4z"/>
	<path class="st51" d="M518.6,428.6c-1,2.9-0.8,5.8-1.8,5.4s-1.9-3-1-5.9s3.4-5,4.4-4.7C521.2,423.8,519.5,425.7,518.6,428.6z"/>
</g>
</svg>
