<svg xmlns="http://www.w3.org/2000/svg" viewBox="0 0 841.9 595.3"><path fill="#FEF804" d="M345.7 292.4c3.7.2 6.7 3.3 6.7 7.1a9 9 0 01-.3 2.2l1.5-.2 2.1.3.6.2-.2-.1a7 7 0 014.3 8.8c-.5 1.4-1.4 3-2.7 4.4l-.1.1-.4.4-.5.5-.2.2a8.2 8.2 0 01-4.7 2.4c-.3 2.3-1.5 5.1-3.2 7.1l.1-.2c-.6.7-1.2 1.3-1.8 1.7-.6 2.6-1 5.7-1.1 9.4l.3 2.8v.4l.2 2-.1.1-.2-2.4-.4-4.3a108 108 0 00-1.1-7.4c-3.6-.2-6.4-5.8-6.8-9.7-3.3-.8-6.8-4.8-7.8-7.8a7 7 0 014.5-8.9c.8-.2 1.5-.4 2.3-.4l1.6.2-.2-1.9c0-3.9 3.2-7.1 7.1-7.1l.5.1c.1 0 .1 0 0 0m.1 43.4a46 46 0 011-8.4c-.4.3-.9.4-1.4.5 0 2.6.1 5.1.3 7.4l.1.5m-1-7.8l.7 5.3-.2-5.3h-.5m.9-40.6h-.5c-5.7 0-10.5 4-11.8 9.3l-.6.2c-6.3 2.1-9.7 9-7.6 15.3 1.2 3.5 4.3 7.6 8.2 9.8 1.1 3.7 3.3 7.7 6.7 9.7l.6 4.2.4 4.3.2 2.2c.1 1.7 1 3.2 2.5 4 .8.4 1.6.7 2.5.7.8 0 1.5-.2 2.2-.5l.1-.1a5.1 5.1 0 002.8-4.8l-.1-1.7-.1-.8v-.1l-.2-2.5c.1-2.3.3-4.4.6-6.5l.3-.3.6-.6a20 20 0 003.6-6.4c1.3-.6 2.6-1.5 3.9-2.7l.2-.2.7-.7.5-.6.1-.1c1.7-1.9 3-4.1 3.7-6.1a12.1 12.1 0 00-8-15.3 12 12 0 00-11.2-9.6l-.3-.1z"/></svg>