<svg xmlns="http://www.w3.org/2000/svg" viewBox="0 0 841.9 595.3"><path fill="#FEF804" d="M795.9 285.6c4.7.2 8.4 4.1 8.4 8.8l-.3 2.7 1.8-.2a8.4 8.4 0 014.6 1.3l.3.2.3.2a8.6 8.6 0 013.3 9.9c-.9 3-3.9 6.7-7 8.7l.2-.2a9 9 0 01-3.9 1.5c-.4 2.9-1.9 6.5-3.9 8.9l.1-.3a9 9 0 01-2.3 2.1c-.7 3.2-1.2 7.1-1.3 11.7l.6 6.6-.2.1-.2-2.6a149 149 0 00-1.9-15c-4.4-.3-7.9-7.2-8.4-12-4.1-1-8.5-5.9-9.7-9.7a9 9 0 018.4-11.7h.9l1.2.2-.3-2.4a8.7 8.7 0 019.3-8.8m.2 53.8c.2-3.9.6-7.3 1.3-10.2a5 5 0 01-1.7.6c0 3 .1 6 .3 8.7l.1.9m-1.3-9.4h-.1l.9 5.9-.2-5.9h-.6m1.1-49.4h-.5c-6.8 0-12.4 4.9-13.6 11.3l-1.5.4a14 14 0 00-8.7 17.5c1.4 4.2 5.3 9.3 10.1 11.8 1.2 4.7 4.2 9.8 8.4 12.1l.8 5.4.6 6.4.2 2.3a4.9 4.9 0 006.6 4.3l.2-.1a4.9 4.9 0 003.4-5.1l-.6-6.5c.1-3 .4-6 .9-8.7l.7-.7.7-.6c1.9-2.2 3.4-5.1 4.4-8.1l1.1-.5.9-.5c4.1-2.6 7.8-7.2 9.1-11.4a14 14 0 00-5.2-15.5l-.3-.2h-.1l-.3-.2c-1-.6-2-1.1-3-1.4l-.9-.2c-1-6.5-6.3-11.5-13.1-11.7l-.3-.1z"/></svg>