<svg xmlns="http://www.w3.org/2000/svg" viewBox="0 0 841.9 595.3"><path fill="#FEF804" d="M112 250.1c3 0 5.9 1.1 8.3 3 2.7 2.1 4.9 5.2 6.2 8.9l.4-3.3h.1l.6-.2.5-.1.5-.1.5-.2.5-.1.8-.2 1.1-.3.3-.1-.3 2.8 1.3-.5.2.6-1.3.5 2.2 2.1-5 2.2-1.9-2.1c.4 1.2.6 2.5.8 3.9.8 6.5-1.4 12.5-5.2 16.2l3.9 4.3s-.1.3-.7.3l-.6-.1-3.4-3.7a12.7 12.7 0 01-6.6 2.9h-.1l-1.1.1-2 .2h-.9l-1.4-.1-1.9 5.9c-.3.2-.5.3-.8.3-.5 0-.8-.4-.8-.4l2-6c-2.8-.6-5.4-2.2-7.5-4.4l-2.9 3.1h-.3c-.7 0-.7-.7-.8-.8l3.1-3.3a21 21 0 01-4.6-10.9c-1.1-10 4.4-18.8 12.4-19.9h.4l2.6-.3h.2l1.2-.2m0-5l-2 .1-.4.1-2.1.2h-.7C96 247.1 88.7 258.3 90.1 271c.4 3.6 1.5 6.9 3.2 9.9l-.3.3c-.9.9-1.4 2.1-1.4 3.5l.1 1a5.7 5.7 0 005.7 4.8l1.6-.2c.8-.2 1.5-.6 2.1-1.1l.8.5-.5 1.5c-.2.5-.3 1-.3 1.6 0 2.9 2.6 5.4 5.8 5.4a6 6 0 005.5-3.8l.8-2.5 1-.1 1.2-.1H115.7c1.8-.2 3.5-.7 5.1-1.4l.6.7a5 5 0 001.9 1.3c.8.3 1.6.5 2.4.5 2.3 0 4.3-1.3 5.2-3.3a5 5 0 00-.8-5.4l-1.1-1.2c2.6-4 3.9-9 3.8-14.1l3-1.3a5 5 0 002.9-3.7c.2-1.3-.1-2.6-.8-3.7 0-.5-.1-.9-.3-1.4l-.2-.6-.7-1.4a5.2 5.2 0 00-5-4.4l-1.3.2-.3.1-1.1.3-.6.2-.2.1-.5.1-.2.1a20 20 0 00-4.6-4.5c-3.3-2.5-7-3.8-10.9-3.8z"/></svg>