<?xml version="1.0" encoding="utf-8"?>
<!-- Generator: Adobe Illustrator 17.1.0, SVG Export Plug-In . SVG Version: 6.00 Build 0)  -->
<!DOCTYPE svg PUBLIC "-//W3C//DTD SVG 1.1//EN" "http://www.w3.org/Graphics/SVG/1.1/DTD/svg11.dtd">
<svg version="1.1" id="Layer_1" xmlns="http://www.w3.org/2000/svg" xmlns:xlink="http://www.w3.org/1999/xlink" x="0px" y="0px"
	 viewBox="0 0 841.9 595.3" enable-background="new 0 0 841.9 595.3" xml:space="preserve">
<g id="Sign" display="none">
	<path display="inline" fill="#A66C78" d="M328.2,274.6L328.2,274.6c-0.7,0.1-1.2-0.4-1.2-1.1v-34.1c0-0.5,0.4-1,0.9-1.1l0,0
		c0.7-0.1,1.2,0.4,1.2,1.1v34.1C329,274.1,328.6,274.6,328.2,274.6z"/>
	<path display="inline" fill="#864A54" d="M327.8,238.5c-0.1,0-0.1,0-0.1,0.1c0.4,0.1,0.7,0.5,0.7,1.1v34.1c0,0.5-0.3,0.9-0.8,1.1
		c0.2,0.1,0.3,0.1,0.5,0.1c0.5-0.1,0.9-0.5,0.9-1.1v-34.1C329,238.9,328.4,238.3,327.8,238.5z"/>
</g>
<g id="Sign_2" display="none">
	<path display="inline" fill="#A66C78" d="M339.2,253.5h-23.5c-0.3,0-0.5-0.1-0.7-0.3l-3.6-3.1c-0.4-0.4-0.5-1.1-0.1-1.4l3.6-3.6
		c0.2-0.2,0.5-0.3,0.7-0.3h23.5c0.3,0,0.5,0.1,0.7,0.3l3.3,3.4c0.4,0.4,0.4,1,0,1.4l-3.3,3.4C339.8,253.4,339.5,253.5,339.2,253.5z"
		/>
	<polygon display="inline" fill="#864A54" points="336.3,247.2 336.3,251.2 339.4,249.2 	"/>
	<polygon display="inline" fill="#864A54" points="319.2,251.2 319.2,247.2 316.1,249.2 	"/>
	<rect x="318.7" y="248.4" display="inline" fill="#864A54" width="17.9" height="1.4"/>
</g>
<g>
	<path fill="#EBB642" d="M112,250.1c3,0,5.9,1.1,8.3,3l0,0c2.7,2.1,4.9,5.2,6.2,8.9l0.4-3.3l0.1,0l0,0l0.6-0.2l0,0l0.5-0.1l0,0
		l0.5-0.1l0,0l0.5-0.2l0,0l0.5-0.1l0,0l0.8-0.2l0,0l1.1-0.3l0,0l0.3-0.1l-0.3,2.8l1.3-0.5l0.2,0.6l-1.3,0.5l2.2,2.1l-5,2.2l-1.9-2.1
		c0.4,1.2,0.6,2.5,0.8,3.9c0.8,6.5-1.4,12.5-5.2,16.2l3.9,4.3c0,0-0.1,0.3-0.7,0.3c-0.2,0-0.4,0-0.6-0.1l-3.4-3.7
		c-1.9,1.6-4.2,2.6-6.6,2.9c0,0,0,0,0,0c0,0,0,0,0,0c0,0,0,0-0.1,0c-0.4,0-0.8,0.1-1.1,0.1l-2,0.2c-0.3,0-0.6,0-0.9,0
		c-0.5,0-0.9,0-1.4-0.1l-1.9,5.9c-0.3,0.2-0.5,0.3-0.8,0.3c-0.5,0-0.8-0.4-0.8-0.4l2-6c-2.8-0.6-5.4-2.2-7.5-4.4l-2.9,3.1
		c-0.1,0-0.2,0-0.3,0c-0.7,0-0.7-0.7-0.8-0.8l3.1-3.3c-2.4-2.9-4.1-6.7-4.6-10.9c-1.1-10,4.4-18.8,12.4-19.9h0.2h0.1h0.1l2.6-0.3
		c0.1,0,0.1,0,0.2,0C111.1,250.2,111.6,250.1,112,250.1 M96.5,284.8C96.5,284.8,96.5,284.8,96.5,284.8L96.5,284.8
		C96.5,284.8,96.5,284.8,96.5,284.8 M112,247.1C112,247.1,112,247.1,112,247.1c-0.6,0-1.2,0-1.8,0.1c-0.1,0-0.2,0-0.3,0l-2.3,0.3
		h-0.2c-0.1,0-0.3,0-0.4,0c-9.7,1.4-16.3,11.6-15,23.2c0.5,3.8,1.7,7.3,3.7,10.4l-1.4,1.5c-0.5,0.5-0.9,1.3-0.9,2.1
		c0,0.2,0,0.4,0.1,0.6c0.4,1.9,1.9,3.2,3.7,3.2c0.4,0,0.7,0,1.1-0.1c0.6-0.1,1-0.4,1.4-0.9l0.9-1c1.1,0.8,2.3,1.5,3.5,2.1l-1,3.1
		c-0.1,0.3-0.2,0.6-0.2,1c0,1.8,1.8,3.4,3.8,3.4c0.6,0,1.6-0.2,2.6-0.9c0.5-0.4,0.8-0.9,1-1.5l1.2-3.7c0.1,0,0.3,0,0.4,0
		c0,0,0.1,0,0.1,0l1.9-0.2c0.4,0,0.8,0,1.2-0.1c0,0,0.1,0,0.1,0c0,0,0.1,0,0.1,0c2-0.2,4-0.9,5.8-1.9l1.7,1.8
		c0.3,0.4,0.7,0.6,1.2,0.8c0.6,0.2,1.2,0.3,1.7,0.3c1.8,0,3-1.1,3.4-2.1c0.5-1.1,0.3-2.3-0.5-3.2l-2.1-2.4c3.2-4.2,4.7-9.8,4.3-15.6
		l4.2-1.8c0.9-0.4,1.6-1.2,1.8-2.2c0.2-1-0.1-2-0.8-2.7c0.1-0.5,0-1-0.1-1.4l-0.2-0.6c-0.2-0.5-0.4-0.9-0.8-1.2
		c0-0.9-0.4-1.8-1.1-2.4c-0.5-0.5-1.2-0.7-1.9-0.7c-0.3,0-0.6,0-0.9,0.1c-0.1,0-0.2,0-0.3,0.1l-1.1,0.3c-0.2,0.1-0.3,0.1-0.5,0.2
		c-0.1,0-0.2,0-0.3,0.1l-0.5,0.1c-0.2,0-0.3,0.1-0.5,0.2c0,0,0,0,0,0l-0.5,0.1c-0.1,0-0.2,0-0.2,0.1c-0.1,0-0.2,0.1-0.3,0.1
		c-1.3-1.9-2.8-3.6-4.5-4.9c-0.1-0.1-0.3-0.2-0.4-0.3C118.8,248.3,115.5,247.1,112,247.1L112,247.1z"/>
</g>
<g id="Parents_Hand" display="none">
	<path display="inline" fill="#875D46" d="M485.2,342.1c-0.1,3.2-5.3,10.5-10.2,14.5c0,0-2.3,1.4-3.2,1.6c-0.4,0.1-0.8,0.3-0.7,0.6
		c0.1,0.3,0.7,0.5,1.4,0.3c1.2-0.4,0.3,0.7-0.5,1.4c-0.9,0.7-1.1,1.9-0.3,2.4c0.9,0.5,4.2-1.8,5.3-4.7c0,0,8.9-6.2,9.8-11.1
		C487.7,342.1,485.2,342.1,485.2,342.1z"/>
	<path display="inline" fill="#66A32E" d="M483.9,352.1c-2.6-1.1-2.8-2.1-2.8-2.1c0.4-3,4.1-10.8,7.3-12.1c0,0-0.4,3.2-0.1,6.4
		C488.8,349.2,483.9,352.1,483.9,352.1z"/>
	<path display="inline" fill="#4D7A23" d="M484.3,352.1c0.1-0.1,0-0.3-0.1-0.3c-1.3-0.4-2.4-1.4-2.9-2c-0.2-0.3-0.6-0.2-0.7,0.1
		c-0.1,0.1-0.1,0.3-0.2,0.4c-0.2,0.3-0.4,0.5-0.5,0.7c-0.2,0.1-0.3,0.4-0.1,0.6c0.3,0.5,1.1,1.4,2.8,2.1c0.1,0.1,0.3,0,0.4-0.1
		c0.2-0.2,0.5-0.5,0.7-0.6C484,352.7,484.2,352.4,484.3,352.1z"/>
</g>
<g id="Parents_Head_Man" display="none">
	<path display="inline" fill="#875D46" d="M489.8,335.6c0.5,0,0.6,0.8,0.7,1.6c0.1,0.8,0.7,1.5,1.6,1.6c0,0,0,0,0.1,0
		c1.1,0.1,2-0.6,2.1-1.6c0.1-0.9,0.3-2.1,0.8-3.6c0.1-0.3,0.2-0.6,0.3-0.9c0.1-0.2,0.1-0.3,0.2-0.5c0.1-0.1,0.1-0.2,0.1-0.3
		c0,0,0-0.3,0.1-0.7c0.1-1.1,0.3-3.4,0.2-4.2c-0.7-3.9-8-4-8.7-0.5C487.2,326.7,485.5,335.6,489.8,335.6z"/>
	<path display="inline" fill="#875D46" d="M497,331.3c-0.5,0.7-1.3,1.1-1.9,0.7c-0.6-0.3-0.7-1.2-0.2-1.9c0.5-0.7,1.3-1.1,1.9-0.7
		C497.4,329.8,497.5,330.6,497,331.3z"/>
	<path display="inline" fill="#654635" d="M496.2,331.6c0,0,0.3-0.1,0.6-0.7c0.3-0.9-0.3-1.2-0.3-1.2S497.1,330.4,496.2,331.6z"/>
	<path display="inline" fill="#654635" d="M492.5,335.4c1,0-1.2,0.3-2,2c-0.1-1.4-0.3-1.8-0.7-1.8
		C489.8,335.6,491.6,335.4,492.5,335.4z"/>
	<path display="inline" fill="#6B2379" d="M495.8,332.2c0,0-0.3,2.6-0.9,2.7c-0.3,0-0.4-0.2-0.5-0.5c-0.1-0.3,0.1-0.7,0.3-1l0.9-1.2
		H495.8z"/>
	<path display="inline" fill="#6B2379" d="M496.5,329.3c0,0,1.1-3.9,0.4-4.7c-0.7-0.8-7.8-6-10.2-2.9c-1.8,2.3,0.9,3.7,0.9,3.7
		s0.7,0.5,3,0.1c2.4-0.4,3.4-0.4,3.4,0.5c-0.1,0.9,1.1,1,1.1,1l-0.1,2.9C495,329.9,495.6,329.1,496.5,329.3z"/>
</g>
<g id="Parents" display="none">
	<ellipse display="inline" opacity="0.48" fill="#3C3939" enable-background="new    " cx="494.8" cy="408.3" rx="24.8" ry="2"/>
	<path display="inline" fill="#875D46" d="M489.6,406.6l-8.7,0.5c-0.9-1.8,3.9-2.8,5.6-2.8l0.1-2.2h3.2c0,0-0.3,1.1-0.3,2.1
		C489.6,405.4,489.6,406.6,489.6,406.6z"/>
	<path display="inline" fill="#875D46" d="M499,407l-8.4,0.8c-0.9-1.8,3.7-2.8,5.5-2.9l-0.1-2.2l2.9-0.2c0,0,0.1,1.1,0.1,2.1
		C499,405.9,499,407,499,407z"/>
	<g display="inline">
		<path fill="#302F30" d="M495.8,404.9c-0.1,1.1,2.5,0.9,3.3,0.8c0.1,0,0.2,0.1,0.3,0.2c0.1,0.5,0.2,1.4,0.2,1.4
			c-0.5,0.5-8.7,1.1-9.1,0.8C489.4,406.1,494.1,405,495.8,404.9z"/>
	</g>
	<g display="inline">
		<path fill="#302F30" d="M486.2,404.3c-0.1,1.1,2.5,0.9,3.3,0.9c0.1,0,0.2,0.1,0.3,0.2c0.1,0.4,0.1,1.3,0.1,1.3
			c-0.5,0.4-8.7,0.8-9.2,0.5C479.8,405.3,484.5,404.4,486.2,404.3z"/>
	</g>
	<path display="inline" fill="#4D7A23" d="M498.6,338.3c0,0,3.9,2.4,6.8,6.4c0,0,3.6,0.1,6.5,1.8c0,0,0.4,1.4-1,2.4
		c0,0-5.5-0.1-8.2-0.7l-5.8-4.3L498.6,338.3z"/>
	<path display="inline" fill="#0577AE" d="M486.9,363.8l-0.8,39.6c0,0.2,0.1,0.3,0.3,0.4c0.5,0.1,1.6,0.3,3.2-0.1
		c0.1,0,0.3-0.2,0.3-0.3l4.4-43.3L486.9,363.8z"/>
	<path display="inline" fill="#079FE8" d="M489.6,359.7l6.2,44.6c0,0.2,0.1,0.3,0.3,0.4c1.3,0.4,2.3,0.1,2.8-0.2
		c0.1-0.1,0.3-0.3,0.3-0.4l-0.3-44.4H489.6z"/>
	<path display="inline" fill="#66A32E" d="M490.5,337.2c-3.6,0.7-6,4.1-5.9,9.2c0.1,4.3,0.5,11.7,2,17.1c0.1,0.2,0.1,0.3,0.3,0.4
		c0.9,0.6,5.3,2.6,12.1,0c0.3-0.1,0.5-0.4,0.5-0.7c-0.1-12.1,1.8-22.2-0.1-24.2c-1.6-1.5-3-1.7-5.1-2c0,0.5-0.5,1.3-1.8,1.4
		C490.4,338.4,490.5,337.2,490.5,337.2z"/>
	<path display="inline" fill="#737373" d="M484.6,348.2"/>
	<path display="inline" fill="#4D7A23" d="M486.9,364c-0.1-0.1-0.3-0.3-0.3-0.4c-1.2-4.2-1.8-9.7-1.9-13.9
		c0.3,2.2,3.6,16.6,14.8,13.9c-0.1,0.2-0.2,0.3-0.4,0.4C492.1,366.5,487.9,364.6,486.9,364z"/>
	<path display="inline" fill="#875D46" d="M513.2,349.2c-0.6,1.9-2.6,1.8-3.2,1.1c-0.7-0.9-0.1-1.7,0.9-2.8c0,0-0.9-1.2-0.6-1.4
		C511.4,345.6,513.8,347.5,513.2,349.2z"/>
	<path display="inline" fill="#3A5C1A" d="M498.8,363c0,0-5.7,2.6-11.7,0.1C487.1,363.1,492.1,364.9,498.8,363z"/>
	<path display="inline" fill="#9937A4" d="M498.8,365.2l1.2,37.7l3,0.1c0.8-8.4,2.5-26.4,3.2-37.7L498.8,365.2z"/>
	<path display="inline" fill="#F7BA99" d="M496.1,408.2l6.6-0.7c0,0,0.2-1.8,0.5-4.6l-3-0.1l0.1,2c0,0.5-0.3,0.8-0.8,0.9
		C496.3,406,495.3,407.3,496.1,408.2z"/>
	<path display="inline" fill="#6B2379" d="M504.6,369.5l1.4,0.5c-0.8,10.7-2.1,24.6-2.8,32.1L504.6,369.5z"/>
	<path display="inline" fill="#595959" d="M499,405.8c1.9,0.7,3.7,0.2,3.9-0.3c0.1-0.1,0.3,0.1,0.3,0.2c0,0.9-0.2,1.8-0.2,1.8
		c-0.4,0.5-6.4,1.2-8,0.8C494.2,407.2,496.2,406,499,405.8z"/>
	<path display="inline" fill="#F7BA99" d="M498.3,405.9c0,0,1.3,0.4,0.6,0.7s-1.9-0.4-1.9-0.4S497.3,406,498.3,405.9z"/>
	<path display="inline" fill="#6B2379" d="M508.3,403.7l2.8-0.1c0.3-9.5,0.7-30.1,0.6-38.5l-7.3,0.7
		C504,373.8,507.9,395.6,508.3,403.7z"/>
	<path display="inline" fill="#F7BA99" d="M503.3,409.3l7.7-0.8c0,0,0.1-1.9,0.1-4.9l-2.8,0.1c0.1,1,0.1,1.7,0,2.2
		c-0.1,0.5-0.4,0.8-0.9,0.9C504.3,407.1,502.5,408.2,503.3,409.3z"/>
	<polygon display="inline" fill="#6B2379" points="509.5,368.6 510.7,403.6 511.1,403.6 511.7,368 	"/>
	<path display="inline" fill="#595959" d="M507.5,406.8c1.8,0.5,3,0.3,3.6,0.1c0.1-0.1,0.3,0.1,0.3,0.2c0,0.9-0.1,1.4-0.1,1.4
		c-0.4,0.5-6.4,1.2-8,0.8C502.5,408.2,504.3,407.1,507.5,406.8z"/>
	<path display="inline" fill="#F7BA99" d="M506.6,406.8c0,0,1.3,0.4,0.6,0.7c-0.7,0.3-1.9-0.4-1.9-0.4S505.5,407,506.6,406.8z"/>
	<path display="inline" fill="#FFFFFF" d="M512.5,370.6c0,0-0.9-21.8-2.1-24.5c-0.1-0.3-1-0.7-2-0.9c-2.8-0.7-5.8-0.4-8.2,1.1
		c-0.6,0.4-1.1,0.7-1.1,1.1c-0.2,2.8-1,23.2-1,23.2S501.9,374,512.5,370.6z"/>
	<path display="inline" fill="#6E6E6E" d="M501.2,368.4c0,0,1.9,0.2,1.9,0.5s-1.9,0.3-1.9,0.3V368.4z"/>
	<path display="inline" fill="#BFBFBF" d="M512.5,370.6c0,0,0-0.7-0.1-1.8l0,0c-14.6,2.9-13.1-12-13.1-12l-0.7,2
		c-0.3,5.9-0.5,11.6-0.5,11.6S501.9,374,512.5,370.6z"/>
	<path display="inline" fill="#919191" d="M503.4,368.6c0,0-1.9,0-2,0.3c0,0.3,2,0.6,2,0.6V368.6z"/>
	<path display="inline" fill="#F7BA99" d="M499.4,346.8l-0.2,10.3l1.6,10.9l0,0c0,0,0.1,0.7,1.3,0.6c1.7-0.2,3.4,1.5,0.7,1.8
		c-0.5,0.1-1,0-1.4-0.1c-1.2-0.3-2.2-1.3-2.6-2.6c-0.7-3-2.4-9.9-2.4-10.7C496.5,354.9,498.5,348.2,499.4,346.8z"/>
	<path display="inline" fill="#F7BA99" d="M501.7,368.8c0.7,0,1.2-0.6,1.2-0.6s6.9-9.5,6.9-10.1c0-0.5-0.3-5.9-0.7-8.2
		c-0.1-0.5,0-1.1,0.3-1.6l0.2-1.2c0.1-0.4,0.7-0.5,0.8-0.1c1.1,3,2.6,10.1,2.3,11.8c-0.3,2-8.3,10.7-8.3,10.7s-1.4,1.3-3.4,1.1
		C498.4,370.4,500,368.7,501.7,368.8z"/>
	<path display="inline" fill="#FFFFFF" d="M508.8,353.6l-0.2-1.1c-0.1-4.3,0.5-5.7,1.6-6.7c0,0,1.6,1.8,2.6,5.1
		C512.9,350.9,512.9,352.3,508.8,353.6z"/>
	<path display="inline" fill="#FFFFFF" d="M499.6,353.3l0.3-6.8c0,0-1.7,0.9-2.9,5.5C496.9,351.9,497.5,353.1,499.6,353.3z"/>
	<path display="inline" fill="#BFBFBF" d="M510.2,346c0,0-1.9,1.1-1.5,6.8C508.6,352.7,508.6,347.9,510.2,346z"/>
	<path display="inline" fill="#BFBFBF" d="M499.4,352.7c0,0-0.6-4.7,1.2-6.8C500.7,345.9,499.4,348,499.4,352.7z"/>
	<g id="Logo" display="inline">
		<circle fill="#FF882A" cx="491.1" cy="350" r="5.1"/>
		<path fill="#FFFFFF" d="M487.2,348.5c-0.1-0.1-0.2-0.1-0.3-0.2c-0.1-0.1-0.1-0.2-0.1-0.3s0-0.3,0.1-0.3s0.1-0.2,0.3-0.3
			c0.1-0.1,0.2-0.1,0.3-0.1c0.1,0,0.3,0,0.3,0.1c0.1,0.1,0.2,0.1,0.3,0.2c0.1,0.1,0.1,0.2,0.1,0.3s0,0.3-0.1,0.3s-0.1,0.2-0.3,0.3
			c-0.1,0.1-0.2,0.1-0.3,0.1S487.3,348.5,487.2,348.5z M487.8,348.2c0.1-0.1,0.1-0.1,0.1-0.3c0-0.1,0-0.2-0.1-0.3s-0.1-0.1-0.2-0.1
			c-0.1,0-0.2,0-0.3,0.1c-0.1,0.1-0.1,0.1-0.1,0.3c0,0.1,0,0.2,0.1,0.3c0.1,0.1,0.1,0.1,0.3,0.1
			C487.7,348.3,487.7,348.3,487.8,348.2z"/>
		<path fill="#FFFFFF" d="M489.7,347.4c0.1,0.1,0.1,0.3,0.1,0.4v0.7h-0.4v-0.7c0-0.1,0-0.2-0.1-0.2c-0.1-0.1-0.1-0.1-0.2-0.1
			s-0.2,0-0.2,0.1c-0.1,0.1-0.1,0.1-0.1,0.3v0.6h-0.4v-1.2h0.3v0.1c0.1-0.1,0.1-0.1,0.2-0.1c0.1-0.1,0.1-0.1,0.3-0.1
			C489.4,347.3,489.6,347.3,489.7,347.4z"/>
		<path fill="#FFFFFF" d="M491.4,348.1h-0.9c0,0.1,0.1,0.1,0.1,0.2c0.1,0.1,0.1,0.1,0.3,0.1c0.1,0,0.1,0,0.2,0
			c0.1,0,0.1-0.1,0.1-0.1l0.2,0.2c-0.1,0.1-0.3,0.2-0.5,0.2c-0.1,0-0.3,0-0.4-0.1c-0.1-0.1-0.2-0.1-0.3-0.2
			c-0.1-0.1-0.1-0.2-0.1-0.3s0-0.3,0.1-0.3c0.1-0.1,0.1-0.2,0.3-0.3s0.2-0.1,0.3-0.1c0.1,0,0.3,0,0.3,0.1c0.1,0.1,0.2,0.1,0.3,0.2
			C491.5,347.8,491.5,347.9,491.4,348.1C491.4,347.9,491.4,348,491.4,348.1z M490.6,347.6c-0.1,0.1-0.1,0.1-0.1,0.2h0.6
			c0-0.1-0.1-0.1-0.1-0.2c-0.1-0.1-0.1-0.1-0.2-0.1C490.7,347.5,490.6,347.6,490.6,347.6z"/>
		<path fill="#FFFFFF" d="M487.8,350.6c-0.1,0-0.1,0.1-0.1,0.1c-0.1,0-0.1,0-0.2,0c-0.1,0-0.3-0.1-0.3-0.1c-0.1-0.1-0.1-0.2-0.1-0.3
			v-0.5h-0.2v-0.3h0.2v-0.3h0.4v0.3h0.3v0.3h-0.3v0.5c0,0.1,0,0.1,0.1,0.1c0,0,0.1,0.1,0.1,0.1c0.1,0,0.1,0,0.1-0.1L487.8,350.6z"/>
		<path fill="#FFFFFF" d="M490,349.4l-0.5,1.2h-0.3l-0.3-0.8l-0.3,0.8h-0.3l-0.5-1.2h0.3l0.3,0.9l0.3-0.9h0.3l0.3,0.9l0.3-0.9H490z"
			/>
		<path fill="#FFFFFF" d="M490.4,350.6c-0.1-0.1-0.2-0.1-0.3-0.2c-0.1-0.1-0.1-0.2-0.1-0.3c0-0.1,0-0.3,0.1-0.3
			c0.1-0.1,0.1-0.2,0.3-0.3c0.1-0.1,0.2-0.1,0.3-0.1c0.1,0,0.3,0,0.3,0.1c0.1,0.1,0.2,0.1,0.3,0.2c0.1,0.1,0.1,0.2,0.1,0.3
			s0,0.3-0.1,0.3c-0.1,0.1-0.1,0.2-0.3,0.3c-0.1,0.1-0.2,0.1-0.3,0.1C490.7,350.7,490.6,350.6,490.4,350.6z M491,350.3
			c0.1-0.1,0.1-0.1,0.1-0.3s0-0.2-0.1-0.3c-0.1-0.1-0.1-0.1-0.2-0.1c-0.1,0-0.2,0-0.3,0.1c-0.1,0.1-0.1,0.1-0.1,0.3
			c0,0.1,0,0.2,0.1,0.3c0.1,0.1,0.1,0.1,0.3,0.1C491,350.4,491,350.4,491,350.3z"/>
		<path fill="#FFFFFF" d="M487.2,352.5c-0.1-0.1-0.2-0.1-0.3-0.2c-0.1-0.1-0.1-0.2-0.1-0.3c0-0.1,0-0.3,0.1-0.3s0.1-0.2,0.3-0.3
			c0.1-0.1,0.2-0.1,0.3-0.1c0.1,0,0.3,0,0.3,0.1c0.1,0.1,0.2,0.1,0.2,0.3l-0.3,0.1c-0.1-0.1-0.1-0.2-0.3-0.2c-0.1,0-0.2,0-0.3,0.1
			c-0.1,0.1-0.1,0.1-0.1,0.3c0,0.1,0,0.2,0.1,0.3c0.1,0.1,0.1,0.1,0.3,0.1c0.1,0,0.2-0.1,0.3-0.2l0.3,0.1c-0.1,0.1-0.1,0.2-0.2,0.3
			c-0.1,0.1-0.2,0.1-0.3,0.1C487.4,352.6,487.3,352.6,487.2,352.5z"/>
		<path fill="#FFFFFF" d="M489.5,351.4c0.1,0.1,0.1,0.3,0.1,0.4v0.7h-0.3v-0.1c-0.1,0.1-0.2,0.2-0.4,0.2c-0.1,0-0.2,0-0.3-0.1
			c-0.1,0-0.1-0.1-0.1-0.1c-0.1-0.1-0.1-0.1-0.1-0.2c0-0.1,0.1-0.2,0.1-0.3c0.1-0.1,0.2-0.1,0.4-0.1h0.3c0-0.1,0-0.1-0.1-0.2
			c-0.1-0.1-0.1-0.1-0.2-0.1c-0.1,0-0.1,0-0.2,0c-0.1,0-0.1,0.1-0.2,0.1l-0.1-0.3c0.1-0.1,0.1-0.1,0.3-0.1c0.1,0,0.2-0.1,0.3-0.1
			C489.3,351.3,489.4,351.4,489.5,351.4z M489.2,352.3c0.1,0,0.1-0.1,0.1-0.1v-0.1h-0.3c-0.1,0-0.2,0.1-0.2,0.1c0,0.1,0,0.1,0.1,0.1
			c0.1,0,0.1,0.1,0.1,0.1C489.1,352.3,489.2,352.3,489.2,352.3z"/>
		<path fill="#FFFFFF" d="M490.8,351.4c0.1,0,0.1-0.1,0.3-0.1v0.3c-0.1,0-0.1,0-0.1,0c-0.1,0-0.2,0-0.3,0.1
			c-0.1,0.1-0.1,0.1-0.1,0.3v0.6h-0.4v-1.2h0.3v0.2C490.6,351.4,490.6,351.4,490.8,351.4z"/>
		<path fill="#FFFFFF" d="M492.6,352.1h-0.9c0,0.1,0.1,0.1,0.1,0.2c0.1,0.1,0.1,0.1,0.3,0.1c0.1,0,0.1,0,0.2,0
			c0.1,0,0.1-0.1,0.1-0.1l0.2,0.2c-0.1,0.1-0.3,0.2-0.5,0.2c-0.1,0-0.3,0-0.4-0.1c-0.1-0.1-0.2-0.1-0.3-0.2
			c-0.1-0.1-0.1-0.2-0.1-0.3c0-0.1,0-0.3,0.1-0.3c0.1-0.1,0.1-0.2,0.3-0.3c0.1-0.1,0.2-0.1,0.3-0.1s0.3,0,0.3,0.1
			c0.1,0.1,0.2,0.1,0.3,0.2C492.7,351.8,492.7,351.9,492.6,352.1C492.6,351.9,492.6,352,492.6,352.1z M491.7,351.6
			c-0.1,0.1-0.1,0.1-0.1,0.2h0.6c0-0.1-0.1-0.1-0.1-0.2c-0.1-0.1-0.1-0.1-0.2-0.1C491.9,351.5,491.8,351.6,491.7,351.6z"/>
		<path fill="#FFFFFF" d="M494.3,352.1h-0.9c0,0.1,0.1,0.1,0.1,0.2c0.1,0.1,0.1,0.1,0.3,0.1c0.1,0,0.1,0,0.2,0s0.1-0.1,0.1-0.1
			l0.2,0.2c-0.1,0.1-0.3,0.2-0.5,0.2c-0.1,0-0.3,0-0.4-0.1c-0.1-0.1-0.2-0.1-0.3-0.2c-0.1-0.1-0.1-0.2-0.1-0.3c0-0.1,0-0.3,0.1-0.3
			c0.1-0.1,0.1-0.2,0.3-0.3c0.1-0.1,0.2-0.1,0.3-0.1s0.3,0,0.3,0.1c0.1,0.1,0.2,0.1,0.3,0.2C494.4,351.8,494.4,351.9,494.3,352.1
			C494.3,351.9,494.3,352,494.3,352.1z M493.5,351.6c-0.1,0.1-0.1,0.1-0.1,0.2h0.6c0-0.1-0.1-0.1-0.1-0.2c-0.1-0.1-0.1-0.1-0.2-0.1
			C493.6,351.5,493.5,351.6,493.5,351.6z"/>
		<path fill="#FFFFFF" d="M431.8,392.6c0.1-0.1,0.3-0.1,0.5-0.1v0.6c-0.1,0-0.1,0-0.1,0c-0.2,0-0.3,0.1-0.5,0.1
			c-0.1,0.1-0.1,0.3-0.1,0.5v1.1h-0.7v-2.3h0.7v0.3C431.6,392.8,431.7,392.6,431.8,392.6z"/>
	</g>
</g>
<g id="Parents_Head_Woman" display="none">
	<path display="inline" fill="#501A5B" d="M503.1,330.1c0,0-5.3-0.1-4.1,4.5c1.2,4.7,6.8,0.9,6.8,0.5
		C505.8,334.7,503.1,330.1,503.1,330.1z"/>
	<path display="inline" fill="#313547" d="M502.8,333.5c0,0,0.7,4.9-3.9,8.9c0,0,3,1.4,7,1.2c4.1-0.3,2.1-9.7,2-9.8
		C507.8,333.8,502.8,333.5,502.8,333.5z"/>
	<path display="inline" fill="#F7BA99" d="M498.7,338.4c0,3.3,1.7,3.6,2.1,3.7c1.8,0.5,2,0.9,2.1,3.4c0,0,1.8,1.6,3.6-0.1
		c0,0,0-2.1,0.7-4.5c0.1-0.3,0.2-0.6,0.3-0.9c0.1-0.2,0.1-0.3,0.2-0.5c0.1-0.1,0.1-0.2,0.1-0.3c0,0,0-0.3,0.1-0.7
		c0.1-1.1,0.5-3.8,0.5-4.7c-0.3-2.4-2.4-3.7-4.3-3.7c-3.4,0.1-3.8,1.5-4.7,4.1C499.3,334.1,498.7,336.3,498.7,338.4z"/>
	<path display="inline" fill="#F7BA99" d="M508.8,338.3c-0.5,0.7-1.3,1.1-1.9,0.8c-0.6-0.3-0.7-1.2-0.3-1.9c0.5-0.7,1.2-1.1,1.8-0.8
		C509,336.7,509.2,337.5,508.8,338.3z"/>
	<ellipse display="inline" fill="#FBF7EA" cx="507.4" cy="338.7" rx="0.4" ry="0.3"/>
	<path display="inline" fill="#CF9C80" d="M502.9,344.4c-0.1-1.6-0.5-2-2-2.4c1.2,0.3,1.8,0.3,2.6,0.3
		C504,342.3,503.1,344.1,502.9,344.4z"/>
	<path display="inline" fill="#CF9C80" d="M507.9,338.7c0,0,0.4-0.1,0.6-0.8c0.3-0.9-0.4-1.3-0.4-1.3S509,337.5,507.9,338.7z"/>
	<path display="inline" fill="#313547" d="M507.3,339.2c-0.7,1.2-2.8,3.3-5.5,3.4c2.3,1.8,6.8,1.2,6.8,1.2c3-8.9,0.2-11.8,0.2-11.8
		c-4.4-4.3-9.6-1.2-9.6,0.5c0,0,0.3,2.6,6.8,4.8c0.4,0.1,1-1.2,2.1-0.9C509.2,336.6,509.3,338.7,507.3,339.2z"/>
</g>
<g id="Stage" display="none">
	<path display="inline" fill="#EABA7E" d="M610,258.6H591l-0.6-5.7h-17l-0.9,8.5h-19.3l-1.6,8.7c14.3-1.2,37.9-3.3,60.7,2.3
		L610,258.6z"/>
	<path display="inline" fill="#B08B5F" d="M580.6,266v-7.4h-1.5v-2.8h5.1V266L580.6,266L580.6,266z"/>
	<path display="inline" fill="#B08B5F" d="M603.8,267.5h-6.4l3.7-4.1c0.2-0.2,0.3-0.5,0.3-0.7c0-0.2-0.1-0.3-0.2-0.5
		c-0.1-0.1-0.3-0.2-0.5-0.2c-0.3,0-0.5,0.1-0.6,0.3c-0.1,0.2-0.1,0.4-0.1,0.5h-2.3c0-0.3,0.1-0.5,0.1-0.9c0.1-0.3,0.2-0.6,0.4-0.9
		s0.5-0.6,0.9-0.8c0.4-0.2,1-0.3,1.6-0.3s1.2,0.1,1.7,0.3c0.5,0.2,0.8,0.5,1.1,0.9c0.3,0.3,0.3,0.8,0.3,1.2c0,0.3-0.1,0.6-0.1,0.9
		c-0.1,0.3-0.2,0.5-0.4,0.7c-0.1,0.2-0.3,0.5-0.5,0.7c-0.2,0.2-0.5,0.5-0.9,0.8h1.8L603.8,267.5L603.8,267.5z"/>
	<path display="inline" fill="#B08B5F" d="M563.2,265.6h-0.3v-1.1h0.3c0.3,0,0.5-0.1,0.5-0.4c0-0.1-0.1-0.2-0.1-0.3
		c-0.1-0.1-0.2-0.1-0.3-0.1c-0.2,0-0.3,0.1-0.3,0.1c-0.1,0.1-0.1,0.2-0.1,0.3h-1.6c0.1-0.5,0.3-0.9,0.5-1.2c0.3-0.4,0.9-0.5,1.6-0.5
		c0.4,0,0.7,0.1,1.1,0.2c0.3,0.1,0.6,0.3,0.7,0.5c0.2,0.2,0.3,0.5,0.3,0.8c0,0.2-0.1,0.4-0.1,0.5c-0.1,0.1-0.2,0.3-0.3,0.4
		c-0.1,0.1-0.3,0.1-0.5,0.2l0,0c0.1,0.1,0.3,0.1,0.5,0.2c0.1,0.1,0.3,0.2,0.4,0.4s0.2,0.4,0.2,0.7c0,0.3-0.1,0.5-0.2,0.8
		c-0.1,0.3-0.4,0.5-0.7,0.6c-0.3,0.1-0.8,0.3-1.4,0.3c-0.8,0-1.3-0.2-1.6-0.6c-0.3-0.4-0.5-0.9-0.5-1.3h1.7c0,0.1,0.1,0.3,0.1,0.4
		c0.1,0.1,0.2,0.2,0.5,0.2c0.3,0,0.5-0.1,0.5-0.5C563.8,265.7,563.6,265.6,563.2,265.6z"/>
</g>
<g id="Pump_Dynamic" display="none">
	<rect x="689.4" y="282.9" display="inline" fill="#6B6C6F" width="2.2" height="25.1"/>
	<path display="inline" fill="#414042" d="M698.6,284.5h-16.1c-0.9,0-1.6-0.7-1.6-1.6l0,0c0-0.9,0.7-1.6,1.6-1.6h16.1
		c0.9,0,1.6,0.7,1.6,1.6l0,0C700.2,283.8,699.4,284.5,698.6,284.5z"/>
	<path display="inline" fill="#676668" d="M699.3,281.4h-5.8c0.7,0,1.1,0.7,1.1,1.6c0,0.9-0.5,1.6-1.1,1.6h5.8
		c0.7,0,1.1-0.7,1.1-1.6C700.4,282.1,699.9,281.4,699.3,281.4z"/>
	<rect x="690.9" y="284.5" display="inline" fill="#89898C" width="0.7" height="19.3"/>
</g>
<g id="Pump" display="none">
	<ellipse display="inline" opacity="0.48" fill="#3C3939" enable-background="new    " cx="690.5" cy="331" rx="9.8" ry="1.2"/>
	<rect x="686.5" y="304" display="inline" fill="#FF882A" width="8" height="27.4"/>
	<rect x="685.4" y="328.5" display="inline" fill="#57585A" width="10.3" height="2.9"/>
	<rect x="685.4" y="303.8" display="inline" fill="#57585A" width="10.3" height="4.2"/>
	<rect x="692.6" y="303.8" display="inline" fill="#6B6C6F" width="3.1" height="4.2"/>
	<rect x="692.3" y="328.5" display="inline" fill="#6B6C6F" width="3.3" height="2.9"/>
	<rect x="693.4" y="308" display="inline" fill="#FFA55E" width="1.1" height="20.4"/>
</g>
<g id="Balloons_R_1" display="none">
	<path display="inline" fill="#909093" d="M796.4,344.9c-1.9-12.7-0.5-39.9-0.5-40.2h0.2c0,0.3-1.4,27.5,0.5,40.1L796.4,344.9z"/>
	<path display="inline" fill="#A7A6F6" d="M804.2,294.4c0,4.9-3.9,13.1-8.8,13.1c-4.9,0-8.8-8.2-8.8-13.1s3.9-8.8,8.8-8.8
		C800.2,285.6,804.2,289.6,804.2,294.4z"/>
	<path display="inline" fill="#9190DB" d="M803,295.5c0,2.8-1.1,6.4-2.8,9.4c2.4-2.8,4.1-7.3,4.1-10.5c0-4.7-3.7-8.6-8.4-8.8
		C799.9,287,803,290.9,803,295.5z"/>
	<path display="inline" fill="#CACAFA" d="M790,292.4c-0.8,2.4-0.7,4.7-1.5,4.5c-0.9-0.3-1.6-2.4-0.8-4.9s2.8-4.1,3.6-3.9
		C792.1,288.5,790.7,290.1,790,292.4z"/>
	<path display="inline" opacity="0.52" fill="#FFFFFF" enable-background="new    " d="M792.8,308.8c0.3-1.1,0.2-2.2,0.6-2
		c0.4,0.1,0.4,1,0.1,2.1s-0.9,2-1.2,1.9C791.9,310.7,792.5,309.9,792.8,308.8z"/>
	<polygon display="inline" fill="#4C568E" points="802.1,316.2 801,317.4 802.8,317.7 	"/>
	<ellipse display="inline" opacity="0.48" fill="#3C3939" enable-background="new    " cx="796.6" cy="349.7" rx="12.6" ry="1.2"/>
</g>
<g id="Balloons_R_2" display="none">
	<path display="inline" fill="#909093" d="M796.6,347.5c-1.2-18.9-5.5-32.5-5.6-32.7l0.2-0.1c0.1,0.1,4.3,13.8,5.6,32.7L796.6,347.5
		z"/>
	<path display="inline" fill="#FFDF57" d="M793.1,302.7c1.5,4.6,0.4,13.7-4.3,15.2c-4.6,1.5-11-5-12.5-9.7c-1.5-4.6,1-9.6,5.6-11.2
		S791.6,298,793.1,302.7z"/>
	<path display="inline" fill="#EBCB44" d="M792.3,304c0.9,2.6,1,6.4,0.3,9.8c1.4-3.4,1.6-8.2,0.6-11.2c-1.5-4.5-6.2-7-10.7-5.7
		C786.8,296.9,790.9,299.7,792.3,304z"/>
	<path display="inline" fill="#FFEC9A" d="M779.5,305.1c0,2.5,0.9,4.7,0,4.7s-2.3-1.8-2.3-4.3s1.4-4.8,2.2-4.8
		S779.4,302.6,779.5,305.1z"/>
</g>
<g id="Balloons_R_3" display="none">
	<path display="inline" fill="#909093" d="M796.2,341.3H796c0.2-15.8,5.7-23.7,5.8-23.7l0.1,0.1
		C801.9,317.7,796.4,325.5,796.2,341.3z"/>
	<path display="inline" fill="#75AEB9" d="M814.2,308.4c-1.4,4.7-7.8,11.2-12.4,9.8c-4.7-1.4-5.9-10.5-4.5-15.1
		c1.4-4.7,6.4-7.2,11.1-5.7C813.1,298.8,815.7,303.8,814.2,308.4z"/>
	<path display="inline" fill="#639FAB" d="M812.8,309.1c-0.9,2.6-3,5.7-5.5,8.1c3.2-2,6.1-5.7,7-8.7c1.4-4.5-0.9-9.3-5.3-10.9
		C812.5,300.1,814.1,304.7,812.8,309.1z"/>
	<path display="inline" fill="#ACCED5" d="M801.5,303.1c-1.4,2-2,4.3-2.8,3.8c-0.7-0.5-0.8-2.8,0.7-4.9c1.5-2,3.9-3.1,4.6-2.6
		C804.8,299.9,803,301.1,801.5,303.1z"/>
</g>
<g id="Balloons_R_4" display="none">
	<path display="inline" fill="#96CD7C" d="M803.6,316.9c0,4.9-3.9,13.1-8.8,13.1c-4.9,0-8.8-8.2-8.8-13.1c0-4.9,3.9-8.8,8.8-8.8
		C799.7,308,803.6,312,803.6,316.9z"/>
	<path display="inline" fill="#83BF66" d="M802.4,317.9c0,2.8-1.1,6.4-2.8,9.4c2.4-2.8,4.1-7.3,4.1-10.5c0-4.7-3.7-8.6-8.4-8.8
		C799.5,309.4,802.4,313.3,802.4,317.9z"/>
	<path display="inline" opacity="0.52" fill="#FFFFFF" enable-background="new    " d="M790,315.7c-0.8,2.4-0.7,4.7-1.5,4.5
		c-0.9-0.3-1.6-2.4-0.8-4.9s2.8-4.1,3.6-3.9C792.1,311.6,790.7,313.2,790,315.7z"/>
</g>
<g id="Balloons_L_1" display="none">
	<path display="inline" fill="#909093" d="M346.1,340c-1.5-10.2-0.4-32-0.4-32.3h0.1c0,0.2-1.1,22,0.4,32.2L346.1,340z"/>
	<path display="inline" fill="#A7A6F6" d="M352.3,299.5c0,3.9-3.2,10.5-7.1,10.5c-3.9,0-7.1-6.6-7.1-10.5s3.2-7.1,7.1-7.1
		C349.2,292.4,352.3,295.5,352.3,299.5z"/>
	<path display="inline" fill="#9190DB" d="M351.4,300.3c0,2.2-0.9,5.1-2.2,7.6c2-2.3,3.3-5.9,3.3-8.3c0-3.8-3-6.9-6.7-7.1
		C349,293.5,351.4,296.6,351.4,300.3z"/>
	<path display="inline" fill="#CACAFA" d="M340.9,297.9c-0.7,1.9-0.5,3.8-1.2,3.6c-0.7-0.2-1.2-2-0.7-3.9c0.6-1.9,2.2-3.3,2.9-3.1
		C342.6,294.7,341.5,295.9,340.9,297.9z"/>
	<polygon display="inline" fill="#855749" points="341.5,314.8 341.2,316 342.6,315.6 	"/>
	<ellipse display="inline" opacity="0.48" fill="#3C3939" enable-background="new    " cx="346.3" cy="343.9" rx="10.2" ry="1"/>
</g>
<g id="Balloons_L_2" display="none">
	<path display="inline" fill="#909093" d="M346.3,342c-1-15.2-4.4-26.1-4.5-26.2l0.1-0.1c0.1,0.1,3.5,11.1,4.5,26.2L346.3,342z"/>
	<path display="inline" fill="#FFDF57" d="M343.4,306.1c1.2,3.7,0.3,11-3.4,12.2c-3.7,1.2-8.8-4-10.1-7.8c-1.2-3.7,0.8-7.7,4.5-8.9
		C338.2,300.3,342.2,302.4,343.4,306.1z"/>
	<path display="inline" fill="#EBCB44" d="M342.8,307.2c0.7,2.1,0.8,5.1,0.3,7.9c1.1-2.8,1.2-6.6,0.5-8.9c-1.2-3.6-5-5.6-8.6-4.6
		C338.4,301.5,341.7,303.6,342.8,307.2z"/>
	<path display="inline" fill="#FFEC9A" d="M332.5,308c0,2,0.7,3.7,0,3.7c-0.7,0-1.8-1.4-1.8-3.5c0-2,1.1-3.9,1.8-3.9
		S332.5,306,332.5,308z"/>
</g>
<g id="Balloons_L_2_1_" display="none">
	<path display="inline" fill="#909093" d="M345.9,337.1h-0.1c0.2-12.7,4.6-19,4.7-19.1l0.1,0.1C350.5,318.2,346.1,324.4,345.9,337.1
		z"/>
	<path display="inline" fill="#75AEB9" d="M360.4,310.7c-1.2,3.7-6.2,9.1-9.9,7.9c-3.7-1.2-4.7-8.4-3.6-12.2
		c1.2-3.7,5.2-5.8,8.9-4.6C359.5,303,361.6,307,360.4,310.7z"/>
	<path display="inline" fill="#639FAB" d="M359.2,311.2c-0.7,2.1-2.4,4.6-4.4,6.5c2.6-1.6,4.9-4.6,5.7-7c1.2-3.6-0.7-7.5-4.3-8.8
		C359,304,360.3,307.7,359.2,311.2z"/>
	<path display="inline" fill="#ACCED5" d="M350.2,306.4c-1.2,1.6-1.6,3.4-2.2,3c-0.6-0.4-0.7-2.2,0.5-3.9c1.2-1.6,3.2-2.5,3.7-2.1
		C352.8,303.9,351.4,304.7,350.2,306.4z"/>
</g>
<g id="Balloons_L_3" display="none">
	<path display="inline" fill="#96CD7C" d="M351.9,317.5c0,3.9-3.2,10.5-7.1,10.5c-3.9,0-7.1-6.6-7.1-10.5s3.2-7.1,7.1-7.1
		C348.8,310.4,351.9,313.5,351.9,317.5z"/>
	<path display="inline" fill="#83BF66" d="M351,318.3c0,2.2-0.9,5.1-2.2,7.6c2-2.3,3.3-5.9,3.3-8.3c0-3.8-3-6.9-6.7-7.1
		C348.6,311.5,351,314.6,351,318.3z"/>
	<path display="inline" opacity="0.52" fill="#FFFFFF" enable-background="new    " d="M340.9,316.4c-0.7,1.9-0.5,3.8-1.2,3.6
		c-0.7-0.3-1.2-2-0.7-3.9c0.6-1.9,2.2-3.3,2.9-3.1C342.6,313.3,341.5,314.5,340.9,316.4z"/>
</g>
</svg>
