<svg xmlns="http://www.w3.org/2000/svg" viewBox="0 0 1280 1024"><circle cx="634.7" cy="479.7" r="225.6" fill="#ff882a"/><path fill="#fff" d="M508.4 389c0 8.4-2.7 15.4-8.3 21.2a28 28 0 01-21 8.6 28 28 0 01-20.9-8.6c-5.5-5.7-8.3-12.8-8.3-21.2s2.8-15.4 8.3-21.2a27.9 27.9 0 0121-8.6c8.4 0 15.4 2.9 21 8.6a29.4 29.4 0 018.3 21.2zm-43 0a17 17 0 003.9 11.6c2.6 3 5.9 4.4 9.9 4.4s7.3-1.5 9.9-4.4c2.5-3 3.8-6.9 3.8-11.6s-1.3-8.6-3.8-11.6c-2.6-3-6-4.5-10-4.5s-7.2 1.5-9.8 4.5c-2.6 3-3.9 7-3.9 11.6zm74-3.3v32.2h-15.5v-57.8h15.4v6.5c4.7-5 10-7.4 15.8-7.4 5.8 0 10.7 2.1 14.6 6.4 4 4.3 6 10 6 17.2v35h-15.5v-32.5c0-9-3.1-13.4-9.4-13.4a11 11 0 00-8 3.5c-2.3 2.4-3.5 5.8-3.5 10.3zm102.2 23.8a30.3 30.3 0 01-22 9.3c-8.4 0-15.3-2.7-20.8-8.1a29.1 29.1 0 01-8.2-21.8c0-9 2.8-16.3 8.4-21.7 5.6-5.3 12.2-8 19.8-8a28 28 0 0119.4 7.2c5.3 4.8 8 11.4 8 19.7v8.6h-40.4c.5 3.2 2 5.7 4.7 7.7s5.7 3 9.1 3c5.4 0 9.9-1.8 13.4-5.6l8.6 9.7zm-14.8-34.2c-2.1-1.9-4.7-2.8-7.8-2.8s-5.8 1-8.4 2.9c-2.5 2-4 4.5-4.4 7.8h24.3c-.3-3.4-1.6-6-3.7-8zm-151.6 90.2v26c0 2.1.5 3.9 1.6 5.1a5 5 0 004 1.9c2.8 0 5.3-1.4 7.3-4l5.7 11.2c-4.8 4.6-9.8 6.9-15.2 6.9s-9.8-1.9-13.4-5.5a20.1 20.1 0 01-5.6-15v-26.6h-6.4V454h6.4v-17.3h15.6V454h13.4v11.5h-13.4zm54.5 46.2h-16L495 453.9h16l10.8 35 10.8-35h15l10.7 35 10.9-35h16l-18.8 57.8h-16L540 480.2l-10.3 31.5zM648 482.8c0 8.4-2.8 15.4-8.4 21.2a28 28 0 01-20.9 8.6 28 28 0 01-21-8.6c-5.5-5.8-8.3-12.8-8.3-21.2s2.8-15.4 8.4-21.2a27.9 27.9 0 0120.9-8.6c8.4 0 15.4 2.9 21 8.6a29.3 29.3 0 018.3 21.2zm-43 0a17 17 0 003.8 11.6c2.6 3 5.9 4.4 9.9 4.4s7.3-1.5 9.9-4.4c2.6-3 3.8-6.9 3.8-11.6s-1.2-8.6-3.8-11.6c-2.6-3-5.9-4.5-9.9-4.5s-7.3 1.5-9.9 4.5c-2.5 3-3.8 6.9-3.8 11.6zM482 581.1c5.1 0 9.8-2.7 13.9-8l9 10.7c-7 7.7-14.7 11.6-23 11.6-8.2 0-15.2-2.8-21-8.2a28.4 28.4 0 01-8.5-21.5c0-8.8 3-16 8.7-21.6a28.7 28.7 0 0120.5-8.3 30.8 30.8 0 0122.8 10.2l-8 11c-1.8-2.3-4-4-6.5-5.2a17.6 17.6 0 00-7.6-1.8c-4 0-7.5 1.4-10.4 4.1a15 15 0 00-4.4 11.5 15 15 0 004.3 11.4c3 2.7 6.3 4.1 10.2 4.1zm90 13.4h-14.4v-7c-4 5.3-8.8 7.9-14.7 7.9s-10.7-1.8-14.7-5.3a18 18 0 01-5.9-14.2c0-5.9 2-10.3 6.1-13.2 4.1-3 9.7-4.4 16.8-4.4h11.5v-.4c0-6.1-3-9.2-9.3-9.2a27.2 27.2 0 00-16 5.8l-6.8-10.4a39.8 39.8 0 0124.7-8.3c6.7 0 12.2 1.8 16.4 5.3s6.4 9 6.4 16.6v36.8zm-15.4-22v-2.8h-9.6c-6.2 0-9.2 2-9.2 6 0 2.1.7 3.7 2.2 4.8 1.4 1.1 3.5 1.7 6.3 1.7s5.1-.9 7.2-2.7 3.1-4 3.1-7zm68.6-21.6c-4.6 0-8 1.7-10.3 5.1a24 24 0 00-3.4 13.5v25h-15.3v-57.7h15.3v7.6c2-2.4 4.5-4.4 7.5-6 3-1.7 6-2.5 9-2.6l.1 15.1h-3zm70.9 35.2a30 30 0 01-22 9.3c-8.3 0-15.2-2.7-20.7-8.1a29.2 29.2 0 01-8.2-21.8c0-9 2.8-16.3 8.4-21.6 5.6-5.4 12.1-8 19.7-8s14 2.3 19.3 7.1c5.3 4.8 8 11.4 8 19.8v8.5h-40.2c.5 3.2 2 5.8 4.7 7.8s5.7 3 9 3c5.4 0 9.9-2 13.3-5.7l8.7 9.8zM681.4 552c-2.1-1.9-4.7-2.8-7.7-2.8s-5.9 1-8.4 3c-2.5 1.8-4 4.5-4.4 7.8h24.2c-.4-3.5-1.6-6.1-3.7-8zm88.1 34.2a30 30 0 01-21.9 9.3c-8.3 0-15.2-2.7-20.7-8.1a29.2 29.2 0 01-8.2-21.8c0-9 2.8-16.3 8.3-21.6 5.6-5.4 12.2-8 19.8-8 7.5 0 14 2.3 19.3 7.1 5.3 4.8 8 11.4 8 19.8v8.5h-40.3c.5 3.2 2.1 5.8 4.8 7.8s5.6 3 9 3c5.4 0 9.8-2 13.3-5.7l8.6 9.8zM754.8 552c-2.2-1.9-4.7-2.8-7.8-2.8s-5.8 1-8.3 3c-2.6 1.8-4 4.5-4.4 7.8h24.1c-.3-3.5-1.5-6.1-3.6-8zm69.3-1c-4.6 0-8 1.7-10.2 5.1a24 24 0 00-3.4 13.5v25H795v-57.7h15.4v7.6c2-2.4 4.5-4.4 7.4-6 3-1.7 6-2.5 9-2.6l.2 15.1h-3z"/></svg>