<svg xmlns="http://www.w3.org/2000/svg" viewBox="0 0 1281 806.4"><style>.st1{opacity:.49;fill:#fff}.st2{fill:#89c96b}.st3{fill:#7fba63}.st5{fill:#70ab54}.st6{fill:#629c47}.st7{fill:#52491e}.st10{fill:#f7ba99}.st11{fill:#302f30}.st12{fill:#875d46}.st13{fill:#66a32e}.st14{fill:#4c3528}.st15{fill:#6b2379}.st16{fill:#4d7a23}.st22{fill:#595959}.st23{fill:#fff}.st24{fill:#313547}.st27{fill:#bfbfbf}.st29{fill:#cf9c80}.st33{fill:#65a149}.st34{fill:#6dad4f}.st36{fill:#4d7838}</style><path id="Sky" fill="#c5e5e5" d="M1280.8 806.4H.9L0 0h1280.8z"/><g id="Clouds"><path d="M1.9 52.1l911.2-18L1.9 3.2zM54.6 149.1s77.9-.9 87.5-16.7c9.6-15.7 5-29.9 31.6-29.6 12 .2 16.8 5.6 18.4 11.6a26.2 26.2 0 0025.3 19.7c7.2-.2 12.5-2.5 9.8-9.9-6.6-18.3-1.8-64.4 43-54.6 44.8 9.7 47.5 44.8 38.1 59.4-9.4 14.7 114.7 21.1 114.7 21.1s-368.4-1-370.1 0M1280.8 547.6l-713.5-18.9 713.5-21zM1280.8 141.7L856 122.8l424.8-20.9zM1.9 334.6l474.7-18.8-474.7-21z" class="st1"/></g><g id="Pines_back"><path d="M473.6 414.9l-20.7 79.8h39.2z" class="st2"/><path d="M493.2 434.3L472.5 514h39.2z" class="st2"/><path d="M512.5 454.9l-21 81h39.8zM443.2 442.1l-20.7 79.8h39.2z" class="st2"/><path d="M1123 514.1l-20.7 79.8h39.2zM868 520.1l-20.7 79.8h39.2z" class="st3"/><path d="M883.6 547.7l-18 69.6h34.2zM1137.2 528.3l-20.7 79.8h39.2zM1235.7 494.7l-20.7 79.7h39.2z" class="st3"/></g><g id="Landscape_3"><path d="M230.4 514.1s269-107.7 490.3 49.6-259.6 81.7-259.6 81.7L230.4 514.1z" class="st2"/><path d="M230.4 514.1L396 608.4l129 24.5s-44-14.9-52.5-72.4c-8.5-57.6 140.7-3.7 124.5-32.8s-136.3-49-136.3-49l-.3-.1c-129.1-4.9-230 35.5-230 35.5z" class="st3"/></g><path id="Landscape_2" fill="#73ad58" d="M1134.4 804.8c-6.8-3.3-748.3-335.5-1134.5-335.5l.1 337 1134.4-1.5z"/><g id="Bush2"><path d="M6.5 740.2l-1.3-1.7c-.5-4-3.2-8.2-5.7-12.1v34.9c3 1.7 6.2 2.9 11 3.2 3.4.2 5.7-3.5 5.4-6a38.3 38.3 0 00-9.4-18.3z" class="st5"/><circle cx="131.6" cy="568" r="157.1" class="st6"/><circle cx="273.5" cy="592.3" r="104.4" class="st6"/><circle cx="-19.7" cy="610.7" r="67.6" class="st6"/><circle cx="27.1" cy="685.4" r="103.5" class="st6"/></g><g id="Landscape_front"><path d="M1281 559s-218.8-5.5-485.6-5c-276.5.5-604.7 8.6-794.8 109.4l-.6 143h1281V559z" class="st3"/><path d="M1091 805.6h190l.4-243.2s-662.3 1.1-713.9 92.6c-41 72.4 298.6 124.5 523.5 150.6z" class="st5"/></g><g id="Road"><path d="M613.2 556.8s-161.8 12.4-159.1 249h39.7c-.1 0-29-216.8 119.4-249z" class="st7"/><path fill="#f1d55c" d="M619.5 556c-63.9-2.5-177.1 12.8-260.9 15.8-52.5 5.3-206.4 28.7-358.6 188.7v45.9l456-1.6c-.5-9.7-3.8-232.2 163.5-248.8z"/><path d="M.6 730.9v29.6C162 600.2 307 578.4 325.3 576.2 305.6 578.5 140 600.8.6 730.9zM325.3 576.2l1.9-.2-1.9.2z" class="st7"/></g><g id="Parents"><ellipse cx="349.9" cy="634.4" fill="#3c3939" opacity=".5" rx="129.5" ry="10.4"/><path d="M322.8 625.4l-45.3 2.7c-4.7-9.6 20.4-14.4 29.2-14.9l.2-11.3 16.5.1s-1.6 5.4-1.3 11.1l.7 12.3zM372.2 627.7l-44 4.3c-4.7-9.6 19.7-14.7 28.5-15.2l-.8-11.3 15.1-1.1a6344.8 6344.8 0 001.2 23.3z" class="st10"/><path d="M355.3 616.2c-.5 6 13.2 4.6 17.2 4.2a1 1 0 011.2 1l1.1 7.5c-2.6 2.3-45.3 5.9-47.9 4.2-5.2-10.2 19.2-16.1 28.4-16.9zM305.1 613.2c-.8 5.5 13 4.6 17.1 4.3.6 0 1.1.4 1.2.9l.8 7c-2.7 2.1-45.4 4.3-48 2.6-4.9-9.5 19.7-14.2 28.9-14.8z" class="st11"/><path d="M299.8 288c-.7 16.9-27.9 54.6-53.2 75.6 0 0-12.2 7.7-16.6 8.2-2.2.2-4.1 1.7-3.3 3.3.8 1.6 3.3 2.8 7.2 1.4 6.1-2.2 1.8 3.9-2.8 7.7-4.7 3.7-5.8 10.1-1.3 12.7 4.5 2.6 21.9-9.2 27.5-24.9 0 0 46.6-32.6 51.1-58.3s-8.6-25.7-8.6-25.7z" class="st12"/><path d="M292.9 340.4c-13.6-5.8-14.3-10.8-14.3-10.8 2-15.9 21.7-56.4 38-63.1 0 0-2.1 16.8-.5 33.3 2.4 25.8-23.2 40.6-23.2 40.6z" class="st13"/><path d="M323.9 253.9c2.7-.1 3.2 4.2 3.6 8.7a9.8 9.8 0 008.5 8.5h.2a9.8 9.8 0 0010.9-8.2 99.4 99.4 0 015.7-23.1l1.1-2.6.7-1.6.4-3.5c.6-5.9 1.6-17.5.9-21.9-3.3-20.6-41.6-20.9-45.8-2.7 0 .1-8.8 46.8 13.8 46.4z" class="st12"/><path d="M361.4 231.8c-2.5 3.7-6.9 5.4-10 3.6-3-1.7-3.5-6.2-1-9.9s6.9-5.4 10-3.6c3 1.7 3.4 6.1 1 9.9z" class="st12"/><path d="M356.9 233s1.9-.6 3.1-3.6c1.8-4.3-1.6-6.2-1.6-6.2s3.6 4.1-1.5 9.8zM337.9 253c5.3-.2-6.6 1.3-10.3 10.6-.5-7.3-1.7-9.7-3.6-9.7.1 0 9.2-.7 13.9-.9z" class="st14"/><path d="M355.2 236.1s-1.3 13.8-4.8 14c-1.5.1-2.2-1.1-2.4-2.4-.3-1.8.2-3.6 1.2-5.1l4.4-6.6 1.6.1z" class="st15"/><path d="M369.6 268.5s20.7 12.6 35.2 33.7c0 0 18.8.4 34.1 9.6 0 0 1.9 7.5-5 12.6 0 0-28.5-.2-42.7-3.5L361 298.2l8.6-29.7z" class="st16"/><path fill="#0577ae" d="M308.8 401.8L304.7 609a2 2 0 001.5 1.9c2.6.6 8.2 1.3 16.7-.4.8-.2 1.5-.9 1.5-1.7l23.1-226.1-38.7 19.1z"/><path fill="#079fe8" d="M323 380.2l32.8 233c.1 1 .8 1.8 1.8 2.1 6.9 2.1 12 .2 14.3-1.1.8-.4 1.3-1.3 1.3-2.2l-1.6-231.9-48.6.1z"/><path d="M327.3 262.5c-18.6 3.5-31.2 21.6-30.9 48.3.3 22.4 2.5 61.3 10.6 89.5a4 4 0 001.6 2.2c4.9 3.2 27.4 13.5 63.3 0a4 4 0 002.5-3.7c-.4-63.3 9.6-116.3-.3-126.7-8.5-7.8-15.7-8.9-26.9-10.4-.1 2.3-2.5 7-9.6 7.1-10.6.1-10.3-6.3-10.3-6.3z" class="st13"/><path d="M358.5 221.1s5.7-20.1 2.2-24.4-40.9-31.5-53.3-15.1c-9.1 12 5 19.4 5 19.4s3.5 2.6 15.9.5c12.3-2.2 17.9-2.1 17.5 2.3-.3 4.4 6 5.1 6 5.1l-.7 15.4c-.1-.1 2.9-4.1 7.4-3.2z" class="st15"/><path d="M308.6 402.4a4 4 0 01-1.6-2.2 338.5 338.5 0 01-10.1-72.9c1.8 11.3 19.1 86.6 77.3 73-.4 1-1.2 1.8-2.2 2.1-35.9 13.5-58.5 3.3-63.4 0z" class="st16"/><path d="M446.3 325.4c-3.1 10-13.5 9.1-16.4 5.5-3.6-4.6-.8-8.8 4.8-14.6 0 0-5-6.3-3.3-7.2 5.2-2.7 17.6 7.6 14.9 16.3z" class="st10"/><path fill="#3a5c1a" d="M370.7 397.2s-29.6 13.7-61.3.7c0 .1 26.6 9.3 61.3-.7z"/><path fill="#9937a4" d="M371 408.6l6.5 196.9 15.9.7c4.3-44 13.2-138.2 16.8-197l-39.2-.6z"/><path d="M356.6 634l34.5-3.8 2.4-24-15.9-.7.4 10.7a4.4 4.4 0 01-4.1 4.5c-16.3 1.8-21.4 8.5-17.3 13.3z" class="st10"/><path d="M401.2 431.3l7.4 2.4a8471.9 8471.9 0 01-14.7 168l7.3-170.4z" class="st15"/><path d="M371.9 621c10 3.5 19.5 1.2 20.3-1.5.2-.8 1.7.3 1.7 1.1-.1 4.9-1 9.5-1 9.6-2.2 2.7-33.2 6.5-41.7 4.2-4.5-5.6 5.9-11.9 20.7-13.4z" class="st22"/><path d="M368.4 621.6s6.9 2.1 3.2 3.7-9.9-2.1-9.9-2.1 1.1-.9 6.7-1.6z" class="st10"/><path d="M420.5 609.9l14.6-.2c1.2-49.5 3.7-157.3 3.1-201.3l-38.2 3.8c-1.7 41.4 18.1 155.5 20.5 197.7z" class="st15"/><path d="M394.2 639.5l40.3-4.1.6-25.7-14.6.2c.3 5 .3 9 .1 11.8a5 5 0 01-4.6 4.4c-16.5 1.8-26.2 7.9-21.8 13.4z" class="st10"/><path d="M426.7 426.7l6.6 183.1h1.8l3.2-186z" class="st15"/><path d="M415.9 626.2a28.3 28.3 0 0018.5.4c.8-.3 1.7.3 1.7 1.1l-.2 7.6c-2.2 2.7-33.2 6.5-41.7 4.2-4.4-5.5 5.3-11.6 21.7-13.3z" class="st22"/><path d="M411.4 626.8s6.9 2.1 3.2 3.7-9.9-2.1-9.9-2.1 1.2-.9 6.7-1.6z" class="st10"/><path d="M442.2 437.1s-4.6-114.2-10.9-128.2c-.8-1.8-5.2-3.4-10.5-4.8a56 56 0 00-42.8 5.5c-3.3 2-5.6 3.9-5.7 5.4-1 14.8-5.2 121.5-5.2 121.5s19.6 18.1 75.1.6z" class="st23"/><path d="M393.3 225s-27.9-.7-21.3 23.6 35.4 4.9 35.4 2.9c0-2.1-14.1-26.5-14.1-26.5z" class="st24"/><path d="M391.7 243.4s3.5 25.4-20.7 46.6c0 0 15.5 7.7 36.6 6.2s11.1-51 10.5-51.2-26.4-1.6-26.4-1.6z" class="st24"/><path d="M370.4 268.8c.1 17.2 8.9 18.6 11.2 19.1 9.4 2.3 10.7 4.6 11 17.6 0 0 9.2 8.5 18.9-.2 0 0-.1-10.9 3.4-23.9l1.4-4.7 1-2.7.6-1.6.2-3.6c.3-6 2.7-20.1 2.2-24.5-1.4-12.5-12.9-19.5-22.4-19.4-17.6.2-20 8-24.3 21.2 0 .1-3.2 11.8-3.2 22.7z" class="st10"/><path d="M422.9 268.3c-2.3 3.9-7 5.6-10.1 4-3.1-1.6-3.8-6.1-1.5-10 2.3-3.9 6.6-5.8 9.7-4.2 3.1 1.7 4.2 6.3 1.9 10.2z" class="st10"/><ellipse cx="415.7" cy="270.3" fill="#fbf7ea" rx="2" ry="1.9" transform="rotate(-.7 415.7 270.2) scale(.99997)"/><path fill="#6e6e6e" d="M383.3 425.7s10 1.2 10 2.5-9.9 1.7-9.9 1.7l-.1-4.2z"/><path d="M442.2 437.1l-.4-9.3c-76.3 15.2-68.7-62.5-68.7-62.5l-3.5 10.3-2.5 60.8s19.6 18.2 75.1.7z" class="st27"/><path fill="#919191" d="M394.7 426.7s-10.1 0-10.2 1.3c-.2 1.3 10.3 3.2 10.3 3.2l-.1-4.5z"/><path d="M374.2 312.8l-1.1 54 8.5 57.1s.7 3.7 6.7 3c8.8-1.1 17.6 7.8 3.7 9.4-2.6.3-5 0-7.2-.5a18.3 18.3 0 01-13.3-13.3 904.7 904.7 0 01-12.8-56.1c-.2-11.2 10.4-46.6 15.5-53.6z" class="st10"/><path d="M392.3 300.4c-.6-8.5-2.8-10.5-10.8-12.4 6.4 1.5 9.5 1.3 13.3 1.3 3.3 0-1.5 9.5-2.5 11.1zM418.5 270.2s2-.7 3.2-4.3c1.7-5-2.1-6.8-2.1-6.8s4.3 4.8-1.1 11.1z" class="st29"/><path d="M386.2 427.5c3.5.1 6.7-3.1 6.7-3.1s35.9-49.5 36.1-53.1a384 384 0 00-3.6-42.5c-.5-2.8 0-5.7 1.4-8.2l1.1-6.2c.4-2.2 3.4-2.4 4.1-.4 5.5 15.4 13.3 52.7 12 61.5-1.6 10.5-43.7 55.6-43.7 55.6s-7.4 7-17.6 6c-14-1.4-5.4-9.7 3.5-9.6z" class="st10"/><path d="M423 348.2l-1-5.4c-.4-22.3 2.8-29.8 8.7-35.1 0 0 8.4 9.1 13.7 26.5 0 0 .1 7.6-21.4 14zM374.7 346.5l1.4-35.6s-9.1 4.9-15 28.6c-.1 0 3.1 6.1 13.6 7z" class="st23"/><path d="M430 308.4s-10.1 5.4-7.8 35.3c0 .1-.2-25.4 7.8-35.3zM374.2 343.8s-3.2-24.8 6.5-35.6c0-.1-7 10.7-6.5 35.6z" class="st27"/><path fill="#41465f" d="M415.5 272.9a36.3 36.3 0 01-29 17.5c11.9 9.3 35.6 6.5 35.6 6.5 15.6-46.9 1.1-61.7 1.1-61.7-23.2-22.6-50.2-6.4-50.1 2.5 0 0 1.5 13.3 35.9 25.1 2.1.7 5.3-6.3 10.9-4.9 5.1 1.2 6 12.2-4.4 15z"/><path d="M295.2 340.7c.4-.7 0-1.6-.8-1.9-6.9-2-12.5-7.5-15.1-10.5a2.3 2.3 0 00-3.8.3l-1.2 2.1a11 11 0 01-2.8 3.5c-1 .7-1.4 2.1-.7 3.1 1.7 2.7 5.7 7.2 14.5 11 .7.3 1.4.1 1.9-.4 1-1 2.6-2.7 3.7-3.1 2.4-1 3.7-2.8 4.3-4.1z" class="st16"/><ellipse cx="326.5" cy="326.8" fill="#ff882a" rx="24.5" ry="25.1"/><path d="M308.1 319.7c-.5-.3-.9-.6-1.2-1.1a3 3 0 01-.4-1.6c0-.6.1-1.1.4-1.6.3-.5.7-.8 1.2-1.1.5-.3 1.1-.4 1.7-.4.6 0 1.2.1 1.7.4.5.3.9.6 1.2 1.1.3.5.4 1 .4 1.6a3 3 0 01-.4 1.6c-.3.5-.7.8-1.2 1.1-.5.3-1.1.4-1.7.4-.6 0-1.2-.2-1.7-.4zm2.8-1.5c.3-.3.4-.7.4-1.2s-.1-.9-.4-1.2c-.3-.3-.6-.5-1.1-.5-.4 0-.8.2-1.1.5-.3.3-.4.7-.4 1.2s.1.9.4 1.2c.3.3.7.5 1.1.5.4-.1.8-.2 1.1-.5zM319.9 314.5c.5.5.7 1.1.7 2v3.5h-1.7v-3.2c0-.5-.1-.8-.3-1.1-.2-.2-.5-.4-.9-.4s-.8.1-1 .4c-.3.3-.4.7-.4 1.2v3h-1.7v-6.1h1.7v.7c.2-.3.5-.5.9-.6l1.1-.2a3 3 0 011.6.8zM328.3 317.4h-4.5c.1.4.3.7.6.9.3.2.7.3 1.1.3l.8-.1.7-.4.9 1c-.6.7-1.4 1-2.5 1a3.4 3.4 0 01-3-1.5 3 3 0 01-.4-1.6c0-.6.1-1.1.4-1.6.3-.5.7-.9 1.1-1.1a3 3 0 011.6-.4 3 3 0 011.6.4 3 3 0 011.5 2.8c.1-.1.1 0 .1.3zm-4.1-1.9c-.3.2-.4.5-.5.9h2.9c-.1-.4-.2-.7-.5-.9-.3-.2-.6-.3-1-.3-.3-.1-.6 0-.9.3zM310.8 329.8l-.6.3-.8.1c-.7 0-1.3-.2-1.6-.6-.4-.4-.6-.9-.6-1.6v-2.5h-.9v-1.4h.9v-1.5h1.7v1.5h1.5v1.4h-1.5v2.5l.2.6.5.2.7-.2.5 1.2zM321.5 324l-2.2 6.1h-1.7l-1.3-3.8-1.4 3.8h-1.7l-2.1-6.1h1.6l1.4 4.1 1.5-4.1h1.5l1.4 4.1 1.5-4.1h1.5zM323.5 329.8c-.5-.3-.9-.6-1.2-1.1a3 3 0 01-.4-1.6c0-.6.1-1.1.4-1.6.3-.5.7-.8 1.2-1.1.5-.3 1.1-.4 1.7-.4.6 0 1.2.1 1.7.4.5.3.9.6 1.2 1.1.3.5.4 1 .4 1.6a3 3 0 01-.4 1.6c-.3.5-.7.8-1.2 1.1-.5.3-1.1.4-1.7.4-.6 0-1.2-.1-1.7-.4zm2.8-1.5c.3-.3.4-.7.4-1.2s-.1-.9-.4-1.2c-.3-.3-.6-.5-1.1-.5-.4 0-.8.2-1.1.5-.3.3-.4.7-.4 1.2s.1.9.4 1.2c.3.3.7.5 1.1.5.5 0 .8-.2 1.1-.5zM308.1 339.2c-.5-.3-.9-.6-1.2-1.1a3 3 0 01-.4-1.6c0-.6.1-1.1.4-1.6.3-.5.7-.8 1.2-1.1.5-.3 1.1-.4 1.7-.4.6 0 1.2.1 1.6.4.5.3.8.7 1 1.2l-1.3.7c-.3-.6-.8-.8-1.3-.8s-.8.2-1.1.5c-.3.3-.4.7-.4 1.2s.1.9.4 1.2c.3.3.7.5 1.1.5.6 0 1-.3 1.3-.8l1.3.7c-.2.5-.6.9-1 1.1a3 3 0 01-1.6.4c-.6-.1-1.2-.2-1.7-.5zM319 334c.5.5.7 1.1.7 2v3.5h-1.6v-.8c-.3.6-.9.9-1.8.9l-1.2-.2-.8-.7c-.2-.3-.3-.6-.3-1 0-.6.2-1 .6-1.3.4-.3 1.1-.5 1.9-.5h1.4c0-.4-.1-.7-.3-.9-.2-.2-.6-.3-1-.3l-.9.2-.8.4-.6-1.2 1.2-.5 1.4-.2c.9-.1 1.7.1 2.1.6zm-1.4 4.2c.2-.1.4-.3.5-.6v-.6h-1.2c-.7 0-1.1.2-1.1.7 0 .2.1.4.3.5l.7.2.8-.2zM324.9 333.5c.4-.2.8-.2 1.2-.2v1.6h-.4c-.5 0-.9.1-1.2.4-.3.3-.4.7-.4 1.3v2.9h-1.7v-6.1h1.7v.8c.1-.3.4-.5.8-.7zM333.9 336.9h-4.5c.1.4.3.7.6.9.3.2.7.3 1.1.3l.8-.1.7-.4.9 1c-.6.7-1.4 1-2.5 1a3.4 3.4 0 01-3-1.5 3 3 0 01-.4-1.6c0-.6.1-1.1.4-1.6.3-.5.7-.9 1.1-1.1a3 3 0 011.6-.4 3 3 0 011.6.4 3 3 0 011.5 2.8c.1-.1.1 0 .1.3zm-4.1-1.9c-.3.2-.4.5-.5.9h2.9c-.1-.4-.2-.7-.5-.9-.3-.2-.6-.3-1-.3-.3-.1-.6.1-.9.3zM341.9 336.9h-4.5c.1.4.3.7.6.9.3.2.7.3 1.1.3l.8-.1.7-.4.9 1c-.6.7-1.4 1-2.5 1a3.4 3.4 0 01-3-1.5 3 3 0 01-.4-1.6c0-.6.1-1.1.4-1.6.3-.5.7-.9 1.1-1.1a3 3 0 011.6-.4 3 3 0 011.6.4 3 3 0 011.5 2.8c.1-.1.1 0 .1.3zm-4.1-1.9c-.3.2-.4.5-.5.9h2.9c-.1-.4-.2-.7-.5-.9-.3-.2-.6-.3-1-.3-.3-.1-.6.1-.9.3zM346.5 333.5c.4-.2.8-.2 1.2-.2v1.6h-.4c-.5 0-.9.1-1.2.4-.3.3-.4.7-.4 1.3v2.9H344v-6.1h1.7v.8l.8-.7z" class="st23"/></g><g id="Bush"><circle cx="1118.2" cy="738.8" r="157.1" class="st6"/><circle cx="1254.2" cy="786.2" r="104.4" class="st6"/><circle cx="961.9" cy="756.2" r="67.6" class="st6"/><circle cx="995.8" cy="837.5" r="103.5" class="st6"/><path fill="#588c40" d="M935.2 803.2c-5.3-.7-7.7-2.2-9.5-7.3a64.8 64.8 0 00-47.5-43.7c-12.8-3-26.5-1.8-41.5-2.6a60.6 60.6 0 00-54.3-39c-2.4-.2-5.5-4.3-6.5-7.1a89.3 89.3 0 00-174.4 16.4c-1 8-.1 16.3-.1 25.2a56.5 56.5 0 00-55.2 6.2c-16.8 12-23.1 29.3-23.2 49 0 17.6.4 49.3.4 49.3h452.8c2.2-22.2-16.3-43.3-41-46.4z"/><ellipse cx="673.3" cy="679.7" class="st33" rx="46.3" ry="25.2" transform="rotate(-23.9 673.2 679.6)"/><ellipse cx="696.6" cy="715.9" class="st33" rx="57.7" ry="38.8" transform="rotate(-30 696.5 716)"/><ellipse cx="158.6" cy="472" class="st34" rx="46.8" ry="80.6" transform="rotate(-73.2 158.7 472)"/><ellipse cx="1079.3" cy="644.8" class="st34" rx="68.3" ry="38.8" transform="rotate(-30 1079.2 644.8)"/><ellipse cx="945.4" cy="722.1" class="st34" rx="37.9" ry="21.6" transform="rotate(-30 945.4 722.1)"/></g><g id="Pine"><path fill="#3a5e29" d="M1280.8 263.1l-49.9 212.4 39.5 15.7-50.6 31.7-51.1 216.9 107.3 23.9-119.2 27.1-3.7 15.7h127.7z"/><path d="M1168.7 739.8l42.1 9.4 35.3-242.8-26.3 16.5zM1249.5 482.9l32.9-226.3-51.5 218.9zM1202.5 806.4l3.9-26.9-49.6 11.3-3.7 15.6z" class="st36"/></g></svg>