<?xml version="1.0" encoding="utf-8"?>
<!-- Generator: Adobe Illustrator 22.1.0, SVG Export Plug-In . SVG Version: 6.00 Build 0)  -->
<svg version="1.1" xmlns="http://www.w3.org/2000/svg" xmlns:xlink="http://www.w3.org/1999/xlink" x="0px" y="0px"
	 viewBox="0 0 1281 806.4" style="enable-background:new 0 0 1281 806.4;" xml:space="preserve">
<style type="text/css">
	.st0{fill:#C5E5E5;}
	.st1{opacity:0.49;fill:#FFFFFF;}
	.st2{fill:#89C96B;}
	.st3{fill:#7FBA63;}
	.st4{fill:#73AD58;}
	.st5{fill:#70AB54;}
	.st6{fill:#629C47;}
	.st7{fill:#52491E;}
	.st8{fill:#F1D55C;}
	.st9{opacity:0.48;fill:#3C3939;}
	.st10{fill:#F7BA99;}
	.st11{fill:#302F30;}
	.st12{fill:#875D46;}
	.st13{fill:#66A32E;}
	.st14{fill:#4C3528;}
	.st15{fill:#6B2379;}
	.st16{fill:#4D7A23;}
	.st17{fill:#0577AE;}
	.st18{fill:#079FE8;}
	.st19{fill:#737373;}
	.st20{fill:#3A5C1A;}
	.st21{fill:#9937A4;}
	.st22{fill:#595959;}
	.st23{fill:#FFFFFF;}
	.st24{fill:#313547;}
	.st25{fill:#FBF7EA;}
	.st26{fill:#6E6E6E;}
	.st27{fill:#BFBFBF;}
	.st28{fill:#919191;}
	.st29{fill:#CF9C80;}
	.st30{fill:#41465F;}
	.st31{fill:#FF882A;}
	.st32{fill:#588C40;}
	.st33{fill:#65A149;}
	.st34{fill:#6DAD4F;}
	.st35{fill:#3A5E29;}
	.st36{fill:#4D7838;}
</style>
<g id="Sky">
	<polygon class="st0" points="1280.8,806.4 0.9,806.4 0,0 1280.8,0 	"/>
</g>
<g id="Clouds">
	<polygon class="st1" points="1.9,52.1 913.1,34.1 1.9,3.2 	"/>
	<path class="st1" d="M54.6,149.1c0,0,77.9-0.9,87.5-16.7c9.6-15.7,5-29.9,31.6-29.6c12,0.2,16.8,5.6,18.4,11.6
		c3.2,11.5,13.3,19.9,25.3,19.7c7.2-0.2,12.5-2.5,9.8-9.9c-6.6-18.3-1.8-64.4,43-54.6c44.8,9.7,47.5,44.8,38.1,59.4
		c-9.4,14.7,114.7,21.1,114.7,21.1s-368.4-1-370.1,0"/>
	<polygon class="st1" points="1280.8,547.6 567.3,528.7 1280.8,507.7 	"/>
	<polygon class="st1" points="1280.8,141.7 856,122.8 1280.8,101.9 	"/>
	<polygon class="st1" points="1.9,334.6 476.6,315.8 1.9,294.8 	"/>
</g>
<g id="Pines_back">
	<polygon class="st2" points="473.6,414.9 452.9,494.7 492.1,494.7 	"/>
	<polygon class="st2" points="493.2,434.3 472.5,514 511.7,514 	"/>
	<polygon class="st2" points="512.5,454.9 491.5,535.9 531.3,535.9 	"/>
	<polygon class="st2" points="443.2,442.1 422.5,521.9 461.7,521.9 	"/>
	<polygon class="st3" points="1123,514.1 1102.3,593.9 1141.5,593.9 	"/>
	<polygon class="st3" points="868,520.1 847.3,599.9 886.5,599.9 	"/>
	<polygon class="st3" points="883.6,547.7 865.6,617.3 899.8,617.3 	"/>
	<polygon class="st3" points="1137.2,528.3 1116.5,608.1 1155.7,608.1 	"/>
	<polygon class="st3" points="1235.7,494.7 1215,574.4 1254.2,574.4 	"/>
</g>
<g id="Landscape_3">
	<path class="st2" d="M230.4,514.1c0,0,269-107.7,490.3,49.6s-259.6,81.7-259.6,81.7L230.4,514.1z"/>
	<path class="st3" d="M230.4,514.1L396,608.4l129,24.5c0,0-44-14.9-52.5-72.4c-8.5-57.6,140.7-3.7,124.5-32.8s-136.3-49-136.3-49
		s-0.1,0-0.3-0.1C331.3,473.7,230.4,514.1,230.4,514.1z"/>
</g>
<g id="Landscape_2">
	<path class="st4" d="M1134.4,804.8c-6.8-3.3-748.3-335.5-1134.5-335.5l0.1,337L1134.4,804.8z"/>
</g>
<g id="Bush2">
	<g>
		<path class="st5" d="M6.5,740.2c-0.4-0.5-0.9-1.1-1.3-1.7c-0.5-4-3.2-8.2-5.7-12.1v34.9c3,1.7,6.2,2.9,11,3.2
			c3.4,0.2,5.7-3.5,5.4-6C15.1,751.6,10.8,745.7,6.5,740.2z"/>
	</g>
	<g>
		<circle class="st6" cx="131.6" cy="568" r="157.1"/>
		<circle class="st6" cx="273.5" cy="592.3" r="104.4"/>
		<circle class="st6" cx="-19.7" cy="610.7" r="67.6"/>
		<circle class="st6" cx="27.1" cy="685.4" r="103.5"/>
	</g>
</g>
<g id="Landscape_front">
	<path class="st3" d="M1281,559c0,0-218.8-5.5-485.6-5c-276.5,0.5-604.7,8.6-794.8,109.4L0,806.4h1281V559z"/>
	<path class="st5" d="M1091,805.6h190l0.4-243.2c0,0-662.3,1.1-713.9,92.6C526.5,727.4,866.1,779.5,1091,805.6z"/>
</g>
<g id="Road">
	<path class="st7" d="M613.2,556.8c0,0-161.8,12.4-159.1,249h39.7C493.7,805.8,464.8,589,613.2,556.8z"/>
	<path class="st8" d="M619.5,556c-63.9-2.5-177.1,12.8-260.9,15.8C306.1,577.1,152.2,600.5,0,760.5l0,45.9l456-1.6
		C455.5,795.1,452.2,572.6,619.5,556z"/>
	<g>
		<path class="st7" d="M0.6,730.9v29.6C162,600.2,307,578.4,325.3,576.2C305.6,578.5,140,600.8,0.6,730.9z"/>
		<path class="st7" d="M325.3,576.2c1.3-0.1,1.9-0.2,1.9-0.2S326.6,576.1,325.3,576.2z"/>
	</g>
</g>
<g id="Parents">
	<ellipse class="st9" cx="349.9" cy="634.4" rx="129.5" ry="10.4"/>
	<path class="st10" d="M322.8,625.4l-45.3,2.7c-4.7-9.6,20.4-14.4,29.2-14.9l0.2-11.3l16.5,0.1c0,0-1.6,5.4-1.3,11.1
		C322.5,619,322.8,625.2,322.8,625.4z"/>
	<path class="st10" d="M372.2,627.7l-44,4.3c-4.7-9.6,19.7-14.7,28.5-15.2l-0.8-11.3l15.1-1.1c0,0,0.3,5.4,0.6,11
		C371.9,621.3,372.2,627.5,372.2,627.7z"/>
	<g>
		<path class="st11" d="M355.3,616.2c-0.5,6,13.2,4.6,17.2,4.2c0.6-0.1,1.2,0.4,1.2,1c0.3,2.3,1.1,7.4,1.1,7.5
			c-2.6,2.3-45.3,5.9-47.9,4.2C321.7,622.9,346.1,617,355.3,616.2z"/>
	</g>
	<g>
		<path class="st11" d="M305.1,613.2c-0.8,5.5,13,4.6,17.1,4.3c0.6,0,1.1,0.4,1.2,0.9c0.3,2.1,0.8,6.9,0.8,7
			c-2.7,2.1-45.4,4.3-48,2.6C271.3,618.5,295.9,613.8,305.1,613.2z"/>
	</g>
	<path class="st12" d="M299.8,288c-0.7,16.9-27.9,54.6-53.2,75.6c0,0-12.2,7.7-16.6,8.2c-2.2,0.2-4.1,1.7-3.3,3.3
		c0.8,1.6,3.3,2.8,7.2,1.4c6.1-2.2,1.8,3.9-2.8,7.7c-4.7,3.7-5.8,10.1-1.3,12.7c4.5,2.6,21.9-9.2,27.5-24.9c0,0,46.6-32.6,51.1-58.3
		S299.8,288,299.8,288z"/>
	<path class="st13" d="M292.9,340.4c-13.6-5.8-14.3-10.8-14.3-10.8c2-15.9,21.7-56.4,38-63.1c0,0-2.1,16.8-0.5,33.3
		C318.5,325.6,292.9,340.4,292.9,340.4z"/>
	<path class="st12" d="M323.9,253.9c2.7-0.1,3.2,4.2,3.6,8.7c0.4,4.3,3.9,7.8,8.5,8.5c0.1,0,0.2,0,0.2,0c5.4,0.6,10.3-3.2,10.9-8.2
		c0.5-4.3,1.7-11.1,4.1-18.5c0.5-1.5,1-3,1.6-4.6c0.3-0.9,0.7-1.7,1.1-2.6c0.2-0.5,0.4-1.1,0.7-1.6c0,0,0.2-1.4,0.4-3.5
		c0.6-5.9,1.6-17.5,0.9-21.9c-3.3-20.6-41.6-20.9-45.8-2.7C310.1,207.6,301.3,254.3,323.9,253.9z"/>
	<path class="st12" d="M361.4,231.8c-2.5,3.7-6.9,5.4-10,3.6c-3-1.7-3.5-6.2-1-9.9c2.5-3.7,6.9-5.4,10-3.6
		C363.4,223.6,363.8,228,361.4,231.8z"/>
	<path class="st14" d="M356.9,233c0,0,1.9-0.6,3.1-3.6c1.8-4.3-1.6-6.2-1.6-6.2S362,227.3,356.9,233z"/>
	<path class="st14" d="M337.9,253c5.3-0.2-6.6,1.3-10.3,10.6c-0.5-7.3-1.7-9.7-3.6-9.7C324.1,253.9,333.2,253.2,337.9,253z"/>
	<path class="st15" d="M355.2,236.1c0,0-1.3,13.8-4.8,14c-1.5,0.1-2.2-1.1-2.4-2.4c-0.3-1.8,0.2-3.6,1.2-5.1l4.4-6.6L355.2,236.1z"
		/>
	<path class="st16" d="M369.6,268.5c0,0,20.7,12.6,35.2,33.7c0,0,18.8,0.4,34.1,9.6c0,0,1.9,7.5-5,12.6c0,0-28.5-0.2-42.7-3.5
		L361,298.2L369.6,268.5z"/>
	<path class="st17" d="M308.8,401.8L304.7,609c0,0.9,0.6,1.7,1.5,1.9c2.6,0.6,8.2,1.3,16.7-0.4c0.8-0.2,1.5-0.9,1.5-1.7l23.1-226.1
		L308.8,401.8z"/>
	<path class="st18" d="M323,380.2l32.8,233c0.1,1,0.8,1.8,1.8,2.1c6.9,2.1,12,0.2,14.3-1.1c0.8-0.4,1.3-1.3,1.3-2.2l-1.6-231.9
		L323,380.2z"/>
	<path class="st13" d="M327.3,262.5c-18.6,3.5-31.2,21.6-30.9,48.3c0.3,22.4,2.5,61.3,10.6,89.5c0.3,0.9,0.8,1.7,1.6,2.2
		c4.9,3.2,27.4,13.5,63.3,0c1.5-0.6,2.5-2.1,2.5-3.7c-0.4-63.3,9.6-116.3-0.3-126.7c-8.5-7.8-15.7-8.9-26.9-10.4
		c-0.1,2.3-2.5,7-9.6,7.1C327,268.9,327.3,262.5,327.3,262.5z"/>
	<path class="st15" d="M358.5,221.1c0,0,5.7-20.1,2.2-24.4s-40.9-31.5-53.3-15.1c-9.1,12,5,19.4,5,19.4s3.5,2.6,15.9,0.5
		c12.3-2.2,17.9-2.1,17.5,2.3c-0.3,4.4,6,5.1,6,5.1l-0.7,15.4C351,224.2,354,220.2,358.5,221.1z"/>
	<path class="st19" d="M296.6,320.1"/>
	<path class="st16" d="M308.6,402.4c-0.8-0.5-1.3-1.3-1.6-2.2c-6.4-22.1-9.1-50.8-10.1-72.9c1.8,11.3,19.1,86.6,77.3,73
		c-0.4,1-1.2,1.8-2.2,2.1C336.1,415.9,313.5,405.7,308.6,402.4z"/>
	<path class="st10" d="M446.3,325.4c-3.1,10-13.5,9.1-16.4,5.5c-3.6-4.6-0.8-8.8,4.8-14.6c0,0-5-6.3-3.3-7.2
		C436.6,306.4,449,316.7,446.3,325.4z"/>
	<path class="st20" d="M370.7,397.2c0,0-29.6,13.7-61.3,0.7C309.4,398,336,407.2,370.7,397.2z"/>
	<path class="st21" d="M371,408.6l6.5,196.9l15.9,0.7c4.3-44,13.2-138.2,16.8-197L371,408.6z"/>
	<path class="st10" d="M356.6,634l34.5-3.8c0,0,0.9-9.2,2.4-24l-15.9-0.7l0.4,10.7c0.1,2.3-1.7,4.3-4.1,4.5
		C357.6,622.5,352.5,629.2,356.6,634z"/>
	<path class="st15" d="M401.2,431.3l7.4,2.4c-4.1,55.7-10.9,128.5-14.7,168L401.2,431.3z"/>
	<path class="st22" d="M371.9,621c10,3.5,19.5,1.2,20.3-1.5c0.2-0.8,1.7,0.3,1.7,1.1c-0.1,4.9-1,9.5-1,9.6
		c-2.2,2.7-33.2,6.5-41.7,4.2C346.7,628.8,357.1,622.5,371.9,621z"/>
	<path class="st10" d="M368.4,621.6c0,0,6.9,2.1,3.2,3.7c-3.7,1.6-9.9-2.1-9.9-2.1S362.8,622.3,368.4,621.6z"/>
	<path class="st15" d="M420.5,609.9l14.6-0.2c1.2-49.5,3.7-157.3,3.1-201.3l-38.2,3.8C398.3,453.6,418.1,567.7,420.5,609.9z"/>
	<path class="st10" d="M394.2,639.5l40.3-4.1c0,0,0.3-9.9,0.6-25.7l-14.6,0.2c0.3,5,0.3,9,0.1,11.8c-0.2,2.3-2.2,4.2-4.6,4.4
		C399.5,627.9,389.8,634,394.2,639.5z"/>
	<polygon class="st15" points="426.7,426.7 433.3,609.8 435.1,609.8 438.3,423.8 	"/>
	<path class="st22" d="M415.9,626.2c9.3,2.9,15.7,1.5,18.5,0.4c0.8-0.3,1.7,0.3,1.7,1.1c-0.1,4.9-0.2,7.6-0.2,7.6
		c-2.2,2.7-33.2,6.5-41.7,4.2C389.8,634,399.5,627.9,415.9,626.2z"/>
	<path class="st10" d="M411.4,626.8c0,0,6.9,2.1,3.2,3.7c-3.7,1.6-9.9-2.1-9.9-2.1S405.9,627.5,411.4,626.8z"/>
	<path class="st23" d="M442.2,437.1c0,0-4.6-114.2-10.9-128.2c-0.8-1.8-5.2-3.4-10.5-4.8c-14.5-3.8-30.1-2.1-42.8,5.5
		c-3.3,2-5.6,3.9-5.7,5.4c-1,14.8-5.2,121.5-5.2,121.5S386.7,454.6,442.2,437.1z"/>
	<path class="st24" d="M393.3,225c0,0-27.9-0.7-21.3,23.6s35.4,4.9,35.4,2.9C407.4,249.4,393.3,225,393.3,225z"/>
	<path class="st24" d="M391.7,243.4c0,0,3.5,25.4-20.7,46.6c0,0,15.5,7.7,36.6,6.2s11.1-51,10.5-51.2S391.7,243.4,391.7,243.4z"/>
	<path class="st10" d="M370.4,268.8c0.1,17.2,8.9,18.6,11.2,19.1c9.4,2.3,10.7,4.6,11,17.6c0,0,9.2,8.5,18.9-0.2
		c0,0-0.1-10.9,3.4-23.9c0.4-1.6,0.9-3.1,1.4-4.7c0.3-0.9,0.6-1.8,1-2.7c0.2-0.5,0.4-1.1,0.6-1.6c0,0,0.1-1.4,0.2-3.6
		c0.3-6,2.7-20.1,2.2-24.5c-1.4-12.5-12.9-19.5-22.4-19.4c-17.6,0.2-20,8-24.3,21.2C373.6,246.2,370.4,257.9,370.4,268.8z"/>
	<path class="st10" d="M422.9,268.3c-2.3,3.9-7,5.6-10.1,4c-3.1-1.6-3.8-6.1-1.5-10c2.3-3.9,6.6-5.8,9.7-4.2
		C424.1,259.8,425.2,264.4,422.9,268.3z"/>
	
		<ellipse transform="matrix(0.9999 -1.192840e-02 1.192840e-02 0.9999 -3.1943 4.9774)" class="st25" cx="415.7" cy="270.3" rx="2" ry="1.9"/>
	<path class="st26" d="M383.3,425.7c0,0,10,1.2,10,2.5c0,1.3-9.9,1.7-9.9,1.7L383.3,425.7z"/>
	<path class="st27" d="M442.2,437.1c0,0-0.1-3.5-0.4-9.3l0,0c-76.3,15.2-68.7-62.5-68.7-62.5l-3.5,10.3c-1.3,30.5-2.5,60.8-2.5,60.8
		S386.7,454.6,442.2,437.1z"/>
	<path class="st28" d="M394.7,426.7c0,0-10.1,0-10.2,1.3c-0.2,1.3,10.3,3.2,10.3,3.2L394.7,426.7z"/>
	<path class="st10" d="M374.2,312.8l-1.1,54l8.5,57.1l0,0c0,0,0.7,3.7,6.7,3c8.8-1.1,17.6,7.8,3.7,9.4c-2.6,0.3-5,0-7.2-0.5
		c-6.7-1.7-11.7-6.9-13.3-13.3c-3.9-15.7-12.7-51.7-12.8-56.1C358.5,355.2,369.1,319.8,374.2,312.8z"/>
	<path class="st29" d="M392.3,300.4c-0.6-8.5-2.8-10.5-10.8-12.4c6.4,1.5,9.5,1.3,13.3,1.3C398.1,289.3,393.3,298.8,392.3,300.4z"/>
	<path class="st29" d="M418.5,270.2c0,0,2-0.7,3.2-4.3c1.7-5-2.1-6.8-2.1-6.8S423.9,263.9,418.5,270.2z"/>
	<path class="st10" d="M386.2,427.5c3.5,0.1,6.7-3.1,6.7-3.1s35.9-49.5,36.1-53.1c0.2-2.8-1.5-30.8-3.6-42.5c-0.5-2.8,0-5.7,1.4-8.2
		l1.1-6.2c0.4-2.2,3.4-2.4,4.1-0.4c5.5,15.4,13.3,52.7,12,61.5c-1.6,10.5-43.7,55.6-43.7,55.6s-7.4,7-17.6,6
		C368.7,435.7,377.3,427.4,386.2,427.5z"/>
	<path class="st23" d="M423,348.2l-1-5.4c-0.4-22.3,2.8-29.8,8.7-35.1c0,0,8.4,9.1,13.7,26.5C444.4,334.2,444.5,341.8,423,348.2z"/>
	<path class="st23" d="M374.7,346.5l1.4-35.6c0,0-9.1,4.9-15,28.6C361,339.5,364.2,345.6,374.7,346.5z"/>
	<path class="st27" d="M430,308.4c0,0-10.1,5.4-7.8,35.3C422.2,343.8,422,318.3,430,308.4z"/>
	<path class="st27" d="M374.2,343.8c0,0-3.2-24.8,6.5-35.6C380.7,308.1,373.7,318.9,374.2,343.8z"/>
	<path class="st30" d="M415.5,272.9c-3.4,6.6-14.6,17.1-29,17.5c11.9,9.3,35.6,6.5,35.6,6.5c15.6-46.9,1.1-61.7,1.1-61.7
		c-23.2-22.6-50.2-6.4-50.1,2.5c0,0,1.5,13.3,35.9,25.1c2.1,0.7,5.3-6.3,10.9-4.9C425,259.1,425.9,270.1,415.5,272.9z"/>
	<path class="st16" d="M295.2,340.7c0.4-0.7,0-1.6-0.8-1.9c-6.9-2-12.5-7.5-15.1-10.5c-1-1.2-2.9-1.1-3.8,0.3
		c-0.4,0.6-0.8,1.2-1.2,2.1c-1,1.8-2,2.9-2.8,3.5c-1,0.7-1.4,2.1-0.7,3.1c1.7,2.7,5.7,7.2,14.5,11c0.7,0.3,1.4,0.1,1.9-0.4
		c1-1,2.6-2.7,3.7-3.1C293.3,343.8,294.6,342,295.2,340.7z"/>
	<ellipse class="st31" cx="326.5" cy="326.8" rx="24.5" ry="25.1"/>
	<path class="st23" d="M308.1,319.7c-0.5-0.3-0.9-0.6-1.2-1.1c-0.3-0.5-0.4-1-0.4-1.6c0-0.6,0.1-1.1,0.4-1.6
		c0.3-0.5,0.7-0.8,1.2-1.1c0.5-0.3,1.1-0.4,1.7-0.4c0.6,0,1.2,0.1,1.7,0.4c0.5,0.3,0.9,0.6,1.2,1.1c0.3,0.5,0.4,1,0.4,1.6
		c0,0.6-0.1,1.1-0.4,1.6c-0.3,0.5-0.7,0.8-1.2,1.1c-0.5,0.3-1.1,0.4-1.7,0.4C309.2,320.1,308.6,319.9,308.1,319.7z M310.9,318.2
		c0.3-0.3,0.4-0.7,0.4-1.2c0-0.5-0.1-0.9-0.4-1.2c-0.3-0.3-0.6-0.5-1.1-0.5c-0.4,0-0.8,0.2-1.1,0.5c-0.3,0.3-0.4,0.7-0.4,1.2
		c0,0.5,0.1,0.9,0.4,1.2c0.3,0.3,0.7,0.5,1.1,0.5C310.2,318.6,310.6,318.5,310.9,318.2z"/>
	<path class="st23" d="M319.9,314.5c0.5,0.5,0.7,1.1,0.7,2v3.5h-1.7v-3.2c0-0.5-0.1-0.8-0.3-1.1c-0.2-0.2-0.5-0.4-0.9-0.4
		c-0.4,0-0.8,0.1-1,0.4c-0.3,0.3-0.4,0.7-0.4,1.2v3h-1.7v-6.1h1.7v0.7c0.2-0.3,0.5-0.5,0.9-0.6c0.3-0.1,0.7-0.2,1.1-0.2
		C318.8,313.8,319.4,314,319.9,314.5z"/>
	<path class="st23" d="M328.3,317.4h-4.5c0.1,0.4,0.3,0.7,0.6,0.9c0.3,0.2,0.7,0.3,1.1,0.3c0.3,0,0.6,0,0.8-0.1
		c0.2-0.1,0.5-0.2,0.7-0.4l0.9,1c-0.6,0.7-1.4,1-2.5,1c-0.7,0-1.3-0.1-1.8-0.4c-0.5-0.3-0.9-0.6-1.2-1.1c-0.3-0.5-0.4-1-0.4-1.6
		c0-0.6,0.1-1.1,0.4-1.6c0.3-0.5,0.7-0.9,1.1-1.1c0.5-0.3,1-0.4,1.6-0.4c0.6,0,1.1,0.1,1.6,0.4c0.5,0.3,0.8,0.6,1.1,1.1
		c0.3,0.5,0.4,1,0.4,1.7C328.3,317,328.3,317.1,328.3,317.4z M324.2,315.5c-0.3,0.2-0.4,0.5-0.5,0.9h2.9c-0.1-0.4-0.2-0.7-0.5-0.9
		c-0.3-0.2-0.6-0.3-1-0.3C324.8,315.1,324.5,315.2,324.2,315.5z"/>
	<path class="st23" d="M310.8,329.8c-0.2,0.1-0.4,0.2-0.6,0.3c-0.2,0.1-0.5,0.1-0.8,0.1c-0.7,0-1.3-0.2-1.6-0.6
		c-0.4-0.4-0.6-0.9-0.6-1.6v-2.5h-0.9v-1.4h0.9v-1.5h1.7v1.5h1.5v1.4h-1.5v2.5c0,0.3,0.1,0.5,0.2,0.6c0.1,0.1,0.3,0.2,0.5,0.2
		c0.3,0,0.5-0.1,0.7-0.2L310.8,329.8z"/>
	<path class="st23" d="M321.5,324l-2.2,6.1h-1.7l-1.3-3.8l-1.4,3.8h-1.7l-2.1-6.1h1.6l1.4,4.1l1.5-4.1h1.5l1.4,4.1l1.5-4.1H321.5z"
		/>
	<path class="st23" d="M323.5,329.8c-0.5-0.3-0.9-0.6-1.2-1.1c-0.3-0.5-0.4-1-0.4-1.6c0-0.6,0.1-1.1,0.4-1.6
		c0.3-0.5,0.7-0.8,1.2-1.1c0.5-0.3,1.1-0.4,1.7-0.4c0.6,0,1.2,0.1,1.7,0.4c0.5,0.3,0.9,0.6,1.2,1.1c0.3,0.5,0.4,1,0.4,1.6
		c0,0.6-0.1,1.1-0.4,1.6c-0.3,0.5-0.7,0.8-1.2,1.1c-0.5,0.3-1.1,0.4-1.7,0.4C324.6,330.2,324,330.1,323.5,329.8z M326.3,328.3
		c0.3-0.3,0.4-0.7,0.4-1.2c0-0.5-0.1-0.9-0.4-1.2c-0.3-0.3-0.6-0.5-1.1-0.5c-0.4,0-0.8,0.2-1.1,0.5c-0.3,0.3-0.4,0.7-0.4,1.2
		c0,0.5,0.1,0.9,0.4,1.2c0.3,0.3,0.7,0.5,1.1,0.5C325.7,328.8,326,328.6,326.3,328.3z"/>
	<path class="st23" d="M308.1,339.2c-0.5-0.3-0.9-0.6-1.2-1.1c-0.3-0.5-0.4-1-0.4-1.6c0-0.6,0.1-1.1,0.4-1.6
		c0.3-0.5,0.7-0.8,1.2-1.1c0.5-0.3,1.1-0.4,1.7-0.4c0.6,0,1.2,0.1,1.6,0.4c0.5,0.3,0.8,0.7,1,1.2l-1.3,0.7c-0.3-0.6-0.8-0.8-1.3-0.8
		c-0.5,0-0.8,0.2-1.1,0.5c-0.3,0.3-0.4,0.7-0.4,1.2s0.1,0.9,0.4,1.2c0.3,0.3,0.7,0.5,1.1,0.5c0.6,0,1-0.3,1.3-0.8l1.3,0.7
		c-0.2,0.5-0.6,0.9-1,1.1c-0.5,0.3-1,0.4-1.6,0.4C309.2,339.6,308.6,339.5,308.1,339.2z"/>
	<path class="st23" d="M319,334c0.5,0.5,0.7,1.1,0.7,2v3.5h-1.6v-0.8c-0.3,0.6-0.9,0.9-1.8,0.9c-0.5,0-0.9-0.1-1.2-0.2
		c-0.3-0.2-0.6-0.4-0.8-0.7c-0.2-0.3-0.3-0.6-0.3-1c0-0.6,0.2-1,0.6-1.3c0.4-0.3,1.1-0.5,1.9-0.5h1.4c0-0.4-0.1-0.7-0.3-0.9
		c-0.2-0.2-0.6-0.3-1-0.3c-0.3,0-0.6,0.1-0.9,0.2c-0.3,0.1-0.6,0.2-0.8,0.4l-0.6-1.2c0.3-0.2,0.7-0.4,1.2-0.5
		c0.5-0.1,0.9-0.2,1.4-0.2C317.8,333.3,318.6,333.5,319,334z M317.6,338.2c0.2-0.1,0.4-0.3,0.5-0.6v-0.6h-1.2
		c-0.7,0-1.1,0.2-1.1,0.7c0,0.2,0.1,0.4,0.3,0.5c0.2,0.1,0.4,0.2,0.7,0.2C317.1,338.4,317.3,338.3,317.6,338.2z"/>
	<path class="st23" d="M324.9,333.5c0.4-0.2,0.8-0.2,1.2-0.2v1.6c-0.2,0-0.3,0-0.4,0c-0.5,0-0.9,0.1-1.2,0.4
		c-0.3,0.3-0.4,0.7-0.4,1.3v2.9h-1.7v-6.1h1.7v0.8C324.2,333.9,324.5,333.7,324.9,333.5z"/>
	<path class="st23" d="M333.9,336.9h-4.5c0.1,0.4,0.3,0.7,0.6,0.9c0.3,0.2,0.7,0.3,1.1,0.3c0.3,0,0.6,0,0.8-0.1
		c0.2-0.1,0.5-0.2,0.7-0.4l0.9,1c-0.6,0.7-1.4,1-2.5,1c-0.7,0-1.3-0.1-1.8-0.4c-0.5-0.3-0.9-0.6-1.2-1.1c-0.3-0.5-0.4-1-0.4-1.6
		c0-0.6,0.1-1.1,0.4-1.6c0.3-0.5,0.7-0.9,1.1-1.1c0.5-0.3,1-0.4,1.6-0.4c0.6,0,1.1,0.1,1.6,0.4c0.5,0.3,0.8,0.6,1.1,1.1
		c0.3,0.5,0.4,1,0.4,1.7C333.9,336.5,333.9,336.6,333.9,336.9z M329.8,335c-0.3,0.2-0.4,0.5-0.5,0.9h2.9c-0.1-0.4-0.2-0.7-0.5-0.9
		c-0.3-0.2-0.6-0.3-1-0.3C330.4,334.6,330.1,334.8,329.8,335z"/>
	<path class="st23" d="M341.9,336.9h-4.5c0.1,0.4,0.3,0.7,0.6,0.9c0.3,0.2,0.7,0.3,1.1,0.3c0.3,0,0.6,0,0.8-0.1
		c0.2-0.1,0.5-0.2,0.7-0.4l0.9,1c-0.6,0.7-1.4,1-2.5,1c-0.7,0-1.3-0.1-1.8-0.4c-0.5-0.3-0.9-0.6-1.2-1.1c-0.3-0.5-0.4-1-0.4-1.6
		c0-0.6,0.1-1.1,0.4-1.6c0.3-0.5,0.7-0.9,1.1-1.1c0.5-0.3,1-0.4,1.6-0.4c0.6,0,1.1,0.1,1.6,0.4c0.5,0.3,0.8,0.6,1.1,1.1
		c0.3,0.5,0.4,1,0.4,1.7C341.9,336.5,341.9,336.6,341.9,336.9z M337.8,335c-0.3,0.2-0.4,0.5-0.5,0.9h2.9c-0.1-0.4-0.2-0.7-0.5-0.9
		c-0.3-0.2-0.6-0.3-1-0.3C338.4,334.6,338.1,334.8,337.8,335z"/>
	<path class="st23" d="M346.5,333.5c0.4-0.2,0.8-0.2,1.2-0.2v1.6c-0.2,0-0.3,0-0.4,0c-0.5,0-0.9,0.1-1.2,0.4
		c-0.3,0.3-0.4,0.7-0.4,1.3v2.9h-1.7v-6.1h1.7v0.8C345.9,333.9,346.2,333.7,346.5,333.5z"/>
</g>
<g id="Bush">
	<g>
		<circle class="st6" cx="1118.2" cy="738.8" r="157.1"/>
		<circle class="st6" cx="1254.2" cy="786.2" r="104.4"/>
		<circle class="st6" cx="961.9" cy="756.2" r="67.6"/>
		<circle class="st6" cx="995.8" cy="837.5" r="103.5"/>
	</g>
	<path class="st32" d="M935.2,803.2c-5.3-0.7-7.7-2.2-9.5-7.3c-8.3-22.6-24-38.3-47.5-43.7c-12.8-3-26.5-1.8-41.5-2.6
		c-9.6-22.6-27.3-36.9-54.3-39c-2.4-0.2-5.5-4.3-6.5-7.1c-13.1-40.3-51.3-66.4-92.7-62.9c-42.8,3.6-76.6,36.1-81.7,79.3
		c-1,8-0.1,16.3-0.1,25.2c-20.2-7.3-38.5-5.7-55.2,6.2c-16.8,12-23.1,29.3-23.2,49c0,17.6,0.4,49.3,0.4,49.3
		c152.2,0,300.7,0,452.8,0C978.4,827.4,959.9,806.3,935.2,803.2z"/>
	
		<ellipse transform="matrix(0.9144 -0.4049 0.4049 0.9144 -217.535 330.7884)" class="st33" cx="673.3" cy="679.7" rx="46.3" ry="25.2"/>
	<ellipse transform="matrix(0.866 -0.5 0.5 0.866 -264.6339 444.2101)" class="st33" cx="696.6" cy="715.9" rx="57.7" ry="38.8"/>
	
		<ellipse transform="matrix(0.2888 -0.9574 0.9574 0.2888 -339.0854 487.6033)" class="st34" cx="158.6" cy="472" rx="46.8" ry="80.6"/>
	<ellipse transform="matrix(0.866 -0.5 0.5 0.866 -177.8035 626.017)" class="st34" cx="1079.3" cy="644.8" rx="68.3" ry="38.8"/>
	<ellipse transform="matrix(0.866 -0.5 0.5 0.866 -234.3765 569.444)" class="st34" cx="945.4" cy="722.1" rx="37.9" ry="21.6"/>
</g>
<g id="Pine">
	<polygon class="st35" points="1280.8,263.1 1230.9,475.5 1270.4,491.2 1219.8,522.9 1168.7,739.8 1276,763.7 1156.8,790.8 
		1153.1,806.5 1280.8,806.5 	"/>
	<g>
		<polygon class="st36" points="1168.7,739.8 1210.8,749.2 1246.1,506.4 1219.8,522.9 		"/>
		<polygon class="st36" points="1249.5,482.9 1282.4,256.6 1230.9,475.5 		"/>
	</g>
	<polygon class="st36" points="1202.5,806.4 1206.4,779.5 1156.8,790.8 1153.1,806.4 	"/>
</g>
</svg>
