<svg xmlns="http://www.w3.org/2000/svg" viewBox="0 0 841.9 595.3"><path fill="#FFF" d="M431.8 392.6l.5-.1v.6h-.1l-.5.1-.1.5v1.1h-.7v-2.3h.7v.3l.2-.2z"/><path fill="#FEF804" d="M488.9 320.7c3 0 7.4 3.3 8 3.9.7.8-.4 4.7-.4 4.7h-.5.3l.5.1c.6.4.7 1.2.2 1.9-.3.5-.8.8-1.3.8h.1s-.3 2.6-.9 2.7h-.1l-.4 2.2c1.8.2 3 .4 4.4 1.4 0-1.3.2-2.7.4-3.5l-.1-.3c-.7-2.6.6-3.7 1.9-4.2.8-.4 1.8-.7 2.8-.7 1.6 0 3.3.6 5 2.2 0 0 2.8 2.9-.2 11.8l-1.5.1h-.4l-.1 1 1.8.3 1.2.4 1.2.5c1.1 0 2.9 1.7 2.4 3.2-.1.5-.4.8-.6 1l.2.6s.1.6-1 1.3c.6 2.8 1.1 5.6.9 6.6a8 8 0 01-.8 1.7l.4 8.3.1 1.8-.7.2c0 9.9-.4 25.1-.6 32.8h-.1l-.1 3.2h.1l.3.2-.1 1.4c-.3.4-4 .9-6.3.9l-1.6-.1h-.1c-.8-1.1 1.1-2.2 4.1-2.6.5-.1.8-.4.9-.9v-2.2h.1c-.3-5.2-1.9-15.8-3-24.9l-2.2 24.3-.2 2.6h.1l.3.2-.2 1.8c-.3.4-4 .9-6.3.9l-1.6-.1-.2-.4-3.5.2-1-.1c-1-2 3.7-3.1 5.4-3.2v.1h.3v-.4l-.2-.3-3.5-25.3-2.5 24.5c0 .1-.1.3-.3.3h-.1v.4l.1.9.2.2.1 1.3c-.4.3-5.4.6-7.9.6l-1.3-.1c-.9-1.8 3.7-2.8 5.5-2.9h.3v-.4h-.1c-.1-.1-.3-.2-.3-.4l.8-39.5h-.1l-.3-.4a53.6 53.6 0 01-1.8-12.1l-.5.3v.3c-.1.3-.3.6-.7.8l-.7.6-.3.1h-.1a42 42 0 01-5.4 4.5c-1 2.7-3.8 4.8-4.9 4.8l-.3-.1c-.9-.5-.7-1.7.3-2.4.7-.6 1.5-1.5.9-1.5l-.4.1-.6.1c-.4 0-.7-.2-.7-.4-.1-.3.3-.5.7-.6.9-.1 3.2-1.6 3.2-1.6 1.6-1.3 3.3-3.1 4.8-4.9l-.1-.2c-.1-.2-.1-.5.1-.6l.5-.7.2-.4.4-.2.3.1c.6-3.2 4.2-10.6 7.2-11.8v.1c.6-.4 1.3-.6 2.1-.8l.1.4-.1-.4c-.1-.9-.1-1.6-.7-1.6-4.3 0-2.6-8.9-2.5-8.9l.5-1.1-.2-.1s-2.7-1.4-.9-3.7c.2-.4 1-.7 1.9-.7m10.1 85h.4c.5-.1.8-.4.8-.9l-.1-2L499 371l.2 33-.3.4v.2l.1 1.1m-10.1-90a7.8 7.8 0 00-7.7 9c.2.9.5 1.6.9 2.2l-.2 2c-.2 2.7.1 5 .9 6.8l.1.2a28.9 28.9 0 00-5.9 10.4c-.3.3-.6.7-.8 1.2-.6.6-1.1 1.4-1.3 2.3l-2.7 2.7-1.4.8a6 6 0 00-3.9 3 5.8 5.8 0 00-.3 4.1c-.2.6-.2 1.3-.2 2 .1 2 1.2 3.8 2.9 4.9a6 6 0 002.9.8c3.4 0 6.9-3 8.8-6.3l.8 3.4.2.4-.7 34.7a8.4 8.4 0 00-4.9 3.6c-1 1.8-1 3.8-.1 5.6.5 1 1.3 1.8 2.2 2.2 1.1.6 2.2.6 3.6.6l5.4-.2.1.1c1.4 1 3 1 3.9 1l2.1-.1h.1c.8.2 1.8.3 3 .3l3.6-.2c.7.5 1.4.8 2.3.9l2.4.2c1.3 0 3.1-.1 4.7-.4 2.2-.3 4.3-.8 5.7-2.6.5-.7.9-1.5 1-2.4l.1-2.1c0-.6-.1-1.2-.3-1.7v-.7l.1-.8c.2-6.3.5-20.2.6-30.6.5-.8.7-1.7.7-2.6l-.1-2.1v-.2l-.3-6.6c.4-.7.6-1.4.7-2.1.1-.6.3-1.9-.5-6.1.4-.8.6-1.6.6-2.3l.2-.5c.7-2.1.2-4.5-1.2-6.4-.7-.9-1.6-1.7-2.5-2.3 2-8.6-.9-12.5-1.9-13.5l-.1-.1a12 12 0 00-8.5-3.6l-1.7.1a6.4 6.4 0 00-1.5-3.7c-.9-.5-6.5-5.3-11.9-5.3z"/></svg>