<svg xmlns="http://www.w3.org/2000/svg" viewBox="0 0 1280 800"><style>.st1{fill:#70ab54}.st2{fill:#7fba63}.st3{fill:#588c40}.st7{opacity:.36;fill:#201600}.st8{fill:#875d46}.st10{fill:#654635}.st11{fill:#d7684b}.st12{fill:#e2e2e2}.st13{fill:#c9c8c8}.st14{fill:#595651}.st15{fill:#a14730}.st16,.st17{fill:none;stroke:#595651;stroke-width:3.2318;stroke-miterlimit:10}.st17{stroke:#312a20;stroke-linecap:round;stroke-linejoin:round}.st18{fill:#262833}.st20{fill:#363847}.st21,.st22{fill:none;stroke:#595651;stroke-width:3.3622;stroke-miterlimit:10}.st22{stroke:#312a20;stroke-linecap:round;stroke-linejoin:round}.st27{fill:#a45b35}.st29{fill:#e2946b}.st30{fill:#7e4628}.st31{fill:#e1a98b}.st32{fill:#5f351e}</style><path id="Sky" fill="#c5e5e5" d="M1280 799l-1278.5.9L0-.1 1280 0z"/><g id="Bush"><circle cx="249.7" cy="417.5" r="224.8" class="st1"/><circle cx="439.5" cy="497.6" r="149.4" class="st1"/><circle cx="577" cy="564" r="96.8" class="st1"/><circle cx="-98.8" cy="524.7" r="96.8" class="st1"/><circle cx="588.9" cy="467.2" r="52" class="st1"/><circle cx="658.1" cy="626.5" r="52" class="st1"/><circle cx="664.8" cy="566.7" r="30.7" class="st1"/><circle cx="24.8" cy="427.9" r="96.8" class="st1"/><circle cx="65.8" cy="547.1" r="148.1" class="st1"/><circle cx="1197.3" cy="567.5" r="171.4" class="st1"/><circle cx="1333.5" cy="645.8" r="113.9" class="st1"/><circle cx="1431.4" cy="708.8" r="73.8" class="st1"/><circle cx="923.6" cy="616.3" r="73.8" class="st1"/><circle cx="1449.4" cy="636.7" r="39.7" class="st1"/><circle cx="1487" cy="763.7" r="39.7" class="st1"/><circle cx="1497.6" cy="719.1" r="23.4" class="st1"/><circle cx="1026.2" cy="554.5" r="73.8" class="st1"/><circle cx="1046.1" cy="648.6" r="113" class="st1"/><ellipse cx="311" cy="312" class="st2" rx="72" ry="119.2" transform="rotate(-56.2 311 312)"/><ellipse cx="249.7" cy="349.3" class="st2" rx="33.9" ry="47.7" transform="rotate(-56.2 249.6 349.3)"/><ellipse cx="437.1" cy="405.9" class="st2" rx="41.6" ry="85.6" transform="rotate(-56.2 437.1 405.9)"/><ellipse cx="1229.8" cy="456.2" class="st2" rx="41.6" ry="85.6" transform="rotate(-74.3 1229.9 456.2)"/><ellipse cx="1051.9" cy="525.1" class="st2" rx="24.9" ry="51.3" transform="rotate(-60 1052 525.1)"/><ellipse cx="1080.3" cy="563.3" class="st2" rx="12.2" ry="25.1" transform="rotate(-60 1080.3 563.3)"/><ellipse cx="1142.3" cy="448.3" class="st2" rx="12.2" ry="25.1" transform="rotate(-60 1142.3 448.3)"/><ellipse cx="609.2" cy="444" class="st2" rx="13.2" ry="23.7" transform="rotate(-41.8 609.2 444)"/><circle cx="-52.5" cy="399" r="152.9" class="st3"/><circle cx="132.3" cy="491.6" r="102.6" class="st3"/><circle cx="277.2" cy="547.1" r="125.8" class="st3"/><circle cx="-2" cy="579" r="125.8" class="st3"/><circle cx="153.7" cy="603.8" r="125.8" class="st3"/><circle cx="383.4" cy="650.7" r="81.4" class="st3"/><ellipse cx="-2" cy="318.1" class="st1" rx="41.6" ry="85.6" transform="rotate(-56.2 -2 318)"/><ellipse cx="318.6" cy="479.7" class="st1" rx="34.6" ry="71.2" transform="rotate(-56.2 318.6 479.7)"/><ellipse cx="266.8" cy="480.9" class="st1" rx="19.6" ry="40.3" transform="rotate(-56.2 266.7 480.9)"/><ellipse cx="161.8" cy="427.9" class="st1" rx="19.6" ry="40.3" transform="rotate(-56.2 161.8 427.9)"/><ellipse cx="19.8" cy="399" class="st1" rx="45.1" ry="72" transform="rotate(-56.2 19.8 399)"/></g><g id="Ground"><path fill="#e0c757" d="M1280.1 703.5V800H0V612.4s916.5.4 1280.1 91.1"/><path d="M0 629.5s780-35 1280.1 74.1l-.1-21.2C1149.1 643.8 738 585.3.3 589.6L0 629.5z" class="st2"/><path fill="#6d5e21" d="M0 636.7s684.7-20.5 1280.1 66.9c0 0-301.9-105.7-1280.1-91.3v24.4z"/></g><g id="Legs_1_"><path fill="#383530" d="M110.3 506.7V506.7z"/><path d="M39.5 668.6c-11.3 3.6-22.8 24.7 11.3 31.5 56.4 11.3 204.7 25.4 229.9 1.9 16.3-15.2 90.5-7 102.3-22.8 0 0 20.3-28.6-58.5-39.2-73.7-9.8-188.5-2.3-285 28.6z" class="st7"/><path d="M69.8 618.4l8-50.9 60.2.5-1.9 72.7-42 16.3zM184.5 602.3l4.3-51.3 60.1-3.9 3.2 72.9-40.6 19.1z" class="st8"/><ellipse cx="92.4" cy="537" fill="#7f7e7c" rx="9.4" ry="16.4" transform="rotate(-42.4 92.4 537)"/><path d="M184.8 599.7s18.1 32.9 66.7 6.1l3.7 20.5-31.6 13.3c-2 .8-28.4.6-28.4.6L183 620.8l1.8-21.1z" class="st10"/><path d="M163.8 648.9s-6.4 14.2-.6 26.6c0 0 211 23.6 219.6-8.3l.3-13.3s2.4-17.8-54.2-28.7c-6.4-1.2-12.7-3-18.9-5.3-14.2-5.2-38.4-14.7-47.1-21.8-1.3-1-3.2-.8-4.1.6a51.7 51.7 0 01-44.9 21.5c-17.4-.4-25.6-9.4-29.5-18a7 7 0 00-12.5-.2c-6 12.8-12.4 31.2-8.1 46.9z" class="st11"/><path d="M383 653.9l-.3 13.3c-8.6 31.9-219.6 8.3-219.6 8.3-5.8-12.3.6-26.6.6-26.6s12.4 9.5 163.9 11.5c0 0 57.8-2.7 47.7-18.3 8.4 6.6 7.7 11.8 7.7 11.8z" class="st12"/><path d="M375.3 642.1c7 8.7-12.6 14.4-30 16.6l1.9 2.3s5.5 5.4 2.2 20.4c23.6-3.7 31.7-7.7 33.7-15l.1-13.4c-.1 0 1.2-4.5-7.9-10.9z" class="st13"/><path d="M285.4 683.8l14.2-12.4a37.2 37.2 0 0121.5-8c45.9-4.3 54.9-11.5 56.1-15.4.8-2.4-1.1-4.4-2-5.1l-.3-.3.3-.4 1.2 1a6.5 6.5 0 012 2.6c.2.8.2 1.6-.1 2.5-2.4 7.4-21.6 12.8-57.1 16.1-9.1.8-15.9 3.4-20.9 7.7l-12.7 11.1-.5.5-1.7.1z" class="st14"/><path d="M341.8 628c-2.3-.8-20.7-4.5-27-6.6-14.8-5-40-14.3-49.1-21.3-.3-.3-.7-.4-1.1-.5l-5.4 9s61.6 21 71.4 22c9.9 1.1 10.2-1.3 11.2-2.6z" class="st15"/><ellipse cx="274.3" cy="615.3" class="st16" rx="3" ry="2.9"/><ellipse cx="294.1" cy="623.8" class="st16" rx="3" ry="2.9"/><ellipse cx="314.2" cy="630.1" class="st16" rx="3" ry="2.9"/><path d="M274.3 615.3s2.5-10.3 6.4-9.4M300.8 615.9c-5.9.6-6.7 7.9-6.7 7.9s-1.4-9.9-12.1-15.2M304.7 617.9s6.6 2 9.5 12.2c0 0 1.9-6.1 5.1-7.2" class="st17"/><path d="M284 659.6l-1.5-.1c.2-.1 16.7-12.6 31.6-16.1 21.3-5.1 27.6-15.2 27.7-15.3l.7.2c-.2.5-6.3 11.1-28.1 16.3a98.9 98.9 0 00-30.4 15z" class="st15"/><path d="M265.4 599.9c-1.9 5.3-13.7 31.7-52.2 30.8-32.1-.7-41.6-18.1-43.7-23.2l2.5-5.5a7 7 0 0112.5.2c3.9 8.6 12.1 17.6 29.5 18a51.7 51.7 0 0044.9-21.5 2.9 2.9 0 014.1-.6 25 25 0 002.4 1.8z" class="st12"/><path d="M69.8 618.4s20.5 28.6 69.1 7.4l-1.5 23.9-33 9.2c-2.1.6-28.3-3-28.3-3l-9.6-20.8 3.3-16.7z" class="st10"/><path d="M291.4 0l-34.8 582.8c-.2 3-2.1 5.6-5 6.7-16.7 5.9-46.4 7.4-64.5-2.6a7.5 7.5 0 01-3.8-6L158.4 0h133z" class="st18"/><path fill="#1e2029" d="M199.6 0h-47.7l31.5 580.9a7.6 7.6 0 003.8 6c2.4 1.3 5 2.4 7.8 3.4L199.6 0z"/><path d="M25.3 0l42.8 602a10 10 0 005.4 9.1c13.9 7 48.3 10.8 63.6 4.5a10 10 0 005.9-7.5L171.3-.1 25.3 0z" class="st20"/><path d="M25.3 0l41.8 576.9 1 25a10 10 0 005.4 9.1c2.1 1.1 4.7 2.1 7.7 3l-8-614H25.3z" class="st18"/><path d="M189.1 655.9l-1.1-.1c1-22.3-20.3-43-20.6-43.2l.4-1.1c.3.3 22.3 21.6 21.3 44.4z" class="st15"/><path d="M41.5 664.3s-7.9 14-2.7 26.9c0 0 222.2 39.1 233.9 7.4l1.4-13.4s3.9-17.9-55.3-33c-6.7-1.7-13.3-4-19.6-6.7-14.6-6.3-39.6-17.7-48.3-25.5a3.1 3.1 0 00-4.4.3 56.3 56.3 0 01-49.4 18.6c-18.4-1.6-26.4-11.3-29.9-20.4-2.1-5.5-10.2-6.2-13.2-1.1-7.6 12.4-15.8 30.6-12.5 46.9z" class="st11"/><path d="M274 685.1l-1.4 13.4c-11.6 31.7-233.9-7.4-233.9-7.4-5.2-12.9 2.7-26.9 2.7-26.9s12.5 10.5 173.2 23.4c0 0 61.6 1.4 52-15.1 8.5 7.3 7.4 12.6 7.4 12.6z" class="st12"/><path d="M226.1 654.1l-7.4-2c-6.7-1.7-13.3-4-19.6-6.7-14.6-6.3-39.6-17.7-48.3-25.5-.3-.3-.7-.5-1.1-.6l-2.2 11.4s57.1 23.5 67 25.4c10 1.7 11.6-2 11.6-2z" class="st15"/><path d="M266.7 672.6c5.8 9.9-14.1 13.4-30.9 14.6l1.7 2.5s4.9 6.1.2 20.8c19.1-1.2 32.4-4.8 35-11.9l1.4-13.4c-.1-.1 1-5.4-7.4-12.6z" class="st13"/><path d="M168 708.3l16.1-11.6a40.4 40.4 0 0123.5-6.6c49.1-1.1 59.2-7.7 60.8-11.6 1-2.4-.8-4.5-1.7-5.3l-.3-.3.4-.4 1.2 1.1c.7.6 1.2 1.3 1.6 2.1l.3.7a6 6 0 01-.3 2.6c-3.1 7.3-23.9 11.4-61.9 12.3a40 40 0 00-22.8 6.3L170.4 708l-.6.5-1.8-.2z" class="st14"/><ellipse cx="161.5" cy="638.2" class="st21" rx="3.1" ry="3"/><ellipse cx="181.9" cy="648.2" class="st21" rx="3.1" ry="3"/><ellipse cx="202.7" cy="656" class="st21" rx="3.1" ry="3"/><path d="M161.5 638.2s3.5-10.3 7.5-9.1M189.6 640.7c-6.3.1-7.7 7.5-7.7 7.5s-.7-10.2-11.7-16.3M193.6 643s6.9 2.5 9.1 13c0 0 2.5-6 6-6.9" class="st22"/><path d="M153.2 621.9c-2.5 5.2-17 31.1-57.8 27.5-34-3-42.7-21.3-44.6-26.7l3-5.4c3.1-5.1 11.1-4.4 13.2 1.1 3.5 9 11.5 18.7 29.9 20.4a56.4 56.4 0 0049.4-18.6 3.1 3.1 0 014.4-.3l2.5 2z" class="st12"/><path d="M164.9 683.4l-1.7-.2c.2-.1 18.2-11.8 34.1-15.1 22.6-4.6 28.3-14.2 28.4-14.3l1.1.5c-.2.4-6 10.1-29.2 14.9a113 113 0 00-32.7 14.2zM70.4 671.6l-1.1-.1c1-22.3-21.2-42.7-21.4-42.9l.6-1.2c.2.2 22.9 21.3 21.9 44.2z" class="st15"/><path d="M156.3 625.1s-43.7 8.6-31.9 21.2 31.9-21.2 31.9-21.2z" class="st22"/><path fill="none" stroke="#312a20" stroke-linecap="round" stroke-linejoin="round" stroke-miterlimit="10" stroke-width="2.7" d="M265.4 600.1s-25.6 24.2-12.4 27.7c13.2 3.5 12.4-27.7 12.4-27.7z"/><path fill="none" stroke="#3a3c4d" stroke-dasharray="10" stroke-linecap="round" stroke-linejoin="round" stroke-miterlimit="10" stroke-width="4" d="M198.7 2.8l-.1 545.1"/><path fill="none" stroke="#434659" stroke-dasharray="10" stroke-linecap="round" stroke-linejoin="round" stroke-miterlimit="10" stroke-width="4" d="M69.7 2.8l9.6 563.1"/><path d="M171.3-.1L25.3 0" class="st20"/></g><g id="Log"><path d="M888.9 802.3c195.2-94.4 227-119.6 227-119.6s-171.3 60-337.9 119.6h110.9z" class="st7"/><path d="M866 799.5l250-116.8c-21.8-106.4-108.7-114.5-108.7-114.5l-597.1 22.4 167.6 208.8H866z" class="st27"/><path fill="#201600" d="M866 799.5l250-116.8a155.2 155.2 0 00-33.5-72.3c-189.1 82-486.5 84.5-490.4 83.2l-29.3 81.2 18.9 24.7H866z" opacity=".2"/><path d="M639.8 799.5c-20.8-71.6-66.5-163.4-166.5-195.8C307.8 549.9 168.7 690 94 799.5h545.8z" class="st29"/><path d="M647.9 799.5l230.6-71.7S614.4 764.7 606 769.5l12.5 30h29.4zM538.3 636.5l200.3 8.4-212.7 21.5z" class="st30"/><path d="M144 799.5c48.4-76.6 132.1-163.8 262.2-162 111.3 1.6 169.5 88.8 198.8 162h28.8c-20.4-74.9-65.3-170.2-162.6-188.1-184-33.8-302.2 89.6-365.4 188.1H144z" class="st31"/><path d="M842.4 669.6c2.7 1.8 82.2-20.5 176.8-28.1l-176.8 28.1zM920.9 710.4c2.7-6.8 95.1-53.5 136.3-51.4l-136.3 51.4zM559.9 666.5c-3.7 1.8-23.5 23.1-23.5 23.1l5.3-37.9 18.2 14.8zM184 708.5l43.6 26.7-17.3-48.1z" class="st30"/><path d="M240.4 702.3s137.7-116.9 274.7-37.8c-.1 0-112-42.8-274.7 37.8z" class="st27"/><path d="M1032.6 575c-1.4-.5-185.4 15.7-182.7 16.1 2.7.4 194.1-11 194.1-11l-11.4-5.1zM1066 594.4l-37.4 7.7 46.6.5zM657.3 705.2s142.6-26.9 146.8-26.5c4.2.4-63.5 30.9-146.8 26.5zM1113.1 670.7l-85.1 54 88-42zM1008.1 592.3l-135.4 16.1s91.2 1.6 135.4-16.1zM746.5 611.8c3.7-3.1-74.2-44.4-89.4-82.2l-30.8 46.3s34.4 15 30.1 42.8c0 0 47.1 29.8 90.1-6.9z" class="st30"/><path d="M642.8 562.8s31.5 16.4 48.8 31.1c0 0-41.8-34.6-42.2-34.8-.4-.3-6.6 3.7-6.6 3.7z" class="st32"/><path d="M657.1 529.6c8.1 8.9-14.9 70.4-36.1 40.7-12.5-17.5 20.5-53.2 36.1-40.7z" class="st31"/><path d="M649.3 539.1c4.7 5.1-8.7 40.8-20.9 23.6-7.2-10.2 11.8-30.8 20.9-23.6z" class="st29"/><path d="M651.9 561l-8.7-2.3 5.9 7.4 3.2-.7z" class="st32"/><path d="M511.9 799.5h49.8c-20.6-44.7-57.5-89.6-124.8-99.5 0 0 53 29.2 75 99.5z" class="st27"/><path d="M264.5 799.5c38.1-40.7 89.1-75.2 148.8-66.3 46.8 7 78.6 35.1 99.9 66.3h50.7c-21.8-48.7-62.9-96.8-142.4-108.1-87.9-12.4-164.6 47.9-217.7 108.1h60.7z" class="st31"/><path d="M114.9 799.5c68.8-96.2 188.7-215.1 346.8-182.2 104.2 21.7 151 111 171.9 182.2h6.7c-22.7-81.2-76-188.5-200.2-205.4-166.9-22.7-283.9 105.3-348.6 205.4h23.4z" class="st30"/><path d="M635.5 799.5l-1.6-20.7-9.8-12.1-36.4 32.8zM830.4 799.5h33.9l139.9-65c-39.7 1.4-109 31.7-173.8 65z" class="st30"/></g></svg>