<?xml version="1.0" encoding="utf-8"?>
<!-- Generator: Adobe Illustrator 22.1.0, SVG Export Plug-In . SVG Version: 6.00 Build 0)  -->
<svg version="1.1" id="Character" xmlns="http://www.w3.org/2000/svg" xmlns:xlink="http://www.w3.org/1999/xlink" x="0px" y="0px"
	 viewBox="0 0 1280.6 800" style="enable-background:new 0 0 1280.6 800;" xml:space="preserve">
<style type="text/css">
	.st0{fill:#3B767A;}
	.st1{fill:#875D46;}
	.st2{fill:#9F7D6B;}
	.st3{fill:#1A1D22;}
	.st4{fill:#24262F;}
	.st5{fill:#2D2F3C;}
	.st6{fill:#373B4C;}
	.st7{opacity:0.32;fill:#232121;}
	.st8{fill:#B6A352;}
	.st9{fill:#654635;}
	.st10{fill:#4E9DA3;}
	.st11{fill:#2C595C;}
	.st12{fill:#DBBC32;}
	.st13{fill:#836B0B;}
	.st14{fill:#A48D26;}
	.st15{fill:#FFDF57;}
	.st16{fill:#FFE579;}
	.st17{fill:#CA716A;}
	.st18{fill:#B9BBBD;}
	.st19{fill:#414042;}
	.st20{fill:#41465F;}
	.st21{fill:#676B7F;}
	.st22{fill:#A4A5A8;}
	.st23{fill:#B8878E;}
	.st24{fill:#6B665E;}
	.st25{fill:#FF882A;}
	.st26{fill:#FFFFFF;}
</style>
<g>
	<defs>
		<rect id="SVGID_1_" x="0.6" y="0.7" width="1280" height="800"/>
	</defs>
	<clipPath id="SVGID_2_">
		<use xlink:href="#SVGID_1_"  style="overflow:visible;"/>
	</clipPath>
</g>
<path class="st0" d="M426,670.8c0,0,27.1-30.3-52-119l-22.3,42.1L426,670.8z"/>
<polygon class="st1" points="370.1,1121.1 384.4,1202 407,1204.3 396.3,1117.9 "/>
<polygon class="st1" points="234.3,1173.7 236.3,1246.3 256.3,1245.5 260.6,1172.6 "/>
<polygon class="st2" points="257.7,1222.3 253,1225.8 252.6,1243.6 256.5,1242.9 "/>
<polygon class="st3" points="212.8,747.6 224.2,977.2 231.1,1226.6 262.7,1225.4 290.2,985.5 290.1,759.6 "/>
<polygon class="st4" points="264.3,1225.4 291.8,985.5 287.6,796.6 275.1,792.1 283.6,984.8 259.1,1225.6 "/>
<polygon class="st5" points="350.7,758.1 407,1170.6 377.4,1177 254,763.7 "/>
<path class="st6" d="M351.2,771.1c-5.6-6-6.9,4-6.9,4l-10.6,9.9l69.6,385.6l3.8,0L351.2,771.1z"/>
<path class="st0" d="M231.2,516.2c0,0-17.2,8-44.3,76.7c-7.5,19-12.4,37.6-12.4,51.3c0,21.4,55.7,101.5,47.3,61.6
	S231.2,516.2,231.2,516.2z"/>
<path class="st1" d="M362.3,532.1c0,0-11.8-29-35.9-19.5C302.3,522.2,340,548.2,362.3,532.1z"/>
<path class="st7" d="M221.4,774.9c0,0,82.4,24.9,129.8-3.8c37.7-22.9-129.8-9.5-129.8-9.5V774.9z"/>
<path class="st8" d="M364.9,641c0,0,19.9,10.2,19.2-13.2c-0.5-17.2-16.9-60.1-34.3-97.9c-2.1-4.6-8.1-5.8-11.8-2.3l-9.8,9.3
	L364.9,641z"/>
<path class="st1" d="M263.3,481.5c3.4,5.7,1.5,19.2-0.5,27.6c11.7,4.6,24.8,5.4,36.3,0.4c-1.2-2.8-2.2-16.3-1.7-19.3
	c25.4-0.7,38.4,2.4,37.7-19.7c-0.3-10.7-1.1-20.6-2.5-31.3c-1.3-9.8-2.7-22.9-7.5-31.7c-7.8-14.3-35.2-14.6-47.9-9.1
	c-14.4,6.2-24.9,20.6-27.2,36.3C247.7,450.4,253.5,465.5,263.3,481.5z"/>
<path class="st9" d="M281.8,452.9c0,0-7.5-2.7-7-11.7c0.6-10.2,8.4-9.5,8.4-9.5s-7-0.2-7.5,9.6C275.2,449.5,281.8,452.9,281.8,452.9
	z"/>
<path class="st0" d="M357.6,766.5v10c0,0-88.7,50.9-145.6,29.2l-2.2-13L357.6,766.5z"/>
<path class="st9" d="M332.5,484.2c-9.2,8.7-38.1,0.1-38.1,0.1l2.4,6C307.3,491.3,328.2,491.8,332.5,484.2z"/>
<path class="st10" d="M340.5,544.8c-8.6-20.4-22.9-30.4-41-36.3c-33.6,8.9-37.1-2.6-38.5-2.1c0,0,0,0,0,0l-22,6.3
	c-8.4,2.4-14,9.2-18.7,16.6c-24.9,39.4-24.3,212.1-20.9,247.1c1.1,11.7,8.1,22.8,18.6,24.9c56.4,11.5,141.2-31.2,141.6-37.2
	C362,727.2,369,612.2,340.5,544.8z"/>
<polyline class="st11" points="345.9,773.8 345.3,782.9 357.6,776.5 357.6,766.5 346.5,773.8 "/>
<path class="st0" d="M359.6,764.1c1.9-28.9,6.6-105.9-5.2-170.3l-20.8-15.4c0,0,16.8,114.2,12.2,195.3
	C354.3,769.2,359.5,765.6,359.6,764.1z"/>
<path class="st0" d="M254.9,556.3c0,0,33.4,10.7,54.6,69c16.5,45.3,31.3,103.1,26.9,117.4c-8.3,27-107,36.8-125.5,24.1
	c-9.4-6.5-27-126.4-8.3-178.1C220.8,539,254.9,556.3,254.9,556.3z"/>
<path class="st12" d="M329.3,741.2c0,0,28.3-30.1,34-65.5c0.5-3.1,0.4-6.2-0.1-9.3l-2.3-13.9c-2.1,14.6-4.3,40-42.7,70.8
	C317.4,724,329.3,741.2,329.3,741.2z"/>
<path class="st8" d="M299.5,557c0.5-0.3,2.8-24.9,28.7-33.1c0,0-29.6-0.4-32.9,27.1L299.5,557z"/>
<path class="st0" d="M225,560.1c0,0-18.1-16.8,11.6-20.1s9.9,21.8,9.9,21.8s11.7-22.8-11.1-17.9C212.5,548.7,225,560.1,225,560.1z"
	/>
<path class="st12" d="M225,560.1c0,0-18.9-20.7,10.9-24s9.9,21.8,9.9,21.8s11.7-22.8-11.1-17.9S225,560.1,225,560.1z"/>
<path class="st10" d="M243,767.8c0,0,5.7,16.8,5.3,21.1s-13.7,14.2-23.5,11.7s-13-38.5-13-38.5L243,767.8z"/>
<path class="st13" d="M243,790.5c0,0,3.5-1.1-19-49.3l-8.3,0.5l6.3,51.2c0,0,8.9,1.5,9.6,1.4C232.5,794.2,243,790.5,243,790.5z"/>
<path class="st12" d="M197.5,748.9c0,0,6.4,24.4,16.2,44c3.3,6.6,11.1,9.5,17.8,6.5c4.1-1.8,8.4-4.6,11.5-8.9
	c0,0-10.7-0.8-25.5-47.5L197.5,748.9z"/>
<path class="st14" d="M207,585.6c0,0-14.7-3.3-3.6-15.4s10.6-13.3,18.5-9.6L207,585.6z"/>
<path class="st15" d="M191.7,750c-32.7-182.5,36-200.5,47-198.1c14.4-1.9,65.2,25.5,95,181.9c1.4,7.2-2.3,14.4-8.9,17.5
	c-11,5.2-31,12.7-64,18.7C202.7,780.7,193.4,759.7,191.7,750z"/>
<path class="st16" d="M198.3,625c0,0,28.9,0.1,59.6-10.5c0,0,6,12.6,6.2,19.3c0,0-48.5,15.8-62.6,8.5L198.3,625z"/>
<path class="st10" d="M426.6,654.5c-14.3-39.2-43.9-89.5-53.7-110.4c-5.3-11.2-15.1-19.6-27.1-22.9c-13.7-3.8-31.4-8.6-40.4-10.2
	c-15.8-2.9,17,55.6,17,55.6c4.3,10.4,25.5,53.7,44.7,86.1c9.3,15.6,34.7,47.8,48.4,42.8C424,692.3,434.4,675.8,426.6,654.5z"/>
<path class="st16" d="M200.9,699.9c0,0,54.6-18.6,81.6-11.4c0,0,3.1,32.3,12.2,48.7c0,0-24.3,16.4-51.7,17.9
	c-27.4,1.5-32.9-5.2-32.9-5.2S198.7,727.6,200.9,699.9z"/>
<path class="st0" d="M293.3,601.9c0,0-3.9-64.6,47.2-82.1l-31.4,5.9l-31.2,52.8L293.3,601.9z"/>
<path class="st12" d="M285.8,607.5l-11.2-22.8c0,0-4.4-47.5,36.2-71.8c0,0,14.9-3.3,29.8,6.9C340.5,519.7,294.4,519.7,285.8,607.5z"
	/>
<path class="st12" d="M201.6,686.9c1.1-0.9,35.8,4.6,76.2-10.7c0,0,6.3-0.6,8.9,13.6c0,0-43.3,19.5-91,11.3
	C195.8,701.1,194,693,201.6,686.9z"/>
<path class="st14" d="M361,652.5c0,0-1.4,35.7-31.5,61v3.3C329.5,716.8,361.9,691.2,361,652.5z"/>
<path class="st14" d="M363.7,674.5c0,0-5.3,30.8-33.3,61.5l3.6-0.3C334,735.8,360.7,702.3,363.7,674.5z"/>
<path class="st12" d="M212.4,748.9c0,0-10.3-10.3-11.8-39c0,0-2.7,22.1,8.3,42.9c0,0,41,19.2,85.7-15.6
	C294.7,737.2,243.4,764.7,212.4,748.9z"/>
<path class="st12" d="M198.1,623.9c0,0-1.8,15.6,3.7,20.5c0,0,22.2,4.2,62.5-8.8c0,0,0.7-11.7-6.5-21c0,0,3.9,15.5,1.8,17.7
	c0,0-28.2,12.6-56.2,9C203.5,641.3,199.5,636.4,198.1,623.9z"/>
<path class="st12" d="M295.7,762.1c9.1-3,24.1-8.3,29.1-10.7c6.6-3.1,10.2-10.4,8.9-17.5c-29.8-156.4-80.6-183.8-95-181.9
	c-6.1-1.3-29.7,3.6-44.1,38.8l0,0c0,0,8.5-18.7,29.2-22.5c28-5.1,42.7,16.8,57.6,55.5c14.7,38.1,29.5,94.2,32.3,111
	C316.1,749.8,303.7,759.5,295.7,762.1z"/>
<path class="st0" d="M415.4,695.4c7.6-2.8,17.6-16.8,13.2-34.2c0.1,1.4-3.9,27.5-27.2,22.9c-17.9-3.5-54.6-68.9-63.1-84.2
	c8.4,16.5,18.8,36,28.7,52.7C376.3,668.3,401.8,700.5,415.4,695.4z"/>
<path class="st0" d="M335.2,595.4c0,0-21.9-76,12.7-73.5C347.9,521.8,319.8,517.6,335.2,595.4z"/>
<path class="st0" d="M258.4,509.5c0,0,4.9,11.4,40.9,2.8C299.3,512.3,263.3,524.3,258.4,509.5z"/>
<path class="st17" d="M236.6,1242.5c6.3,3.7,17.3,3.1,20.8-2.4l39.7,10.4c2.6,1.4,4.2,4.3,4.3,7.5l0,0.1c0.1,4.8-3.3,8.9-7.7,9.1
	l-64,3.3l4.3-27C234.3,1242.5,235.6,1241.9,236.6,1242.5z"/>
<polygon class="st18" points="230.5,1266.2 299.7,1264 298.8,1267 229.9,1270.6 "/>
<path class="st19" d="M283.7,1247c-0.1,0.7-0.4,1.5-0.7,2.3c-0.2,0.4,0,0.9,0.4,1.1c0.1,0.1,0.2,0.1,0.3,0.1c0.3,0,0.6-0.2,0.7-0.4
	c0.4-0.9,0.7-1.7,0.8-2.6L283.7,1247z"/>
<path class="st19" d="M277.4,1245.4c0,1.1-0.2,2.5-0.9,4c-0.2,0.4,0,0.9,0.4,1.1c0.1,0.1,0.2,0.1,0.3,0.1c0.3,0,0.6-0.2,0.7-0.4
	c0.7-1.5,1-3,1.1-4.2L277.4,1245.4z"/>
<path class="st19" d="M269.9,1249.6c-0.2,0.4,0,0.9,0.4,1.1c0.1,0,0.2,0.1,0.3,0.1c0.3,0,0.6-0.2,0.8-0.5c1.1-2.4,1.2-4.7,1.1-6.2
	l-1.7-0.4C270.9,1244.9,271,1247.2,269.9,1249.6z"/>
<path class="st20" d="M261.7,484.3c-2.9-9.2-14.7-36.2-21.2-58.9c-4.1-14.3,2.2-29.5,15.1-36.9c23.5-13.4,53.7-30.4,69.6-27.6
	c23.7,4.2,14.6,35.9-4.2,50.2c-13.8,10.5-21.7,1.3-25.7,8.9c-2.9,5.5,9.1,7.4,4,15.3c-5.6,8.6-6-7.4-15.6-7.4c-9.5,0-15,15-7.9,23
	c4.3,4.9,7.2,7.6,11.7,12.1c3.4,3.4,3.7,8.9,0.5,12.6c-3.7,4.3-10.3,9.3-21.9,11.3C264.2,487.3,262.3,486.2,261.7,484.3z"/>
<path class="st21" d="M325.3,360.9c-4.4-0.8-9.9,0-16.1,1.7c0.1,0,39.7-3.6,15.9,44.9l0.1,0C341.1,392.1,347.2,364.8,325.3,360.9z"
	/>
<path class="st14" d="M276.2,577.8l-1.8-2.1c0,0,0-41.8,36.3-62.9l2.7-0.5C313.4,512.3,277.9,534.3,276.2,577.8z"/>
<path class="st14" d="M287.4,594.4c0,0,7.4-69.2,53.1-74.7c0,0-3.6-2.3-4.7-2.8c0,0-41.4,7.1-50,75.4L287.4,594.4z"/>
<path class="st14" d="M229.2,773c0,0,7.7,16,13.9,17.5c0,0-0.8,1.1-1.2,1.5c0,0-9.3-4-14.4-19.1L229.2,773z"/>
<path class="st14" d="M212.5,790.4c-3.6-6.9-9.6-24-9.6-24l2.2,1.2c0.1,0.1,9.6,31.8,19.6,32.8c0,0-4.5,0-7.9-3.6
	C213.3,793.3,212.5,790.4,212.5,790.4z"/>
<path class="st22" d="M257.4,1240.1c-3.5,5.5-14.5,6.1-20.8,2.4c-1-0.6-2.3,0-2.5,1.2c0,0,2.8,4.2,13.4,4.2
	c10.6,0,12.6-7.1,12.6-7.1L257.4,1240.1z"/>
<path class="st17" d="M383.8,1196.2c7.9,2.2,19.7-1.5,21.9-8.2l46.1,0c3.2,0.8,5.8,3.4,6.9,6.7l0,0.1c1.5,5-1,10.2-5.7,11.6
	l-68.5,21l-3.1-29.3C381.3,1196.8,382.5,1195.9,383.8,1196.2z"/>
<polygon class="st18" points="384,1222.6 458.4,1201.4 458.2,1204.7 384.5,1227.4 "/>
<path class="st19" d="M436.2,1188c0.1,0.8,0,1.7-0.2,2.6c-0.1,0.5,0.2,0.9,0.7,1c0.1,0,0.3,0,0.4,0c0.3-0.1,0.6-0.3,0.6-0.7
	c0.2-1,0.2-2,0.2-2.9L436.2,1188z"/>
<path class="st19" d="M428.8,1188c0.3,1.2,0.5,2.7,0.1,4.4c-0.1,0.5,0.2,0.9,0.7,1c0.1,0,0.3,0,0.4,0c0.3-0.1,0.6-0.3,0.6-0.7
	c0.4-1.8,0.2-3.4-0.1-4.7L428.8,1188z"/>
<path class="st19" d="M421.9,1194.5c-0.1,0.5,0.3,0.9,0.8,1c0.1,0,0.3,0,0.4,0c0.3-0.1,0.6-0.4,0.7-0.7c0.5-2.8-0.1-5.2-0.6-6.8
	l-2,0C421.7,1189.3,422.4,1191.7,421.9,1194.5z"/>
<path class="st22" d="M405.7,1188c-2.2,6.7-14,10.4-21.9,8.2c-1.3-0.3-2.5,0.6-2.4,1.9c0,0,4.2,3.6,15.7,0.8
	c11.5-2.9,11.7-10.9,11.7-10.9L405.7,1188z"/>
<path class="st23" d="M297.6,1204.6"/>
<path class="st24" d="M409.7,1210.7"/>
<g>
	<circle class="st25" cx="232.8" cy="664.4" r="13"/>
	<path class="st26" d="M222.6,662.3c-0.3-0.1-0.5-0.3-0.7-0.5c-0.2-0.2-0.3-0.5-0.4-0.8c-0.1-0.3,0-0.6,0.1-0.9
		c0.1-0.3,0.3-0.5,0.5-0.7c0.2-0.2,0.5-0.3,0.9-0.4c0.3-0.1,0.6,0,0.9,0.1c0.3,0.1,0.5,0.3,0.7,0.5c0.2,0.2,0.3,0.5,0.4,0.8
		c0.1,0.3,0,0.6-0.1,0.9c-0.1,0.3-0.3,0.5-0.5,0.7c-0.2,0.2-0.5,0.3-0.8,0.4C223.2,662.4,222.9,662.4,222.6,662.3z M223.9,661.3
		c0.1-0.2,0.2-0.4,0.1-0.7c0-0.3-0.2-0.5-0.3-0.6c-0.2-0.1-0.4-0.2-0.6-0.1c-0.2,0-0.4,0.1-0.5,0.3c-0.1,0.2-0.2,0.4-0.1,0.7
		c0,0.3,0.2,0.5,0.3,0.6c0.2,0.1,0.4,0.2,0.6,0.1C223.6,661.6,223.8,661.5,223.9,661.3z"/>
	<path class="st26" d="M228.3,658.6c0.3,0.2,0.5,0.5,0.5,1l0.3,1.8l-0.9,0.1l-0.3-1.6c0-0.2-0.1-0.4-0.3-0.5
		c-0.1-0.1-0.3-0.1-0.5-0.1c-0.2,0-0.4,0.1-0.5,0.3c-0.1,0.2-0.1,0.4-0.1,0.7l0.3,1.5l-0.9,0.1l-0.5-3.1l0.9-0.1l0.1,0.4
		c0.1-0.2,0.2-0.3,0.4-0.4c0.2-0.1,0.4-0.2,0.6-0.2C227.7,658.4,228,658.4,228.3,658.6z"/>
	<path class="st26" d="M232.9,659.4l-2.4,0.4c0.1,0.2,0.2,0.3,0.4,0.4c0.2,0.1,0.4,0.1,0.6,0.1c0.2,0,0.3-0.1,0.4-0.1
		c0.1-0.1,0.2-0.2,0.3-0.3l0.6,0.4c-0.2,0.4-0.6,0.6-1.2,0.7c-0.4,0.1-0.7,0-1-0.1c-0.3-0.1-0.5-0.2-0.7-0.5
		c-0.2-0.2-0.3-0.5-0.4-0.8c-0.1-0.3,0-0.6,0.1-0.9c0.1-0.3,0.3-0.5,0.5-0.7c0.2-0.2,0.5-0.3,0.8-0.3c0.3-0.1,0.6,0,0.9,0.1
		c0.3,0.1,0.5,0.2,0.7,0.5c0.2,0.2,0.3,0.5,0.4,0.8C232.9,659.2,232.9,659.3,232.9,659.4z M230.7,658.8c-0.1,0.1-0.2,0.3-0.2,0.5
		l1.5-0.3c-0.1-0.2-0.2-0.3-0.3-0.4c-0.2-0.1-0.3-0.1-0.5-0.1C230.9,658.6,230.8,658.6,230.7,658.8z"/>
	<path class="st26" d="M224.9,667.3c-0.1,0.1-0.2,0.1-0.3,0.2c-0.1,0.1-0.3,0.1-0.4,0.1c-0.4,0.1-0.7,0-0.9-0.1
		c-0.2-0.2-0.4-0.4-0.4-0.8l-0.2-1.3l-0.5,0.1l-0.1-0.7l0.5-0.1l-0.1-0.8l0.9-0.1l0.1,0.8l0.8-0.1l0.1,0.7l-0.8,0.1l0.2,1.3
		c0,0.1,0.1,0.2,0.2,0.3c0.1,0.1,0.2,0.1,0.3,0.1c0.1,0,0.3-0.1,0.3-0.2L224.9,667.3z"/>
	<path class="st26" d="M230,663.4l-0.6,3.3l-0.9,0.1l-1-1.8l-0.4,2.1l-0.9,0.1l-1.6-2.9l0.9-0.1l1.1,2l0.4-2.2l0.8-0.1l1.1,2
		l0.4-2.2L230,663.4z"/>
	<path class="st26" d="M231.5,666.2c-0.3-0.1-0.5-0.3-0.7-0.5c-0.2-0.2-0.3-0.5-0.4-0.8c-0.1-0.3,0-0.6,0.1-0.9
		c0.1-0.3,0.3-0.5,0.5-0.7c0.2-0.2,0.5-0.3,0.9-0.4c0.3-0.1,0.6,0,0.9,0.1c0.3,0.1,0.5,0.3,0.7,0.5c0.2,0.2,0.3,0.5,0.4,0.8
		c0.1,0.3,0,0.6-0.1,0.9c-0.1,0.3-0.3,0.5-0.5,0.7c-0.2,0.2-0.5,0.3-0.8,0.4C232.1,666.3,231.8,666.3,231.5,666.2z M232.9,665.2
		c0.1-0.2,0.2-0.4,0.1-0.7c0-0.3-0.2-0.5-0.3-0.6c-0.2-0.1-0.4-0.2-0.6-0.1c-0.2,0-0.4,0.1-0.5,0.3c-0.1,0.2-0.2,0.4-0.1,0.7
		c0,0.3,0.2,0.5,0.3,0.6c0.2,0.1,0.4,0.2,0.6,0.1C232.6,665.5,232.7,665.4,232.9,665.2z"/>
	<path class="st26" d="M224.2,672.3c-0.3-0.1-0.5-0.3-0.7-0.5c-0.2-0.2-0.3-0.5-0.4-0.8c-0.1-0.3,0-0.6,0.1-0.9
		c0.1-0.3,0.3-0.5,0.5-0.7c0.2-0.2,0.5-0.3,0.9-0.4c0.3-0.1,0.6,0,0.9,0.1c0.3,0.1,0.5,0.3,0.6,0.5l-0.6,0.5
		c-0.2-0.3-0.5-0.4-0.8-0.3c-0.2,0-0.4,0.1-0.5,0.3c-0.1,0.2-0.2,0.4-0.1,0.7c0,0.3,0.2,0.5,0.3,0.6c0.2,0.1,0.4,0.2,0.6,0.1
		c0.3-0.1,0.5-0.2,0.6-0.5l0.8,0.3c-0.1,0.3-0.2,0.5-0.4,0.7c-0.2,0.2-0.5,0.3-0.8,0.4C224.8,672.4,224.5,672.4,224.2,672.3z"/>
	<path class="st26" d="M229.5,668.7c0.3,0.2,0.5,0.5,0.6,1l0.3,1.8l-0.8,0.1l-0.1-0.4c-0.1,0.3-0.4,0.5-0.9,0.6c-0.2,0-0.5,0-0.6,0
		c-0.2-0.1-0.3-0.1-0.5-0.3c-0.1-0.1-0.2-0.3-0.2-0.5c0-0.3,0-0.5,0.2-0.7c0.2-0.2,0.5-0.3,1-0.4l0.7-0.1c0-0.2-0.1-0.3-0.3-0.4
		c-0.1-0.1-0.3-0.1-0.6-0.1c-0.2,0-0.3,0.1-0.5,0.2c-0.2,0.1-0.3,0.2-0.4,0.3l-0.4-0.6c0.2-0.1,0.3-0.3,0.6-0.4
		c0.2-0.1,0.5-0.2,0.7-0.2C228.8,668.5,229.2,668.5,229.5,668.7z M229.1,671c0.1-0.1,0.2-0.2,0.2-0.4l-0.1-0.3l-0.6,0.1
		c-0.4,0.1-0.5,0.2-0.5,0.5c0,0.1,0.1,0.2,0.2,0.3c0.1,0.1,0.2,0.1,0.4,0C228.9,671.1,229,671.1,229.1,671z"/>
	<path class="st26" d="M232.5,668c0.2-0.1,0.4-0.2,0.6-0.2l0.1,0.8c-0.1,0-0.2,0-0.2,0c-0.3,0-0.5,0.1-0.6,0.3
		c-0.1,0.2-0.2,0.4-0.1,0.7l0.2,1.5l-0.9,0.1l-0.5-3.1l0.9-0.1l0.1,0.4C232.2,668.2,232.4,668.1,232.5,668z"/>
	<path class="st26" d="M237.5,668.9l-2.4,0.4c0.1,0.2,0.2,0.3,0.4,0.4c0.2,0.1,0.4,0.1,0.6,0.1c0.2,0,0.3-0.1,0.4-0.1
		c0.1-0.1,0.2-0.2,0.3-0.3l0.6,0.4c-0.2,0.4-0.6,0.6-1.2,0.7c-0.4,0.1-0.7,0-1-0.1c-0.3-0.1-0.5-0.2-0.7-0.5
		c-0.2-0.2-0.3-0.5-0.4-0.8c-0.1-0.3,0-0.6,0.1-0.9c0.1-0.3,0.3-0.5,0.5-0.7c0.2-0.2,0.5-0.3,0.8-0.3c0.3-0.1,0.6,0,0.9,0.1
		c0.3,0.1,0.5,0.2,0.7,0.5c0.2,0.2,0.3,0.5,0.4,0.8C237.5,668.7,237.5,668.8,237.5,668.9z M235.2,668.3c-0.1,0.1-0.2,0.3-0.2,0.5
		l1.5-0.3c-0.1-0.2-0.2-0.3-0.3-0.4c-0.2-0.1-0.3-0.1-0.5-0.1C235.5,668.1,235.4,668.1,235.2,668.3z"/>
	<path class="st26" d="M241.7,668.2l-2.4,0.4c0.1,0.2,0.2,0.3,0.4,0.4c0.2,0.1,0.4,0.1,0.6,0.1c0.2,0,0.3-0.1,0.4-0.1
		c0.1-0.1,0.2-0.2,0.3-0.3l0.6,0.4c-0.2,0.4-0.6,0.6-1.2,0.7c-0.4,0.1-0.7,0-1-0.1c-0.3-0.1-0.5-0.2-0.7-0.5
		c-0.2-0.2-0.3-0.5-0.4-0.8c-0.1-0.3,0-0.6,0.1-0.9c0.1-0.3,0.3-0.5,0.5-0.7c0.2-0.2,0.5-0.3,0.8-0.3c0.3-0.1,0.6,0,0.9,0.1
		c0.3,0.1,0.5,0.2,0.7,0.5c0.2,0.2,0.3,0.5,0.4,0.8C241.7,668,241.7,668.1,241.7,668.2z M239.4,667.6c-0.1,0.1-0.2,0.3-0.2,0.5
		l1.5-0.3c-0.1-0.2-0.2-0.3-0.3-0.4c-0.2-0.1-0.3-0.1-0.5-0.1C239.7,667.4,239.6,667.4,239.4,667.6z"/>
	<path class="st26" d="M243.9,666.1c0.2-0.1,0.4-0.2,0.6-0.2l0.1,0.8c-0.1,0-0.2,0-0.2,0c-0.3,0-0.5,0.1-0.6,0.3
		c-0.1,0.2-0.2,0.4-0.1,0.7l0.2,1.5l-0.9,0.1l-0.5-3.1l0.9-0.1l0.1,0.4C243.6,666.3,243.7,666.2,243.9,666.1z"/>
</g>
</svg>
