<svg xmlns="http://www.w3.org/2000/svg" xmlns:xlink="http://www.w3.org/1999/xlink" id="Character" x="0" y="0" version="1.1" viewBox="0 0 1280.6 800" xml:space="preserve"><style>.st0{fill:#3b767a}.st1{fill:#875d46}.st8{fill:#b6a352}.st9{fill:#654635}.st10{fill:#4e9da3}.st12{fill:#dbbc32}.st14{fill:#a48d26}.st16{fill:#ffe579}.st17{fill:#ca716a}.st18{fill:#b9bbbd}.st19{fill:#414042}.st22{fill:#a4a5a8}.st26{fill:#fff}</style><defs><path id="SVGID_1_" d="M.6.7h1280v800H.6z"/></defs><clipPath id="SVGID_2_"><use overflow="visible" xlink:href="#SVGID_1_"/></clipPath><path d="M426 670.8s27.1-30.3-52-119l-22.3 42.1 74.3 76.9z" class="st0"/><path d="M370.1 1121.1l14.3 80.9 22.6 2.3-10.7-86.4zM234.3 1173.7l2 72.6 20-.8 4.3-72.9z" class="st1"/><path fill="#9f7d6b" d="M257.7 1222.3l-4.7 3.5-.4 17.8 3.9-.7z"/><path fill="#1a1d22" d="M212.8 747.6l11.4 229.6 6.9 249.4 31.6-1.2 27.5-239.9-.1-225.9z"/><path fill="#24262f" d="M264.3 1225.4l27.5-239.9-4.2-188.9-12.5-4.5 8.5 192.7-24.5 240.8z"/><path fill="#2d2f3c" d="M350.7 758.1l56.3 412.5-29.6 6.4L254 763.7z"/><path fill="#373b4c" d="M351.2 771.1c-5.6-6-6.9 4-6.9 4l-10.6 9.9 69.6 385.6h3.8l-55.9-399.5z"/><path d="M231.2 516.2s-17.2 8-44.3 76.7c-7.5 19-12.4 37.6-12.4 51.3 0 21.4 55.7 101.5 47.3 61.6s9.4-189.6 9.4-189.6z" class="st0"/><path d="M362.3 532.1s-11.8-29-35.9-19.5c-24.1 9.6 13.6 35.6 35.9 19.5z" class="st1"/><path fill="#232121" d="M221.4 774.9s82.4 24.9 129.8-3.8c37.7-22.9-129.8-9.5-129.8-9.5v13.3z" opacity=".3"/><path d="M364.9 641s19.9 10.2 19.2-13.2c-.5-17.2-16.9-60.1-34.3-97.9a7.4 7.4 0 00-11.8-2.3l-9.8 9.3L364.9 641z" class="st8"/><path d="M263.3 481.5c3.4 5.7 1.5 19.2-.5 27.6a47.6 47.6 0 0036.3.4 73.5 73.5 0 01-1.7-19.3c25.4-.7 38.4 2.4 37.7-19.7a300 300 0 00-2.5-31.3c-1.3-9.8-2.7-22.9-7.5-31.7-7.8-14.3-35.2-14.6-47.9-9.1a47.5 47.5 0 00-27.2 36.3c-2.3 15.7 3.5 30.8 13.3 46.8z" class="st1"/><path d="M281.8 452.9s-7.5-2.7-7-11.7c.6-10.2 8.4-9.5 8.4-9.5s-7-.2-7.5 9.6a12.4 12.4 0 006.1 11.6z" class="st9"/><path d="M357.6 766.5v10s-88.7 50.9-145.6 29.2l-2.2-13 147.8-26.2z" class="st0"/><path d="M332.5 484.2c-9.2 8.7-38.1.1-38.1.1l2.4 6c10.5 1 31.4 1.5 35.7-6.1z" class="st9"/><path d="M340.5 544.8a61.4 61.4 0 00-41-36.3c-33.6 8.9-37.1-2.6-38.5-2.1l-22 6.3c-8.4 2.4-14 9.2-18.7 16.6-24.9 39.4-24.3 212.1-20.9 247.1 1.1 11.7 8.1 22.8 18.6 24.9 56.4 11.5 141.2-31.2 141.6-37.2 2.4-36.9 9.4-151.9-19.1-219.3z" class="st10"/><path fill="#2c595c" d="M345.9 773.8l-.6 9.1 12.3-6.4v-10l-11.1 7.3"/><path d="M359.6 764.1c1.9-28.9 6.6-105.9-5.2-170.3l-20.8-15.4s16.8 114.2 12.2 195.3c8.5-4.5 13.7-8.1 13.8-9.6zM254.9 556.3s33.4 10.7 54.6 69c16.5 45.3 31.3 103.1 26.9 117.4-8.3 27-107 36.8-125.5 24.1-9.4-6.5-27-126.4-8.3-178.1 18.2-49.7 52.3-32.4 52.3-32.4z" class="st0"/><path d="M329.3 741.2s28.3-30.1 34-65.5a29 29 0 00-.1-9.3l-2.3-13.9c-2.1 14.6-4.3 40-42.7 70.8-.8.7 11.1 17.9 11.1 17.9z" class="st12"/><path d="M299.5 557c.5-.3 2.8-24.9 28.7-33.1 0 0-29.6-.4-32.9 27.1l4.2 6z" class="st8"/><path d="M225 560.1s-18.1-16.8 11.6-20.1 9.9 21.8 9.9 21.8 11.7-22.8-11.1-17.9c-22.9 4.8-10.4 16.2-10.4 16.2z" class="st0"/><path d="M225 560.1s-18.9-20.7 10.9-24 9.9 21.8 9.9 21.8 11.7-22.8-11.1-17.9-9.7 20.1-9.7 20.1z" class="st12"/><path d="M243 767.8s5.7 16.8 5.3 21.1-13.7 14.2-23.5 11.7-13-38.5-13-38.5l31.2 5.7z" class="st10"/><path fill="#836b0b" d="M243 790.5s3.5-1.1-19-49.3l-8.3.5 6.3 51.2s8.9 1.5 9.6 1.4c.9-.1 11.4-3.8 11.4-3.8z"/><path d="M197.5 748.9s6.4 24.4 16.2 44a13.7 13.7 0 0017.8 6.5c4.1-1.8 8.4-4.6 11.5-8.9 0 0-10.7-.8-25.5-47.5l-20 5.9z" class="st12"/><path d="M207 585.6s-14.7-3.3-3.6-15.4 10.6-13.3 18.5-9.6l-14.9 25z" class="st14"/><path fill="#ffdf57" d="M191.7 750c-32.7-182.5 36-200.5 47-198.1 14.4-1.9 65.2 25.5 95 181.9a16 16 0 01-8.9 17.5c-11 5.2-31 12.7-64 18.7-58.1 10.7-67.4-10.3-69.1-20z"/><path d="M198.3 625s28.9.1 59.6-10.5c0 0 6 12.6 6.2 19.3 0 0-48.5 15.8-62.6 8.5l-3.2-17.3z" class="st16"/><path d="M426.6 654.5c-14.3-39.2-43.9-89.5-53.7-110.4a42.5 42.5 0 00-27.1-22.9 584.3 584.3 0 00-40.4-10.2c-15.8-2.9 17 55.6 17 55.6a974.5 974.5 0 0044.7 86.1c9.3 15.6 34.7 47.8 48.4 42.8 8.5-3.2 18.9-19.7 11.1-41z" class="st10"/><path d="M200.9 699.9s54.6-18.6 81.6-11.4c0 0 3.1 32.3 12.2 48.7 0 0-24.3 16.4-51.7 17.9-27.4 1.5-32.9-5.2-32.9-5.2s-11.4-22.3-9.2-50z" class="st16"/><path d="M293.3 601.9s-3.9-64.6 47.2-82.1l-31.4 5.9-31.2 52.8 15.4 23.4z" class="st0"/><path d="M285.8 607.5l-11.2-22.8s-4.4-47.5 36.2-71.8c0 0 14.9-3.3 29.8 6.9-.1-.1-46.2-.1-54.8 87.7zM201.6 686.9c1.1-.9 35.8 4.6 76.2-10.7 0 0 6.3-.6 8.9 13.6 0 0-43.3 19.5-91 11.3.1 0-1.7-8.1 5.9-14.2z" class="st12"/><path d="M361 652.5s-1.4 35.7-31.5 61v3.3s32.4-25.6 31.5-64.3zM363.7 674.5s-5.3 30.8-33.3 61.5l3.6-.3c0 .1 26.7-33.4 29.7-61.2z" class="st14"/><path d="M212.4 748.9s-10.3-10.3-11.8-39c0 0-2.7 22.1 8.3 42.9 0 0 41 19.2 85.7-15.6.1 0-51.2 27.5-82.2 11.7zM198.1 623.9s-1.8 15.6 3.7 20.5c0 0 22.2 4.2 62.5-8.8 0 0 .7-11.7-6.5-21 0 0 3.9 15.5 1.8 17.7 0 0-28.2 12.6-56.2 9 .1 0-3.9-4.9-5.3-17.4z" class="st12"/><path d="M295.7 762.1c9.1-3 24.1-8.3 29.1-10.7a16.2 16.2 0 008.9-17.5c-29.8-156.4-80.6-183.8-95-181.9-6.1-1.3-29.7 3.6-44.1 38.8 0 0 8.5-18.7 29.2-22.5 28-5.1 42.7 16.8 57.6 55.5a795.4 795.4 0 0132.3 111c2.4 15-10 24.7-18 27.3z" class="st12"/><path d="M415.4 695.4c7.6-2.8 17.6-16.8 13.2-34.2.1 1.4-3.9 27.5-27.2 22.9-17.9-3.5-54.6-68.9-63.1-84.2 8.4 16.5 18.8 36 28.7 52.7 9.3 15.7 34.8 47.9 48.4 42.8zM335.2 595.4s-21.9-76 12.7-73.5c0-.1-28.1-4.3-12.7 73.5zM258.4 509.5s4.9 11.4 40.9 2.8c0 0-36 12-40.9-2.8z" class="st0"/><path d="M236.6 1242.5c6.3 3.7 17.3 3.1 20.8-2.4l39.7 10.4a8.7 8.7 0 014.3 7.5v.1c.1 4.8-3.3 8.9-7.7 9.1l-64 3.3 4.3-27c.3-1 1.6-1.6 2.6-1z" class="st17"/><path d="M230.5 1266.2l69.2-2.2-.9 3-68.9 3.6z" class="st18"/><path d="M283.7 1247c-.1.7-.4 1.5-.7 2.3-.2.4 0 .9.4 1.1l.3.1c.3 0 .6-.2.7-.4.4-.9.7-1.7.8-2.6l-1.5-.5zM277.4 1245.4c0 1.1-.2 2.5-.9 4-.2.4 0 .9.4 1.1l.3.1c.3 0 .6-.2.7-.4.7-1.5 1-3 1.1-4.2l-1.6-.6zM269.9 1249.6c-.2.4 0 .9.4 1.1l.3.1c.3 0 .6-.2.8-.5 1.1-2.4 1.2-4.7 1.1-6.2l-1.7-.4c.1 1.2.2 3.5-.9 5.9z" class="st19"/><path fill="#41465f" d="M261.7 484.3c-2.9-9.2-14.7-36.2-21.2-58.9a32.3 32.3 0 0115.1-36.9c23.5-13.4 53.7-30.4 69.6-27.6 23.7 4.2 14.6 35.9-4.2 50.2-13.8 10.5-21.7 1.3-25.7 8.9-2.9 5.5 9.1 7.4 4 15.3-5.6 8.6-6-7.4-15.6-7.4-9.5 0-15 15-7.9 23 4.3 4.9 7.2 7.6 11.7 12.1a9.3 9.3 0 01.5 12.6 35.7 35.7 0 01-21.9 11.3c-1.9.4-3.8-.7-4.4-2.6z"/><path fill="#676b7f" d="M325.3 360.9c-4.4-.8-9.9 0-16.1 1.7.1 0 39.7-3.6 15.9 44.9h.1c15.9-15.4 22-42.7.1-46.6z"/><path d="M276.2 577.8l-1.8-2.1s0-41.8 36.3-62.9l2.7-.5s-35.5 22-37.2 65.5zM287.4 594.4s7.4-69.2 53.1-74.7c0 0-3.6-2.3-4.7-2.8 0 0-41.4 7.1-50 75.4l1.6 2.1zM229.2 773s7.7 16 13.9 17.5l-1.2 1.5s-9.3-4-14.4-19.1l1.7.1zM212.5 790.4c-3.6-6.9-9.6-24-9.6-24l2.2 1.2c.1.1 9.6 31.8 19.6 32.8 0 0-4.5 0-7.9-3.6-3.5-3.5-4.3-6.4-4.3-6.4z" class="st14"/><path d="M257.4 1240.1c-3.5 5.5-14.5 6.1-20.8 2.4-1-.6-2.3 0-2.5 1.2 0 0 2.8 4.2 13.4 4.2 10.6 0 12.6-7.1 12.6-7.1l-2.7-.7z" class="st22"/><path d="M383.8 1196.2c7.9 2.2 19.7-1.5 21.9-8.2h46.1a10 10 0 016.9 6.7v.1c1.5 5-1 10.2-5.7 11.6l-68.5 21-3.1-29.3c-.1-1.3 1.1-2.2 2.4-1.9z" class="st17"/><path d="M384 1222.6l74.4-21.2-.2 3.3-73.7 22.7z" class="st18"/><path d="M436.2 1188c.1.8 0 1.7-.2 2.6-.1.5.2.9.7 1h.4c.3-.1.6-.3.6-.7.2-1 .2-2 .2-2.9h-1.7zM428.8 1188c.3 1.2.5 2.7.1 4.4-.1.5.2.9.7 1h.4c.3-.1.6-.3.6-.7.4-1.8.2-3.4-.1-4.7h-1.7zM421.9 1194.5c-.1.5.3.9.8 1h.4c.3-.1.6-.4.7-.7.5-2.8-.1-5.2-.6-6.8h-2c.5 1.3 1.2 3.7.7 6.5z" class="st19"/><path d="M405.7 1188c-2.2 6.7-14 10.4-21.9 8.2-1.3-.3-2.5.6-2.4 1.9 0 0 4.2 3.6 15.7.8 11.5-2.9 11.7-10.9 11.7-10.9h-3.1z" class="st22"/><g><circle cx="232.8" cy="664.4" r="13" fill="#ff882a"/><path d="M222.6 662.3l-.7-.5-.4-.8c-.1-.3 0-.6.1-.9l.5-.7c.2-.2.5-.3.9-.4.3-.1.6 0 .9.1a1.8 1.8 0 011.1 1.3c.1.3 0 .6-.1.9l-.5.7-.8.4-1-.1zm1.3-1c.1-.2.2-.4.1-.7 0-.3-.2-.5-.3-.6-.2-.1-.4-.2-.6-.1-.2 0-.4.1-.5.3-.1.2-.2.4-.1.7 0 .3.2.5.3.6.2.1.4.2.6.1.2 0 .4-.1.5-.3zM228.3 658.6c.3.2.5.5.5 1l.3 1.8-.9.1-.3-1.6c0-.2-.1-.4-.3-.5l-.5-.1c-.2 0-.4.1-.5.3l-.1.7.3 1.5-.9.1-.5-3.1.9-.1.1.4.4-.4.6-.2c.3-.1.6-.1.9.1zM232.9 659.4l-2.4.4.4.4.6.1.4-.1.3-.3.6.4c-.2.4-.6.6-1.2.7-.4.1-.7 0-1-.1-.3-.1-.5-.2-.7-.5l-.4-.8c-.1-.3 0-.6.1-.9l.5-.7c.2-.2.5-.3.8-.3.3-.1.6 0 .9.1.3.1.5.2.7.5l.4.8v.3zm-2.2-.6l-.2.5 1.5-.3-.3-.4-.5-.1c-.3.1-.4.1-.5.3zM224.9 667.3l-.3.2-.4.1c-.4.1-.7 0-.9-.1-.2-.2-.4-.4-.4-.8l-.2-1.3-.5.1-.1-.7.5-.1-.1-.8.9-.1.1.8.8-.1.1.7-.8.1.2 1.3.2.3.3.1.3-.2.3.5zM230 663.4l-.6 3.3-.9.1-1-1.8-.4 2.1-.9.1-1.6-2.9.9-.1 1.1 2 .4-2.2.8-.1 1.1 2 .4-2.2.7-.3zM231.5 666.2l-.7-.5-.4-.8c-.1-.3 0-.6.1-.9l.5-.7c.2-.2.5-.3.9-.4.3-.1.6 0 .9.1a1.8 1.8 0 011.1 1.3c.1.3 0 .6-.1.9l-.5.7-.8.4-1-.1zm1.4-1c.1-.2.2-.4.1-.7 0-.3-.2-.5-.3-.6-.2-.1-.4-.2-.6-.1-.2 0-.4.1-.5.3-.1.2-.2.4-.1.7 0 .3.2.5.3.6.2.1.4.2.6.1.2 0 .3-.1.5-.3zM224.2 672.3l-.7-.5-.4-.8c-.1-.3 0-.6.1-.9l.5-.7c.2-.2.5-.3.9-.4.3-.1.6 0 .9.1.3.1.5.3.6.5l-.6.5c-.2-.3-.5-.4-.8-.3-.2 0-.4.1-.5.3-.1.2-.2.4-.1.7 0 .3.2.5.3.6.2.1.4.2.6.1.3-.1.5-.2.6-.5l.8.3-.4.7-.8.4-1-.1zM229.5 668.7c.3.2.5.5.6 1l.3 1.8-.8.1-.1-.4c-.1.3-.4.5-.9.6h-.6l-.5-.3a.8.8 0 01-.2-.5c0-.3 0-.5.2-.7.2-.2.5-.3 1-.4l.7-.1c0-.2-.1-.3-.3-.4l-.6-.1-.5.2-.4.3-.4-.6.6-.4.7-.2c.5-.1.9-.1 1.2.1zm-.4 2.3l.2-.4-.1-.3-.6.1c-.4.1-.5.2-.5.5l.2.3c.1.1.2.1.4 0l.4-.2zM232.5 668l.6-.2.1.8h-.2c-.3 0-.5.1-.6.3-.1.2-.2.4-.1.7l.2 1.5-.9.1-.5-3.1.9-.1.1.4.4-.4zM237.5 668.9l-2.4.4.4.4.6.1.4-.1.3-.3.6.4c-.2.4-.6.6-1.2.7-.4.1-.7 0-1-.1-.3-.1-.5-.2-.7-.5l-.4-.8c-.1-.3 0-.6.1-.9l.5-.7c.2-.2.5-.3.8-.3.3-.1.6 0 .9.1.3.1.5.2.7.5l.4.8v.3zm-2.3-.6l-.2.5 1.5-.3-.3-.4-.5-.1-.5.3zM241.7 668.2l-2.4.4.4.4.6.1.4-.1.3-.3.6.4c-.2.4-.6.6-1.2.7-.4.1-.7 0-1-.1-.3-.1-.5-.2-.7-.5l-.4-.8c-.1-.3 0-.6.1-.9l.5-.7c.2-.2.5-.3.8-.3.3-.1.6 0 .9.1.3.1.5.2.7.5l.4.8v.3zm-2.3-.6l-.2.5 1.5-.3-.3-.4-.5-.1-.5.3zM243.9 666.1l.6-.2.1.8h-.2c-.3 0-.5.1-.6.3-.1.2-.2.4-.1.7l.2 1.5-.9.1-.5-3.1.9-.1.1.4.4-.4z" class="st26"/></g></svg>