<?xml version="1.0" encoding="utf-8"?>
<!-- Generator: Adobe Illustrator 22.1.0, SVG Export Plug-In . SVG Version: 6.00 Build 0)  -->
<svg version="1.1" id="B8" xmlns="http://www.w3.org/2000/svg" xmlns:xlink="http://www.w3.org/1999/xlink" x="0px" y="0px"
	 viewBox="0 0 967.7 186.8" style="enable-background:new 0 0 967.7 186.8;" xml:space="preserve">
<style type="text/css">
	.st0{fill:none;stroke:#534741;stroke-width:1.0602;stroke-miterlimit:10;}
	.st1{fill:#FF882A;}
	.st2{fill:#333333;}
	.st3{fill:#FFFFFF;}
	.st4{fill:#63564B;}
	.st5{fill:#736357;}
	.st6{fill:#B13B1C;}
	.st7{fill:#58838B;}
	.st8{fill:#243538;}
	.st9{fill:#426268;}
	.st10{opacity:0.17;fill:#FFFFFF;}
	.st11{opacity:0.32;}
	.st12{fill:#1F1F1F;}
	.st13{fill:#808080;}
	.st14{fill:#679AA3;}
	.st15{fill:#999999;}
	.st16{fill:#D19971;}
	.st17{fill:#736342;}
	.st18{fill:#695A3C;}
	.st19{fill:#73959C;}
</style>
<g>
	<polyline class="st0" points="713.4,71.6 792.8,93.7 713.4,119.8 	"/>
	<path class="st1" d="M720.3,58c0,0-98-19.9-335.3-1.5C248,67.2,56.4,54,56.4,54L101.7,94l-42.8,39.8c0,0,136.2,16.4,318.4,3.1
		c183.3-13.4,343.1-2.3,343.1-2.3L720.3,58z"/>
	<g>
		<g>
			<path class="st2" d="M228.7,69.5c1.1,0,1.7,0,2.8,0c-0.2,8.6-0.3,12.9-0.4,21.6c-1.1,0-1.7,0-2.8,0c0.1-6.7,0.2-10,0.3-16.6
				c-4.4,6.7-6.6,10.1-11,16.8c-1.1,0-1.7,0-2.9,0c0.2-8.6,0.3-12.9,0.4-21.6c1.1,0,1.7,0,2.9,0c-0.1,6.7-0.2,10-0.3,16.6
				C222.1,79.6,224.3,76.2,228.7,69.5z"/>
			<path class="st2" d="M249,90.8c-1.1,0-1.6,0-2.7,0.1c0.1-2.7,0.1-4.1,0.1-6.8c-2.9,0.1-4.4,0.1-7.4,0.1c-0.1,2.7-0.1,4.1-0.1,6.8
				c-1.1,0-1.7,0-2.8,0c0.1-6.4,0.2-9.6,0.3-16c1.1,0,1.7,0,2.8,0c-0.1,2.8-0.1,4.2-0.1,7c2.9,0,4.4-0.1,7.4-0.1
				c0.1-2.8,0.1-4.2,0.1-7c1.1,0,1.6,0,2.7-0.1C249.2,81.2,249.1,84.4,249,90.8z"/>
			<path class="st2" d="M265.6,76.6c-2.2,0-3.2,0.1-5.4,0.1c-0.1,5.5-0.2,8.3-0.3,13.8c-1.1,0-1.6,0-2.7,0.1
				c0.1-5.5,0.2-8.3,0.3-13.8c-2.1,0-3.2,0.1-5.3,0.1c0-0.9,0-1.3,0-2.2c5.4-0.1,8-0.2,13.4-0.3C265.6,75.3,265.6,75.7,265.6,76.6z"
				/>
			<path class="st2" d="M273.4,90.5c-2.2,0.1-3.9-0.6-5.3-2c-1.3-1.4-2-3.3-1.9-5.7c0-0.2,0-0.3,0-0.5c0-1.6,0.4-3,1-4.3
				c0.6-1.3,1.5-2.3,2.6-3c1.1-0.7,2.3-1.1,3.6-1.1c2.1-0.1,3.7,0.6,4.8,1.9c1.1,1.3,1.7,3.3,1.6,5.9c0,0.5,0,0.7,0,1.1
				c-4.4,0.1-6.5,0.2-10.9,0.3c0,1.6,0.4,2.8,1.3,3.8c0.9,1,2,1.4,3.3,1.4c1,0,1.8-0.2,2.5-0.7c0.7-0.4,1.3-1,1.8-1.6
				c0.7,0.5,1,0.8,1.7,1.3C278.2,89.4,276.1,90.5,273.4,90.5z M273.4,76.2c-1.1,0-2,0.5-2.8,1.3c-0.8,0.8-1.3,2-1.5,3.4
				c3.2-0.1,4.8-0.1,8-0.2c0-0.1,0-0.1,0-0.2c-0.1-1.4-0.4-2.5-1.1-3.2C275.4,76.5,274.5,76.1,273.4,76.2z"/>
			<path class="st2" d="M296.6,81.8c0,2.4-0.6,4.4-1.8,5.9c-1.1,1.5-2.7,2.3-4.6,2.4c-1.9,0.1-3.5-0.5-4.6-1.7
				c-0.1,3.1-0.1,4.6-0.2,7.7c-1.1,0-1.6,0-2.7,0.1c0.2-8.9,0.3-13.3,0.5-22.2c1,0,1.5,0,2.5-0.1c0,0.7,0.1,1.1,0.1,1.8
				c1.1-1.4,2.7-2.1,4.7-2.2c1.9-0.1,3.4,0.6,4.5,2c1.1,1.4,1.6,3.4,1.6,6C296.6,81.6,296.6,81.7,296.6,81.8z M293.9,81.6
				c0-1.8-0.3-3.2-1.1-4.3c-0.8-1-1.8-1.5-3.1-1.5c-1.7,0-2.9,0.8-3.8,2.3c-0.1,3.1-0.1,4.6-0.2,7.7c0.8,1.4,2,2.1,3.7,2.1
				c1.3,0,2.4-0.6,3.2-1.7C293.4,85.2,293.8,83.6,293.9,81.6z"/>
			<path class="st2" d="M309.9,89.2c-0.2-0.3-0.3-0.9-0.4-1.7c-1.3,1.4-2.8,2.1-4.6,2.1c-1.6,0-2.9-0.4-3.9-1.2s-1.5-2-1.5-3.4
				c0-1.7,0.7-3,2-3.9c1.3-1,3.1-1.5,5.4-1.6c1.1,0,1.6-0.1,2.7-0.1c0-0.5,0-0.8,0-1.3c0-1-0.3-1.7-0.8-2.3
				c-0.6-0.6-1.4-0.8-2.5-0.8c-1,0-1.8,0.3-2.5,0.8c-0.7,0.5-1,1.1-1,1.8c-1.1,0-1.7,0.1-2.8,0.1c0-0.8,0.3-1.6,0.9-2.3
				c0.6-0.8,1.4-1.4,2.4-1.8c1-0.5,2.1-0.7,3.2-0.8c1.8-0.1,3.3,0.4,4.3,1.2c1,0.9,1.5,2.1,1.6,3.8c-0.1,3-0.1,4.4-0.1,7.4
				c0,1.5,0.1,2.6,0.5,3.5c0,0.1,0,0.1,0,0.2C311.6,89.2,311,89.2,309.9,89.2z M305.3,87.3c0.9,0,1.7-0.3,2.5-0.7
				c0.8-0.5,1.4-1.1,1.7-1.8c0-1.3,0-2,0.1-3.3c-0.9,0-1.3,0-2.2,0.1c-3.4,0.1-5.1,1.1-5.1,3.1c0,0.9,0.3,1.5,0.8,2
				C303.7,87.1,304.4,87.3,305.3,87.3z"/>
			<path class="st2" d="M328.4,74.8c-2.2,0.1-3.2,0.1-5.4,0.2c-0.1,5.5-0.2,8.3-0.3,13.8c-1.1,0-1.6,0.1-2.7,0.1
				c0.1-5.5,0.2-8.3,0.3-13.8c-2.1,0.1-3.2,0.1-5.3,0.2c0-0.9,0-1.3,0-2.2c5.4-0.2,8-0.3,13.4-0.4C328.5,73.5,328.5,73.9,328.4,74.8
				z"/>
			<path class="st2" d="M341.5,72.1c1.1,0,1.6-0.1,2.7-0.1c-0.1,6.4-0.2,9.6-0.3,16c-1.1,0-1.6,0.1-2.7,0.1c0.1-4.7,0.1-7,0.2-11.7
				c-3.1,4.8-4.6,7.2-7.6,12c-1.1,0-1.6,0.1-2.7,0.1c0.1-6.4,0.2-9.6,0.3-16c1.1,0,1.6-0.1,2.7-0.1c-0.1,4.7-0.1,7-0.2,11.7
				C337,79.3,338.5,76.9,341.5,72.1z"/>
			<path class="st2" d="M348.6,87.9c0.1-6.4,0.2-9.6,0.3-16c2.5-0.1,3.8-0.1,6.3-0.2c2.1-0.1,3.8,0.2,4.9,0.9
				c1.1,0.7,1.7,1.8,1.6,3.2c0,0.7-0.3,1.4-0.7,2c-0.5,0.6-1.1,1.1-2,1.4c1,0.2,1.7,0.6,2.3,1.2c0.6,0.6,0.9,1.4,0.8,2.3
				c0,1.5-0.6,2.6-1.7,3.4c-1.1,0.8-2.6,1.3-4.6,1.3C353,87.7,351.5,87.8,348.6,87.9z M351.6,78.5c1.4-0.1,2.1-0.1,3.5-0.1
				c2.6-0.1,3.9-0.9,3.9-2.4c0-1.5-1.2-2.2-3.6-2.2c-1.5,0.1-2.3,0.1-3.8,0.1C351.6,75.8,351.6,76.7,351.6,78.5z M351.5,80.7
				c0,1.9-0.1,2.9-0.1,4.8c1.8-0.1,2.7-0.1,4.5-0.2c1.1,0,2-0.3,2.6-0.7c0.6-0.4,0.9-1.1,0.9-1.8c0-1.6-1.1-2.4-3.5-2.3
				C354.2,80.6,353.3,80.7,351.5,80.7z"/>
			<path class="st2" d="M378.9,86.7c-1.1,0-1.6,0.1-2.7,0.1c0.1-2.7,0.1-4.1,0.1-6.8c-3,0.1-4.4,0.2-7.4,0.3
				c-0.1,2.7-0.1,4.1-0.1,6.8c-1.1,0-1.7,0.1-2.8,0.1c0.1-6.4,0.2-9.6,0.3-16c1.1,0,1.7-0.1,2.8-0.1c-0.1,2.8-0.1,4.2-0.1,7
				c3-0.1,4.4-0.2,7.4-0.3c0.1-2.8,0.1-4.2,0.1-7c1.1,0,1.6-0.1,2.7-0.1C379.1,77.1,379,80.3,378.9,86.7z"/>
			<path class="st2" d="M393.2,86.2c-0.2-0.3-0.3-0.9-0.4-1.7c-1.3,1.4-2.8,2.1-4.6,2.2c-1.6,0.1-2.9-0.3-3.9-1.2
				c-1-0.9-1.5-2-1.5-3.3c0-1.7,0.7-3,2-4c1.3-1,3.1-1.5,5.4-1.6c1.1,0,1.6-0.1,2.7-0.1c0-0.5,0-0.8,0-1.3c0-1-0.3-1.7-0.8-2.3
				c-0.6-0.5-1.4-0.8-2.5-0.8c-1,0-1.8,0.3-2.5,0.8c-0.7,0.5-1,1.1-1,1.8c-1.1,0-1.7,0.1-2.8,0.1c0-0.8,0.3-1.6,0.9-2.4
				c0.6-0.8,1.4-1.4,2.4-1.9c1-0.5,2.1-0.7,3.2-0.8c1.8-0.1,3.3,0.3,4.3,1.2c1,0.9,1.5,2.1,1.6,3.8c-0.1,3-0.1,4.4-0.2,7.4
				c0,1.5,0.1,2.6,0.5,3.5c0,0.1,0,0.1,0,0.2C394.9,86.1,394.3,86.1,393.2,86.2z M388.7,84.2c0.9,0,1.7-0.3,2.5-0.8
				c0.8-0.5,1.4-1.1,1.7-1.8c0-1.3,0-2,0.1-3.3c-0.9,0-1.3,0.1-2.2,0.1c-3.4,0.1-5.1,1.2-5.1,3.2c0,0.9,0.3,1.5,0.8,2
				C387,84.1,387.8,84.3,388.7,84.2z"/>
			<path class="st2" d="M412.4,69.4c-0.1,6.4-0.2,9.6-0.3,16c-1.1,0-1.7,0.1-2.8,0.1c0.1-2.5,0.1-3.7,0.1-6.2
				c-1.7,0.1-2.5,0.1-4.1,0.2c-1.6,2.6-2.3,3.8-3.9,6.4c-1.2,0-1.8,0.1-3,0.1c1.7-2.7,2.5-4.1,4.2-6.8c-1-0.3-1.8-0.9-2.3-1.6
				c-0.5-0.8-0.8-1.7-0.8-2.7c0-1.5,0.6-2.7,1.7-3.6s2.6-1.4,4.4-1.5C408.3,69.5,409.7,69.5,412.4,69.4z M402.3,74.7
				c0,0.8,0.2,1.4,0.8,1.9c0.5,0.5,1.2,0.7,2.1,0.6c1.7-0.1,2.6-0.1,4.4-0.2c0-2.1,0.1-3.2,0.1-5.3c-1.6,0.1-2.4,0.1-3.9,0.2
				c-1,0-1.8,0.3-2.4,0.8C402.6,73.2,402.3,73.9,402.3,74.7z"/>
			<path class="st2" d="M434.7,68.5c1.1,0,1.6-0.1,2.7-0.1c-0.1,6.4-0.2,9.6-0.3,16c-1.1,0-1.6,0.1-2.7,0.1c0.1-4.7,0.1-7,0.2-11.7
				c-3.1,4.8-4.6,7.2-7.6,12c-1.1,0-1.6,0.1-2.7,0.1c0.1-6.4,0.2-9.6,0.3-16c1.1,0,1.6-0.1,2.7-0.1c-0.1,4.7-0.1,7-0.2,11.7
				C430.1,75.7,431.7,73.3,434.7,68.5z"/>
			<path class="st2" d="M452.2,70c-3,0.1-4.4,0.2-7.4,0.3c-0.1,5.5-0.2,8.3-0.3,13.8c-1.1,0-1.7,0.1-2.8,0.1c0.1-6.4,0.2-9.6,0.3-16
				c4.1-0.2,6.1-0.2,10.2-0.4C452.2,68.7,452.2,69.1,452.2,70z"/>
			<path class="st2" d="M468,75.4c0,2.4-0.6,4.4-1.8,6c-1.1,1.5-2.7,2.3-4.6,2.4c-1.9,0.1-3.5-0.5-4.6-1.7c-0.1,3.1-0.1,4.6-0.2,7.7
				c-1.1,0-1.6,0.1-2.7,0.1c0.2-8.9,0.3-13.3,0.5-22.2c1,0,1.5-0.1,2.5-0.1c0,0.7,0.1,1.1,0.1,1.8c1.1-1.4,2.7-2.2,4.7-2.3
				c1.9-0.1,3.4,0.6,4.5,2c1.1,1.4,1.6,3.4,1.6,6C468,75.2,468,75.3,468,75.4z M465.3,75.1c0-1.8-0.3-3.2-1.1-4.2
				c-0.8-1-1.8-1.5-3.1-1.4c-1.7,0.1-2.9,0.8-3.8,2.4c-0.1,3.1-0.1,4.6-0.2,7.7c0.8,1.4,2,2.1,3.7,2c1.3-0.1,2.4-0.6,3.2-1.7
				C464.8,78.8,465.2,77.2,465.3,75.1z"/>
			<path class="st2" d="M481.3,82.7c-0.2-0.3-0.3-0.9-0.4-1.7c-1.3,1.4-2.8,2.1-4.6,2.2c-1.6,0.1-2.9-0.3-3.9-1.2
				c-1-0.9-1.5-2-1.5-3.3c0-1.7,0.7-3,2-4c1.3-1,3.1-1.5,5.4-1.6c1.1,0,1.6-0.1,2.7-0.1c0-0.5,0-0.8,0-1.3c0-1-0.3-1.7-0.8-2.3
				s-1.4-0.8-2.5-0.8c-1,0-1.8,0.3-2.5,0.8c-0.7,0.5-1,1.1-1,1.8c-1.1,0-1.7,0.1-2.8,0.1c0-0.8,0.3-1.6,0.9-2.4
				c0.6-0.8,1.4-1.4,2.4-1.9c1-0.5,2.1-0.7,3.2-0.8c1.9-0.1,3.3,0.3,4.3,1.2c1,0.9,1.5,2.1,1.6,3.8c-0.1,3-0.1,4.4-0.2,7.4
				c0,1.5,0.1,2.6,0.5,3.5c0,0.1,0,0.1,0,0.2C483,82.6,482.4,82.7,481.3,82.7z M476.7,80.8c0.9,0,1.7-0.3,2.5-0.8
				c0.8-0.5,1.4-1.1,1.7-1.8c0-1.3,0-2,0.1-3.3c-0.9,0-1.3,0-2.2,0.1c-3.4,0.1-5.1,1.2-5.1,3.1c0,0.9,0.3,1.5,0.8,2
				C475.1,80.6,475.8,80.8,476.7,80.8z"/>
			<path class="st2" d="M493.8,74.2c-2.9,0.1-4.3,0.2-7.2,0.3c0-0.9,0-1.3,0-2.2c2.9-0.1,4.3-0.2,7.2-0.3
				C493.8,72.9,493.8,73.3,493.8,74.2z"/>
			<path class="st2" d="M501.9,71.8c1.5-2.4,2.2-3.6,3.7-6c1.3,0,1.9-0.1,3.2-0.1c-2.2,3.2-3.2,4.9-5.4,8.1c2.1,3.2,3.2,4.8,5.3,7.9
				c-1.3,0-1.9,0.1-3.2,0.1c-1.4-2.4-2.2-3.5-3.6-5.9c-1.5,2.5-2.3,3.7-3.8,6.1c-1.3,0-1.9,0.1-3.2,0.1c2.2-3.3,3.3-5,5.6-8.3
				c-2-3.1-3.1-4.6-5.1-7.7c1.3,0,1.9-0.1,3.2-0.1C499.8,68.4,500.5,69.5,501.9,71.8z"/>
			<path class="st2" d="M510.5,73.5c0-1.6,0.4-3,1-4.3c0.6-1.3,1.5-2.3,2.6-3s2.4-1.1,3.8-1.1c2.2-0.1,3.9,0.6,5.3,2.1
				c1.3,1.5,2,3.5,1.9,6c0,0.1,0,0.1,0,0.2c0,1.6-0.4,3-1,4.2c-0.6,1.3-1.5,2.3-2.6,3c-1.1,0.7-2.4,1.1-3.9,1.2
				c-2.2,0.1-3.9-0.6-5.2-2.1c-1.3-1.5-2-3.4-1.9-5.9C510.5,73.6,510.5,73.6,510.5,73.5z M513.2,73.8c0,1.8,0.3,3.2,1.2,4.2
				c0.8,1.1,1.9,1.6,3.3,1.5c1.4,0,2.5-0.6,3.4-1.7c0.8-1.1,1.3-2.7,1.3-4.6c0-1.8-0.4-3.2-1.2-4.2c-0.8-1.1-1.9-1.6-3.3-1.5
				c-1.4,0-2.5,0.6-3.3,1.7C513.7,70.2,513.3,71.8,513.2,73.8z"/>
			<path class="st2" d="M527.2,78.9c0.4-0.5,0.6-0.7,1-1.2c1.1-1.4,1.7-3.5,2-6.3c0.2-2.6,0.2-3.8,0.4-6.4c4.1-0.1,6.2-0.2,10.3-0.3
				c-0.1,5.5-0.2,8.3-0.3,13.8c0.8,0,1.2,0,2.1-0.1c-0.1,2.8-0.1,4.2-0.1,7c-1.1,0-1.6,0-2.7,0.1c0-1.9,0.1-2.8,0.1-4.7
				c-4.5,0.1-6.7,0.2-11.2,0.3c0,1.9-0.1,2.8-0.1,4.7c-1.1,0-1.6,0-2.7,0.1c0.1-2.8,0.1-4.2,0.2-7C526.5,79,526.7,78.9,527.2,78.9z
				 M530.5,78.8c2.9-0.1,4.4-0.1,7.4-0.2c0.1-4.5,0.1-6.8,0.2-11.3c-2,0.1-3,0.1-4.9,0.1c-0.1,1.5-0.1,2.3-0.2,3.8
				C532.6,74.5,531.8,77,530.5,78.8z"/>
			<path class="st2" d="M556.3,64.4c1.1,0,1.6,0,2.7-0.1c-0.1,6.4-0.2,9.6-0.3,16c-1.1,0-1.6,0-2.7,0.1c0.1-4.7,0.1-7,0.2-11.7
				c-3.1,4.7-4.6,7.1-7.6,11.9c-1.1,0-1.6,0-2.7,0.1c0.1-6.4,0.2-9.6,0.3-16c1.1,0,1.6,0,2.7-0.1c-0.1,4.7-0.1,7-0.2,11.7
				C551.8,71.5,553.3,69.1,556.3,64.4z"/>
			<path class="st2" d="M576.7,63.9c-0.1,6.4-0.2,9.6-0.3,16c-1.1,0-1.7,0-2.8,0.1c0.1-5.5,0.2-8.3,0.3-13.8c-2.2,0-3.3,0.1-5.5,0.1
				c-0.2,2.4-0.3,3.6-0.4,6c-0.2,2.8-0.7,4.7-1.5,5.9c-0.8,1.2-2,1.8-3.6,1.9c-0.4,0-0.7,0-1.1,0c0-1,0-1.4,0-2.4
				c0.3,0,0.5,0,0.8-0.1c0.9-0.1,1.5-0.6,1.9-1.6c0.4-0.9,0.7-2.7,0.8-5.2c0.2-2.7,0.3-4.1,0.4-6.9C570.1,64,572.3,64,576.7,63.9z"
				/>
			<path class="st2" d="M585.9,73c-0.8,0-1.2,0-2,0c-0.1,2.7-0.1,4.1-0.1,6.8c-1.1,0-1.7,0-2.8,0c0.1-6.4,0.2-9.6,0.3-16
				c1.1,0,1.7,0,2.8,0c-0.1,2.7-0.1,4.1-0.1,6.8c0.7,0,1.1,0,1.8,0c2.2-2.8,3.3-4.1,5.5-6.9c1.3,0,2,0,3.3,0
				c-2.6,3.1-3.9,4.7-6.5,7.8c2.7,3.3,4,4.9,6.7,8.2c-1.4,0-2.1,0-3.5,0C589.1,77,588,75.7,585.9,73z"/>
			<path class="st2" d="M607,79.5c-0.2-0.3-0.3-0.9-0.4-1.7c-1.3,1.3-2.8,2-4.6,2c-1.6,0-2.9-0.4-3.9-1.3c-1-0.9-1.5-2-1.5-3.4
				c0-1.7,0.7-3,2-3.9c1.3-0.9,3.1-1.4,5.4-1.4c1.1,0,1.6,0,2.7,0c0-0.5,0-0.8,0-1.3c0-1-0.3-1.7-0.8-2.3c-0.6-0.6-1.4-0.8-2.5-0.8
				c-1,0-1.8,0.3-2.5,0.8c-0.7,0.5-1,1.1-1,1.8c-1.1,0-1.7,0-2.8,0c0-0.8,0.3-1.6,0.9-2.3c0.6-0.8,1.4-1.4,2.3-1.8
				c1-0.4,2.1-0.7,3.2-0.7c1.8,0,3.3,0.4,4.3,1.3c1,0.9,1.5,2.2,1.6,3.8c-0.1,3-0.1,4.4-0.2,7.4c0,1.5,0.1,2.6,0.5,3.5
				c0,0.1,0,0.1,0,0.2C608.8,79.5,608.2,79.5,607,79.5z M602.5,77.5c0.9,0,1.7-0.2,2.5-0.7c0.8-0.5,1.4-1,1.7-1.8c0-1.3,0-2,0.1-3.3
				c-0.9,0-1.3,0-2.2,0c-3.4,0-5.1,1-5.1,3c0,0.9,0.3,1.5,0.8,2C600.9,77.2,601.6,77.5,602.5,77.5z"/>
			<path class="st3" d="M146.2,116.8c-1.6,0-2.4,0-4-0.1c-0.1,4-0.1,6.1-0.2,10.1c-2.3,0-3.5-0.1-5.8-0.1c0.2-10,0.3-15.1,0.5-25.1
				c2.3,0,3.5,0.1,5.8,0.1c-0.1,4.1-0.1,6.1-0.2,10.2c1.7,0,2.5,0,4.2,0.1c2.7-4,4.1-6,6.8-10.1c2.5,0,3.7,0,6.1,0.1
				c-3.4,4.8-5.1,7.2-8.5,12c3.3,5.2,4.9,7.9,8.2,13.1c-2.6,0-4,0-6.6-0.1C150,123,148.8,120.9,146.2,116.8z"/>
			<path class="st3" d="M178.5,121.9c-4.7,0-7,0-11.7-0.1c-0.9,2.1-1.4,3.2-2.3,5.4c-2.4,0-3.6,0-6-0.1c4.7-10,7-15,11.7-25
				c2.3,0,3.4,0,5.7,0c4.3,10.1,6.4,15.1,10.7,25.1c-2.4,0-3.7,0-6.1,0C179.8,125.1,179.3,124,178.5,121.9z M176.8,117.5
				c-1.5-3.9-2.3-5.8-3.8-9.6c-1.7,3.8-2.5,5.8-4.2,9.6C172,117.4,173.6,117.4,176.8,117.5z"/>
			<path class="st3" d="M200,117.1c-1.6,0-2.4,0-4,0c-0.1,4-0.1,6.1-0.2,10.1c-2.3,0-3.5,0-5.8,0c0.2-10,0.3-15.1,0.5-25.1
				c2.3,0,3.5,0,5.8,0c-0.1,4.1-0.1,6.1-0.2,10.2c1.7,0,2.5,0,4.2,0c2.7-4.1,4.1-6.1,6.8-10.2c2.5,0,3.7,0,6.1,0
				c-3.4,4.9-5.1,7.3-8.5,12.2c3.3,5.2,4.9,7.8,8.2,12.9c-2.6,0-4,0-6.6,0.1C203.8,123.2,202.5,121.2,200,117.1z"/>
			<path class="st3" d="M247.8,115.8c0.8,1,1.2,2.3,1.1,3.8c0,2.2-0.9,4-2.6,5.2c-1.7,1.3-4.1,1.9-7.3,2c-5,0.1-7.4,0.1-12.4,0.2
				c0.2-10,0.3-15.1,0.5-25.1c4.7-0.1,7-0.1,11.7-0.2c2.9,0,5.2,0.5,6.8,1.6c1.6,1.1,2.4,2.7,2.3,4.8c0,1.2-0.4,2.3-1,3.3
				c-0.6,1-1.5,1.7-2.7,2.3C245.8,114.1,247,114.8,247.8,115.8z M232.7,112.2c2.2,0,3.3,0,5.4-0.1c1.3,0,2.2-0.3,2.9-0.8
				c0.7-0.5,1-1.3,1-2.3c0-1-0.3-1.7-0.9-2.2c-0.6-0.5-1.6-0.8-2.8-0.7c-2.2,0-3.3,0.1-5.4,0.1C232.8,108.6,232.7,109.8,232.7,112.2
				z M243,119.2c0-2.1-1.3-3.1-4-3.1c-2.6,0-3.8,0.1-6.4,0.1c-0.1,2.5-0.1,3.8-0.1,6.4c2.6,0,3.8-0.1,6.4-0.1
				C241.6,122.5,243,121.4,243,119.2z"/>
			<path class="st3" d="M272.9,111.3c1.6,1.3,2.4,3.3,2.3,6c-0.1,2.8-1,5-2.8,6.6c-1.8,1.5-4.4,2.3-7.7,2.4
				c-4.5,0.1-6.8,0.2-11.3,0.2c0.2-10,0.3-15.1,0.5-25.1c2.3,0,3.5-0.1,5.8-0.1c-0.1,3.3-0.1,5-0.2,8.3c2.6-0.1,3.8-0.1,6.4-0.1
				C268.9,109.4,271.3,110,272.9,111.3z M268,120.8c0.9-0.8,1.3-1.8,1.3-3.3c0.1-2.6-1.5-3.9-4.7-3.8c-2.1,0-3.1,0.1-5.2,0.1
				c-0.1,3.3-0.1,5-0.2,8.3c2.1,0,3.1-0.1,5.2-0.1C266,122,267.2,121.6,268,120.8z M278.7,100.9c2.3-0.1,3.5-0.1,5.8-0.2
				c-0.2,10-0.3,15.1-0.5,25.1c-2.3,0.1-3.5,0.1-5.8,0.2C278.4,115.9,278.5,110.9,278.7,100.9z"/>
			<path class="st3" d="M290.8,100.5c8.1-0.2,12.2-0.4,20.3-0.6c0,1.9-0.1,2.8-0.1,4.6c-5.8,0.2-8.7,0.3-14.5,0.4
				c0,2.1-0.1,3.1-0.1,5.2c2.8-0.1,4.2-0.1,7-0.2c3-0.1,5.3,0.5,6.9,1.7c1.6,1.2,2.3,3,2.3,5.4c-0.1,2.5-1,4.5-2.8,5.9
				c-1.8,1.4-4.3,2.2-7.5,2.3c-4.8,0.1-7.2,0.2-11.9,0.4C290.5,115.6,290.6,110.6,290.8,100.5z M302,121c1.5,0,2.6-0.4,3.4-1
				c0.8-0.6,1.2-1.5,1.2-2.6c0-2.2-1.5-3.3-4.5-3.2c-2.3,0.1-3.5,0.1-5.8,0.2c-0.1,2.7-0.1,4-0.1,6.7
				C298.5,121.1,299.6,121.1,302,121z"/>
			<path class="st3" d="M333.9,100.3c1.6,0.7,2.9,1.7,3.7,3c0.9,1.3,1.3,2.9,1.2,4.8c0,1.8-0.5,3.5-1.4,4.9
				c-0.9,1.4-2.2,2.5-3.9,3.3c-1.7,0.8-3.6,1.2-5.8,1.3c-2,0.1-3,0.1-5.1,0.2c-0.1,2.8-0.1,4.2-0.1,6.9c-2.3,0.1-3.5,0.1-5.8,0.2
				c0.2-10,0.3-15.1,0.5-25.1c4.4-0.1,6.5-0.2,10.9-0.4C330.4,99.3,332.3,99.6,333.9,100.3z M331.6,111.6c0.9-0.8,1.4-1.9,1.4-3.3
				c0-1.4-0.4-2.5-1.3-3.2c-0.9-0.7-2.2-1.1-4-1c-1.9,0.1-2.8,0.1-4.7,0.2c-0.1,3.5-0.1,5.2-0.2,8.7c1.9-0.1,2.8-0.1,4.7-0.2
				C329.3,112.8,330.6,112.3,331.6,111.6z"/>
			<path class="st3" d="M358.3,118c-4.7,0.2-7,0.3-11.7,0.4c-0.9,2.2-1.4,3.3-2.3,5.5c-2.4,0.1-3.6,0.1-6,0.2
				c3.9-8.5,7.8-17,11.7-25.5c2.3-0.1,3.4-0.1,5.7-0.2c4.3,9.9,6.4,14.8,10.7,24.7c-2.4,0.1-3.7,0.1-6.1,0.2
				C359.6,121.2,359.1,120.1,358.3,118z M356.5,113.6c-1.5-3.8-2.3-5.7-3.8-9.5c-1.7,3.9-2.5,5.9-4.2,9.8
				C351.8,113.8,353.4,113.8,356.5,113.6z"/>
			<path class="st3" d="M388.2,101.8c-3.2,0.1-4.8,0.2-8,0.3c-0.2,8.2-0.2,12.2-0.4,20.4c-2.3,0.1-3.4,0.1-5.7,0.2
				c0.2-8.2,0.2-12.2,0.4-20.4c-3.2,0.1-4.8,0.2-8,0.3c0-1.9,0.1-2.8,0.1-4.7c8.7-0.3,13.1-0.5,21.8-0.9
				C388.3,99,388.3,99.9,388.2,101.8z"/>
			<path class="st3" d="M411,106.5c1.6,1.3,2.4,3.3,2.3,6c-0.1,2.8-1,5.1-2.8,6.6c-1.8,1.6-4.4,2.4-7.7,2.5
				c-4.5,0.2-6.8,0.3-11.4,0.5c0.2-10,0.3-15.1,0.5-25.1c2.3-0.1,3.5-0.1,5.8-0.2c-0.1,3.3-0.1,5-0.2,8.3c2.6-0.1,3.8-0.2,6.4-0.3
				C407.1,104.6,409.4,105.2,411,106.5z M406.2,116.1c0.9-0.8,1.3-1.9,1.3-3.3c0.1-2.6-1.5-3.8-4.7-3.7c-2.1,0.1-3.1,0.1-5.2,0.2
				c-0.1,3.3-0.1,5-0.2,8.3c2.1-0.1,3.1-0.1,5.2-0.2C404.1,117.3,405.3,116.8,406.2,116.1z"/>
			<path class="st3" d="M451,94.6c-0.2,10-0.3,15.1-0.5,25.1c-2.3,0.1-3.5,0.1-5.8,0.2c0.2-8.2,0.2-12.2,0.4-20.4
				c-4.5,0.2-6.8,0.3-11.4,0.4c-0.2,8.2-0.2,12.2-0.4,20.4c-2.3,0.1-3.5,0.1-5.8,0.2c0.2-10,0.3-15.1,0.5-25.1
				C437.2,95.1,441.8,95,451,94.6z"/>
			<path class="st3" d="M473.9,94.8c1.6,0.7,2.9,1.7,3.7,3c0.9,1.3,1.3,2.9,1.2,4.8c0,1.8-0.5,3.5-1.4,4.9c-0.9,1.4-2.2,2.5-3.9,3.3
				c-1.7,0.8-3.6,1.2-5.8,1.3c-2,0.1-3,0.1-5.1,0.2c-0.1,2.8-0.1,4.2-0.1,6.9c-2.3,0.1-3.5,0.1-5.8,0.2c0.2-10,0.3-15.1,0.5-25.1
				c4.4-0.2,6.5-0.3,10.9-0.4C470.3,93.9,472.3,94.2,473.9,94.8z M471.5,106.1c0.9-0.8,1.4-1.9,1.4-3.3c0-1.4-0.4-2.5-1.3-3.2
				c-0.9-0.7-2.2-1-4-1c-1.9,0.1-2.8,0.1-4.7,0.2c-0.1,3.5-0.1,5.2-0.2,8.7c1.9-0.1,2.8-0.1,4.7-0.2
				C469.3,107.3,470.6,106.9,471.5,106.1z"/>
			<path class="st3" d="M487.7,117.1c-2.1-1-3.7-2.5-4.8-4.5c-1.1-1.9-1.7-4.1-1.6-6.6c0.1-2.5,0.7-4.7,1.9-6.7c1.2-2,2.9-3.6,5-4.8
				c2.1-1.2,4.5-1.8,7.1-1.9c2.6-0.1,4.9,0.4,7,1.4c2.1,1.1,3.7,2.5,4.8,4.5c1.2,1.9,1.7,4.1,1.7,6.6c-0.1,2.5-0.7,4.7-1.9,6.7
				c-1.2,2-2.9,3.6-5,4.8c-2.1,1.2-4.5,1.8-7.1,1.9C492.1,118.6,489.8,118.1,487.7,117.1z M498.8,112.4c1.2-0.7,2.2-1.7,2.9-2.9
				c0.7-1.2,1.1-2.6,1.1-4.2c0-1.6-0.3-2.9-0.9-4.1c-0.7-1.2-1.6-2.1-2.8-2.8c-1.2-0.6-2.5-0.9-4-0.9c-1.5,0.1-2.8,0.4-4,1.2
				c-1.2,0.7-2.2,1.7-2.9,3c-0.7,1.2-1.1,2.6-1.1,4.2c0,1.6,0.3,2.9,0.9,4.1c0.7,1.2,1.6,2.1,2.8,2.8c1.2,0.6,2.5,0.9,4,0.9
				C496.3,113.5,497.6,113.1,498.8,112.4z"/>
			<path class="st3" d="M539.4,111.9c-2.3,2-5.6,3.1-9.8,3.5c0,1.1,0,1.6-0.1,2.7c-2.1,0.1-3.2,0.1-5.4,0.2c0-1.1,0-1.7,0.1-2.8
				c-4.3-0.1-7.5-1.1-9.7-2.9c-2.2-1.8-3.3-4.4-3.2-7.7c0.1-3.3,1.3-5.9,3.6-7.9c2.3-1.9,5.6-3.1,9.9-3.5c0-1,0-1.5,0.1-2.6
				c2.1-0.1,3.2-0.1,5.4-0.2c0,1,0,1.5-0.1,2.5c4.2,0.1,7.5,1.1,9.7,3c2.2,1.9,3.3,4.4,3.2,7.7C542.9,107.3,541.7,109.9,539.4,111.9
				z M524.4,110.9c0.1-5.2,0.2-7.7,0.3-12.9c-2.6,0.3-4.5,1-5.7,2.1c-1.3,1.1-1.9,2.6-1.9,4.6C516.9,108.5,519.3,110.6,524.4,110.9z
				 M535.4,108.7c1.3-1.1,1.9-2.6,2-4.6c0.1-3.8-2.4-5.9-7.4-6.2c-0.1,5.2-0.2,7.7-0.3,12.9C532.3,110.5,534.2,109.8,535.4,108.7z"
				/>
			<path class="st3" d="M566.6,111.3c0,1.9-0.1,2.8-0.1,4.7c-7.8,0.2-11.7,0.3-19.5,0.5c0.2-10,0.3-15.1,0.5-25.1
				c7.6-0.2,11.4-0.3,19-0.4c0,1.9-0.1,2.8-0.1,4.7c-5.3,0.1-7.9,0.2-13.2,0.3c0,2.2-0.1,3.3-0.1,5.5c4.7-0.1,7-0.2,11.7-0.3
				c0,1.8-0.1,2.7-0.1,4.5c-4.7,0.1-7,0.2-11.7,0.3c0,2.3-0.1,3.5-0.1,5.8C558.4,111.5,561.2,111.5,566.6,111.3z"/>
			<path class="st3" d="M576.1,114.6c-2-1.1-3.6-2.6-4.8-4.5s-1.7-4.2-1.6-6.7c0.1-2.5,0.7-4.7,1.9-6.7c1.2-2,2.9-3.6,5-4.7
				c2.1-1.2,4.4-1.7,7-1.8c2.2,0,4.1,0.3,5.9,1.1c1.7,0.7,3.2,1.8,4.4,3.2c-1.5,1.4-2.3,2.1-3.8,3.5c-1.7-1.9-3.7-2.9-6.3-2.8
				c-1.6,0-3,0.4-4.2,1.1c-1.2,0.7-2.2,1.7-2.9,2.9c-0.7,1.2-1.1,2.6-1.1,4.2c0,1.6,0.3,2.9,0.9,4.1c0.7,1.2,1.6,2.1,2.8,2.8
				c1.2,0.7,2.6,1,4.1,0.9c2.5,0,4.6-1.1,6.4-3.1c1.5,1.4,2.2,2,3.7,3.4c-1.2,1.5-2.7,2.6-4.5,3.4c-1.8,0.8-3.8,1.2-5.9,1.2
				C580.5,116.2,578.2,115.7,576.1,114.6z"/>
			<path class="st3" d="M601.7,114.2c-2-1.1-3.6-2.6-4.8-4.6c-1.1-2-1.7-4.2-1.6-6.7c0.1-2.5,0.7-4.7,1.9-6.7c1.2-2,2.9-3.6,5-4.7
				c2.1-1.1,4.4-1.7,7-1.7c2.2,0,4.1,0.3,5.9,1.1c1.7,0.8,3.2,1.8,4.4,3.3c-1.5,1.4-2.3,2.1-3.8,3.5c-1.7-1.9-3.7-2.9-6.3-2.9
				c-1.6,0-3,0.4-4.2,1.1c-1.2,0.7-2.2,1.7-2.9,2.9c-0.7,1.2-1.1,2.6-1.1,4.2c0,1.6,0.3,2.9,0.9,4.1c0.7,1.2,1.6,2.2,2.8,2.8
				c1.2,0.7,2.6,1,4.1,1c2.5,0,4.6-1,6.4-3c1.5,1.4,2.2,2.1,3.7,3.4c-1.2,1.5-2.7,2.6-4.5,3.4c-1.8,0.8-3.8,1.2-5.9,1.2
				C606,115.8,603.7,115.3,601.7,114.2z"/>
			<path class="st3" d="M623.3,90.1c2.3,0,3.5,0,5.8,0c-0.1,6.5-0.2,9.8-0.3,16.4c4.9-6.6,7.4-9.8,12.3-16.4c2.2,0,3.3,0,5.5,0
				c-0.2,10-0.3,15.1-0.5,25.1c-2.3,0-3.4,0-5.7,0c0.1-6.5,0.2-9.8,0.3-16.3c-4.9,6.5-7.4,9.8-12.3,16.3c-2.2,0-3.3,0-5.5,0
				C623,105.2,623.1,100.2,623.3,90.1z"/>
			<path class="st3" d="M681.7,91.7c2,1.2,3.6,2.7,4.7,4.7s1.6,4.2,1.6,6.7c-0.1,2.5-0.7,4.7-1.9,6.6s-2.8,3.5-4.8,4.6
				c-2,1.1-4.3,1.6-6.8,1.6c-2.2,0-4.3-0.5-6.1-1.4c-1.8-0.9-3.4-2.2-4.5-3.8c-1.2-1.6-1.9-3.5-2.2-5.6c-1.3,0-2,0-3.3,0
				c-0.1,4.1-0.1,6.1-0.2,10.2c-2.3,0-3.5,0-5.8,0c0.2-10,0.3-15.1,0.5-25.1c2.3,0,3.5,0,5.8,0c-0.1,3.9-0.1,5.9-0.2,9.9
				c1.3,0,2,0,3.4,0c0.4-2,1.3-3.8,2.5-5.3c1.2-1.6,2.8-2.8,4.6-3.6c1.9-0.8,3.9-1.2,6.1-1.2C677.4,90,679.7,90.6,681.7,91.7z
				 M678.3,110c1.1-0.7,2-1.6,2.7-2.8c0.7-1.2,1-2.6,1.1-4.2c0-1.6-0.3-3-0.9-4.2c-0.6-1.2-1.5-2.2-2.6-2.9s-2.4-1-3.7-1.1
				c-1.4,0-2.7,0.3-3.8,1c-1.1,0.7-2,1.6-2.7,2.8c-0.7,1.2-1,2.6-1.1,4.2c0,1.6,0.3,3,0.9,4.2c0.6,1.2,1.5,2.2,2.6,2.9
				c1.1,0.7,2.4,1,3.7,1.1C675.9,111,677.1,110.7,678.3,110z"/>
		</g>
	</g>
	<g>
		<path class="st2" d="M855.6,89.2c0,2.9-0.3,5.3-0.7,5.3c-0.4,0-0.7-2.4-0.7-5.3s0.3-4.3,0.7-4.3C855.3,84.9,855.6,86.3,855.6,89.2
			z"/>
		<path class="st2" d="M854.1,91c0,2.9-0.3,5.3-0.7,5.3c-0.4,0-0.7-2.4-0.7-5.3s0.3-4.3,0.7-4.3C853.8,86.8,854.1,88.1,854.1,91z"/>
		<path class="st4" d="M842.7,89.2l4.7,2l4.9-1.3l0.3,1.6c0,0-3.2,2.3-4.7,2.3c-1.4,0-5.3-0.5-5.3-0.5S840.8,90,842.7,89.2z"/>
		<path class="st5" d="M839.6,95.8c0,0-3.3-7.9-0.4-9.4c2.9-1.5,9.9,10.3,9.9,10.3L839.6,95.8z"/>
		<path class="st6" d="M834.6,89.3c0,0,2.7-1.5,4.9,1c2.2,2.5,4,9.2,4,9.2l-11-2.5L834.6,89.3z"/>
		<g>
			<polygon class="st7" points="785.1,103.8 776.9,86.5 792.8,84.9 800.6,94.4 			"/>
			<path class="st8" d="M903.4,104.6c1.7-0.2,3.5-0.5,5.2-0.8c3.6-11.3-2.5-25-2.5-25c-1.1,0.1-2.9,0.3-5.2,0.6
				C901.5,80.6,906.7,92.8,903.4,104.6z"/>
			<path class="st7" d="M782.4,97.1l2.7,6.6c22.8-2.3,46,11.3,118.3,0.9c3.3-11.8-1.9-23.9-2.5-25.2c-3.3,0.4-7.8,1.1-13.1,1.8
				c-8.9,1.3-20,2.9-31.6,4.7c0,0,0.2,8.2-10.1,9.2c-10.4,1.1-11.4-6-11.4-6C807.2,93.3,782.4,97.1,782.4,97.1z"/>
			<path class="st9" d="M854.6,81.9L866,63.3c0,0,27.9-8.5,28.8-2.9l-12.4,19.4L855,82.5C854.7,82.6,854.4,82.2,854.6,81.9z"/>
			<polygon class="st9" points="796.2,91.2 779.9,92.9 779.4,96.5 795.5,94.9 			"/>
			<path class="st10" d="M884.3,81.7c1.2-0.2,2.4-0.3,3.5-0.5c5.2-0.8,9.7-1.4,13.1-1.8c2.3-0.3,4.1-0.5,5.2-0.6
				c0,0,3.5,7.9,3.7,16.6l0,0C909.8,95.3,905.5,81.1,884.3,81.7z"/>
			<polygon class="st2" points="870.8,96.9 872.3,96.2 869.3,66.7 867.8,66.9 			"/>
			<path class="st11" d="M785.1,103.7l-0.8-2c18.7-1.8,45.5,6.5,125.2-1.5c-0.2,1.2-0.5,2.5-0.8,3.7c-1.8,0.3-3.5,0.5-5.2,0.8
				C831.1,115,808,101.4,785.1,103.7z"/>
			<polygon class="st2" points="886.4,94.2 888,94.4 885,65.1 883.5,65.3 			"/>
			
				<rect x="887.8" y="100.5" transform="matrix(-0.9949 0.101 -0.101 -0.9949 1783.4111 124.713)" class="st2" width="1.5" height="13.9"/>
			<polygon class="st2" points="886.4,115 887.6,114.3 880.6,101.3 879.1,101.5 			"/>
			<polygon class="st2" points="862.7,85 864,84.9 863.5,80 862.2,80.1 			"/>
			<polygon class="st2" points="879.1,82.6 880.3,82.4 879.8,77.5 878.6,77.6 			"/>
			<circle class="st12" cx="889.4" cy="119.7" r="5.9"/>
			<circle class="st13" cx="889.4" cy="119.7" r="4.2"/>
			<path class="st6" d="M909.1,89.2c0,0,4.1-0.9,4.5,2.3c0.3,3.2-3.8,2.7-3.8,2.7L909.1,89.2z"/>
			<path class="st6" d="M911.5,91.4c0,0,0.8-22.7-2.3-22.4S911.5,91.4,911.5,91.4z"/>
			<path class="st6" d="M911.5,91.5c0,0,5.3,22.1,2.3,22.4S911.5,91.5,911.5,91.5z"/>
			<path class="st9" d="M862.9,103.1l4.4-5.9c0,0,29-5.8,26.7-1.7l-4,4.8L862.9,103.1z"/>
			<path class="st14" d="M867.2,97.2c0,0,29-5.8,26.7-1.7l-0.3,0.4C892.6,93.9,867.2,97.2,867.2,97.2z"/>
			<path class="st14" d="M894.8,60.4l-0.7,1.1l0,0c-0.2-3.5-28.1,1.8-28.1,1.8S893.9,54.8,894.8,60.4z"/>
			<path class="st2" d="M856.2,85.8c0,0,2.4,9.1-8.7,10.2c-13.1,1.3-12.8-6.9-12.8-6.9s1.5,8.2,13.6,5.6
				C856.4,92.9,856.2,85.8,856.2,85.8z"/>
			<path class="st15" d="M886.1,117.1c0,0,2.2,0.2,4,1.7c1.8,1.4,2.5,3.6,2.5,3.6c1.4-1.8,1.2-4.4-0.6-5.8
				C890.2,115.1,887.6,115.3,886.1,117.1z"/>
		</g>
		<path class="st16" d="M852.1,89.6c0,0,1.5-1.9,1.7-0.8s-0.4,3.1-1.7,3.1S852.1,89.6,852.1,89.6z"/>
		<g>
			<path class="st17" d="M835.9,82.8c0,0-0.1,2.1,0.8,3.4c0.6,0.9-0.4,1.7-0.4,1.7l0.2,0.2c0,0,1.3-0.7,0.8-1.6
				c-0.5-0.9,0.2-2.2,0.2-2.2L835.9,82.8z"/>
			<path class="st16" d="M835.9,82.7c0,0,0.9,5.7,3.8,4.9s0.4-6.1,0.4-6.1L835.9,82.7z"/>
			<path class="st17" d="M840,82.5c0,0,0.5,0,0.8,0.9c0.2,0.7,0.4,2.4,0.4,2.4l0.4-0.1c0,0-0.2-2.5-1.2-3.9L840,82.5z"/>
			<path class="st17" d="M836.1,83.7c0,0,2.5-1.4,4.6-1.2c0,0-0.8-2.3-3-1.6C835,81.7,836.1,83.7,836.1,83.7z"/>
			<path class="st17" d="M836.8,85.6c0,0-0.7-1.6-0.3-2.1l-0.4,0l0,0.4l0.5,1.7L836.8,85.6z"/>
			<g>
				<path class="st18" d="M836.2,84.5c-0.1-0.3,0.8-0.9,2.1-1.3c1.2-0.4,2.3-0.4,2.5-0.1c0.1,0.4-0.1,0.8-0.5,1
					c-0.4,0.2-0.9,0.3-1.2,0.3c-0.3-0.1-0.6,0.1-0.8,0.3c-0.2,0.2-0.7,0.4-1.1,0.4C836.8,85.1,836.4,84.8,836.2,84.5z"/>
			</g>
			<g>
				<path class="st19" d="M836.5,84.5c-0.1-0.3,0.8-0.8,1.9-1.1c1.1-0.4,2.1-0.4,2.2-0.1s-0.1,0.7-0.4,0.9c-0.3,0.2-0.8,0.3-1,0.2
					c-0.2,0-0.6,0.1-0.7,0.2c-0.2,0.2-0.6,0.3-1,0.4C837,85,836.6,84.8,836.5,84.5z"/>
			</g>
		</g>
		<path class="st2" d="M841,76.5"/>
		<path class="st16" d="M842.2,76.2c0,0-0.2-2.6-1.4-2.7c-1.2-0.1,0.2,3,0.2,3L842.2,76.2z"/>
		<path class="st5" d="M838.9,87.7c2-0.9,2.5-3.5,3.1-5.8l-1.1-5.3l1.2-0.5c0,0,2.1,4.8,2.1,5.9c0,1.9-1.7,7.6-1.7,7.6L838.9,87.7z"
			/>
		<path class="st16" d="M841,76.5c0,0-1.5-1.1-0.9-1.5S841,76.5,841,76.5z"/>
	</g>
</g>
</svg>
