<svg xmlns="http://www.w3.org/2000/svg" id="B8" x="0" y="0" version="1.1" viewBox="0 0 967.7 186.8" xml:space="preserve"><style>.st2{fill:#333}.st3{fill:#fff}.st5{fill:#736357}.st6{fill:#b13b1c}.st7{fill:#58838b}.st9{fill:#426268}.st14{fill:#679aa3}.st16{fill:#d19971}.st17{fill:#736342}</style><path fill="none" stroke="#534741" stroke-miterlimit="10" stroke-width="1.1" d="M713.4 71.6l79.4 22.1-79.4 26.1"/><path fill="#ff882a" d="M720.3 58s-98-19.9-335.3-1.5C248 67.2 56.4 54 56.4 54l45.3 40-42.8 39.8s136.2 16.4 318.4 3.1c183.3-13.4 343.1-2.3 343.1-2.3l-.1-76.6z"/><path d="M228.7 69.5h2.8l-.4 21.6h-2.8l.3-16.6-11 16.8h-2.9l.4-21.6h2.9l-.3 16.6 11-16.8zM249 90.8l-2.7.1.1-6.8-7.4.1-.1 6.8h-2.8l.3-16h2.8l-.1 7 7.4-.1.1-7 2.7-.1-.3 16zM265.6 76.6l-5.4.1-.3 13.8-2.7.1.3-13.8-5.3.1v-2.2l13.4-.3v2.2zM273.4 90.5c-2.2.1-3.9-.6-5.3-2a7.6 7.6 0 01-1.9-5.7v-.5c0-1.6.4-3 1-4.3a7 7 0 016.2-4.1c2.1-.1 3.7.6 4.8 1.9 1.1 1.3 1.7 3.3 1.6 5.9v1.1l-10.9.3c0 1.6.4 2.8 1.3 3.8s2 1.4 3.3 1.4a4 4 0 002.5-.7c.7-.4 1.3-1 1.8-1.6l1.7 1.3a6.8 6.8 0 01-6.1 3.2zm0-14.3c-1.1 0-2 .5-2.8 1.3a6 6 0 00-1.5 3.4l8-.2v-.2c-.1-1.4-.4-2.5-1.1-3.2a2.8 2.8 0 00-2.6-1.1zM296.6 81.8c0 2.4-.6 4.4-1.8 5.9a5.9 5.9 0 01-4.6 2.4c-1.9.1-3.5-.5-4.6-1.7l-.2 7.7-2.7.1.5-22.2 2.5-.1.1 1.8a6 6 0 014.7-2.2 5 5 0 014.5 2c1.1 1.4 1.6 3.4 1.6 6v.3zm-2.7-.2a7 7 0 00-1.1-4.3c-.8-1-1.8-1.5-3.1-1.5-1.7 0-2.9.8-3.8 2.3l-.2 7.7a4 4 0 003.7 2.1c1.3 0 2.4-.6 3.2-1.7.8-1 1.2-2.6 1.3-4.6zM309.9 89.2c-.2-.3-.3-.9-.4-1.7a6 6 0 01-4.6 2.1c-1.6 0-2.9-.4-3.9-1.2s-1.5-2-1.5-3.4c0-1.7.7-3 2-3.9 1.3-1 3.1-1.5 5.4-1.6l2.7-.1v-1.3c0-1-.3-1.7-.8-2.3-.6-.6-1.4-.8-2.5-.8-1 0-1.8.3-2.5.8s-1 1.1-1 1.8l-2.8.1c0-.8.3-1.6.9-2.3.6-.8 1.4-1.4 2.4-1.8 1-.5 2.1-.7 3.2-.8 1.8-.1 3.3.4 4.3 1.2 1 .9 1.5 2.1 1.6 3.8l-.1 7.4c0 1.5.1 2.6.5 3.5v.2c-1.2.3-1.8.3-2.9.3zm-4.6-1.9c.9 0 1.7-.3 2.5-.7.8-.5 1.4-1.1 1.7-1.8l.1-3.3-2.2.1c-3.4.1-5.1 1.1-5.1 3.1 0 .9.3 1.5.8 2 .6.4 1.3.6 2.2.6zM328.4 74.8l-5.4.2-.3 13.8-2.7.1.3-13.8-5.3.2v-2.2l13.4-.4v2.1zM341.5 72.1l2.7-.1-.3 16-2.7.1.2-11.7-7.6 12-2.7.1.3-16 2.7-.1-.2 11.7a796 796 0 007.6-12zM348.6 87.9l.3-16 6.3-.2c2.1-.1 3.8.2 4.9.9 1.1.7 1.7 1.8 1.6 3.2 0 .7-.3 1.4-.7 2-.5.6-1.1 1.1-2 1.4 1 .2 1.7.6 2.3 1.2.6.6.9 1.4.8 2.3a4 4 0 01-1.7 3.4 7.6 7.6 0 01-4.6 1.3c-2.8.3-4.3.4-7.2.5zm3-9.4l3.5-.1c2.6-.1 3.9-.9 3.9-2.4s-1.2-2.2-3.6-2.2l-3.8.1v4.6zm-.1 2.2l-.1 4.8 4.5-.2c1.1 0 2-.3 2.6-.7.6-.4.9-1.1.9-1.8 0-1.6-1.1-2.4-3.5-2.3l-4.4.2zM378.9 86.7l-2.7.1.1-6.8-7.4.3-.1 6.8-2.8.1.3-16 2.8-.1-.1 7 7.4-.3.1-7 2.7-.1-.3 16zM393.2 86.2c-.2-.3-.3-.9-.4-1.7a6.5 6.5 0 01-4.6 2.2c-1.6.1-2.9-.3-3.9-1.2-1-.9-1.5-2-1.5-3.3 0-1.7.7-3 2-4s3.1-1.5 5.4-1.6l2.7-.1v-1.3c0-1-.3-1.7-.8-2.3-.6-.5-1.4-.8-2.5-.8-1 0-1.8.3-2.5.8s-1 1.1-1 1.8l-2.8.1c0-.8.3-1.6.9-2.4.6-.8 1.4-1.4 2.4-1.9s2.1-.7 3.2-.8c1.8-.1 3.3.3 4.3 1.2 1 .9 1.5 2.1 1.6 3.8l-.2 7.4c0 1.5.1 2.6.5 3.5v.2c-1.1.3-1.7.3-2.8.4zm-4.5-2c.9 0 1.7-.3 2.5-.8s1.4-1.1 1.7-1.8l.1-3.3-2.2.1c-3.4.1-5.1 1.2-5.1 3.2 0 .9.3 1.5.8 2s1.3.7 2.2.6zM412.4 69.4l-.3 16-2.8.1.1-6.2-4.1.2-3.9 6.4-3 .1 4.2-6.8c-1-.3-1.8-.9-2.3-1.6a5 5 0 01-.8-2.7c0-1.5.6-2.7 1.7-3.6s2.6-1.4 4.4-1.5c2.7-.3 4.1-.3 6.8-.4zm-10.1 5.3c0 .8.2 1.4.8 1.9.5.5 1.2.7 2.1.6l4.4-.2.1-5.3-3.9.2c-1 0-1.8.3-2.4.8-.8.5-1.1 1.2-1.1 2zM434.7 68.5l2.7-.1-.3 16-2.7.1.2-11.7-7.6 12-2.7.1.3-16 2.7-.1-.2 11.7 7.6-12zM452.2 70l-7.4.3-.3 13.8-2.8.1.3-16 10.2-.4V70zM468 75.4c0 2.4-.6 4.4-1.8 6a5.9 5.9 0 01-4.6 2.4c-1.9.1-3.5-.5-4.6-1.7l-.2 7.7-2.7.1.5-22.2 2.5-.1.1 1.8a6.1 6.1 0 014.7-2.3 5 5 0 014.5 2c1.1 1.4 1.6 3.4 1.6 6v.3zm-2.7-.3c0-1.8-.3-3.2-1.1-4.2s-1.8-1.5-3.1-1.4c-1.7.1-2.9.8-3.8 2.4l-.2 7.7c.8 1.4 2 2.1 3.7 2 1.3-.1 2.4-.6 3.2-1.7a8.9 8.9 0 001.3-4.8zM481.3 82.7c-.2-.3-.3-.9-.4-1.7a6.5 6.5 0 01-4.6 2.2c-1.6.1-2.9-.3-3.9-1.2-1-.9-1.5-2-1.5-3.3 0-1.7.7-3 2-4s3.1-1.5 5.4-1.6l2.7-.1v-1.3c0-1-.3-1.7-.8-2.3s-1.4-.8-2.5-.8c-1 0-1.8.3-2.5.8s-1 1.1-1 1.8l-2.8.1c0-.8.3-1.6.9-2.4.6-.8 1.4-1.4 2.4-1.9s2.1-.7 3.2-.8c1.9-.1 3.3.3 4.3 1.2 1 .9 1.5 2.1 1.6 3.8l-.2 7.4c0 1.5.1 2.6.5 3.5v.2a9 9 0 01-2.8.4zm-4.6-1.9c.9 0 1.7-.3 2.5-.8s1.4-1.1 1.7-1.8l.1-3.3-2.2.1c-3.4.1-5.1 1.2-5.1 3.1 0 .9.3 1.5.8 2 .6.5 1.3.7 2.2.7zM493.8 74.2l-7.2.3v-2.2l7.2-.3v2.2zM501.9 71.8l3.7-6 3.2-.1-5.4 8.1 5.3 7.9-3.2.1-3.6-5.9-3.8 6.1-3.2.1 5.6-8.3-5.1-7.7 3.2-.1c1.2 2.4 1.9 3.5 3.3 5.8zM510.5 73.5c0-1.6.4-3 1-4.3a7 7 0 016.4-4.1c2.2-.1 3.9.6 5.3 2.1 1.3 1.5 2 3.5 1.9 6v.2c0 1.6-.4 3-1 4.2a7 7 0 01-2.6 3 8.1 8.1 0 01-3.9 1.2 6 6 0 01-5.2-2.1 8 8 0 01-1.9-5.9v-.3zm2.7.3c0 1.8.3 3.2 1.2 4.2a3.5 3.5 0 003.3 1.5c1.4 0 2.5-.6 3.4-1.7a7.8 7.8 0 001.3-4.6c0-1.8-.4-3.2-1.2-4.2a3.5 3.5 0 00-3.3-1.5c-1.4 0-2.5.6-3.3 1.7-.9 1-1.3 2.6-1.4 4.6zM527.2 78.9l1-1.2c1.1-1.4 1.7-3.5 2-6.3l.4-6.4 10.3-.3-.3 13.8 2.1-.1-.1 7-2.7.1.1-4.7-11.2.3-.1 4.7-2.7.1.2-7h1zm3.3-.1l7.4-.2.2-11.3-4.9.1-.2 3.8c-.4 3.3-1.2 5.8-2.5 7.6zM556.3 64.4l2.7-.1-.3 16-2.7.1.2-11.7-7.6 11.9-2.7.1.3-16 2.7-.1-.2 11.7 7.6-11.9zM576.7 63.9l-.3 16-2.8.1.3-13.8-5.5.1-.4 6c-.2 2.8-.7 4.7-1.5 5.9-.8 1.2-2 1.8-3.6 1.9h-1.1v-2.4l.8-.1c.9-.1 1.5-.6 1.9-1.6.4-.9.7-2.7.8-5.2l.4-6.9h11zM585.9 73h-2l-.1 6.8H581l.3-16h2.8l-.1 6.8h1.8l5.5-6.9h3.3l-6.5 7.8 6.7 8.2h-3.5l-5.4-6.7zM607 79.5c-.2-.3-.3-.9-.4-1.7a6.3 6.3 0 01-4.6 2c-1.6 0-2.9-.4-3.9-1.3s-1.5-2-1.5-3.4c0-1.7.7-3 2-3.9a9.4 9.4 0 015.4-1.4h2.7v-1.3c0-1-.3-1.7-.8-2.3-.6-.6-1.4-.8-2.5-.8-1 0-1.8.3-2.5.8s-1 1.1-1 1.8h-2.8c0-.8.3-1.6.9-2.3.6-.8 1.4-1.4 2.3-1.8 1-.4 2.1-.7 3.2-.7 1.8 0 3.3.4 4.3 1.3s1.5 2.2 1.6 3.8l-.2 7.4c0 1.5.1 2.6.5 3.5v.2l-2.7.1zm-4.5-2c.9 0 1.7-.2 2.5-.7.8-.5 1.4-1 1.7-1.8l.1-3.3h-2.2c-3.4 0-5.1 1-5.1 3 0 .9.3 1.5.8 2 .6.5 1.3.8 2.2.8z" class="st2"/><path d="M146.2 116.8l-4-.1-.2 10.1-5.8-.1.5-25.1 5.8.1-.2 10.2 4.2.1 6.8-10.1 6.1.1-8.5 12 8.2 13.1-6.6-.1-6.3-10.2z" class="st3"/><path d="M178.5 121.9l-11.7-.1-2.3 5.4-6-.1 11.7-25h5.7l10.7 25.1h-6.1l-2-5.3zm-1.7-4.4l-3.8-9.6-4.2 9.6h8zM200 117.1h-4l-.2 10.1H190l.5-25.1h5.8l-.2 10.2h4.2l6.8-10.2h6.1l-8.5 12.2 8.2 12.9-6.6.1-6.3-10.2zM247.8 115.8c.8 1 1.2 2.3 1.1 3.8a6 6 0 01-2.6 5.2 12.4 12.4 0 01-7.3 2l-12.4.2.5-25.1 11.7-.2c2.9 0 5.2.5 6.8 1.6a5.2 5.2 0 012.3 4.8 6.2 6.2 0 01-3.7 5.6c1.6.4 2.8 1.1 3.6 2.1zm-15.1-3.6l5.4-.1c1.3 0 2.2-.3 2.9-.8.7-.5 1-1.3 1-2.3 0-1-.3-1.7-.9-2.2a4 4 0 00-2.8-.7l-5.4.1-.2 6zm10.3 7c0-2.1-1.3-3.1-4-3.1l-6.4.1-.1 6.4 6.4-.1c2.7 0 4.1-1.1 4.1-3.3zM272.9 111.3c1.6 1.3 2.4 3.3 2.3 6-.1 2.8-1 5-2.8 6.6a12.4 12.4 0 01-7.7 2.4l-11.3.2.5-25.1 5.8-.1-.2 8.3 6.4-.1c3-.1 5.4.5 7 1.8zm-4.9 9.5c.9-.8 1.3-1.8 1.3-3.3.1-2.6-1.5-3.9-4.7-3.8l-5.2.1-.2 8.3 5.2-.1c1.6 0 2.8-.4 3.6-1.2zm10.7-19.9l5.8-.2-.5 25.1-5.8.2.5-25.1zM290.8 100.5l20.3-.6-.1 4.6-14.5.4-.1 5.2 7-.2c3-.1 5.3.5 6.9 1.7 1.6 1.2 2.3 3 2.3 5.4-.1 2.5-1 4.5-2.8 5.9a12.6 12.6 0 01-7.5 2.3l-11.9.4.4-25.1zM302 121c1.5 0 2.6-.4 3.4-1a3 3 0 001.2-2.6c0-2.2-1.5-3.3-4.5-3.2l-5.8.2-.1 6.7 5.8-.1zM333.9 100.3a8 8 0 013.7 3 7.5 7.5 0 011.2 4.8 9 9 0 01-1.4 4.9 9.1 9.1 0 01-3.9 3.3 15 15 0 01-5.8 1.3l-5.1.2-.1 6.9-5.8.2.5-25.1 10.9-.4c2.3-.1 4.2.2 5.8.9zm-2.3 11.3c.9-.8 1.4-1.9 1.4-3.3s-.4-2.5-1.3-3.2a5.8 5.8 0 00-4-1l-4.7.2-.2 8.7 4.7-.2c1.8 0 3.1-.5 4.1-1.2zM358.3 118l-11.7.4-2.3 5.5-6 .2L350 98.6l5.7-.2 10.7 24.7-6.1.2-2-5.3zm-1.8-4.4l-3.8-9.5-4.2 9.8 8-.3zM388.2 101.8l-8 .3-.4 20.4-5.7.2.4-20.4-8 .3.1-4.7 21.8-.9-.2 4.8zM411 106.5c1.6 1.3 2.4 3.3 2.3 6-.1 2.8-1 5.1-2.8 6.6a11.8 11.8 0 01-7.7 2.5l-11.4.5.5-25.1 5.8-.2-.2 8.3 6.4-.3c3.2-.2 5.5.4 7.1 1.7zm-4.8 9.6c.9-.8 1.3-1.9 1.3-3.3.1-2.6-1.5-3.8-4.7-3.7l-5.2.2-.2 8.3 5.2-.2c1.5-.1 2.7-.6 3.6-1.3zM451 94.6l-.5 25.1-5.8.2.4-20.4-11.4.4-.4 20.4-5.8.2.5-25.1 23-.8zM473.9 94.8a8 8 0 013.7 3 7.5 7.5 0 011.2 4.8 9 9 0 01-1.4 4.9 9.1 9.1 0 01-3.9 3.3 15 15 0 01-5.8 1.3l-5.1.2-.1 6.9-5.8.2.5-25.1 10.9-.4c2.2 0 4.2.3 5.8.9zm-2.4 11.3c.9-.8 1.4-1.9 1.4-3.3s-.4-2.5-1.3-3.2c-.9-.7-2.2-1-4-1l-4.7.2-.2 8.7 4.7-.2c1.9 0 3.2-.4 4.1-1.2zM487.7 117.1c-2.1-1-3.7-2.5-4.8-4.5a13.8 13.8 0 01.3-13.3c1.2-2 2.9-3.6 5-4.8 2.1-1.2 4.5-1.8 7.1-1.9 2.6-.1 4.9.4 7 1.4a12 12 0 016.5 11.1c-.1 2.5-.7 4.7-1.9 6.7s-2.9 3.6-5 4.8a15.3 15.3 0 01-7.1 1.9c-2.7.1-5-.4-7.1-1.4zm11.1-4.7a8 8 0 004-7.1c0-1.6-.3-2.9-.9-4.1a7.5 7.5 0 00-2.8-2.8 8.7 8.7 0 00-4-.9c-1.5.1-2.8.4-4 1.2a7.6 7.6 0 00-2.9 3 8.2 8.2 0 00-1.1 4.2c0 1.6.3 2.9.9 4.1a7.5 7.5 0 002.8 2.8c1.2.6 2.5.9 4 .9 1.5-.2 2.8-.6 4-1.3zM539.4 111.9a17 17 0 01-9.8 3.5l-.1 2.7-5.4.2.1-2.8c-4.3-.1-7.5-1.1-9.7-2.9a9 9 0 01-3.2-7.7c.1-3.3 1.3-5.9 3.6-7.9 2.3-1.9 5.6-3.1 9.9-3.5l.1-2.6 5.4-.2-.1 2.5c4.2.1 7.5 1.1 9.7 3a9.2 9.2 0 013.2 7.7c-.2 3.4-1.4 6-3.7 8zm-15-1l.3-12.9a10 10 0 00-5.7 2.1c-1.3 1.1-1.9 2.6-1.9 4.6-.2 3.8 2.2 5.9 7.3 6.2zm11-2.2c1.3-1.1 1.9-2.6 2-4.6.1-3.8-2.4-5.9-7.4-6.2l-.3 12.9a10 10 0 005.7-2.1zM566.6 111.3l-.1 4.7-19.5.5.5-25.1 19-.4-.1 4.7-13.2.3-.1 5.5 11.7-.3-.1 4.5-11.7.3-.1 5.8 13.7-.5zM576.1 114.6c-2-1.1-3.6-2.6-4.8-4.5s-1.7-4.2-1.6-6.7c.1-2.5.7-4.7 1.9-6.7s2.9-3.6 5-4.7c2.1-1.2 4.4-1.7 7-1.8 2.2 0 4.1.3 5.9 1.1 1.7.7 3.2 1.8 4.4 3.2l-3.8 3.5a7.6 7.6 0 00-6.3-2.8 8.2 8.2 0 00-7.1 4 8.2 8.2 0 00-1.1 4.2c0 1.6.3 2.9.9 4.1a7.5 7.5 0 002.8 2.8c1.2.7 2.6 1 4.1.9 2.5 0 4.6-1.1 6.4-3.1l3.7 3.4a11.7 11.7 0 01-4.5 3.4c-1.8.8-3.8 1.2-5.9 1.2-2.6.1-4.9-.4-7-1.5zM601.7 114.2c-2-1.1-3.6-2.6-4.8-4.6a13.8 13.8 0 01.3-13.4c1.2-2 2.9-3.6 5-4.7s4.4-1.7 7-1.7c2.2 0 4.1.3 5.9 1.1 1.7.8 3.2 1.8 4.4 3.3l-3.8 3.5a8 8 0 00-6.3-2.9 8.2 8.2 0 00-7.1 4 8.2 8.2 0 00-1.1 4.2c0 1.6.3 2.9.9 4.1a6.9 6.9 0 002.8 2.8 8 8 0 004.1 1c2.5 0 4.6-1 6.4-3l3.7 3.4a11.7 11.7 0 01-4.5 3.4 15.4 15.4 0 01-12.9-.5zM623.3 90.1h5.8l-.3 16.4 12.3-16.4h5.5l-.5 25.1h-5.7l.3-16.3-12.3 16.3h-5.5l.4-25.1zM681.7 91.7a12.5 12.5 0 016.3 11.4 13 13 0 01-6.7 11.2 14 14 0 01-6.8 1.6c-2.2 0-4.3-.5-6.1-1.4a12 12 0 01-6.7-9.4h-3.3l-.2 10.2h-5.8l.5-25.1h5.8l-.2 9.9h3.4a12.4 12.4 0 017.1-8.9c1.9-.8 3.9-1.2 6.1-1.2 2.3 0 4.6.6 6.6 1.7zm-3.4 18.3a8 8 0 003.8-7c0-1.6-.3-3-.9-4.2-.6-1.2-1.5-2.2-2.6-2.9s-2.4-1-3.7-1.1a7 7 0 00-3.8 1 8 8 0 00-3.8 7c0 1.6.3 3 .9 4.2a7.3 7.3 0 002.6 2.9 7.2 7.2 0 007.5.1z" class="st3"/><g><path d="M855.6 89.2c0 2.9-.3 5.3-.7 5.3-.4 0-.7-2.4-.7-5.3s.3-4.3.7-4.3c.4 0 .7 1.4.7 4.3zM854.1 91c0 2.9-.3 5.3-.7 5.3-.4 0-.7-2.4-.7-5.3s.3-4.3.7-4.3c.4.1.7 1.4.7 4.3z" class="st2"/><path fill="#63564b" d="M842.7 89.2l4.7 2 4.9-1.3.3 1.6s-3.2 2.3-4.7 2.3c-1.4 0-5.3-.5-5.3-.5s-1.8-3.3.1-4.1z"/><path d="M839.6 95.8s-3.3-7.9-.4-9.4 9.9 10.3 9.9 10.3l-9.5-.9z" class="st5"/><path d="M834.6 89.3s2.7-1.5 4.9 1 4 9.2 4 9.2l-11-2.5 2.1-7.7z" class="st6"/><path d="M785.1 103.8l-8.2-17.3 15.9-1.6 7.8 9.5z" class="st7"/><path fill="#243538" d="M903.4 104.6l5.2-.8c3.6-11.3-2.5-25-2.5-25l-5.2.6c.6 1.2 5.8 13.4 2.5 25.2z"/><path d="M782.4 97.1l2.7 6.6c22.8-2.3 46 11.3 118.3.9a40.7 40.7 0 00-2.5-25.2l-13.1 1.8-31.6 4.7s.2 8.2-10.1 9.2c-10.4 1.1-11.4-6-11.4-6l-52.3 8z" class="st7"/><path d="M854.6 81.9L866 63.3s27.9-8.5 28.8-2.9l-12.4 19.4-27.4 2.7c-.3.1-.6-.3-.4-.6zM796.2 91.2l-16.3 1.7-.5 3.6 16.1-1.6z" class="st9"/><path fill="#fff" d="M884.3 81.7l3.5-.5a381.2 381.2 0 0118.3-2.4s3.5 7.9 3.7 16.6c0-.1-4.3-14.3-25.5-13.7z" opacity=".2"/><path d="M870.8 96.9l1.5-.7-3-29.5-1.5.2z" class="st2"/><path d="M785.1 103.7l-.8-2c18.7-1.8 45.5 6.5 125.2-1.5l-.8 3.7-5.2.8c-72.4 10.3-95.5-3.3-118.4-1z" opacity=".3"/><path d="M886.4 94.2l1.6.2-3-29.3-1.5.2z" class="st2"/><path d="M887.8 100.5h1.5v13.9h-1.5z" class="st2" transform="rotate(174.2 888.5 107.5)"/><path d="M886.4 115l1.2-.7-7-13-1.5.2zM862.7 85l1.3-.1-.5-4.9-1.3.1zM879.1 82.6l1.2-.2-.5-4.9-1.2.1z" class="st2"/><circle cx="889.4" cy="119.7" r="5.9" fill="#1f1f1f"/><circle cx="889.4" cy="119.7" r="4.2" fill="gray"/><path d="M909.1 89.2s4.1-.9 4.5 2.3c.3 3.2-3.8 2.7-3.8 2.7l-.7-5z" class="st6"/><path d="M911.5 91.4s.8-22.7-2.3-22.4 2.3 22.4 2.3 22.4zM911.5 91.5s5.3 22.1 2.3 22.4-2.3-22.4-2.3-22.4z" class="st6"/><path d="M862.9 103.1l4.4-5.9s29-5.8 26.7-1.7l-4 4.8-27.1 2.8z" class="st9"/><path d="M867.2 97.2s29-5.8 26.7-1.7l-.3.4c-1-2-26.4 1.3-26.4 1.3zM894.8 60.4l-.7 1.1c-.2-3.5-28.1 1.8-28.1 1.8s27.9-8.5 28.8-2.9z" class="st14"/><path d="M856.2 85.8s2.4 9.1-8.7 10.2c-13.1 1.3-12.8-6.9-12.8-6.9s1.5 8.2 13.6 5.6c8.1-1.8 7.9-8.9 7.9-8.9z" class="st2"/><path fill="#999" d="M886.1 117.1s2.2.2 4 1.7c1.8 1.4 2.5 3.6 2.5 3.6a4.1 4.1 0 00-.6-5.8 4.1 4.1 0 00-5.9.5z"/><path d="M852.1 89.6s1.5-1.9 1.7-.8-.4 3.1-1.7 3.1 0-2.3 0-2.3z" class="st16"/><g><path d="M835.9 82.8s-.1 2.1.8 3.4c.6.9-.4 1.7-.4 1.7l.2.2s1.3-.7.8-1.6c-.5-.9.2-2.2.2-2.2l-1.6-1.5z" class="st17"/><path d="M835.9 82.7s.9 5.7 3.8 4.9.4-6.1.4-6.1l-4.2 1.2z" class="st16"/><path d="M840 82.5s.5 0 .8.9l.4 2.4.4-.1s-.2-2.5-1.2-3.9l-.4.7z" class="st17"/><path d="M836.1 83.7s2.5-1.4 4.6-1.2c0 0-.8-2.3-3-1.6-2.7.8-1.6 2.8-1.6 2.8z" class="st17"/><path d="M836.8 85.6s-.7-1.6-.3-2.1h-.4v.4l.5 1.7h.2z" class="st17"/><path fill="#695a3c" d="M836.2 84.5c-.1-.3.8-.9 2.1-1.3 1.2-.4 2.3-.4 2.5-.1.1.4-.1.8-.5 1a3 3 0 01-1.2.3c-.3-.1-.6.1-.8.3-.2.2-.7.4-1.1.4-.4 0-.8-.3-1-.6z"/><path fill="#73959c" d="M836.5 84.5c-.1-.3.8-.8 1.9-1.1 1.1-.4 2.1-.4 2.2-.1s-.1.7-.4.9c-.3.2-.8.3-1 .2l-.7.2c-.2.2-.6.3-1 .4-.5 0-.9-.2-1-.5z"/></g><path d="M842.2 76.2s-.2-2.6-1.4-2.7c-1.2-.1.2 3 .2 3l1.2-.3z" class="st16"/><path d="M838.9 87.7c2-.9 2.5-3.5 3.1-5.8l-1.1-5.3 1.2-.5s2.1 4.8 2.1 5.9c0 1.9-1.7 7.6-1.7 7.6l-3.6-1.9z" class="st5"/><path d="M841 76.5s-1.5-1.1-.9-1.5.9 1.5.9 1.5z" class="st16"/></g></svg>