<svg xmlns="http://www.w3.org/2000/svg" viewBox="0 0 841.9 595.3"><defs/><path fill="#FEF804" d="M698.6 281.3l.4.1h.3c.6 0 1.1.7 1.1 1.6 0 .9-.5 1.6-1.1 1.6h-5.8l.3-.1h-2.1v19.3h4v4.2H694.5v20.5h1.1v2.9h-10.3v-2.9h1.2V308h-1.2v-4.2h4.1v-19.3h-7c-.9 0-1.6-.7-1.6-1.6 0-.9.7-1.6 1.6-1.6h16.2m0-5h-16.1c-3.6 0-6.6 3-6.6 6.6 0 3.6 3 6.6 6.6 6.6h2v9.4a5 5 0 00-4.1 4.9v4.2c0 1.2.4 2.4 1.2 3.2v14.1c-.7.9-1.2 2-1.2 3.2v2.9a5 5 0 005 5h10.3a5 5 0 005-5v-2.9c0-1.2-.4-2.3-1.1-3.2v-14.1c.7-.9 1.2-2 1.2-3.2v-4.2a5 5 0 00-4-4.9v-9.4h2.6c3.4 0 6.1-2.9 6.1-6.6 0-3.6-2.6-6.5-5.9-6.6h-1z"/></svg>