<svg xmlns="http://www.w3.org/2000/svg" viewBox="0 0 841.9 595.3"><path fill="#FEF804" d="M328.1 238.5c.6 0 1 .5 1 1.1v5.3h10.1c.3 0 .5.1.7.3l3.3 3.4c.4.4.4 1 0 1.4l-3.3 3.4c-.1.2-.4.3-.7.3h-10.1v20.1c-.1.5-.5 1-.9 1.1h-.2c-.6 0-1-.5-1-1.1v-20.1h-11.2a1 1 0 01-.7-.3l-3.6-3.1c-.4-.4-.5-1.1-.1-1.4l3.6-3.6c.2-.2.5-.3.7-.3h11.2v-5.3c0-.5.4-1 .9-1.1l.3-.1m0-5l-1 .1c-2.9.5-5.1 3-5.1 6v.3h-6.2c-1.6 0-3.1.6-4.2 1.7l-3.6 3.6a6 6 0 00.1 8.5l.3.2 3.5 3a6 6 0 004 1.6h6.2v15.1c0 3.3 2.7 6.1 6 6.1l1.1-.1a6 6 0 005-5.4v-15.7h5.1c1.8 0 3.3-.7 4.4-1.9l3.1-3.2a6 6 0 000-8.4l-3.3-3.3a6.2 6.2 0 00-4.2-1.8h-5.1v-.3a6.2 6.2 0 00-6.1-6.1z"/></svg>