<svg xmlns="http://www.w3.org/2000/svg" viewBox="0 0 469 469"><defs/><path fill="#4caf50" d="M469 7c-2-4-6-7-10-7C45 0 0 172 0 245c0 96 73 160 181 160 137 0 166-130 181-200 15-71 52-136 104-187 3-3 4-7 3-11z"/><path fill="#388e3c" d="M11 469c-6 0-11-4-11-10 0-64 110-267 283-351a11 11 0 1110 19C118 212 21 409 21 459c0 6-4 10-10 10z"/><path d="M181 405C73 405 0 341 0 245 0 172 45 0 459 0a11 11 0 017 18c-53 51-89 115-104 187-15 70-44 200-181 200zM433 22C291 25 21 55 21 245c0 83 65 139 160 139 111 0 141-95 161-184 14-67 45-128 91-178z"/><path d="M11 469c-6 0-11-4-11-10 0-64 110-267 283-351a11 11 0 0110 19C118 212 21 409 21 459c0 6-4 10-10 10z"/></svg>